<svg width="1200" height="650" viewBox="0 0 1200 650" fill="none" xmlns="http://www.w3.org/2000/svg">
<g clip-path="url(#clip0_52_511)">
<rect width="1200" height="650" fill="#101827"/>
<path d="M19.8523 31.125V39H17.8409V25.9091H19.7841V27.9545H19.9545C20.2614 27.2898 20.7273 26.7557 21.3523 26.3523C21.9773 25.9432 22.7841 25.7386 23.7727 25.7386C24.6591 25.7386 25.4347 25.9205 26.0994 26.2841C26.7642 26.642 27.2813 27.1875 27.6506 27.9205C28.0199 28.6477 28.2045 29.5682 28.2045 30.6818V39H26.1932V30.8182C26.1932 29.7898 25.9261 28.9886 25.392 28.4148C24.858 27.8352 24.125 27.5455 23.1932 27.5455C22.5511 27.5455 21.9773 27.6847 21.4716 27.9631C20.9716 28.2415 20.5767 28.6477 20.2869 29.1818C19.9972 29.7159 19.8523 30.3636 19.8523 31.125ZM37.1641 44.1818C36.1925 44.1818 35.3572 44.0568 34.6584 43.8068C33.9595 43.5625 33.3771 43.2386 32.9112 42.8352C32.451 42.4375 32.0845 42.0114 31.8118 41.5568L33.4141 40.4318C33.5959 40.6705 33.826 40.9432 34.1044 41.25C34.3828 41.5625 34.7635 41.8324 35.2464 42.0597C35.7351 42.2926 36.3743 42.4091 37.1641 42.4091C38.2209 42.4091 39.093 42.1534 39.7805 41.642C40.468 41.1307 40.8118 40.3295 40.8118 39.2386V36.5795H40.6413C40.4936 36.8182 40.2834 37.1136 40.0107 37.4659C39.7436 37.8125 39.3572 38.1222 38.8516 38.3949C38.3516 38.6619 37.6754 38.7955 36.8232 38.7955C35.7663 38.7955 34.8175 38.5455 33.9766 38.0455C33.1413 37.5455 32.4794 36.8182 31.9908 35.8636C31.5078 34.9091 31.2663 33.75 31.2663 32.3864C31.2663 31.0455 31.5021 29.8778 31.9737 28.8835C32.4453 27.8835 33.1016 27.1108 33.9425 26.5653C34.7834 26.0142 35.755 25.7386 36.8572 25.7386C37.7095 25.7386 38.3857 25.8807 38.8857 26.1648C39.3913 26.4432 39.7777 26.7614 40.0447 27.1193C40.3175 27.4716 40.5277 27.7614 40.6754 27.9886H40.88V25.9091H42.8232V39.375C42.8232 40.5 42.5675 41.4148 42.0561 42.1193C41.5504 42.8295 40.8686 43.3494 40.0107 43.679C39.1584 44.0142 38.2095 44.1818 37.1641 44.1818ZM37.0959 36.9886C37.9027 36.9886 38.5845 36.804 39.1413 36.4347C39.6982 36.0653 40.1214 35.5341 40.4112 34.8409C40.701 34.1477 40.8459 33.3182 40.8459 32.3523C40.8459 31.4091 40.7038 30.5767 40.4197 29.8551C40.1357 29.1335 39.7152 28.5682 39.1584 28.1591C38.6016 27.75 37.9141 27.5455 37.0959 27.5455C36.2436 27.5455 35.5334 27.7614 34.9652 28.1932C34.4027 28.625 33.9794 29.2045 33.6953 29.9318C33.4169 30.6591 33.2777 31.4659 33.2777 32.3523C33.2777 33.2614 33.4197 34.0653 33.7038 34.7642C33.9936 35.4574 34.4197 36.0028 34.9822 36.4006C35.5504 36.7926 36.255 36.9886 37.0959 36.9886ZM58.2322 21.5455H60.3459V33.1023C60.3459 34.2955 60.0646 35.3608 59.5021 36.2983C58.9453 37.2301 58.1584 37.9659 57.1413 38.5057C56.1243 39.0398 54.9311 39.3068 53.5618 39.3068C52.1925 39.3068 50.9993 39.0398 49.9822 38.5057C48.9652 37.9659 48.1754 37.2301 47.6129 36.2983C47.0561 35.3608 46.7777 34.2955 46.7777 33.1023V21.5455H48.8913V32.9318C48.8913 33.7841 49.0788 34.5426 49.4538 35.2074C49.8288 35.8665 50.3629 36.3864 51.0561 36.767C51.755 37.142 52.5902 37.3295 53.5618 37.3295C54.5334 37.3295 55.3686 37.142 56.0675 36.767C56.7663 36.3864 57.3004 35.8665 57.6697 35.2074C58.0447 34.5426 58.2322 33.7841 58.2322 32.9318V21.5455ZM66.6804 21.5455V39H64.5668V21.5455H66.6804Z" fill="#83D6FA"/>
<g clip-path="url(#clip1_52_511)">
<path d="M1182.65 30.39L1172 38.13L1161.35 30.39C1161.21 30.285 1161.1 30.1375 1161.05 29.9687C1160.99 29.7998 1160.99 29.6183 1161.05 29.45L1162.27 25.67L1164.71 18.16C1164.73 18.0988 1164.77 18.044 1164.82 18C1164.9 17.9276 1165 17.8875 1165.11 17.8875C1165.22 17.8875 1165.32 17.9276 1165.4 18C1165.45 18.0496 1165.49 18.1116 1165.51 18.18L1167.95 25.67H1176.05L1178.49 18.16C1178.51 18.0988 1178.55 18.044 1178.6 18C1178.68 17.9276 1178.78 17.8875 1178.89 17.8875C1179 17.8875 1179.1 17.9276 1179.18 18C1179.23 18.0496 1179.27 18.1116 1179.29 18.18L1181.73 25.69L1183 29.45C1183.05 29.6234 1183.04 29.8086 1182.98 29.9779C1182.92 30.1473 1182.8 30.2918 1182.65 30.39Z" stroke="#334155" stroke-width="2" stroke-linecap="round" stroke-linejoin="round"/>
</g>
<path d="M1200 60H0V62H1200V60Z" fill="#212936" mask="url(#path-1-inside-1_52_511)"/>
<path d="M35.2784 108.438H32.7898C32.7443 108.116 32.6515 107.83 32.5114 107.58C32.3712 107.326 32.1913 107.11 31.9716 106.932C31.7519 106.754 31.4981 106.617 31.2102 106.523C30.9261 106.428 30.6174 106.381 30.2841 106.381C29.6818 106.381 29.1572 106.53 28.7102 106.83C28.2633 107.125 27.9167 107.557 27.6705 108.125C27.4242 108.689 27.3011 109.375 27.3011 110.182C27.3011 111.011 27.4242 111.708 27.6705 112.273C27.9205 112.837 28.2689 113.263 28.7159 113.551C29.1629 113.839 29.6799 113.983 30.267 113.983C30.5966 113.983 30.9015 113.939 31.1818 113.852C31.4659 113.765 31.7178 113.638 31.9375 113.472C32.1572 113.301 32.339 113.095 32.483 112.852C32.6307 112.61 32.733 112.333 32.7898 112.023L35.2784 112.034C35.214 112.568 35.053 113.083 34.7955 113.58C34.5417 114.072 34.1989 114.513 33.767 114.903C33.339 115.29 32.8277 115.597 32.233 115.824C31.642 116.047 30.9735 116.159 30.2273 116.159C29.1894 116.159 28.2614 115.924 27.4432 115.455C26.6288 114.985 25.9848 114.305 25.5114 113.415C25.0417 112.525 24.8068 111.447 24.8068 110.182C24.8068 108.913 25.0455 107.833 25.5227 106.943C26 106.053 26.6477 105.375 27.4659 104.909C28.2841 104.439 29.2045 104.205 30.2273 104.205C30.9015 104.205 31.5265 104.299 32.1023 104.489C32.6818 104.678 33.1951 104.955 33.642 105.318C34.089 105.678 34.4527 106.119 34.733 106.642C35.017 107.165 35.1989 107.763 35.2784 108.438ZM40.9403 116.17C40.0578 116.17 39.2945 115.983 38.6506 115.608C38.0104 115.229 37.5161 114.703 37.1676 114.028C36.8191 113.35 36.6449 112.564 36.6449 111.67C36.6449 110.769 36.8191 109.981 37.1676 109.307C37.5161 108.629 38.0104 108.102 38.6506 107.727C39.2945 107.348 40.0578 107.159 40.9403 107.159C41.8229 107.159 42.5843 107.348 43.2244 107.727C43.8684 108.102 44.3646 108.629 44.7131 109.307C45.0616 109.981 45.2358 110.769 45.2358 111.67C45.2358 112.564 45.0616 113.35 44.7131 114.028C44.3646 114.703 43.8684 115.229 43.2244 115.608C42.5843 115.983 41.8229 116.17 40.9403 116.17ZM40.9517 114.295C41.3532 114.295 41.6884 114.182 41.9574 113.955C42.2263 113.723 42.429 113.409 42.5653 113.011C42.7055 112.614 42.7756 112.161 42.7756 111.653C42.7756 111.146 42.7055 110.693 42.5653 110.295C42.429 109.898 42.2263 109.583 41.9574 109.352C41.6884 109.121 41.3532 109.006 40.9517 109.006C40.5464 109.006 40.2055 109.121 39.929 109.352C39.6563 109.583 39.4498 109.898 39.3097 110.295C39.1733 110.693 39.1051 111.146 39.1051 111.653C39.1051 112.161 39.1733 112.614 39.3097 113.011C39.4498 113.409 39.6563 113.723 39.929 113.955C40.2055 114.182 40.5464 114.295 40.9517 114.295ZM46.8097 116V107.273H49.1165V108.812H49.2188C49.4006 108.301 49.7036 107.898 50.1278 107.602C50.5521 107.307 51.0597 107.159 51.6506 107.159C52.2491 107.159 52.7585 107.309 53.179 107.608C53.5994 107.903 53.8797 108.305 54.0199 108.812H54.1108C54.2888 108.312 54.6108 107.913 55.0767 107.614C55.5464 107.311 56.1013 107.159 56.7415 107.159C57.5559 107.159 58.2169 107.419 58.7244 107.938C59.2358 108.453 59.4915 109.184 59.4915 110.131V116H57.0767V110.608C57.0767 110.123 56.9479 109.759 56.6903 109.517C56.4328 109.275 56.1108 109.153 55.7244 109.153C55.285 109.153 54.9422 109.294 54.696 109.574C54.4498 109.85 54.3267 110.216 54.3267 110.67V116H51.9801V110.557C51.9801 110.129 51.857 109.788 51.6108 109.534C51.3684 109.28 51.0483 109.153 50.6506 109.153C50.3816 109.153 50.1392 109.222 49.9233 109.358C49.7112 109.491 49.5426 109.678 49.4176 109.92C49.2926 110.159 49.2301 110.439 49.2301 110.761V116H46.8097ZM61.4034 119.273V107.273H63.7898V108.739H63.8977C64.0038 108.504 64.1572 108.265 64.358 108.023C64.5625 107.777 64.8277 107.572 65.1534 107.409C65.483 107.242 65.892 107.159 66.3807 107.159C67.017 107.159 67.6042 107.326 68.142 107.659C68.6799 107.989 69.1098 108.487 69.4318 109.153C69.7538 109.816 69.9148 110.648 69.9148 111.648C69.9148 112.621 69.7576 113.443 69.4432 114.114C69.1326 114.78 68.7083 115.286 68.1705 115.631C67.6364 115.972 67.0379 116.142 66.375 116.142C65.9053 116.142 65.5057 116.064 65.1761 115.909C64.8504 115.754 64.5833 115.559 64.375 115.324C64.1667 115.085 64.0076 114.845 63.8977 114.602H63.8239V119.273H61.4034ZM63.7727 111.636C63.7727 112.155 63.8447 112.608 63.9886 112.994C64.1326 113.381 64.3409 113.682 64.6136 113.898C64.8864 114.11 65.2178 114.216 65.608 114.216C66.0019 114.216 66.3352 114.108 66.608 113.892C66.8807 113.672 67.0871 113.369 67.2273 112.983C67.3712 112.593 67.4432 112.144 67.4432 111.636C67.4432 111.133 67.3731 110.689 67.233 110.307C67.0928 109.924 66.8864 109.625 66.6136 109.409C66.3409 109.193 66.0057 109.085 65.608 109.085C65.214 109.085 64.8807 109.189 64.608 109.398C64.339 109.606 64.1326 109.902 63.9886 110.284C63.8447 110.667 63.7727 111.117 63.7727 111.636ZM75.4716 116.17C74.589 116.17 73.8258 115.983 73.1818 115.608C72.5417 115.229 72.0473 114.703 71.6989 114.028C71.3504 113.35 71.1761 112.564 71.1761 111.67C71.1761 110.769 71.3504 109.981 71.6989 109.307C72.0473 108.629 72.5417 108.102 73.1818 107.727C73.8258 107.348 74.589 107.159 75.4716 107.159C76.3542 107.159 77.1155 107.348 77.7557 107.727C78.3996 108.102 78.8958 108.629 79.2443 109.307C79.5928 109.981 79.767 110.769 79.767 111.67C79.767 112.564 79.5928 113.35 79.2443 114.028C78.8958 114.703 78.3996 115.229 77.7557 115.608C77.1155 115.983 76.3542 116.17 75.4716 116.17ZM75.483 114.295C75.8845 114.295 76.2197 114.182 76.4886 113.955C76.7576 113.723 76.9602 113.409 77.0966 113.011C77.2367 112.614 77.3068 112.161 77.3068 111.653C77.3068 111.146 77.2367 110.693 77.0966 110.295C76.9602 109.898 76.7576 109.583 76.4886 109.352C76.2197 109.121 75.8845 109.006 75.483 109.006C75.0777 109.006 74.7367 109.121 74.4602 109.352C74.1875 109.583 73.9811 109.898 73.8409 110.295C73.7045 110.693 73.6364 111.146 73.6364 111.653C73.6364 112.161 73.7045 112.614 73.8409 113.011C73.9811 113.409 74.1875 113.723 74.4602 113.955C74.7367 114.182 75.0777 114.295 75.483 114.295ZM83.7614 110.955V116H81.3409V107.273H83.6477V108.812H83.75C83.9432 108.305 84.267 107.903 84.7216 107.608C85.1761 107.309 85.7273 107.159 86.375 107.159C86.9811 107.159 87.5095 107.292 87.9602 107.557C88.411 107.822 88.7614 108.201 89.0114 108.693C89.2614 109.182 89.3864 109.765 89.3864 110.443V116H86.9659V110.875C86.9697 110.341 86.8333 109.924 86.5568 109.625C86.2803 109.322 85.8996 109.17 85.4148 109.17C85.089 109.17 84.8011 109.241 84.5511 109.381C84.3049 109.521 84.1117 109.725 83.9716 109.994C83.8352 110.259 83.7652 110.58 83.7614 110.955ZM95.2713 116.17C94.3736 116.17 93.6009 115.989 92.9531 115.625C92.3092 115.258 91.813 114.739 91.4645 114.068C91.116 113.394 90.9418 112.597 90.9418 111.676C90.9418 110.778 91.116 109.991 91.4645 109.312C91.813 108.634 92.3035 108.106 92.9361 107.727C93.5724 107.348 94.3187 107.159 95.1747 107.159C95.7505 107.159 96.2865 107.252 96.7827 107.438C97.2827 107.619 97.7183 107.894 98.0895 108.261C98.4645 108.629 98.7562 109.091 98.9645 109.648C99.1728 110.201 99.277 110.848 99.277 111.591V112.256H91.9077V110.756H96.9986C96.9986 110.407 96.9228 110.098 96.7713 109.83C96.6198 109.561 96.4096 109.35 96.1406 109.199C95.8755 109.044 95.5668 108.966 95.2145 108.966C94.8471 108.966 94.5213 109.051 94.2372 109.222C93.9569 109.388 93.7372 109.614 93.5781 109.898C93.419 110.178 93.3376 110.491 93.3338 110.835V112.261C93.3338 112.693 93.4134 113.066 93.5724 113.381C93.7353 113.695 93.9645 113.938 94.2599 114.108C94.5554 114.278 94.9058 114.364 95.3111 114.364C95.58 114.364 95.8262 114.326 96.0497 114.25C96.2732 114.174 96.4645 114.061 96.6236 113.909C96.7827 113.758 96.9039 113.572 96.9872 113.352L99.2259 113.5C99.1122 114.038 98.8793 114.508 98.527 114.909C98.1785 115.307 97.7277 115.617 97.1747 115.841C96.6255 116.061 95.991 116.17 95.2713 116.17ZM103.277 110.955V116H100.857V107.273H103.163V108.812H103.266C103.459 108.305 103.783 107.903 104.237 107.608C104.692 107.309 105.243 107.159 105.891 107.159C106.497 107.159 107.025 107.292 107.476 107.557C107.927 107.822 108.277 108.201 108.527 108.693C108.777 109.182 108.902 109.765 108.902 110.443V116H106.482V110.875C106.485 110.341 106.349 109.924 106.072 109.625C105.796 109.322 105.415 109.17 104.93 109.17C104.605 109.17 104.317 109.241 104.067 109.381C103.821 109.521 103.627 109.725 103.487 109.994C103.351 110.259 103.281 110.58 103.277 110.955ZM115.452 107.273V109.091H110.196V107.273H115.452ZM111.389 105.182H113.81V113.318C113.81 113.542 113.844 113.716 113.912 113.841C113.98 113.962 114.075 114.047 114.196 114.097C114.321 114.146 114.465 114.17 114.628 114.17C114.741 114.17 114.855 114.161 114.969 114.142C115.082 114.119 115.17 114.102 115.23 114.091L115.611 115.892C115.49 115.93 115.319 115.973 115.099 116.023C114.88 116.076 114.613 116.108 114.298 116.119C113.715 116.142 113.204 116.064 112.764 115.886C112.329 115.708 111.99 115.432 111.747 115.057C111.505 114.682 111.385 114.208 111.389 113.636V105.182ZM124.18 109.761L121.964 109.898C121.927 109.708 121.845 109.538 121.72 109.386C121.595 109.231 121.43 109.108 121.226 109.017C121.025 108.922 120.785 108.875 120.504 108.875C120.129 108.875 119.813 108.955 119.555 109.114C119.298 109.269 119.169 109.477 119.169 109.739C119.169 109.947 119.252 110.123 119.419 110.267C119.586 110.411 119.872 110.527 120.277 110.614L121.857 110.932C122.705 111.106 123.338 111.386 123.754 111.773C124.171 112.159 124.379 112.667 124.379 113.295C124.379 113.867 124.211 114.369 123.874 114.801C123.54 115.233 123.082 115.57 122.499 115.812C121.919 116.051 121.25 116.17 120.493 116.17C119.338 116.17 118.417 115.93 117.732 115.449C117.05 114.964 116.65 114.305 116.533 113.472L118.913 113.347C118.985 113.699 119.16 113.968 119.436 114.153C119.713 114.335 120.067 114.426 120.499 114.426C120.923 114.426 121.264 114.345 121.521 114.182C121.783 114.015 121.915 113.801 121.919 113.54C121.915 113.32 121.822 113.14 121.641 113C121.459 112.856 121.179 112.746 120.8 112.67L119.288 112.369C118.436 112.199 117.802 111.903 117.385 111.483C116.972 111.062 116.766 110.527 116.766 109.875C116.766 109.314 116.917 108.831 117.22 108.426C117.527 108.021 117.957 107.708 118.51 107.489C119.067 107.269 119.718 107.159 120.464 107.159C121.567 107.159 122.434 107.392 123.067 107.858C123.703 108.324 124.074 108.958 124.18 109.761Z" fill="white"/>
<rect x="41" y="148.8" width="61" height="10" rx="5" fill="#F8FAFC" fill-opacity="0.2"/>
<path d="M25 171.6V136H23V171.6H25Z" fill="#1E293B" mask="url(#path-6-inside-2_52_511)"/>
<rect x="41" y="184.4" width="61" height="10" rx="5" fill="#F8FAFC" fill-opacity="0.2"/>
<path d="M25 207.2V171.6H23V207.2H25Z" fill="#1E293B" mask="url(#path-9-inside-3_52_511)"/>
<rect x="41" y="220" width="61" height="10" rx="5" fill="#F8FAFC" fill-opacity="0.2"/>
<path d="M25 242.8V207.2H23V242.8H25Z" fill="#1E293B" mask="url(#path-12-inside-4_52_511)"/>
<rect x="41" y="255.6" width="61" height="10" rx="5" fill="#F8FAFC" fill-opacity="0.2"/>
<path d="M25 278.4V242.8H23V278.4H25Z" fill="#1E293B" mask="url(#path-15-inside-5_52_511)"/>
<g clip-path="url(#clip2_52_511)">
<path d="M196.511 104.188C196.392 103.773 196.224 103.406 196.008 103.088C195.792 102.764 195.528 102.491 195.215 102.27C194.909 102.043 194.556 101.869 194.159 101.75C193.767 101.631 193.332 101.571 192.855 101.571C191.963 101.571 191.178 101.793 190.502 102.236C189.832 102.679 189.309 103.324 188.934 104.17C188.559 105.011 188.372 106.04 188.372 107.256C188.372 108.472 188.556 109.506 188.926 110.358C189.295 111.21 189.818 111.861 190.494 112.31C191.17 112.753 191.968 112.974 192.889 112.974C193.724 112.974 194.437 112.827 195.028 112.531C195.624 112.23 196.079 111.807 196.392 111.261C196.71 110.716 196.869 110.071 196.869 109.327L197.619 109.438H193.119V106.659H200.423V108.858C200.423 110.392 200.099 111.71 199.451 112.812C198.803 113.909 197.911 114.756 196.775 115.352C195.639 115.943 194.338 116.239 192.872 116.239C191.235 116.239 189.798 115.878 188.559 115.156C187.32 114.429 186.355 113.398 185.661 112.062C184.974 110.722 184.63 109.131 184.63 107.29C184.63 105.875 184.835 104.614 185.244 103.506C185.659 102.392 186.238 101.449 186.982 100.676C187.727 99.9034 188.593 99.3153 189.582 98.9119C190.57 98.5085 191.642 98.3068 192.795 98.3068C193.784 98.3068 194.704 98.4517 195.556 98.7415C196.409 99.0256 197.164 99.429 197.823 99.9517C198.488 100.474 199.031 101.097 199.451 101.818C199.872 102.534 200.142 103.324 200.261 104.188H196.511ZM209.093 116.256C207.746 116.256 206.587 115.983 205.615 115.438C204.649 114.886 203.905 114.108 203.382 113.102C202.86 112.091 202.598 110.895 202.598 109.514C202.598 108.168 202.86 106.986 203.382 105.969C203.905 104.952 204.641 104.159 205.59 103.591C206.544 103.023 207.664 102.739 208.948 102.739C209.811 102.739 210.615 102.878 211.36 103.156C212.11 103.429 212.763 103.841 213.32 104.392C213.882 104.943 214.32 105.636 214.632 106.472C214.945 107.301 215.101 108.273 215.101 109.386V110.384H204.047V108.134H211.683C211.683 107.611 211.57 107.148 211.343 106.744C211.115 106.341 210.8 106.026 210.396 105.798C209.999 105.565 209.536 105.449 209.007 105.449C208.456 105.449 207.968 105.577 207.541 105.832C207.121 106.082 206.791 106.42 206.553 106.847C206.314 107.267 206.192 107.736 206.186 108.253V110.392C206.186 111.04 206.306 111.599 206.544 112.071C206.789 112.543 207.132 112.906 207.575 113.162C208.019 113.418 208.544 113.545 209.152 113.545C209.556 113.545 209.925 113.489 210.26 113.375C210.595 113.261 210.882 113.091 211.121 112.864C211.36 112.636 211.541 112.358 211.666 112.028L215.024 112.25C214.854 113.057 214.504 113.761 213.976 114.364C213.453 114.96 212.777 115.426 211.948 115.761C211.124 116.091 210.172 116.256 209.093 116.256ZM224.433 102.909V105.636H216.55V102.909H224.433ZM218.34 99.7727H221.97V111.977C221.97 112.312 222.021 112.574 222.124 112.761C222.226 112.943 222.368 113.071 222.55 113.145C222.737 113.219 222.953 113.256 223.198 113.256C223.368 113.256 223.539 113.241 223.709 113.213C223.879 113.179 224.01 113.153 224.101 113.136L224.672 115.838C224.49 115.895 224.235 115.96 223.905 116.034C223.575 116.114 223.175 116.162 222.703 116.179C221.828 116.213 221.061 116.097 220.402 115.83C219.749 115.562 219.24 115.148 218.877 114.585C218.513 114.023 218.334 113.312 218.34 112.455V99.7727ZM243.245 106.642L239.921 106.847C239.865 106.562 239.742 106.307 239.555 106.08C239.367 105.847 239.12 105.662 238.813 105.526C238.512 105.384 238.151 105.312 237.731 105.312C237.169 105.312 236.694 105.432 236.308 105.67C235.921 105.903 235.728 106.216 235.728 106.608C235.728 106.92 235.853 107.185 236.103 107.401C236.353 107.616 236.782 107.79 237.39 107.92L239.759 108.398C241.032 108.659 241.981 109.08 242.606 109.659C243.231 110.239 243.544 111 243.544 111.943C243.544 112.801 243.291 113.554 242.785 114.202C242.285 114.849 241.597 115.355 240.722 115.719C239.853 116.077 238.85 116.256 237.714 116.256C235.981 116.256 234.6 115.895 233.572 115.173C232.549 114.446 231.95 113.457 231.774 112.207L235.345 112.02C235.453 112.548 235.714 112.952 236.129 113.23C236.544 113.503 237.075 113.639 237.722 113.639C238.359 113.639 238.87 113.517 239.257 113.273C239.649 113.023 239.847 112.702 239.853 112.31C239.847 111.98 239.708 111.71 239.436 111.5C239.163 111.284 238.742 111.119 238.174 111.006L235.907 110.554C234.629 110.298 233.677 109.855 233.052 109.224C232.433 108.594 232.123 107.79 232.123 106.812C232.123 105.972 232.35 105.247 232.805 104.639C233.265 104.031 233.91 103.562 234.74 103.233C235.575 102.903 236.552 102.739 237.671 102.739C239.325 102.739 240.626 103.088 241.575 103.787C242.529 104.486 243.086 105.437 243.245 106.642ZM252.793 102.909V105.636H244.909V102.909H252.793ZM246.699 99.7727H250.33V111.977C250.33 112.312 250.381 112.574 250.483 112.761C250.585 112.943 250.727 113.071 250.909 113.145C251.097 113.219 251.313 113.256 251.557 113.256C251.727 113.256 251.898 113.241 252.068 113.213C252.239 113.179 252.369 113.153 252.46 113.136L253.031 115.838C252.85 115.895 252.594 115.96 252.264 116.034C251.935 116.114 251.534 116.162 251.063 116.179C250.188 116.213 249.421 116.097 248.762 115.83C248.108 115.562 247.6 115.148 247.236 114.585C246.872 114.023 246.693 113.312 246.699 112.455V99.7727ZM258.891 116.247C258.056 116.247 257.311 116.102 256.658 115.812C256.004 115.517 255.487 115.082 255.107 114.509C254.732 113.929 254.544 113.207 254.544 112.344C254.544 111.616 254.678 111.006 254.945 110.511C255.212 110.017 255.575 109.619 256.036 109.318C256.496 109.017 257.019 108.79 257.604 108.636C258.195 108.483 258.814 108.375 259.462 108.312C260.223 108.233 260.837 108.159 261.303 108.091C261.769 108.017 262.107 107.909 262.317 107.767C262.527 107.625 262.632 107.415 262.632 107.136V107.085C262.632 106.545 262.462 106.128 262.121 105.832C261.786 105.537 261.308 105.389 260.689 105.389C260.036 105.389 259.516 105.534 259.129 105.824C258.743 106.108 258.487 106.466 258.362 106.898L255.004 106.625C255.175 105.83 255.51 105.142 256.01 104.562C256.51 103.977 257.155 103.528 257.945 103.216C258.74 102.898 259.661 102.739 260.706 102.739C261.433 102.739 262.129 102.824 262.794 102.994C263.465 103.165 264.058 103.429 264.575 103.787C265.098 104.145 265.51 104.605 265.811 105.168C266.112 105.724 266.263 106.392 266.263 107.17V116H262.82V114.185H262.718C262.507 114.594 262.226 114.955 261.874 115.267C261.521 115.574 261.098 115.815 260.604 115.991C260.11 116.162 259.539 116.247 258.891 116.247ZM259.931 113.741C260.465 113.741 260.936 113.636 261.345 113.426C261.754 113.21 262.075 112.92 262.308 112.557C262.541 112.193 262.658 111.781 262.658 111.321V109.932C262.544 110.006 262.388 110.074 262.189 110.136C261.996 110.193 261.777 110.247 261.533 110.298C261.289 110.344 261.044 110.386 260.8 110.426C260.556 110.46 260.334 110.491 260.135 110.52C259.709 110.582 259.337 110.682 259.019 110.818C258.7 110.955 258.453 111.139 258.277 111.372C258.101 111.599 258.013 111.884 258.013 112.224C258.013 112.719 258.192 113.097 258.55 113.358C258.914 113.614 259.374 113.741 259.931 113.741ZM269.08 116V102.909H272.6V105.193H272.736C272.975 104.381 273.375 103.767 273.938 103.352C274.5 102.932 275.148 102.722 275.881 102.722C276.063 102.722 276.259 102.733 276.469 102.756C276.679 102.778 276.864 102.81 277.023 102.849V106.071C276.852 106.02 276.617 105.974 276.316 105.935C276.014 105.895 275.739 105.875 275.489 105.875C274.955 105.875 274.477 105.991 274.057 106.224C273.642 106.452 273.313 106.77 273.068 107.179C272.83 107.588 272.71 108.06 272.71 108.594V116H269.08ZM286.519 102.909V105.636H278.636V102.909H286.519ZM280.426 99.7727H284.056V111.977C284.056 112.312 284.107 112.574 284.21 112.761C284.312 112.943 284.454 113.071 284.636 113.145C284.823 113.219 285.039 113.256 285.284 113.256C285.454 113.256 285.624 113.241 285.795 113.213C285.965 113.179 286.096 113.153 286.187 113.136L286.758 115.838C286.576 115.895 286.32 115.96 285.991 116.034C285.661 116.114 285.261 116.162 284.789 116.179C283.914 116.213 283.147 116.097 282.488 115.83C281.835 115.562 281.326 115.148 280.963 114.585C280.599 114.023 280.42 113.312 280.426 112.455V99.7727ZM294.71 116.256C293.363 116.256 292.204 115.983 291.232 115.438C290.267 114.886 289.522 114.108 288.999 113.102C288.477 112.091 288.215 110.895 288.215 109.514C288.215 108.168 288.477 106.986 288.999 105.969C289.522 104.952 290.258 104.159 291.207 103.591C292.161 103.023 293.281 102.739 294.565 102.739C295.428 102.739 296.232 102.878 296.977 103.156C297.727 103.429 298.38 103.841 298.937 104.392C299.499 104.943 299.937 105.636 300.249 106.472C300.562 107.301 300.718 108.273 300.718 109.386V110.384H289.664V108.134H297.301C297.301 107.611 297.187 107.148 296.96 106.744C296.732 106.341 296.417 106.026 296.014 105.798C295.616 105.565 295.153 105.449 294.624 105.449C294.073 105.449 293.585 105.577 293.159 105.832C292.738 106.082 292.409 106.42 292.17 106.847C291.931 107.267 291.809 107.736 291.803 108.253V110.392C291.803 111.04 291.923 111.599 292.161 112.071C292.406 112.543 292.749 112.906 293.193 113.162C293.636 113.418 294.161 113.545 294.769 113.545C295.173 113.545 295.542 113.489 295.877 113.375C296.213 113.261 296.499 113.091 296.738 112.864C296.977 112.636 297.159 112.358 297.284 112.028L300.642 112.25C300.471 113.057 300.122 113.761 299.593 114.364C299.07 114.96 298.394 115.426 297.565 115.761C296.741 116.091 295.789 116.256 294.71 116.256ZM307.911 116.213C306.917 116.213 306.017 115.957 305.21 115.446C304.409 114.929 303.772 114.17 303.301 113.17C302.835 112.165 302.602 110.932 302.602 109.472C302.602 107.972 302.843 106.724 303.326 105.73C303.809 104.73 304.451 103.983 305.252 103.489C306.059 102.989 306.943 102.739 307.903 102.739C308.636 102.739 309.247 102.864 309.735 103.114C310.23 103.358 310.627 103.665 310.928 104.034C311.235 104.398 311.468 104.756 311.627 105.108H311.738V98.5455H315.36V116H311.781V113.903H311.627C311.457 114.267 311.215 114.628 310.903 114.986C310.596 115.338 310.195 115.631 309.701 115.864C309.213 116.097 308.616 116.213 307.911 116.213ZM309.062 113.324C309.647 113.324 310.142 113.165 310.545 112.847C310.954 112.523 311.267 112.071 311.482 111.491C311.704 110.912 311.815 110.233 311.815 109.455C311.815 108.676 311.707 108 311.491 107.426C311.275 106.852 310.963 106.409 310.553 106.097C310.144 105.784 309.647 105.628 309.062 105.628C308.465 105.628 307.963 105.79 307.553 106.114C307.144 106.437 306.835 106.886 306.624 107.46C306.414 108.034 306.309 108.699 306.309 109.455C306.309 110.216 306.414 110.889 306.624 111.474C306.84 112.054 307.15 112.509 307.553 112.838C307.963 113.162 308.465 113.324 309.062 113.324ZM326.482 116L322.92 102.909H326.593L328.622 111.705H328.741L330.855 102.909H334.46L336.607 111.653H336.718L338.713 102.909H342.377L338.823 116H334.98L332.73 107.767H332.568L330.318 116H326.482ZM344.314 116V102.909H347.945V116H344.314ZM346.138 101.222C345.598 101.222 345.135 101.043 344.749 100.685C344.368 100.321 344.178 99.8864 344.178 99.3807C344.178 98.8807 344.368 98.4517 344.749 98.0938C345.135 97.7301 345.598 97.5483 346.138 97.5483C346.678 97.5483 347.138 97.7301 347.519 98.0938C347.905 98.4517 348.098 98.8807 348.098 99.3807C348.098 99.8864 347.905 100.321 347.519 100.685C347.138 101.043 346.678 101.222 346.138 101.222ZM357.816 102.909V105.636H349.933V102.909H357.816ZM351.722 99.7727H355.353V111.977C355.353 112.312 355.404 112.574 355.507 112.761C355.609 112.943 355.751 113.071 355.933 113.145C356.12 113.219 356.336 113.256 356.58 113.256C356.751 113.256 356.921 113.241 357.092 113.213C357.262 113.179 357.393 113.153 357.484 113.136L358.055 115.838C357.873 115.895 357.617 115.96 357.288 116.034C356.958 116.114 356.558 116.162 356.086 116.179C355.211 116.213 354.444 116.097 353.785 115.83C353.132 115.562 352.623 115.148 352.259 114.585C351.896 114.023 351.717 113.312 351.722 112.455V99.7727ZM364.093 108.432V116H360.463V98.5455H363.991V105.219H364.144C364.44 104.446 364.917 103.841 365.576 103.403C366.235 102.96 367.062 102.739 368.056 102.739C368.965 102.739 369.758 102.938 370.434 103.335C371.116 103.727 371.644 104.293 372.019 105.031C372.4 105.764 372.588 106.642 372.582 107.665V116H368.951V108.312C368.957 107.506 368.752 106.878 368.338 106.429C367.928 105.98 367.355 105.756 366.616 105.756C366.122 105.756 365.684 105.861 365.303 106.071C364.928 106.281 364.633 106.588 364.417 106.991C364.207 107.389 364.099 107.869 364.093 108.432ZM384.624 108.432V116H380.994V102.909H384.454V105.219H384.607C384.897 104.457 385.383 103.855 386.065 103.412C386.747 102.963 387.573 102.739 388.545 102.739C389.454 102.739 390.247 102.938 390.923 103.335C391.599 103.733 392.124 104.301 392.499 105.04C392.874 105.773 393.062 106.648 393.062 107.665V116H389.431V108.312C389.437 107.511 389.232 106.886 388.818 106.438C388.403 105.983 387.832 105.756 387.105 105.756C386.616 105.756 386.184 105.861 385.809 106.071C385.44 106.281 385.15 106.588 384.94 106.991C384.735 107.389 384.63 107.869 384.624 108.432ZM401.821 121.182C400.645 121.182 399.637 121.02 398.796 120.696C397.96 120.378 397.296 119.943 396.801 119.392C396.307 118.841 395.986 118.222 395.838 117.534L399.196 117.082C399.298 117.344 399.46 117.588 399.682 117.815C399.904 118.043 400.196 118.224 400.56 118.361C400.929 118.503 401.378 118.574 401.906 118.574C402.696 118.574 403.347 118.381 403.858 117.994C404.375 117.614 404.634 116.974 404.634 116.077V113.682H404.48C404.321 114.045 404.083 114.389 403.764 114.713C403.446 115.037 403.037 115.301 402.537 115.506C402.037 115.71 401.441 115.812 400.747 115.812C399.764 115.812 398.869 115.585 398.063 115.131C397.262 114.67 396.622 113.969 396.145 113.026C395.673 112.077 395.438 110.878 395.438 109.429C395.438 107.946 395.679 106.707 396.162 105.713C396.645 104.719 397.287 103.974 398.088 103.48C398.895 102.986 399.779 102.739 400.739 102.739C401.472 102.739 402.085 102.864 402.58 103.114C403.074 103.358 403.472 103.665 403.773 104.034C404.08 104.398 404.316 104.756 404.48 105.108H404.617V102.909H408.222V116.128C408.222 117.241 407.949 118.173 407.404 118.923C406.858 119.673 406.102 120.236 405.137 120.611C404.176 120.991 403.071 121.182 401.821 121.182ZM401.898 113.085C402.483 113.085 402.977 112.94 403.381 112.651C403.79 112.355 404.102 111.935 404.318 111.389C404.54 110.838 404.651 110.179 404.651 109.412C404.651 108.645 404.543 107.98 404.327 107.418C404.111 106.849 403.798 106.409 403.389 106.097C402.98 105.784 402.483 105.628 401.898 105.628C401.301 105.628 400.798 105.79 400.389 106.114C399.98 106.432 399.671 106.875 399.46 107.443C399.25 108.011 399.145 108.668 399.145 109.412C399.145 110.168 399.25 110.821 399.46 111.372C399.676 111.918 399.986 112.341 400.389 112.642C400.798 112.937 401.301 113.085 401.898 113.085ZM421.96 98.5455H425.651V109.881C425.651 111.153 425.347 112.267 424.739 113.222C424.137 114.176 423.293 114.92 422.208 115.455C421.122 115.983 419.858 116.247 418.415 116.247C416.966 116.247 415.699 115.983 414.614 115.455C413.529 114.92 412.685 114.176 412.083 113.222C411.48 112.267 411.179 111.153 411.179 109.881V98.5455H414.869V109.565C414.869 110.23 415.014 110.821 415.304 111.338C415.6 111.855 416.014 112.261 416.548 112.557C417.083 112.852 417.705 113 418.415 113C419.131 113 419.753 112.852 420.281 112.557C420.816 112.261 421.227 111.855 421.517 111.338C421.813 110.821 421.96 110.23 421.96 109.565V98.5455ZM432.377 98.5455V116H428.687V98.5455H432.377Z" fill="#83D6FA"/>
<rect x="183.42" y="146" width="850" height="10" rx="5" fill="#F8FAFC" fill-opacity="0.2"/>
<rect x="183.42" y="188" width="350" height="10" rx="5" fill="#F8FAFC" fill-opacity="0.2"/>
<rect x="183.42" y="238" width="144" height="40" rx="16" fill="white" fill-opacity="0.05"/>
<path d="M207.193 255.273C207.124 254.697 206.848 254.25 206.363 253.932C205.878 253.614 205.284 253.455 204.579 253.455C204.064 253.455 203.613 253.538 203.227 253.705C202.844 253.871 202.545 254.1 202.329 254.392C202.117 254.684 202.011 255.015 202.011 255.386C202.011 255.697 202.085 255.964 202.232 256.188C202.384 256.407 202.577 256.591 202.812 256.739C203.047 256.883 203.293 257.002 203.551 257.097C203.808 257.187 204.045 257.261 204.261 257.318L205.443 257.636C205.746 257.716 206.083 257.826 206.454 257.966C206.829 258.106 207.187 258.297 207.528 258.54C207.873 258.778 208.157 259.085 208.38 259.46C208.604 259.835 208.715 260.295 208.715 260.841C208.715 261.47 208.551 262.038 208.221 262.545C207.895 263.053 207.418 263.456 206.789 263.756C206.164 264.055 205.405 264.205 204.511 264.205C203.677 264.205 202.956 264.07 202.346 263.801C201.74 263.532 201.263 263.157 200.914 262.676C200.57 262.195 200.374 261.636 200.329 261H201.784C201.821 261.439 201.969 261.803 202.227 262.091C202.488 262.375 202.818 262.587 203.215 262.727C203.617 262.864 204.049 262.932 204.511 262.932C205.049 262.932 205.532 262.845 205.96 262.67C206.388 262.492 206.727 262.246 206.977 261.932C207.227 261.614 207.352 261.242 207.352 260.818C207.352 260.432 207.244 260.117 207.028 259.875C206.812 259.633 206.528 259.436 206.176 259.284C205.823 259.133 205.443 259 205.034 258.886L203.602 258.477C202.693 258.216 201.973 257.843 201.443 257.358C200.912 256.873 200.647 256.239 200.647 255.455C200.647 254.803 200.823 254.235 201.176 253.75C201.532 253.261 202.009 252.883 202.607 252.614C203.21 252.341 203.882 252.205 204.624 252.205C205.374 252.205 206.041 252.339 206.624 252.608C207.208 252.873 207.67 253.237 208.011 253.699C208.356 254.161 208.537 254.686 208.556 255.273H207.193ZM214.646 255.273V256.409H210.123V255.273H214.646ZM211.441 253.182H212.782V261.5C212.782 261.879 212.837 262.163 212.947 262.352C213.061 262.538 213.204 262.663 213.379 262.727C213.557 262.788 213.744 262.818 213.941 262.818C214.089 262.818 214.21 262.811 214.305 262.795C214.4 262.777 214.475 262.761 214.532 262.75L214.805 263.955C214.714 263.989 214.587 264.023 214.424 264.057C214.261 264.095 214.055 264.114 213.805 264.114C213.426 264.114 213.055 264.032 212.691 263.869C212.331 263.706 212.032 263.458 211.794 263.125C211.559 262.792 211.441 262.371 211.441 261.864V253.182ZM219.231 264.205C218.678 264.205 218.176 264.1 217.725 263.892C217.275 263.68 216.917 263.375 216.651 262.977C216.386 262.576 216.254 262.091 216.254 261.523C216.254 261.023 216.352 260.617 216.549 260.307C216.746 259.992 217.009 259.746 217.339 259.568C217.669 259.39 218.032 259.258 218.43 259.17C218.831 259.08 219.235 259.008 219.64 258.955C220.17 258.886 220.6 258.835 220.93 258.801C221.263 258.763 221.506 258.701 221.657 258.614C221.812 258.527 221.89 258.375 221.89 258.159V258.114C221.89 257.553 221.737 257.117 221.43 256.807C221.127 256.496 220.667 256.341 220.049 256.341C219.409 256.341 218.907 256.481 218.544 256.761C218.18 257.042 217.924 257.341 217.776 257.659L216.504 257.205C216.731 256.674 217.034 256.261 217.413 255.966C217.795 255.667 218.212 255.458 218.663 255.341C219.117 255.22 219.564 255.159 220.004 255.159C220.284 255.159 220.606 255.193 220.97 255.261C221.337 255.326 221.691 255.46 222.032 255.665C222.377 255.869 222.663 256.178 222.89 256.591C223.117 257.004 223.231 257.557 223.231 258.25V264H221.89V262.818H221.822C221.731 263.008 221.579 263.21 221.367 263.426C221.155 263.642 220.873 263.826 220.521 263.977C220.169 264.129 219.739 264.205 219.231 264.205ZM219.436 263C219.966 263 220.413 262.896 220.776 262.688C221.144 262.479 221.42 262.21 221.606 261.881C221.795 261.551 221.89 261.205 221.89 260.841V259.614C221.833 259.682 221.708 259.744 221.515 259.801C221.326 259.854 221.106 259.902 220.856 259.943C220.61 259.981 220.369 260.015 220.134 260.045C219.903 260.072 219.716 260.095 219.572 260.114C219.223 260.159 218.898 260.233 218.595 260.335C218.295 260.434 218.053 260.583 217.867 260.784C217.686 260.981 217.595 261.25 217.595 261.591C217.595 262.057 217.767 262.409 218.112 262.648C218.46 262.883 218.901 263 219.436 263ZM225.678 264V255.273H226.974V256.591H227.065C227.224 256.159 227.512 255.809 227.928 255.54C228.345 255.271 228.815 255.136 229.338 255.136C229.436 255.136 229.559 255.138 229.707 255.142C229.855 255.146 229.966 255.152 230.042 255.159V256.523C229.997 256.511 229.892 256.494 229.73 256.472C229.57 256.445 229.402 256.432 229.224 256.432C228.8 256.432 228.421 256.521 228.088 256.699C227.758 256.873 227.497 257.116 227.303 257.426C227.114 257.733 227.019 258.083 227.019 258.477V264H225.678ZM235.974 255.273V256.409H231.451V255.273H235.974ZM232.769 253.182H234.11V261.5C234.11 261.879 234.165 262.163 234.275 262.352C234.389 262.538 234.533 262.663 234.707 262.727C234.885 262.788 235.072 262.818 235.269 262.818C235.417 262.818 235.538 262.811 235.633 262.795C235.728 262.777 235.803 262.761 235.86 262.75L236.133 263.955C236.042 263.989 235.915 264.023 235.752 264.057C235.589 264.095 235.383 264.114 235.133 264.114C234.754 264.114 234.383 264.032 234.019 263.869C233.66 263.706 233.36 263.458 233.122 263.125C232.887 262.792 232.769 262.371 232.769 261.864V253.182ZM246.15 264.182C245.309 264.182 244.584 263.996 243.974 263.625C243.368 263.25 242.9 262.727 242.57 262.057C242.245 261.383 242.082 260.598 242.082 259.705C242.082 258.811 242.245 258.023 242.57 257.341C242.9 256.655 243.358 256.121 243.945 255.739C244.536 255.352 245.226 255.159 246.014 255.159C246.468 255.159 246.917 255.235 247.36 255.386C247.803 255.538 248.207 255.784 248.57 256.125C248.934 256.462 249.224 256.909 249.44 257.466C249.656 258.023 249.764 258.708 249.764 259.523V260.091H243.036V258.932H248.4C248.4 258.439 248.302 258 248.105 257.614C247.911 257.227 247.635 256.922 247.275 256.699C246.919 256.475 246.499 256.364 246.014 256.364C245.48 256.364 245.017 256.496 244.627 256.761C244.241 257.023 243.944 257.364 243.735 257.784C243.527 258.205 243.423 258.655 243.423 259.136V259.909C243.423 260.568 243.536 261.127 243.764 261.585C243.995 262.04 244.315 262.386 244.724 262.625C245.133 262.86 245.608 262.977 246.15 262.977C246.502 262.977 246.82 262.928 247.105 262.83C247.392 262.727 247.641 262.576 247.849 262.375C248.057 262.17 248.218 261.917 248.332 261.614L249.627 261.977C249.491 262.417 249.262 262.803 248.94 263.136C248.618 263.466 248.22 263.723 247.747 263.909C247.273 264.091 246.741 264.182 246.15 264.182ZM252.569 255.273L254.66 258.841L256.751 255.273H258.296L255.478 259.636L258.296 264H256.751L254.66 260.614L252.569 264H251.024L253.796 259.636L251.024 255.273H252.569ZM260.21 267.273V255.273H261.505V256.659H261.664C261.763 256.508 261.899 256.314 262.073 256.08C262.251 255.841 262.505 255.629 262.835 255.443C263.168 255.254 263.619 255.159 264.187 255.159C264.922 255.159 265.57 255.343 266.13 255.71C266.691 256.078 267.128 256.598 267.443 257.273C267.757 257.947 267.914 258.742 267.914 259.659C267.914 260.583 267.757 261.384 267.443 262.062C267.128 262.737 266.693 263.259 266.136 263.631C265.579 263.998 264.937 264.182 264.21 264.182C263.649 264.182 263.2 264.089 262.863 263.903C262.526 263.714 262.267 263.5 262.085 263.261C261.903 263.019 261.763 262.818 261.664 262.659H261.551V267.273H260.21ZM261.528 259.636C261.528 260.295 261.624 260.877 261.818 261.381C262.011 261.881 262.293 262.273 262.664 262.557C263.035 262.837 263.49 262.977 264.028 262.977C264.588 262.977 265.056 262.83 265.431 262.534C265.81 262.235 266.094 261.833 266.284 261.33C266.477 260.822 266.573 260.258 266.573 259.636C266.573 259.023 266.479 258.47 266.289 257.977C266.104 257.481 265.821 257.089 265.443 256.801C265.068 256.509 264.596 256.364 264.028 256.364C263.482 256.364 263.024 256.502 262.653 256.778C262.282 257.051 262.001 257.434 261.812 257.926C261.623 258.415 261.528 258.985 261.528 259.636ZM271.301 252.364V264H269.96V252.364H271.301ZM277.302 264.182C276.514 264.182 275.823 263.994 275.228 263.619C274.637 263.244 274.175 262.72 273.842 262.045C273.512 261.371 273.347 260.583 273.347 259.682C273.347 258.773 273.512 257.979 273.842 257.301C274.175 256.623 274.637 256.097 275.228 255.722C275.823 255.347 276.514 255.159 277.302 255.159C278.09 255.159 278.779 255.347 279.37 255.722C279.965 256.097 280.427 256.623 280.757 257.301C281.09 257.979 281.257 258.773 281.257 259.682C281.257 260.583 281.09 261.371 280.757 262.045C280.427 262.72 279.965 263.244 279.37 263.619C278.779 263.994 278.09 264.182 277.302 264.182ZM277.302 262.977C277.901 262.977 278.393 262.824 278.779 262.517C279.166 262.21 279.452 261.807 279.637 261.307C279.823 260.807 279.916 260.265 279.916 259.682C279.916 259.098 279.823 258.555 279.637 258.051C279.452 257.547 279.166 257.14 278.779 256.83C278.393 256.519 277.901 256.364 277.302 256.364C276.704 256.364 276.211 256.519 275.825 256.83C275.438 257.14 275.152 257.547 274.967 258.051C274.781 258.555 274.688 259.098 274.688 259.682C274.688 260.265 274.781 260.807 274.967 261.307C275.152 261.807 275.438 262.21 275.825 262.517C276.211 262.824 276.704 262.977 277.302 262.977ZM283.303 264V255.273H284.599V256.591H284.69C284.849 256.159 285.137 255.809 285.553 255.54C285.97 255.271 286.44 255.136 286.963 255.136C287.061 255.136 287.184 255.138 287.332 255.142C287.48 255.146 287.591 255.152 287.667 255.159V256.523C287.622 256.511 287.517 256.494 287.355 256.472C287.195 256.445 287.027 256.432 286.849 256.432C286.425 256.432 286.046 256.521 285.713 256.699C285.383 256.873 285.122 257.116 284.928 257.426C284.739 257.733 284.644 258.083 284.644 258.477V264H283.303ZM289.257 264V255.273H290.597V264H289.257ZM289.938 253.818C289.677 253.818 289.452 253.729 289.262 253.551C289.077 253.373 288.984 253.159 288.984 252.909C288.984 252.659 289.077 252.445 289.262 252.267C289.452 252.089 289.677 252 289.938 252C290.2 252 290.423 252.089 290.609 252.267C290.798 252.445 290.893 252.659 290.893 252.909C290.893 253.159 290.798 253.373 290.609 253.551C290.423 253.729 290.2 253.818 289.938 253.818ZM294.394 258.75V264H293.053V255.273H294.349V256.636H294.463C294.667 256.193 294.978 255.837 295.394 255.568C295.811 255.295 296.349 255.159 297.008 255.159C297.599 255.159 298.116 255.28 298.559 255.523C299.002 255.761 299.347 256.125 299.593 256.614C299.839 257.098 299.963 257.712 299.963 258.455V264H298.622V258.545C298.622 257.86 298.444 257.326 298.088 256.943C297.731 256.557 297.243 256.364 296.622 256.364C296.194 256.364 295.811 256.456 295.474 256.642C295.141 256.828 294.877 257.098 294.684 257.455C294.491 257.811 294.394 258.242 294.394 258.75ZM305.936 267.455C305.288 267.455 304.731 267.371 304.265 267.205C303.799 267.042 303.411 266.826 303.1 266.557C302.794 266.292 302.549 266.008 302.367 265.705L303.436 264.955C303.557 265.114 303.71 265.295 303.896 265.5C304.081 265.708 304.335 265.888 304.657 266.04C304.983 266.195 305.409 266.273 305.936 266.273C306.64 266.273 307.222 266.102 307.68 265.761C308.138 265.42 308.367 264.886 308.367 264.159V262.386H308.254C308.155 262.545 308.015 262.742 307.833 262.977C307.655 263.208 307.398 263.415 307.061 263.597C306.727 263.775 306.276 263.864 305.708 263.864C305.004 263.864 304.371 263.697 303.811 263.364C303.254 263.03 302.812 262.545 302.487 261.909C302.165 261.273 302.004 260.5 302.004 259.591C302.004 258.697 302.161 257.919 302.475 257.256C302.79 256.589 303.227 256.074 303.788 255.71C304.348 255.343 304.996 255.159 305.731 255.159C306.299 255.159 306.75 255.254 307.083 255.443C307.42 255.629 307.678 255.841 307.856 256.08C308.038 256.314 308.178 256.508 308.276 256.659H308.413V255.273H309.708V264.25C309.708 265 309.538 265.61 309.197 266.08C308.86 266.553 308.405 266.9 307.833 267.119C307.265 267.343 306.633 267.455 305.936 267.455ZM305.89 262.659C306.428 262.659 306.883 262.536 307.254 262.29C307.625 262.044 307.907 261.689 308.1 261.227C308.294 260.765 308.39 260.212 308.39 259.568C308.39 258.939 308.295 258.384 308.106 257.903C307.917 257.422 307.636 257.045 307.265 256.773C306.894 256.5 306.436 256.364 305.89 256.364C305.322 256.364 304.848 256.508 304.47 256.795C304.095 257.083 303.812 257.47 303.623 257.955C303.437 258.439 303.345 258.977 303.345 259.568C303.345 260.174 303.439 260.71 303.629 261.176C303.822 261.638 304.106 262.002 304.481 262.267C304.86 262.528 305.329 262.659 305.89 262.659Z" fill="#CBD5E1"/>
<path d="M192.205 329.437H189.899L193.413 319.255H196.188L199.698 329.437H197.391L194.84 321.581H194.761L192.205 329.437ZM192.061 325.434H197.51V327.115H192.061V325.434ZM203.978 329.586C203.196 329.586 202.523 329.42 201.96 329.089C201.399 328.754 200.969 328.29 200.667 327.696C200.369 327.103 200.22 326.42 200.22 325.648C200.22 324.866 200.37 324.18 200.672 323.59C200.977 322.997 201.409 322.534 201.97 322.203C202.53 321.868 203.196 321.701 203.968 321.701C204.634 321.701 205.218 321.822 205.718 322.064C206.219 322.306 206.615 322.645 206.906 323.083C207.198 323.52 207.359 324.034 207.389 324.624H205.39C205.334 324.243 205.185 323.936 204.943 323.704C204.704 323.469 204.391 323.351 204.003 323.351C203.675 323.351 203.388 323.441 203.143 323.62C202.901 323.795 202.712 324.052 202.576 324.39C202.44 324.728 202.372 325.138 202.372 325.618C202.372 326.106 202.439 326.52 202.571 326.861C202.707 327.203 202.898 327.463 203.143 327.642C203.388 327.821 203.675 327.91 204.003 327.91C204.245 327.91 204.462 327.861 204.654 327.761C204.85 327.662 205.011 327.517 205.136 327.329C205.266 327.136 205.35 326.906 205.39 326.638H207.389C207.355 327.221 207.196 327.735 206.911 328.179C206.63 328.62 206.24 328.964 205.743 329.213C205.246 329.461 204.658 329.586 203.978 329.586ZM212.195 329.586C211.413 329.586 210.74 329.42 210.176 329.089C209.616 328.754 209.185 328.29 208.884 327.696C208.585 327.103 208.436 326.42 208.436 325.648C208.436 324.866 208.587 324.18 208.889 323.59C209.194 322.997 209.626 322.534 210.186 322.203C210.746 321.868 211.413 321.701 212.185 321.701C212.851 321.701 213.434 321.822 213.935 322.064C214.435 322.306 214.831 322.645 215.123 323.083C215.415 323.52 215.576 324.034 215.605 324.624H213.607C213.55 324.243 213.401 323.936 213.159 323.704C212.921 323.469 212.608 323.351 212.22 323.351C211.892 323.351 211.605 323.441 211.36 323.62C211.118 323.795 210.929 324.052 210.793 324.39C210.657 324.728 210.589 325.138 210.589 325.618C210.589 326.106 210.655 326.52 210.788 326.861C210.924 327.203 211.114 327.463 211.36 327.642C211.605 327.821 211.892 327.91 212.22 327.91C212.462 327.91 212.679 327.861 212.871 327.761C213.067 327.662 213.227 327.517 213.353 327.329C213.483 327.136 213.567 326.906 213.607 326.638H215.605C215.572 327.221 215.413 327.735 215.128 328.179C214.846 328.62 214.457 328.964 213.96 329.213C213.463 329.461 212.874 329.586 212.195 329.586ZM220.412 329.586C219.639 329.586 218.972 329.422 218.408 329.093C217.848 328.762 217.415 328.301 217.111 327.711C216.806 327.118 216.653 326.43 216.653 325.648C216.653 324.859 216.806 324.17 217.111 323.58C217.415 322.987 217.848 322.526 218.408 322.198C218.972 321.866 219.639 321.701 220.412 321.701C221.184 321.701 221.85 321.866 222.41 322.198C222.974 322.526 223.408 322.987 223.713 323.58C224.018 324.17 224.17 324.859 224.17 325.648C224.17 326.43 224.018 327.118 223.713 327.711C223.408 328.301 222.974 328.762 222.41 329.093C221.85 329.422 221.184 329.586 220.412 329.586ZM220.422 327.945C220.773 327.945 221.066 327.846 221.302 327.647C221.537 327.445 221.714 327.169 221.834 326.821C221.956 326.473 222.017 326.077 222.017 325.633C222.017 325.189 221.956 324.793 221.834 324.445C221.714 324.097 221.537 323.822 221.302 323.62C221.066 323.418 220.773 323.316 220.422 323.316C220.067 323.316 219.769 323.418 219.527 323.62C219.288 323.822 219.107 324.097 218.985 324.445C218.866 324.793 218.806 325.189 218.806 325.633C218.806 326.077 218.866 326.473 218.985 326.821C219.107 327.169 219.288 327.445 219.527 327.647C219.769 327.846 220.067 327.945 220.422 327.945ZM225.547 329.437V321.8H227.601V323.133H227.68C227.819 322.659 228.053 322.301 228.381 322.059C228.709 321.813 229.087 321.691 229.515 321.691C229.621 321.691 229.735 321.697 229.858 321.711C229.98 321.724 230.088 321.742 230.181 321.765V323.645C230.081 323.615 229.944 323.588 229.768 323.565C229.593 323.542 229.432 323.53 229.286 323.53C228.974 323.53 228.696 323.598 228.451 323.734C228.209 323.867 228.017 324.052 227.874 324.291C227.735 324.53 227.665 324.805 227.665 325.116V329.437H225.547ZM233.734 329.561C233.154 329.561 232.629 329.412 232.158 329.113C231.691 328.812 231.32 328.369 231.045 327.786C230.773 327.199 230.637 326.48 230.637 325.628C230.637 324.753 230.778 324.026 231.06 323.446C231.341 322.862 231.716 322.427 232.183 322.138C232.654 321.847 233.169 321.701 233.729 321.701C234.157 321.701 234.513 321.774 234.798 321.919C235.087 322.062 235.319 322.241 235.494 322.456C235.673 322.669 235.809 322.877 235.902 323.083H235.967V319.255H238.079V329.437H235.991V328.214H235.902C235.802 328.426 235.662 328.636 235.479 328.845C235.3 329.05 235.067 329.221 234.778 329.357C234.493 329.493 234.145 329.561 233.734 329.561ZM234.405 327.875C234.747 327.875 235.035 327.783 235.271 327.597C235.509 327.408 235.691 327.145 235.817 326.807C235.947 326.468 236.011 326.072 236.011 325.618C236.011 325.164 235.948 324.77 235.822 324.435C235.696 324.1 235.514 323.842 235.275 323.66C235.037 323.477 234.747 323.386 234.405 323.386C234.057 323.386 233.764 323.481 233.525 323.669C233.287 323.858 233.106 324.12 232.984 324.455C232.861 324.79 232.8 325.178 232.8 325.618C232.8 326.062 232.861 326.455 232.984 326.797C233.11 327.135 233.29 327.4 233.525 327.592C233.764 327.781 234.057 327.875 234.405 327.875ZM239.821 329.437V321.8H241.939V329.437H239.821ZM240.885 320.816C240.57 320.816 240.3 320.711 240.074 320.503C239.852 320.29 239.741 320.037 239.741 319.742C239.741 319.45 239.852 319.2 240.074 318.991C240.3 318.779 240.57 318.673 240.885 318.673C241.2 318.673 241.468 318.779 241.69 318.991C241.915 319.2 242.028 319.45 242.028 319.742C242.028 320.037 241.915 320.29 241.69 320.503C241.468 320.711 241.2 320.816 240.885 320.816ZM247.085 329.586C246.313 329.586 245.645 329.422 245.082 329.093C244.522 328.762 244.089 328.301 243.784 327.711C243.479 327.118 243.327 326.43 243.327 325.648C243.327 324.859 243.479 324.17 243.784 323.58C244.089 322.987 244.522 322.526 245.082 322.198C245.645 321.866 246.313 321.701 247.085 321.701C247.858 321.701 248.524 321.866 249.084 322.198C249.648 322.526 250.082 322.987 250.387 323.58C250.692 324.17 250.844 324.859 250.844 325.648C250.844 326.43 250.692 327.118 250.387 327.711C250.082 328.301 249.648 328.762 249.084 329.093C248.524 329.422 247.858 329.586 247.085 329.586ZM247.095 327.945C247.447 327.945 247.74 327.846 247.975 327.647C248.211 327.445 248.388 327.169 248.507 326.821C248.63 326.473 248.691 326.077 248.691 325.633C248.691 325.189 248.63 324.793 248.507 324.445C248.388 324.097 248.211 323.822 247.975 323.62C247.74 323.418 247.447 323.316 247.095 323.316C246.741 323.316 246.443 323.418 246.201 323.62C245.962 323.822 245.781 324.097 245.659 324.445C245.539 324.793 245.48 325.189 245.48 325.633C245.48 326.077 245.539 326.473 245.659 326.821C245.781 327.169 245.962 327.445 246.201 327.647C246.443 327.846 246.741 327.945 247.095 327.945ZM254.339 325.022V329.437H252.221V321.8H254.24V323.147H254.329C254.498 322.703 254.782 322.352 255.179 322.093C255.577 321.832 256.059 321.701 256.626 321.701C257.156 321.701 257.619 321.817 258.013 322.049C258.407 322.281 258.714 322.612 258.933 323.043C259.152 323.471 259.261 323.981 259.261 324.574V329.437H257.143V324.952C257.146 324.485 257.027 324.12 256.785 323.858C256.543 323.593 256.21 323.461 255.786 323.461C255.501 323.461 255.249 323.522 255.03 323.645C254.815 323.767 254.646 323.946 254.523 324.182C254.404 324.414 254.342 324.694 254.339 325.022Z" fill="#CBD5E1"/>
<mask id="mask0_52_511" style="mask-type:luminance" maskUnits="userSpaceOnUse" x="187" y="347" width="294" height="147">
<path d="M480.299 347.316H187.159V493.886H480.299V347.316Z" fill="white"/>
</mask>
<g mask="url(#mask0_52_511)">
<path d="M469.096 347.316H198.362C192.175 347.316 187.159 352.332 187.159 358.519V482.683C187.159 488.87 192.175 493.886 198.362 493.886H469.096C475.283 493.886 480.299 488.87 480.299 482.683V358.519C480.299 352.332 475.283 347.316 469.096 347.316Z" fill="url(#paint0_linear_52_511)"/>
<g filter="url(#filter0_d_52_511)">
<path d="M400.946 379.057H266.512C262.388 379.057 259.044 382.401 259.044 386.526V453.743C259.044 457.867 262.388 461.211 266.512 461.211H400.946C405.071 461.211 408.415 457.867 408.415 453.743V386.526C408.415 382.401 405.071 379.057 400.946 379.057Z" fill="white"/>
</g>
<path d="M268.379 406.131H376.673M268.379 415.467H354.267" stroke="#D1D5DB" stroke-width="2.8007" stroke-linecap="round" stroke-linejoin="round"/>
<path d="M259.044 422.001H408.415V422.935H259.044V422.001ZM259.044 441.606H408.415V442.54H259.044V441.606Z" fill="#F3F4F6"/>
<path d="M270.246 432.271H341.197M270.246 451.875H318.792" stroke="#4B5563" stroke-width="2.8007" stroke-linecap="round" stroke-linejoin="round"/>
<path d="M261.844 386.526C261.844 384.464 263.516 382.792 265.578 382.792H333.728H401.879C403.941 382.792 405.613 384.464 405.613 386.526V394.928C405.613 396.991 403.941 398.663 401.879 398.663H265.578C263.516 398.663 261.844 396.991 261.844 394.928V386.526Z" fill="#DEA6F1" fill-opacity="0.5"/>
<path d="M270.246 391.194H326.26" stroke="#B33CEC" stroke-width="2.8007" stroke-linecap="round" stroke-linejoin="round"/>
<path d="M394.411 430.87L396.278 432.737L398.145 430.87M394.411 450.475L396.278 452.342L398.145 450.475" stroke="#D1D5DB" stroke-width="1.40035" stroke-linecap="round" stroke-linejoin="round"/>
<path d="M398.145 392.127L396.278 390.26L394.411 392.127" stroke="#B33CEC" stroke-width="1.40035" stroke-linecap="round" stroke-linejoin="round"/>
</g>
<path d="M509.505 329.437V319.255H511.658V327.662H516.023V329.437H509.505ZM517.409 329.437V321.8H519.527V329.437H517.409ZM518.473 320.816C518.158 320.816 517.888 320.711 517.662 320.503C517.44 320.29 517.329 320.037 517.329 319.742C517.329 319.45 517.44 319.2 517.662 318.991C517.888 318.779 518.158 318.673 518.473 318.673C518.787 318.673 519.056 318.779 519.278 318.991C519.503 319.2 519.616 319.45 519.616 319.742C519.616 320.037 519.503 320.29 519.278 320.503C519.056 320.711 518.787 320.816 518.473 320.816ZM527.577 323.978L525.638 324.097C525.605 323.931 525.533 323.782 525.424 323.65C525.315 323.514 525.171 323.406 524.992 323.326C524.816 323.244 524.605 323.202 524.36 323.202C524.032 323.202 523.755 323.272 523.53 323.411C523.305 323.547 523.192 323.729 523.192 323.958C523.192 324.14 523.265 324.294 523.411 324.42C523.556 324.546 523.807 324.647 524.161 324.723L525.543 325.002C526.286 325.154 526.839 325.4 527.204 325.738C527.569 326.076 527.751 326.52 527.751 327.07C527.751 327.571 527.603 328.01 527.308 328.388C527.017 328.765 526.616 329.06 526.105 329.272C525.598 329.481 525.013 329.586 524.35 329.586C523.339 329.586 522.534 329.375 521.934 328.954C521.337 328.53 520.988 327.953 520.885 327.224L522.968 327.115C523.031 327.423 523.184 327.658 523.426 327.821C523.667 327.98 523.977 328.059 524.355 328.059C524.726 328.059 525.025 327.988 525.25 327.846C525.479 327.7 525.595 327.513 525.598 327.284C525.595 327.092 525.514 326.934 525.354 326.812C525.195 326.686 524.95 326.589 524.619 326.523L523.296 326.26C522.551 326.111 521.995 325.852 521.631 325.484C521.27 325.116 521.089 324.647 521.089 324.077C521.089 323.587 521.221 323.164 521.487 322.809C521.755 322.455 522.131 322.181 522.615 321.989C523.102 321.797 523.672 321.701 524.325 321.701C525.29 321.701 526.049 321.905 526.602 322.312C527.159 322.72 527.484 323.275 527.577 323.978ZM533.146 321.8V323.391H528.547V321.8H533.146ZM529.592 319.971H531.709V327.09C531.709 327.285 531.739 327.438 531.799 327.547C531.859 327.653 531.941 327.728 532.047 327.771C532.157 327.814 532.283 327.836 532.425 327.836C532.525 327.836 532.624 327.827 532.724 327.811C532.823 327.791 532.899 327.776 532.952 327.766L533.285 329.342C533.179 329.375 533.03 329.413 532.838 329.456C532.646 329.503 532.412 329.531 532.137 329.541C531.627 329.561 531.179 329.493 530.795 329.337C530.414 329.181 530.117 328.939 529.905 328.611C529.693 328.283 529.588 327.869 529.592 327.368V319.971Z" fill="#CBD5E1"/>
<path d="M788.143 347.316H517.423C511.236 347.316 506.221 352.331 506.221 358.517V482.665C506.221 488.851 511.236 493.866 517.423 493.866H788.143C794.329 493.866 799.344 488.851 799.344 482.665V358.517C799.344 352.331 794.329 347.316 788.143 347.316Z" fill="url(#paint1_linear_52_511)"/>
<g filter="url(#filter1_d_52_511)">
<path d="M717.379 378.123H588.187C584.679 378.123 581.834 381.165 581.834 384.919V456.279C581.834 460.033 584.679 463.075 588.187 463.075H717.379C720.888 463.075 723.732 460.033 723.732 456.279V384.919C723.732 381.165 720.888 378.123 717.379 378.123Z" fill="white"/>
<path d="M629.444 393.06H662.118" stroke="#4B5563" stroke-width="2.80063" stroke-linecap="round" stroke-linejoin="round"/>
<path d="M629.444 417.332H662.118" stroke="#4B5563" stroke-width="2.80063" stroke-linecap="round" stroke-linejoin="round"/>
<path d="M629.444 441.604H662.118" stroke="#4B5563" stroke-width="2.80063" stroke-linecap="round" stroke-linejoin="round"/>
<path d="M629.444 399.595H697.593" stroke="#D1D5DB" stroke-width="2.80063" stroke-linecap="round" stroke-linejoin="round"/>
<path d="M629.444 423.866H697.593" stroke="#D1D5DB" stroke-width="2.80063" stroke-linecap="round" stroke-linejoin="round"/>
<path d="M629.444 448.138H697.593" stroke="#D1D5DB" stroke-width="2.80063" stroke-linecap="round" stroke-linejoin="round"/>
<path d="M612.641 389.325H605.173C603.11 389.325 601.438 390.997 601.438 393.059V400.528C601.438 402.59 603.11 404.262 605.173 404.262H612.641C614.703 404.262 616.375 402.59 616.375 400.528V393.059C616.375 390.997 614.703 389.325 612.641 389.325Z" fill="#A256F6" fill-opacity="0.25"/>
<path d="M612.641 413.598H605.173C603.11 413.598 601.438 415.27 601.438 417.332V424.8C601.438 426.862 603.11 428.534 605.173 428.534H612.641C614.703 428.534 616.375 426.862 616.375 424.8V417.332C616.375 415.27 614.703 413.598 612.641 413.598Z" fill="#A256F6" fill-opacity="0.25"/>
<path d="M612.641 437.869H605.173C603.11 437.869 601.438 439.541 601.438 441.603V449.072C601.438 451.134 603.11 452.806 605.173 452.806H612.641C614.703 452.806 616.375 451.134 616.375 449.072V441.603C616.375 439.541 614.703 437.869 612.641 437.869Z" fill="#A256F6" fill-opacity="0.25"/>
</g>
<path d="M828.56 319.255H831.215L834.019 326.096H834.138L836.942 319.255H839.597V329.437H837.509V322.809H837.424L834.789 329.387H833.367L830.732 322.785H830.648V329.437H828.56V319.255ZM844.781 329.586C844.009 329.586 843.341 329.422 842.777 329.093C842.217 328.762 841.785 328.301 841.48 327.711C841.175 327.118 841.022 326.43 841.022 325.648C841.022 324.859 841.175 324.17 841.48 323.58C841.785 322.987 842.217 322.526 842.777 322.198C843.341 321.866 844.009 321.701 844.781 321.701C845.553 321.701 846.219 321.866 846.779 322.198C847.343 322.526 847.777 322.987 848.082 323.58C848.387 324.17 848.539 324.859 848.539 325.648C848.539 326.43 848.387 327.118 848.082 327.711C847.777 328.301 847.343 328.762 846.779 329.093C846.219 329.422 845.553 329.586 844.781 329.586ZM844.791 327.945C845.142 327.945 845.435 327.846 845.671 327.647C845.906 327.445 846.083 327.169 846.203 326.821C846.325 326.473 846.387 326.077 846.387 325.633C846.387 325.189 846.325 324.793 846.203 324.445C846.083 324.097 845.906 323.822 845.671 323.62C845.435 323.418 845.142 323.316 844.791 323.316C844.436 323.316 844.138 323.418 843.896 323.62C843.657 323.822 843.477 324.097 843.354 324.445C843.235 324.793 843.175 325.189 843.175 325.633C843.175 326.077 843.235 326.473 843.354 326.821C843.477 327.169 843.657 327.445 843.896 327.647C844.138 327.846 844.436 327.945 844.791 327.945ZM852.73 329.561C852.15 329.561 851.625 329.412 851.154 329.113C850.687 328.812 850.316 328.369 850.041 327.786C849.769 327.199 849.633 326.48 849.633 325.628C849.633 324.753 849.774 324.026 850.056 323.446C850.337 322.862 850.712 322.427 851.179 322.138C851.65 321.847 852.165 321.701 852.725 321.701C853.153 321.701 853.509 321.774 853.794 321.919C854.083 322.062 854.315 322.241 854.49 322.456C854.669 322.669 854.805 322.877 854.898 323.083H854.963V319.255H857.076V329.437H854.987V328.214H854.898C854.799 328.426 854.658 328.636 854.475 328.845C854.296 329.05 854.063 329.221 853.774 329.357C853.489 329.493 853.141 329.561 852.73 329.561ZM853.402 327.875C853.743 327.875 854.031 327.783 854.267 327.597C854.505 327.408 854.688 327.145 854.813 326.807C854.943 326.468 855.007 326.072 855.007 325.618C855.007 325.164 854.944 324.77 854.818 324.435C854.693 324.1 854.51 323.842 854.272 323.66C854.033 323.477 853.743 323.386 853.402 323.386C853.054 323.386 852.76 323.481 852.522 323.669C852.283 323.858 852.102 324.12 851.98 324.455C851.857 324.79 851.796 325.178 851.796 325.618C851.796 326.062 851.857 326.455 851.98 326.797C852.106 327.135 852.286 327.4 852.522 327.592C852.76 327.781 853.054 327.875 853.402 327.875ZM860.994 329.581C860.507 329.581 860.073 329.496 859.692 329.327C859.311 329.155 859.009 328.901 858.787 328.566C858.568 328.228 858.459 327.807 858.459 327.304C858.459 326.879 858.537 326.523 858.693 326.235C858.848 325.946 859.06 325.714 859.329 325.539C859.597 325.363 859.902 325.231 860.244 325.141C860.588 325.052 860.95 324.989 861.328 324.952C861.772 324.906 862.13 324.863 862.401 324.823C862.673 324.78 862.87 324.717 862.993 324.634C863.116 324.551 863.177 324.428 863.177 324.266V324.236C863.177 323.921 863.078 323.678 862.879 323.505C862.683 323.333 862.405 323.247 862.043 323.247C861.662 323.247 861.359 323.331 861.134 323.5C860.908 323.666 860.759 323.875 860.686 324.127L858.727 323.968C858.827 323.504 859.022 323.103 859.314 322.765C859.606 322.423 859.982 322.161 860.443 321.979C860.907 321.794 861.444 321.701 862.053 321.701C862.478 321.701 862.884 321.75 863.271 321.85C863.662 321.949 864.009 322.103 864.31 322.312C864.615 322.521 864.856 322.79 865.031 323.118C865.207 323.442 865.295 323.832 865.295 324.286V329.437H863.286V328.378H863.227C863.104 328.616 862.94 328.827 862.734 329.009C862.529 329.188 862.282 329.329 861.994 329.432C861.705 329.531 861.372 329.581 860.994 329.581ZM861.601 328.119C861.912 328.119 862.188 328.058 862.426 327.935C862.665 327.809 862.852 327.64 862.988 327.428C863.124 327.216 863.192 326.976 863.192 326.707V325.897C863.126 325.94 863.034 325.98 862.918 326.016C862.806 326.049 862.678 326.081 862.536 326.111C862.393 326.137 862.251 326.162 862.108 326.185C861.966 326.205 861.836 326.223 861.72 326.24C861.472 326.276 861.255 326.334 861.069 326.414C860.883 326.493 860.739 326.601 860.636 326.737C860.534 326.87 860.482 327.035 860.482 327.234C860.482 327.522 860.587 327.743 860.796 327.895C861.008 328.044 861.276 328.119 861.601 328.119ZM869.056 319.255V329.437H866.938V319.255H869.056Z" fill="#CBD5E1"/>
<mask id="mask1_52_511" style="mask-type:luminance" maskUnits="userSpaceOnUse" x="827" y="347" width="295" height="147">
<path d="M1121.1 347.316H827.944V493.893H1121.1V347.316Z" fill="white"/>
</mask>
<g mask="url(#mask1_52_511)">
<path d="M1109.9 347.316H839.148C832.96 347.316 827.944 352.332 827.944 358.519V482.69C827.944 488.877 832.96 493.893 839.148 493.893H1109.9C1116.08 493.893 1121.1 488.877 1121.1 482.69V358.519C1121.1 352.332 1116.08 347.316 1109.9 347.316Z" fill="url(#paint2_linear_52_511)"/>
<g filter="url(#filter2_d_52_511)">
<path d="M1038.01 378.125H911.035C906.91 378.125 903.566 381.469 903.566 385.594V455.615C903.566 459.74 906.91 463.084 911.035 463.084H1038.01C1042.13 463.084 1045.48 459.74 1045.48 455.615V385.594C1045.48 381.469 1042.13 378.125 1038.01 378.125Z" fill="white"/>
</g>
<path d="M948.38 436.943H918.504C916.442 436.943 914.77 438.615 914.77 440.677V448.146C914.77 450.209 916.442 451.881 918.504 451.881H948.38C950.442 451.881 952.114 450.209 952.114 448.146V440.677C952.114 438.615 950.442 436.943 948.38 436.943Z" fill="#BFDBFE"/>
<path d="M916.638 393.063H972.655" stroke="#4B5563" stroke-width="2.80084" stroke-linecap="round" stroke-linejoin="round"/>
<path d="M916.638 407.067H1023.07M916.638 425.74H1023.07M916.638 416.404H1029.6" stroke="#D1D5DB" stroke-width="2.80084" stroke-linecap="round" stroke-linejoin="round"/>
</g>
<path d="M190.45 552.424V542.242H194.467C195.24 542.242 195.898 542.39 196.441 542.684C196.985 542.976 197.399 543.382 197.684 543.903C197.972 544.42 198.117 545.016 198.117 545.692C198.117 546.368 197.971 546.965 197.679 547.482C197.387 547.999 196.965 548.402 196.411 548.69C195.861 548.979 195.195 549.123 194.413 549.123H191.852V547.398H194.065C194.479 547.398 194.82 547.326 195.089 547.184C195.361 547.038 195.563 546.837 195.695 546.582C195.831 546.324 195.899 546.027 195.899 545.692C195.899 545.354 195.831 545.059 195.695 544.807C195.563 544.552 195.361 544.355 195.089 544.216C194.817 544.073 194.472 544.002 194.055 544.002H192.603V552.424H190.45ZM201.593 542.242V552.424H199.475V542.242H201.593ZM205.467 552.568C204.98 552.568 204.546 552.483 204.165 552.314C203.783 552.142 203.482 551.889 203.26 551.554C203.041 551.216 202.932 550.795 202.932 550.291C202.932 549.867 203.009 549.51 203.165 549.222C203.321 548.934 203.533 548.702 203.802 548.526C204.07 548.35 204.375 548.218 204.716 548.128C205.061 548.039 205.422 547.976 205.8 547.939C206.244 547.893 206.602 547.85 206.874 547.81C207.146 547.767 207.343 547.704 207.466 547.621C207.588 547.538 207.65 547.416 207.65 547.253V547.224C207.65 546.909 207.55 546.665 207.351 546.493C207.156 546.32 206.877 546.234 206.516 546.234C206.135 546.234 205.832 546.319 205.606 546.488C205.381 546.653 205.232 546.862 205.159 547.114L203.2 546.955C203.299 546.491 203.495 546.09 203.787 545.752C204.078 545.411 204.455 545.149 204.915 544.966C205.379 544.781 205.916 544.688 206.526 544.688C206.95 544.688 207.356 544.738 207.744 544.837C208.135 544.937 208.482 545.091 208.783 545.3C209.088 545.508 209.328 545.777 209.504 546.105C209.68 546.43 209.767 546.819 209.767 547.273V552.424H207.759V551.365H207.699C207.577 551.604 207.413 551.814 207.207 551.996C207.002 552.175 206.755 552.316 206.466 552.419C206.178 552.518 205.845 552.568 205.467 552.568ZM206.074 551.106C206.385 551.106 206.66 551.045 206.899 550.922C207.138 550.796 207.325 550.627 207.461 550.415C207.597 550.203 207.665 549.963 207.665 549.694V548.884C207.598 548.927 207.507 548.967 207.391 549.003C207.278 549.037 207.151 549.068 207.008 549.098C206.866 549.124 206.723 549.149 206.581 549.172C206.438 549.192 206.309 549.211 206.193 549.227C205.944 549.264 205.727 549.322 205.542 549.401C205.356 549.481 205.212 549.588 205.109 549.724C205.006 549.857 204.955 550.023 204.955 550.221C204.955 550.51 205.059 550.73 205.268 550.883C205.48 551.032 205.749 551.106 206.074 551.106ZM214.861 552.573C214.079 552.573 213.406 552.407 212.842 552.076C212.282 551.741 211.851 551.277 211.55 550.684C211.252 550.09 211.102 549.408 211.102 548.635C211.102 547.853 211.253 547.167 211.555 546.577C211.86 545.984 212.292 545.522 212.852 545.19C213.412 544.855 214.079 544.688 214.851 544.688C215.517 544.688 216.1 544.809 216.601 545.051C217.101 545.293 217.497 545.633 217.789 546.07C218.081 546.508 218.242 547.021 218.271 547.611H216.273C216.216 547.23 216.067 546.924 215.825 546.692C215.587 546.456 215.274 546.339 214.886 546.339C214.558 546.339 214.271 546.428 214.026 546.607C213.784 546.783 213.595 547.04 213.459 547.378C213.323 547.716 213.255 548.125 213.255 548.606C213.255 549.093 213.321 549.507 213.454 549.849C213.59 550.19 213.78 550.45 214.026 550.629C214.271 550.808 214.558 550.898 214.886 550.898C215.128 550.898 215.345 550.848 215.537 550.748C215.733 550.649 215.893 550.505 216.019 550.316C216.149 550.124 216.233 549.893 216.273 549.625H218.271C218.238 550.208 218.079 550.722 217.794 551.166C217.512 551.607 217.123 551.952 216.626 552.2C216.129 552.449 215.54 552.573 214.861 552.573ZM223.108 552.573C222.322 552.573 221.646 552.414 221.079 552.096C220.516 551.774 220.081 551.32 219.777 550.733C219.472 550.144 219.319 549.446 219.319 548.64C219.319 547.855 219.472 547.166 219.777 546.572C220.081 545.979 220.511 545.517 221.064 545.185C221.621 544.854 222.274 544.688 223.023 544.688C223.527 544.688 223.996 544.769 224.43 544.932C224.867 545.091 225.249 545.331 225.573 545.653C225.902 545.974 226.157 546.378 226.339 546.866C226.521 547.349 226.612 547.916 226.612 548.566V549.148H220.164V547.835H224.619C224.619 547.53 224.553 547.26 224.42 547.025C224.287 546.789 224.103 546.605 223.868 546.473C223.636 546.337 223.366 546.269 223.058 546.269C222.736 546.269 222.451 546.344 222.203 546.493C221.957 546.639 221.765 546.836 221.626 547.084C221.487 547.33 221.416 547.603 221.412 547.905V549.153C221.412 549.53 221.482 549.857 221.621 550.132C221.764 550.407 221.964 550.619 222.223 550.768C222.481 550.917 222.788 550.992 223.142 550.992C223.378 550.992 223.593 550.959 223.789 550.893C223.984 550.826 224.152 550.727 224.291 550.594C224.43 550.462 224.536 550.299 224.609 550.107L226.568 550.236C226.468 550.707 226.264 551.118 225.956 551.469C225.651 551.817 225.257 552.089 224.773 552.285C224.292 552.477 223.737 552.573 223.108 552.573ZM230.112 548.009V552.424H227.995V542.242H230.053V546.135H230.142C230.315 545.684 230.593 545.331 230.978 545.076C231.362 544.817 231.844 544.688 232.424 544.688C232.955 544.688 233.417 544.804 233.811 545.036C234.209 545.265 234.517 545.595 234.736 546.025C234.958 546.453 235.068 546.965 235.064 547.562V552.424H232.946V547.939C232.95 547.469 232.83 547.103 232.588 546.841C232.35 546.579 232.015 546.448 231.584 546.448C231.296 546.448 231.041 546.509 230.818 546.632C230.6 546.755 230.427 546.934 230.301 547.169C230.179 547.401 230.116 547.681 230.112 548.009ZM240.181 552.573C239.409 552.573 238.741 552.409 238.178 552.081C237.618 551.749 237.185 551.289 236.88 550.699C236.575 550.105 236.423 549.418 236.423 548.635C236.423 547.847 236.575 547.157 236.88 546.567C237.185 545.974 237.618 545.513 238.178 545.185C238.741 544.854 239.409 544.688 240.181 544.688C240.953 544.688 241.62 544.854 242.18 545.185C242.743 545.513 243.177 545.974 243.482 546.567C243.787 547.157 243.94 547.847 243.94 548.635C243.94 549.418 243.787 550.105 243.482 550.699C243.177 551.289 242.743 551.749 242.18 552.081C241.62 552.409 240.953 552.573 240.181 552.573ZM240.191 550.932C240.542 550.932 240.836 550.833 241.071 550.634C241.306 550.432 241.484 550.157 241.603 549.809C241.726 549.461 241.787 549.065 241.787 548.621C241.787 548.176 241.726 547.78 241.603 547.432C241.484 547.084 241.306 546.809 241.071 546.607C240.836 546.405 240.542 546.304 240.191 546.304C239.836 546.304 239.538 546.405 239.296 546.607C239.058 546.809 238.877 547.084 238.754 547.432C238.635 547.78 238.575 548.176 238.575 548.621C238.575 549.065 238.635 549.461 238.754 549.809C238.877 550.157 239.058 550.432 239.296 550.634C239.538 550.833 239.836 550.932 240.191 550.932ZM247.435 542.242V552.424H245.317V542.242H247.435ZM251.945 552.548C251.365 552.548 250.84 552.399 250.369 552.101C249.902 551.799 249.531 551.357 249.256 550.773C248.984 550.187 248.848 549.467 248.848 548.616C248.848 547.741 248.989 547.013 249.271 546.433C249.552 545.85 249.927 545.414 250.394 545.126C250.865 544.834 251.38 544.688 251.94 544.688C252.368 544.688 252.724 544.761 253.009 544.907C253.297 545.049 253.53 545.228 253.705 545.444C253.884 545.656 254.02 545.865 254.113 546.07H254.177V542.242H256.29V552.424H254.202V551.201H254.113C254.013 551.413 253.873 551.623 253.69 551.832C253.511 552.038 253.278 552.208 252.989 552.344C252.704 552.48 252.356 552.548 251.945 552.548ZM252.616 550.863C252.958 550.863 253.246 550.77 253.481 550.584C253.72 550.395 253.902 550.132 254.028 549.794C254.158 549.456 254.222 549.06 254.222 548.606C254.222 548.152 254.159 547.757 254.033 547.422C253.907 547.088 253.725 546.829 253.486 546.647C253.248 546.465 252.958 546.373 252.616 546.373C252.268 546.373 251.975 546.468 251.736 546.657C251.498 546.846 251.317 547.108 251.195 547.442C251.072 547.777 251.011 548.165 251.011 548.606C251.011 549.05 251.072 549.443 251.195 549.784C251.32 550.122 251.501 550.387 251.736 550.579C251.975 550.768 252.268 550.863 252.616 550.863ZM261.512 552.573C260.726 552.573 260.05 552.414 259.483 552.096C258.92 551.774 258.486 551.32 258.181 550.733C257.876 550.144 257.723 549.446 257.723 548.64C257.723 547.855 257.876 547.166 258.181 546.572C258.486 545.979 258.915 545.517 259.468 545.185C260.025 544.854 260.678 544.688 261.427 544.688C261.931 544.688 262.4 544.769 262.834 544.932C263.272 545.091 263.653 545.331 263.978 545.653C264.306 545.974 264.561 546.378 264.743 546.866C264.926 547.349 265.017 547.916 265.017 548.566V549.148H258.569V547.835H263.023C263.023 547.53 262.957 547.26 262.824 547.025C262.692 546.789 262.508 546.605 262.272 546.473C262.04 546.337 261.77 546.269 261.462 546.269C261.141 546.269 260.856 546.344 260.607 546.493C260.362 546.639 260.169 546.836 260.03 547.084C259.891 547.33 259.82 547.603 259.816 547.905V549.153C259.816 549.53 259.886 549.857 260.025 550.132C260.168 550.407 260.368 550.619 260.627 550.768C260.885 550.917 261.192 550.992 261.547 550.992C261.782 550.992 261.997 550.959 262.193 550.893C262.388 550.826 262.556 550.727 262.695 550.594C262.834 550.462 262.94 550.299 263.013 550.107L264.972 550.236C264.873 550.707 264.669 551.118 264.361 551.469C264.056 551.817 263.661 552.089 263.177 552.285C262.697 552.477 262.142 552.573 261.512 552.573ZM266.399 552.424V544.787H268.452V546.12H268.532C268.671 545.646 268.905 545.288 269.233 545.046C269.561 544.801 269.939 544.678 270.366 544.678C270.472 544.678 270.587 544.685 270.709 544.698C270.832 544.711 270.94 544.729 271.032 544.753V546.632C270.933 546.602 270.795 546.576 270.62 546.552C270.444 546.529 270.283 546.518 270.138 546.518C269.826 546.518 269.548 546.586 269.302 546.721C269.06 546.854 268.868 547.04 268.726 547.278C268.586 547.517 268.517 547.792 268.517 548.104V552.424H266.399Z" fill="#CBD5E1"/>
<mask id="mask2_52_511" style="mask-type:luminance" maskUnits="userSpaceOnUse" x="187" y="570" width="294" height="147">
<path d="M480.299 570.304H187.159V716.874H480.299V570.304Z" fill="white"/>
</mask>
<g mask="url(#mask2_52_511)">
<path d="M469.096 570.304H198.362C192.175 570.304 187.159 575.319 187.159 581.507V705.671C187.159 711.858 192.175 716.874 198.362 716.874H469.096C475.283 716.874 480.299 711.858 480.299 705.671V581.507C480.299 575.319 475.283 570.304 469.096 570.304Z" fill="url(#paint3_linear_52_511)"/>
<g filter="url(#filter3_d_52_511)">
<path d="M262.777 610.448C262.777 608.467 263.564 606.567 264.965 605.167C266.365 603.766 268.265 602.979 270.246 602.979H279.129C280.614 602.979 282.039 602.389 283.089 601.339L288.917 595.511L294.745 601.339C295.265 601.859 295.883 602.272 296.562 602.553C297.242 602.834 297.97 602.979 298.706 602.979H397.211C399.192 602.979 401.092 603.766 402.492 605.167C403.893 606.567 404.68 608.467 404.68 610.448V680.465C404.68 682.446 403.893 684.346 402.492 685.747C401.092 687.147 399.192 687.934 397.211 687.934H270.246C268.265 687.934 266.365 687.147 264.965 685.747C263.564 684.346 262.777 682.446 262.777 680.465V610.448Z" fill="white"/>
</g>
<path d="M299.188 617.916H331.862M299.188 640.322H331.862" stroke="#4B5563" stroke-width="2.8007" stroke-linecap="round" stroke-linejoin="round"/>
<path d="M299.188 625.384H367.338M299.188 647.79H367.338" stroke="#D1D5DB" stroke-width="2.8007" stroke-linecap="round" stroke-linejoin="round"/>
<path d="M286.118 613.248H278.649C276.587 613.248 274.915 614.919 274.915 616.982V624.45C274.915 626.513 276.587 628.185 278.649 628.185H286.118C288.18 628.185 289.852 626.513 289.852 624.45V616.982C289.852 614.919 288.18 613.248 286.118 613.248Z" fill="#FED7AA"/>
<path d="M286.118 636.587H278.649C276.587 636.587 274.915 638.259 274.915 640.322V647.79C274.915 649.853 276.587 651.524 278.649 651.524H286.118C288.18 651.524 289.852 649.853 289.852 647.79V640.322C289.852 638.259 288.18 636.587 286.118 636.587Z" fill="#FED7AA"/>
</g>
<path d="M515.028 545.17C514.989 544.769 514.818 544.458 514.516 544.236C514.215 544.014 513.805 543.903 513.288 543.903C512.937 543.903 512.64 543.952 512.399 544.052C512.157 544.148 511.971 544.282 511.842 544.454C511.716 544.627 511.653 544.822 511.653 545.041C511.646 545.223 511.684 545.382 511.767 545.518C511.853 545.654 511.971 545.772 512.12 545.871C512.269 545.967 512.442 546.052 512.637 546.125C512.833 546.194 513.042 546.254 513.264 546.304L514.178 546.523C514.622 546.622 515.03 546.755 515.401 546.92C515.773 547.086 516.094 547.29 516.366 547.532C516.638 547.774 516.848 548.059 516.997 548.387C517.15 548.715 517.228 549.091 517.231 549.515C517.228 550.139 517.069 550.679 516.754 551.136C516.442 551.59 515.991 551.943 515.401 552.195C514.815 552.444 514.107 552.568 513.278 552.568C512.457 552.568 511.741 552.442 511.131 552.19C510.524 551.938 510.05 551.565 509.709 551.072C509.371 550.574 509.194 549.96 509.177 549.227H511.26C511.283 549.568 511.381 549.854 511.553 550.082C511.729 550.308 511.963 550.478 512.254 550.594C512.549 550.707 512.882 550.763 513.254 550.763C513.618 550.763 513.935 550.71 514.203 550.604C514.475 550.498 514.685 550.351 514.835 550.162C514.984 549.973 515.058 549.756 515.058 549.51C515.058 549.282 514.99 549.09 514.854 548.934C514.722 548.778 514.526 548.645 514.268 548.536C514.013 548.427 513.699 548.327 513.328 548.238L512.22 547.959C511.361 547.751 510.683 547.424 510.186 546.98C509.689 546.536 509.442 545.938 509.445 545.185C509.442 544.569 509.606 544.03 509.938 543.569C510.272 543.109 510.731 542.749 511.315 542.491C511.898 542.232 512.561 542.103 513.303 542.103C514.059 542.103 514.719 542.232 515.282 542.491C515.849 542.749 516.29 543.109 516.604 543.569C516.919 544.03 517.082 544.564 517.092 545.17H515.028ZM522.119 552.573C521.334 552.573 520.658 552.414 520.091 552.096C519.527 551.774 519.093 551.32 518.788 550.733C518.483 550.144 518.331 549.446 518.331 548.64C518.331 547.855 518.483 547.166 518.788 546.572C519.093 545.979 519.522 545.517 520.076 545.185C520.633 544.854 521.286 544.688 522.035 544.688C522.539 544.688 523.007 544.769 523.442 544.932C523.879 545.091 524.26 545.331 524.585 545.653C524.913 545.974 525.168 546.378 525.351 546.866C525.533 547.349 525.624 547.916 525.624 548.566V549.148H519.176V547.835H523.631C523.631 547.53 523.564 547.26 523.432 547.025C523.299 546.789 523.115 546.605 522.88 546.473C522.648 546.337 522.378 546.269 522.07 546.269C521.748 546.269 521.463 546.344 521.214 546.493C520.969 546.639 520.777 546.836 520.638 547.084C520.498 547.33 520.427 547.603 520.424 547.905V549.153C520.424 549.53 520.494 549.857 520.633 550.132C520.775 550.407 520.976 550.619 521.234 550.768C521.493 550.917 521.799 550.992 522.154 550.992C522.389 550.992 522.605 550.959 522.8 550.893C522.996 550.826 523.163 550.727 523.302 550.594C523.442 550.462 523.548 550.299 523.621 550.107L525.579 550.236C525.48 550.707 525.276 551.118 524.968 551.469C524.663 551.817 524.269 552.089 523.785 552.285C523.304 552.477 522.749 552.573 522.119 552.573ZM530.447 555.447C529.761 555.447 529.172 555.352 528.682 555.163C528.195 554.978 527.807 554.724 527.518 554.403C527.23 554.081 527.043 553.72 526.957 553.319L528.915 553.055C528.975 553.208 529.07 553.35 529.199 553.483C529.328 553.615 529.499 553.721 529.711 553.801C529.926 553.884 530.188 553.925 530.496 553.925C530.957 553.925 531.337 553.813 531.635 553.587C531.936 553.365 532.087 552.992 532.087 552.469V551.072H531.998C531.905 551.284 531.766 551.484 531.58 551.673C531.395 551.862 531.156 552.016 530.864 552.135C530.573 552.255 530.225 552.314 529.82 552.314C529.247 552.314 528.725 552.182 528.254 551.917C527.787 551.648 527.414 551.239 527.136 550.689C526.86 550.135 526.723 549.436 526.723 548.591C526.723 547.726 526.864 547.003 527.146 546.423C527.427 545.843 527.802 545.409 528.269 545.121C528.74 544.832 529.255 544.688 529.815 544.688C530.243 544.688 530.601 544.761 530.889 544.907C531.177 545.049 531.409 545.228 531.585 545.444C531.764 545.656 531.902 545.865 531.998 546.07H532.077V544.787H534.18V552.498C534.18 553.148 534.021 553.692 533.703 554.129C533.385 554.567 532.944 554.895 532.381 555.113C531.82 555.336 531.176 555.447 530.447 555.447ZM530.491 550.724C530.833 550.724 531.121 550.639 531.356 550.47C531.595 550.298 531.777 550.052 531.903 549.734C532.033 549.413 532.097 549.028 532.097 548.581C532.097 548.133 532.034 547.746 531.908 547.417C531.782 547.086 531.6 546.829 531.361 546.647C531.123 546.465 530.833 546.373 530.491 546.373C530.143 546.373 529.85 546.468 529.611 546.657C529.373 546.842 529.192 547.101 529.07 547.432C528.947 547.764 528.886 548.147 528.886 548.581C528.886 549.022 528.947 549.403 529.07 549.724C529.195 550.042 529.376 550.289 529.611 550.465C529.85 550.637 530.143 550.724 530.491 550.724ZM535.866 552.424V544.787H537.884V546.135H537.974C538.133 545.687 538.398 545.334 538.769 545.076C539.14 544.817 539.584 544.688 540.101 544.688C540.625 544.688 541.071 544.819 541.439 545.081C541.807 545.339 542.052 545.691 542.175 546.135H542.254C542.41 545.697 542.692 545.348 543.099 545.086C543.51 544.821 543.996 544.688 544.556 544.688C545.269 544.688 545.847 544.915 546.291 545.369C546.739 545.82 546.962 546.46 546.962 547.288V552.424H544.849V547.706C544.849 547.282 544.737 546.963 544.511 546.751C544.286 546.539 544.004 546.433 543.666 546.433C543.282 546.433 542.982 546.556 542.766 546.801C542.551 547.043 542.443 547.363 542.443 547.76V552.424H540.39V547.661C540.39 547.287 540.282 546.988 540.067 546.766C539.855 546.544 539.574 546.433 539.226 546.433C538.991 546.433 538.779 546.493 538.59 546.612C538.405 546.728 538.257 546.892 538.148 547.104C538.038 547.313 537.984 547.558 537.984 547.84V552.424H535.866ZM552.115 552.573C551.33 552.573 550.654 552.414 550.087 552.096C549.523 551.774 549.089 551.32 548.784 550.733C548.479 550.144 548.327 549.446 548.327 548.64C548.327 547.855 548.479 547.166 548.784 546.572C549.089 545.979 549.518 545.517 550.072 545.185C550.629 544.854 551.282 544.688 552.031 544.688C552.535 544.688 553.004 544.769 553.438 544.932C553.875 545.091 554.256 545.331 554.581 545.653C554.909 545.974 555.165 546.378 555.347 546.866C555.529 547.349 555.62 547.916 555.62 548.566V549.148H549.172V547.835H553.627C553.627 547.53 553.56 547.26 553.428 547.025C553.295 546.789 553.111 546.605 552.876 546.473C552.644 546.337 552.374 546.269 552.066 546.269C551.744 546.269 551.459 546.344 551.21 546.493C550.965 546.639 550.773 546.836 550.634 547.084C550.495 547.33 550.423 547.603 550.42 547.905V549.153C550.42 549.53 550.49 549.857 550.629 550.132C550.771 550.407 550.972 550.619 551.23 550.768C551.489 550.917 551.795 550.992 552.15 550.992C552.385 550.992 552.601 550.959 552.796 550.893C552.992 550.826 553.159 550.727 553.299 550.594C553.438 550.462 553.544 550.299 553.617 550.107L555.576 550.236C555.476 550.707 555.272 551.118 554.964 551.469C554.659 551.817 554.265 552.089 553.781 552.285C553.3 552.477 552.745 552.573 552.115 552.573ZM559.12 548.009V552.424H557.002V544.787H559.021V546.135H559.11C559.279 545.691 559.563 545.339 559.96 545.081C560.358 544.819 560.84 544.688 561.407 544.688C561.938 544.688 562.4 544.804 562.794 545.036C563.189 545.268 563.495 545.599 563.714 546.03C563.933 546.458 564.042 546.968 564.042 547.562V552.424H561.924V547.939C561.928 547.472 561.808 547.108 561.566 546.846C561.324 546.581 560.991 546.448 560.567 546.448C560.282 546.448 560.03 546.509 559.811 546.632C559.596 546.755 559.427 546.934 559.304 547.169C559.185 547.401 559.124 547.681 559.12 548.009ZM569.773 544.787V546.378H565.174V544.787H569.773ZM566.218 542.958H568.336V550.077C568.336 550.273 568.366 550.425 568.426 550.535C568.486 550.641 568.568 550.715 568.674 550.758C568.784 550.801 568.91 550.823 569.052 550.823C569.152 550.823 569.251 550.815 569.351 550.798C569.45 550.778 569.526 550.763 569.579 550.753L569.912 552.329C569.806 552.363 569.657 552.401 569.465 552.444C569.273 552.49 569.039 552.518 568.764 552.528C568.254 552.548 567.806 552.48 567.422 552.324C567.04 552.169 566.744 551.927 566.532 551.599C566.32 551.27 566.215 550.856 566.218 550.356V542.958ZM577.411 546.965L575.472 547.084C575.439 546.919 575.367 546.769 575.258 546.637C575.149 546.501 575.005 546.393 574.826 546.314C574.65 546.231 574.439 546.189 574.194 546.189C573.866 546.189 573.589 546.259 573.364 546.398C573.139 546.534 573.026 546.716 573.026 546.945C573.026 547.127 573.099 547.282 573.245 547.407C573.39 547.533 573.641 547.635 573.995 547.711L575.377 547.989C576.12 548.142 576.673 548.387 577.038 548.725C577.402 549.063 577.585 549.507 577.585 550.057C577.585 550.558 577.437 550.997 577.142 551.375C576.851 551.753 576.45 552.048 575.939 552.26C575.432 552.469 574.847 552.573 574.184 552.573C573.173 552.573 572.368 552.363 571.768 551.942C571.171 551.517 570.822 550.941 570.719 550.211L572.802 550.102C572.865 550.41 573.018 550.646 573.259 550.808C573.501 550.967 573.811 551.047 574.189 551.047C574.56 551.047 574.859 550.975 575.084 550.833C575.313 550.687 575.429 550.5 575.432 550.271C575.429 550.079 575.348 549.921 575.188 549.799C575.029 549.673 574.784 549.577 574.453 549.51L573.13 549.247C572.384 549.098 571.829 548.839 571.465 548.471C571.103 548.104 570.923 547.635 570.923 547.064C570.923 546.574 571.055 546.151 571.321 545.797C571.589 545.442 571.965 545.169 572.449 544.976C572.936 544.784 573.506 544.688 574.159 544.688C575.124 544.688 575.883 544.892 576.436 545.3C576.993 545.707 577.318 546.262 577.411 546.965Z" fill="#CBD5E1"/>
<mask id="mask3_52_511" style="mask-type:luminance" maskUnits="userSpaceOnUse" x="506" y="570" width="294" height="147">
<path d="M799.354 570.304H506.214V716.874H799.354V570.304Z" fill="white"/>
</mask>
<g mask="url(#mask3_52_511)">
<path d="M788.151 570.304H517.417C511.23 570.304 506.214 575.319 506.214 581.507V705.671C506.214 711.858 511.23 716.874 517.417 716.874H788.151C794.338 716.874 799.354 711.858 799.354 705.671V581.507C799.354 575.319 794.338 570.304 788.151 570.304Z" fill="url(#paint4_linear_52_511)"/>
<path d="M788.151 570.304H517.417C511.23 570.304 506.214 575.319 506.214 581.507V705.671C506.214 711.858 511.23 716.874 517.417 716.874H788.151C794.338 716.874 799.354 711.858 799.354 705.671V581.507C799.354 575.319 794.338 570.304 788.151 570.304Z" fill="url(#paint5_linear_52_511)"/>
<g filter="url(#filter4_d_52_511)">
<path d="M716.266 600.178H589.301C585.176 600.178 581.832 603.522 581.832 607.647V677.664C581.832 681.789 585.176 685.133 589.301 685.133H716.266C720.39 685.133 723.734 681.789 723.734 677.664V607.647C723.734 603.522 720.39 600.178 716.266 600.178Z" fill="white"/>
</g>
<path d="M603.306 641.255H703.198M596.771 650.591H709.733" stroke="#D1D5DB" stroke-width="2.8007" stroke-linecap="round" stroke-linejoin="round"/>
<g opacity="0.75">
<path d="M652.785 630.985C658.972 630.985 663.988 625.97 663.988 619.782C663.988 613.595 658.972 608.58 652.785 608.58C646.598 608.58 641.582 613.595 641.582 619.782C641.582 625.97 646.598 630.985 652.785 630.985Z" fill="#C9F4F5"/>
</g>
</g>
<path d="M834.083 545.17C834.043 544.769 833.873 544.458 833.571 544.236C833.27 544.014 832.86 543.903 832.343 543.903C831.992 543.903 831.695 543.952 831.453 544.052C831.211 544.148 831.026 544.282 830.896 544.454C830.77 544.627 830.707 544.822 830.707 545.041C830.701 545.223 830.739 545.382 830.822 545.518C830.908 545.654 831.026 545.772 831.175 545.871C831.324 545.967 831.496 546.052 831.692 546.125C831.887 546.194 832.096 546.254 832.318 546.304L833.233 546.523C833.677 546.622 834.085 546.755 834.456 546.92C834.827 547.086 835.149 547.29 835.421 547.532C835.692 547.774 835.903 548.059 836.052 548.387C836.204 548.715 836.282 549.091 836.286 549.515C836.282 550.139 836.123 550.679 835.808 551.136C835.497 551.59 835.046 551.943 834.456 552.195C833.869 552.444 833.162 552.568 832.333 552.568C831.511 552.568 830.795 552.442 830.185 552.19C829.579 551.938 829.105 551.565 828.764 551.072C828.426 550.574 828.248 549.96 828.232 549.227H830.315C830.338 549.568 830.436 549.854 830.608 550.082C830.784 550.308 831.017 550.478 831.309 550.594C831.604 550.707 831.937 550.763 832.308 550.763C832.673 550.763 832.989 550.71 833.258 550.604C833.53 550.498 833.74 550.351 833.889 550.162C834.038 549.973 834.113 549.756 834.113 549.51C834.113 549.282 834.045 549.09 833.909 548.934C833.777 548.778 833.581 548.645 833.323 548.536C833.067 548.427 832.754 548.327 832.383 548.238L831.274 547.959C830.416 547.751 829.738 547.424 829.241 546.98C828.744 546.536 828.497 545.938 828.5 545.185C828.497 544.569 828.661 544.03 828.992 543.569C829.327 543.109 829.786 542.749 830.369 542.491C830.953 542.232 831.616 542.103 832.358 542.103C833.114 542.103 833.773 542.232 834.337 542.491C834.903 542.749 835.344 543.109 835.659 543.569C835.974 544.03 836.136 544.564 836.146 545.17H834.083ZM841.756 544.787V546.378H837.157V544.787H841.756ZM838.201 542.958H840.319V550.077C840.319 550.273 840.349 550.425 840.408 550.535C840.468 550.641 840.551 550.715 840.657 550.758C840.766 550.801 840.892 550.823 841.035 550.823C841.134 550.823 841.234 550.815 841.333 550.798C841.432 550.778 841.509 550.763 841.562 550.753L841.895 552.329C841.789 552.363 841.64 552.401 841.447 552.444C841.255 552.49 841.021 552.518 840.746 552.528C840.236 552.548 839.789 552.48 839.404 552.324C839.023 552.169 838.726 551.927 838.514 551.599C838.302 551.27 838.198 550.856 838.201 550.356V542.958ZM845.313 552.568C844.826 552.568 844.391 552.483 844.01 552.314C843.629 552.142 843.327 551.889 843.105 551.554C842.887 551.216 842.777 550.795 842.777 550.291C842.777 549.867 842.855 549.51 843.011 549.222C843.167 548.934 843.379 548.702 843.647 548.526C843.916 548.35 844.221 548.218 844.562 548.128C844.907 548.039 845.268 547.976 845.646 547.939C846.09 547.893 846.448 547.85 846.72 547.81C846.992 547.767 847.189 547.704 847.311 547.621C847.434 547.538 847.495 547.416 847.495 547.253V547.224C847.495 546.909 847.396 546.665 847.197 546.493C847.001 546.32 846.723 546.234 846.362 546.234C845.981 546.234 845.677 546.319 845.452 546.488C845.227 546.653 845.077 546.862 845.005 547.114L843.046 546.955C843.145 546.491 843.341 546.09 843.632 545.752C843.924 545.411 844.3 545.149 844.761 544.966C845.225 544.781 845.762 544.688 846.372 544.688C846.796 544.688 847.202 544.738 847.59 544.837C847.981 544.937 848.327 545.091 848.629 545.3C848.934 545.508 849.174 545.777 849.35 546.105C849.525 546.43 849.613 546.819 849.613 547.273V552.424H847.605V551.365H847.545C847.422 551.604 847.258 551.814 847.053 551.996C846.847 552.175 846.6 552.316 846.312 552.419C846.024 552.518 845.691 552.568 845.313 552.568ZM845.919 551.106C846.231 551.106 846.506 551.045 846.745 550.922C846.983 550.796 847.17 550.627 847.306 550.415C847.442 550.203 847.51 549.963 847.51 549.694V548.884C847.444 548.927 847.353 548.967 847.237 549.003C847.124 549.037 846.996 549.068 846.854 549.098C846.711 549.124 846.569 549.149 846.426 549.172C846.284 549.192 846.155 549.211 846.039 549.227C845.79 549.264 845.573 549.322 845.387 549.401C845.202 549.481 845.058 549.588 844.955 549.724C844.852 549.857 844.801 550.023 844.801 550.221C844.801 550.51 844.905 550.73 845.114 550.883C845.326 551.032 845.594 551.106 845.919 551.106ZM855.318 544.787V546.378H850.719V544.787H855.318ZM851.763 542.958H853.881V550.077C853.881 550.273 853.911 550.425 853.971 550.535C854.03 550.641 854.113 550.715 854.219 550.758C854.329 550.801 854.455 550.823 854.597 550.823C854.697 550.823 854.796 550.815 854.896 550.798C854.995 550.778 855.071 550.763 855.124 550.753L855.457 552.329C855.351 552.363 855.202 552.401 855.01 552.444C854.818 552.49 854.584 552.518 854.309 552.528C853.798 552.548 853.351 552.48 852.967 552.324C852.585 552.169 852.289 551.927 852.077 551.599C851.864 551.27 851.76 550.856 851.763 550.356V542.958ZM862.956 546.965L861.017 547.084C860.984 546.919 860.912 546.769 860.803 546.637C860.694 546.501 860.549 546.393 860.37 546.314C860.195 546.231 859.984 546.189 859.739 546.189C859.411 546.189 859.134 546.259 858.909 546.398C858.683 546.534 858.571 546.716 858.571 546.945C858.571 547.127 858.644 547.282 858.79 547.407C858.935 547.533 859.186 547.635 859.54 547.711L860.922 547.989C861.665 548.142 862.218 548.387 862.583 548.725C862.947 549.063 863.13 549.507 863.13 550.057C863.13 550.558 862.982 550.997 862.687 551.375C862.396 551.753 861.995 552.048 861.484 552.26C860.977 552.469 860.392 552.573 859.729 552.573C858.718 552.573 857.913 552.363 857.313 551.942C856.716 551.517 856.367 550.941 856.264 550.211L858.347 550.102C858.41 550.41 858.562 550.646 858.804 550.808C859.046 550.967 859.356 551.047 859.734 551.047C860.105 551.047 860.404 550.975 860.629 550.833C860.858 550.687 860.974 550.5 860.977 550.271C860.974 550.079 860.892 549.921 860.733 549.799C860.574 549.673 860.329 549.577 859.998 549.51L858.675 549.247C857.929 549.098 857.374 548.839 857.01 548.471C856.648 548.104 856.468 547.635 856.468 547.064C856.468 546.574 856.6 546.151 856.866 545.797C857.134 545.442 857.51 545.169 857.994 544.976C858.481 544.784 859.051 544.688 859.704 544.688C860.669 544.688 861.428 544.892 861.981 545.3C862.538 545.707 862.863 546.262 862.956 546.965Z" fill="#CBD5E1"/>
<mask id="mask4_52_511" style="mask-type:luminance" maskUnits="userSpaceOnUse" x="825" y="570" width="294" height="147">
<path d="M1118.42 570.303H825.265V716.881H1118.42V570.303Z" fill="white"/>
</mask>
<g mask="url(#mask4_52_511)">
<path d="M1107.22 570.303H836.468C830.281 570.303 825.265 575.319 825.265 581.507V705.677C825.265 711.864 830.281 716.881 836.468 716.881H1107.22C1113.4 716.881 1118.42 711.864 1118.42 705.677V581.507C1118.42 575.319 1113.4 570.303 1107.22 570.303Z" fill="url(#paint6_linear_52_511)"/>
<path d="M1107.22 570.303H836.468C830.281 570.303 825.265 575.319 825.265 581.507V705.677C825.265 711.864 830.281 716.881 836.468 716.881H1107.22C1113.4 716.881 1118.42 711.864 1118.42 705.677V581.507C1118.42 575.319 1113.4 570.303 1107.22 570.303Z" fill="url(#paint7_linear_52_511)"/>
<g filter="url(#filter5_d_52_511)">
<path d="M1057.05 600.179H886.636C881.1 600.179 876.612 603.523 876.612 607.648V677.669C876.612 681.794 881.1 685.138 886.636 685.138H1057.05C1062.58 685.138 1067.07 681.794 1067.07 677.669V607.648C1067.07 603.523 1062.58 600.179 1057.05 600.179Z" fill="white"/>
</g>
<g opacity="0.75">
<path d="M911.156 643.125C917.344 643.125 922.36 638.109 922.36 631.921C922.36 625.734 917.344 620.718 911.156 620.718C904.969 620.718 899.953 625.734 899.953 631.921C899.953 638.109 904.969 643.125 911.156 643.125Z" fill="#D1D5DB"/>
</g>
<g opacity="0.75">
<path d="M971.842 643.125C978.029 643.125 983.045 638.109 983.045 631.921C983.045 625.734 978.029 620.718 971.842 620.718C965.655 620.718 960.639 625.734 960.639 631.921C960.639 638.109 965.655 643.125 971.842 643.125Z" fill="#D1D5DB"/>
</g>
<g opacity="0.75">
<path d="M1030.66 643.125C1036.85 643.125 1041.86 638.109 1041.86 631.922C1041.86 625.734 1036.85 620.718 1030.66 620.718C1024.47 620.718 1019.46 625.734 1019.46 631.922C1019.46 638.109 1024.47 643.125 1030.66 643.125Z" fill="#D1D5DB"/>
</g>
</g>
</g>
</g>
<defs>
<filter id="filter0_d_52_511" x="251.575" y="375.323" width="164.308" height="97.0909" filterUnits="userSpaceOnUse" color-interpolation-filters="sRGB">
<feFlood flood-opacity="0" result="BackgroundImageFix"/>
<feColorMatrix in="SourceAlpha" type="matrix" values="0 0 0 0 0 0 0 0 0 0 0 0 0 0 0 0 0 0 127 0" result="hardAlpha"/>
<feOffset dy="3.73427"/>
<feGaussianBlur stdDeviation="3.73427"/>
<feColorMatrix type="matrix" values="0 0 0 0 0 0 0 0 0 0 0 0 0 0 0 0 0 0 0.08 0"/>
<feBlend mode="normal" in2="BackgroundImageFix" result="effect1_dropShadow_52_511"/>
<feBlend mode="normal" in="SourceGraphic" in2="effect1_dropShadow_52_511" result="shape"/>
</filter>
<filter id="filter1_d_52_511" x="574.366" y="374.388" width="156.835" height="99.8893" filterUnits="userSpaceOnUse" color-interpolation-filters="sRGB">
<feFlood flood-opacity="0" result="BackgroundImageFix"/>
<feColorMatrix in="SourceAlpha" type="matrix" values="0 0 0 0 0 0 0 0 0 0 0 0 0 0 0 0 0 0 127 0" result="hardAlpha"/>
<feOffset dy="3.73417"/>
<feGaussianBlur stdDeviation="3.73417"/>
<feColorMatrix type="matrix" values="0 0 0 0 0 0 0 0 0 0 0 0 0 0 0 0 0 0 0.08 0"/>
<feBlend mode="normal" in2="BackgroundImageFix" result="effect1_dropShadow_52_511"/>
<feBlend mode="normal" in="SourceGraphic" in2="effect1_dropShadow_52_511" result="shape"/>
</filter>
<filter id="filter2_d_52_511" x="896.097" y="374.391" width="156.847" height="99.8968" filterUnits="userSpaceOnUse" color-interpolation-filters="sRGB">
<feFlood flood-opacity="0" result="BackgroundImageFix"/>
<feColorMatrix in="SourceAlpha" type="matrix" values="0 0 0 0 0 0 0 0 0 0 0 0 0 0 0 0 0 0 127 0" result="hardAlpha"/>
<feOffset dy="3.73446"/>
<feGaussianBlur stdDeviation="3.73446"/>
<feColorMatrix type="matrix" values="0 0 0 0 0 0 0 0 0 0 0 0 0 0 0 0 0 0 0.08 0"/>
<feBlend mode="normal" in2="BackgroundImageFix" result="effect1_dropShadow_52_511"/>
<feBlend mode="normal" in="SourceGraphic" in2="effect1_dropShadow_52_511" result="shape"/>
</filter>
<filter id="filter3_d_52_511" x="255.309" y="591.776" width="156.839" height="107.36" filterUnits="userSpaceOnUse" color-interpolation-filters="sRGB">
<feFlood flood-opacity="0" result="BackgroundImageFix"/>
<feColorMatrix in="SourceAlpha" type="matrix" values="0 0 0 0 0 0 0 0 0 0 0 0 0 0 0 0 0 0 127 0" result="hardAlpha"/>
<feOffset dy="3.73427"/>
<feGaussianBlur stdDeviation="3.73427"/>
<feColorMatrix type="matrix" values="0 0 0 0 0 0 0 0 0 0 0 0 0 0 0 0 0 0 0.08 0"/>
<feBlend mode="normal" in2="BackgroundImageFix" result="effect1_dropShadow_52_511"/>
<feBlend mode="normal" in="SourceGraphic" in2="effect1_dropShadow_52_511" result="shape"/>
</filter>
<filter id="filter4_d_52_511" x="574.363" y="596.444" width="156.839" height="99.8917" filterUnits="userSpaceOnUse" color-interpolation-filters="sRGB">
<feFlood flood-opacity="0" result="BackgroundImageFix"/>
<feColorMatrix in="SourceAlpha" type="matrix" values="0 0 0 0 0 0 0 0 0 0 0 0 0 0 0 0 0 0 127 0" result="hardAlpha"/>
<feOffset dy="3.73427"/>
<feGaussianBlur stdDeviation="3.73427"/>
<feColorMatrix type="matrix" values="0 0 0 0 0 0 0 0 0 0 0 0 0 0 0 0 0 0 0.08 0"/>
<feBlend mode="normal" in2="BackgroundImageFix" result="effect1_dropShadow_52_511"/>
<feBlend mode="normal" in="SourceGraphic" in2="effect1_dropShadow_52_511" result="shape"/>
</filter>
<filter id="filter5_d_52_511" x="869.143" y="596.445" width="205.395" height="99.8968" filterUnits="userSpaceOnUse" color-interpolation-filters="sRGB">
<feFlood flood-opacity="0" result="BackgroundImageFix"/>
<feColorMatrix in="SourceAlpha" type="matrix" values="0 0 0 0 0 0 0 0 0 0 0 0 0 0 0 0 0 0 127 0" result="hardAlpha"/>
<feOffset dy="3.73446"/>
<feGaussianBlur stdDeviation="3.73446"/>
<feColorMatrix type="matrix" values="0 0 0 0 0 0 0 0 0 0 0 0 0 0 0 0 0 0 0.08 0"/>
<feBlend mode="normal" in2="BackgroundImageFix" result="effect1_dropShadow_52_511"/>
<feBlend mode="normal" in="SourceGraphic" in2="effect1_dropShadow_52_511" result="shape"/>
</filter>
<linearGradient id="paint0_linear_52_511" x1="187.159" y1="347.316" x2="480.943" y2="348.619" gradientUnits="userSpaceOnUse">
<stop stop-color="#D946EF"/>
<stop offset="1" stop-color="#9333EA"/>
</linearGradient>
<linearGradient id="paint1_linear_52_511" x1="506.221" y1="347.316" x2="799.988" y2="348.62" gradientUnits="userSpaceOnUse">
<stop stop-color="#A855F7"/>
<stop offset="1" stop-color="#6366F1"/>
</linearGradient>
<linearGradient id="paint2_linear_52_511" x1="827.944" y1="347.316" x2="1121.74" y2="348.619" gradientUnits="userSpaceOnUse">
<stop stop-color="#38BDF8"/>
<stop offset="1" stop-color="#6366F1"/>
</linearGradient>
<linearGradient id="paint3_linear_52_511" x1="187.159" y1="570.304" x2="480.943" y2="571.607" gradientUnits="userSpaceOnUse">
<stop stop-color="#FB923C"/>
<stop offset="1" stop-color="#DB2777"/>
</linearGradient>
<linearGradient id="paint4_linear_52_511" x1="506.214" y1="570.304" x2="799.998" y2="571.607" gradientUnits="userSpaceOnUse">
<stop stop-color="#AAF0F4"/>
<stop offset="1" stop-color="#10B981"/>
</linearGradient>
<linearGradient id="paint5_linear_52_511" x1="506.214" y1="570.304" x2="799.998" y2="571.607" gradientUnits="userSpaceOnUse">
<stop stop-color="#2DD4BF"/>
<stop offset="1" stop-color="#22D3EE"/>
</linearGradient>
<linearGradient id="paint6_linear_52_511" x1="825.265" y1="570.303" x2="1119.06" y2="571.607" gradientUnits="userSpaceOnUse">
<stop stop-color="#AAF0F4"/>
<stop offset="1" stop-color="#10B981"/>
</linearGradient>
<linearGradient id="paint7_linear_52_511" x1="825.265" y1="570.303" x2="1119.06" y2="571.607" gradientUnits="userSpaceOnUse">
<stop stop-color="#2DD4BF"/>
<stop offset="1" stop-color="#22D3EE"/>
</linearGradient>
<clipPath id="clip0_52_511">
<rect width="1200" height="650" fill="white"/>
</clipPath>
<clipPath id="clip1_52_511">
<rect width="24" height="24" fill="white" transform="translate(1160 16)"/>
</clipPath>
<clipPath id="clip2_52_511">
<rect width="1044" height="1153" fill="white" transform="translate(151.42 85)"/>
</clipPath>
</defs>
</svg>
