<svg width="32" height="32" viewBox="0 0 32 32" fill="none" xmlns="http://www.w3.org/2000/svg">
<rect width="32" height="32" rx="16" fill="url(#paint0_linear_34_563)"/>
<g opacity="0.25">
<path d="M8.26669 19.8933C10.4022 19.8933 12.1334 18.1622 12.1334 16.0267C12.1334 13.8912 10.4022 12.16 8.26669 12.16C6.13119 12.16 4.40002 13.8912 4.40002 16.0267C4.40002 18.1622 6.13119 19.8933 8.26669 19.8933Z" fill="white"/>
</g>
<g opacity="0.5">
<path d="M13.4222 19.8933C15.5577 19.8933 17.2889 18.1622 17.2889 16.0267C17.2889 13.8912 15.5577 12.16 13.4222 12.16C11.2867 12.16 9.55554 13.8912 9.55554 16.0267C9.55554 18.1622 11.2867 19.8933 13.4222 19.8933Z" fill="white"/>
</g>
<g opacity="0.75">
<path d="M18.5778 19.8933C20.7133 19.8933 22.4445 18.1622 22.4445 16.0267C22.4445 13.8912 20.7133 12.16 18.5778 12.16C16.4423 12.16 14.7112 13.8912 14.7112 16.0267C14.7112 18.1622 16.4423 19.8933 18.5778 19.8933Z" fill="white"/>
</g>
<path d="M23.7334 19.8933C25.8689 19.8933 27.6 18.1622 27.6 16.0267C27.6 13.8912 25.8689 12.16 23.7334 12.16C21.5979 12.16 19.8667 13.8912 19.8667 16.0267C19.8667 18.1622 21.5979 19.8933 23.7334 19.8933Z" fill="white"/>
<defs>
<linearGradient id="paint0_linear_34_563" x1="5.50036e-07" y1="15.24" x2="31.985" y2="15.24" gradientUnits="userSpaceOnUse">
<stop stop-color="#38BDF8"/>
<stop offset="1" stop-color="#2563EB"/>
</linearGradient>
</defs>
</svg>
