<svg width="1512" height="982" viewBox="0 0 1512 982" fill="none" xmlns="http://www.w3.org/2000/svg">
<g clip-path="url(#clip0_46_4429)">
<rect width="1512" height="982" fill="#0B0B15"/>
<mask id="path-1-inside-1_46_4429" fill="white">
<path d="M0 0H250V982H0V0Z"/>
</mask>
<path d="M0 0H250V982H0V0Z" fill="#0F0F1B"/>
<path d="M31.282 18.6853C24.552 19.0386 19.0386 24.552 18.6853 31.282C18.2826 38.972 24.398 45.3333 32 45.3333V43.2526C32 42.566 31.476 42.01 30.794 41.928C25.688 41.314 21.766 36.8526 22.0113 31.528C22.2453 26.4353 26.436 22.2453 31.528 22.0113C37.2653 21.7466 42 26.3206 42 32C42 32 41.9993 32.1593 41.978 32.4413C41.9346 33.436 41.748 34.392 41.4346 35.2906C40.528 38.374 38.1666 42.8666 32 45.3333C39.364 45.3333 45.3333 39.364 45.3333 32C45.3333 24.398 38.972 18.2826 31.282 18.6853Z" fill="#5B63D3"/>
<path d="M71.4453 31.5352V32.4141C71.4453 33.7031 71.2734 34.8633 70.9297 35.8945C70.5859 36.918 70.0977 37.7891 69.4648 38.5078C68.832 39.2266 68.0781 39.7773 67.2031 40.1602C66.3281 40.543 65.3555 40.7344 64.2852 40.7344C63.2305 40.7344 62.2617 40.543 61.3789 40.1602C60.5039 39.7773 59.7461 39.2266 59.1055 38.5078C58.4648 37.7891 57.9688 36.918 57.6172 35.8945C57.2656 34.8633 57.0898 33.7031 57.0898 32.4141V31.5352C57.0898 30.2383 57.2656 29.0781 57.6172 28.0547C57.9688 27.0312 58.4609 26.1602 59.0938 25.4414C59.7266 24.7148 60.4805 24.1602 61.3555 23.7773C62.2383 23.3945 63.207 23.2031 64.2617 23.2031C65.332 23.2031 66.3047 23.3945 67.1797 23.7773C68.0547 24.1602 68.8086 24.7148 69.4414 25.4414C70.082 26.1602 70.5742 27.0312 70.918 28.0547C71.2695 29.0781 71.4453 30.2383 71.4453 31.5352ZM68.1875 32.4141V31.5117C68.1875 30.582 68.1016 29.7656 67.9297 29.0625C67.7578 28.3516 67.5039 27.7539 67.168 27.2695C66.832 26.7852 66.418 26.4219 65.9258 26.1797C65.4336 25.9297 64.8789 25.8047 64.2617 25.8047C63.6367 25.8047 63.082 25.9297 62.5977 26.1797C62.1211 26.4219 61.7148 26.7852 61.3789 27.2695C61.043 27.7539 60.7852 28.3516 60.6055 29.0625C60.4336 29.7656 60.3477 30.582 60.3477 31.5117V32.4141C60.3477 33.3359 60.4336 34.1523 60.6055 34.8633C60.7852 35.5742 61.043 36.1758 61.3789 36.668C61.7227 37.1523 62.1367 37.5195 62.6211 37.7695C63.1055 38.0195 63.6602 38.1445 64.2852 38.1445C64.9102 38.1445 65.4648 38.0195 65.9492 37.7695C66.4336 37.5195 66.8398 37.1523 67.168 36.668C67.5039 36.1758 67.7578 35.5742 67.9297 34.8633C68.1016 34.1523 68.1875 33.3359 68.1875 32.4141ZM80.7383 34.2773H76.3438V31.7461H80.7383C81.457 31.7461 82.0391 31.6289 82.4844 31.3945C82.9375 31.1523 83.2695 30.8242 83.4805 30.4102C83.6914 29.9883 83.7969 29.5078 83.7969 28.9688C83.7969 28.4453 83.6914 27.957 83.4805 27.5039C83.2695 27.0508 82.9375 26.6836 82.4844 26.4023C82.0391 26.1211 81.457 25.9805 80.7383 25.9805H77.3984V40.5H74.1758V23.4375H80.7383C82.0664 23.4375 83.1992 23.6758 84.1367 24.1523C85.082 24.6211 85.8008 25.2734 86.293 26.1094C86.793 26.9375 87.043 27.8828 87.043 28.9453C87.043 30.0469 86.793 30.9961 86.293 31.793C85.8008 32.5898 85.082 33.2031 84.1367 33.6328C83.1992 34.0625 82.0664 34.2773 80.7383 34.2773ZM94.5078 26.0273L89.6445 40.5H86.2344L92.6094 23.4375H94.7891L94.5078 26.0273ZM98.5742 40.5L93.6875 26.0273L93.3945 23.4375H95.5859L101.996 40.5H98.5742ZM98.3516 34.1602V36.7031H89.1992V34.1602H98.3516ZM114.582 37.9688V40.5H106.004V37.9688H114.582ZM106.977 23.4375V40.5H103.754V23.4375H106.977Z" fill="#939DB8"/>
<rect x="8" y="72" width="234" height="36" rx="4" fill="#141623"/>
<path d="M25.2784 96V84.3636H27.0341V89.4205H32.8352V84.3636H34.5966V96H32.8352V90.9261H27.0341V96H25.2784ZM40.6932 96.1761C39.875 96.1761 39.161 95.9886 38.5511 95.6136C37.9413 95.2386 37.4678 94.714 37.1307 94.0398C36.7936 93.3655 36.625 92.5777 36.625 91.6761C36.625 90.7708 36.7936 89.9792 37.1307 89.3011C37.4678 88.6231 37.9413 88.0966 38.5511 87.7216C39.161 87.3466 39.875 87.1591 40.6932 87.1591C41.5114 87.1591 42.2254 87.3466 42.8352 87.7216C43.4451 88.0966 43.9186 88.6231 44.2557 89.3011C44.5928 89.9792 44.7614 90.7708 44.7614 91.6761C44.7614 92.5777 44.5928 93.3655 44.2557 94.0398C43.9186 94.714 43.4451 95.2386 42.8352 95.6136C42.2254 95.9886 41.5114 96.1761 40.6932 96.1761ZM40.6989 94.75C41.2292 94.75 41.6686 94.6098 42.017 94.3295C42.3655 94.0492 42.6231 93.6761 42.7898 93.2102C42.9602 92.7443 43.0455 92.2311 43.0455 91.6705C43.0455 91.1136 42.9602 90.6023 42.7898 90.1364C42.6231 89.6667 42.3655 89.2898 42.017 89.0057C41.6686 88.7216 41.2292 88.5795 40.6989 88.5795C40.1648 88.5795 39.7216 88.7216 39.3693 89.0057C39.0208 89.2898 38.7614 89.6667 38.5909 90.1364C38.4242 90.6023 38.3409 91.1136 38.3409 91.6705C38.3409 92.2311 38.4242 92.7443 38.5909 93.2102C38.7614 93.6761 39.0208 94.0492 39.3693 94.3295C39.7216 94.6098 40.1648 94.75 40.6989 94.75ZM46.6577 96V87.2727H48.2884V88.6932H48.3963C48.5781 88.2121 48.8755 87.8371 49.2884 87.5682C49.7012 87.2955 50.1955 87.1591 50.7713 87.1591C51.3546 87.1591 51.8433 87.2955 52.2372 87.5682C52.6349 87.8409 52.9285 88.2159 53.1179 88.6932H53.2088C53.4171 88.2273 53.7486 87.8561 54.2031 87.5795C54.6577 87.2992 55.1993 87.1591 55.8281 87.1591C56.6198 87.1591 57.2656 87.4072 57.7656 87.9034C58.2694 88.3996 58.5213 89.1477 58.5213 90.1477V96H56.8224V90.3068C56.8224 89.7159 56.6615 89.2879 56.3395 89.0227C56.0175 88.7576 55.633 88.625 55.1861 88.625C54.633 88.625 54.2031 88.7955 53.8963 89.1364C53.5895 89.4735 53.4361 89.9072 53.4361 90.4375V96H51.7429V90.1989C51.7429 89.7254 51.5952 89.3447 51.2997 89.0568C51.0043 88.7689 50.6198 88.625 50.1463 88.625C49.8243 88.625 49.527 88.7102 49.2543 88.8807C48.9853 89.0473 48.7675 89.2803 48.6009 89.5795C48.438 89.8788 48.3565 90.2254 48.3565 90.6193V96H46.6577ZM64.5597 96.1761C63.6998 96.1761 62.9593 95.9924 62.3381 95.625C61.7206 95.2538 61.2434 94.733 60.9062 94.0625C60.5729 93.3883 60.4062 92.5985 60.4062 91.6932C60.4062 90.7992 60.5729 90.0114 60.9062 89.3295C61.2434 88.6477 61.7131 88.1155 62.3153 87.733C62.9214 87.3504 63.6297 87.1591 64.4403 87.1591C64.9328 87.1591 65.41 87.2405 65.8722 87.4034C66.3343 87.5663 66.7491 87.822 67.1165 88.1705C67.4839 88.5189 67.7737 88.9716 67.9858 89.5284C68.1979 90.0814 68.304 90.7538 68.304 91.5455V92.1477H61.3665V90.875H66.6392C66.6392 90.428 66.5483 90.0322 66.3665 89.6875C66.1847 89.339 65.929 89.0644 65.5994 88.8636C65.2737 88.6629 64.8911 88.5625 64.4517 88.5625C63.9744 88.5625 63.5578 88.6799 63.2017 88.9148C62.8494 89.1458 62.5767 89.4489 62.3835 89.8239C62.1941 90.1951 62.0994 90.5985 62.0994 91.0341V92.0284C62.0994 92.6117 62.2017 93.108 62.4062 93.517C62.6146 93.9261 62.9044 94.2386 63.2756 94.4545C63.6468 94.6667 64.0805 94.7727 64.5767 94.7727C64.8987 94.7727 65.1922 94.7273 65.4574 94.6364C65.7225 94.5417 65.9517 94.4015 66.1449 94.2159C66.3381 94.0303 66.4858 93.8011 66.5881 93.5284L68.196 93.8182C68.0672 94.2917 67.8362 94.7064 67.5028 95.0625C67.1733 95.4148 66.7585 95.6894 66.2585 95.8864C65.7623 96.0795 65.196 96.1761 64.5597 96.1761Z" fill="white"/>
<path d="M25.2784 140V128.364H29.5398C30.3655 128.364 31.0492 128.5 31.5909 128.773C32.1326 129.042 32.5379 129.407 32.8068 129.869C33.0758 130.328 33.2102 130.845 33.2102 131.42C33.2102 131.905 33.1212 132.314 32.9432 132.648C32.7652 132.977 32.5265 133.242 32.2273 133.443C31.9318 133.64 31.6061 133.784 31.25 133.875V133.989C31.6364 134.008 32.0133 134.133 32.3807 134.364C32.7519 134.591 33.0587 134.915 33.3011 135.335C33.5436 135.756 33.6648 136.267 33.6648 136.869C33.6648 137.464 33.5246 137.998 33.2443 138.472C32.9678 138.941 32.5398 139.314 31.9602 139.591C31.3807 139.864 30.6402 140 29.7386 140H25.2784ZM27.0341 138.494H29.5682C30.4091 138.494 31.0114 138.331 31.375 138.006C31.7386 137.68 31.9205 137.273 31.9205 136.784C31.9205 136.417 31.8277 136.08 31.642 135.773C31.4564 135.466 31.1913 135.222 30.8466 135.04C30.5057 134.858 30.1004 134.767 29.6307 134.767H27.0341V138.494ZM27.0341 133.398H29.3864C29.7803 133.398 30.1345 133.322 30.4489 133.17C30.767 133.019 31.0189 132.807 31.2045 132.534C31.3939 132.258 31.4886 131.932 31.4886 131.557C31.4886 131.076 31.3201 130.672 30.983 130.347C30.6458 130.021 30.1288 129.858 29.4318 129.858H27.0341V133.398ZM39.2869 140.176C38.4688 140.176 37.7547 139.989 37.1449 139.614C36.535 139.239 36.0616 138.714 35.7244 138.04C35.3873 137.366 35.2188 136.578 35.2188 135.676C35.2188 134.771 35.3873 133.979 35.7244 133.301C36.0616 132.623 36.535 132.097 37.1449 131.722C37.7547 131.347 38.4688 131.159 39.2869 131.159C40.1051 131.159 40.8191 131.347 41.429 131.722C42.0388 132.097 42.5123 132.623 42.8494 133.301C43.1866 133.979 43.3551 134.771 43.3551 135.676C43.3551 136.578 43.1866 137.366 42.8494 138.04C42.5123 138.714 42.0388 139.239 41.429 139.614C40.8191 139.989 40.1051 140.176 39.2869 140.176ZM39.2926 138.75C39.8229 138.75 40.2623 138.61 40.6108 138.33C40.9593 138.049 41.2169 137.676 41.3835 137.21C41.554 136.744 41.6392 136.231 41.6392 135.67C41.6392 135.114 41.554 134.602 41.3835 134.136C41.2169 133.667 40.9593 133.29 40.6108 133.006C40.2623 132.722 39.8229 132.58 39.2926 132.58C38.7585 132.58 38.3153 132.722 37.9631 133.006C37.6146 133.29 37.3551 133.667 37.1847 134.136C37.018 134.602 36.9347 135.114 36.9347 135.67C36.9347 136.231 37.018 136.744 37.1847 137.21C37.3551 137.676 37.6146 138.049 37.9631 138.33C38.3153 138.61 38.7585 138.75 39.2926 138.75ZM47.7912 140.193C47.2382 140.193 46.7382 140.091 46.2912 139.886C45.8442 139.678 45.4901 139.377 45.2287 138.983C44.9711 138.589 44.8423 138.106 44.8423 137.534C44.8423 137.042 44.937 136.636 45.1264 136.318C45.3158 136 45.5715 135.748 45.8935 135.562C46.2154 135.377 46.5753 135.237 46.973 135.142C47.3707 135.047 47.776 134.975 48.1889 134.926C48.7116 134.866 49.1359 134.816 49.4616 134.778C49.7874 134.737 50.0241 134.67 50.1719 134.58C50.3196 134.489 50.3935 134.341 50.3935 134.136V134.097C50.3935 133.6 50.2533 133.216 49.973 132.943C49.6965 132.67 49.2836 132.534 48.7344 132.534C48.1624 132.534 47.7116 132.661 47.3821 132.915C47.0563 133.165 46.831 133.443 46.706 133.75L45.1094 133.386C45.2988 132.856 45.5753 132.428 45.9389 132.102C46.3063 131.773 46.7287 131.534 47.206 131.386C47.6832 131.235 48.1851 131.159 48.7116 131.159C49.0601 131.159 49.4295 131.201 49.8196 131.284C50.2135 131.364 50.581 131.511 50.9219 131.727C51.2666 131.943 51.5488 132.252 51.7685 132.653C51.9882 133.051 52.098 133.568 52.098 134.205V140H50.4389V138.807H50.3707C50.2609 139.027 50.0961 139.242 49.8764 139.455C49.6567 139.667 49.3745 139.843 49.0298 139.983C48.6851 140.123 48.2723 140.193 47.7912 140.193ZM48.1605 138.83C48.6302 138.83 49.0317 138.737 49.3651 138.551C49.7022 138.366 49.9579 138.123 50.1321 137.824C50.3101 137.521 50.3991 137.197 50.3991 136.852V135.727C50.3385 135.788 50.2211 135.845 50.0469 135.898C49.8764 135.947 49.6813 135.991 49.4616 136.028C49.242 136.062 49.0279 136.095 48.8196 136.125C48.6113 136.152 48.437 136.174 48.2969 136.193C47.9673 136.235 47.6662 136.305 47.3935 136.403C47.1245 136.502 46.9086 136.644 46.7457 136.83C46.5866 137.011 46.5071 137.254 46.5071 137.557C46.5071 137.977 46.6624 138.295 46.973 138.511C47.2836 138.723 47.6795 138.83 48.1605 138.83ZM54.3608 140V131.273H56.0028V132.659H56.0938C56.2528 132.189 56.5331 131.82 56.9347 131.551C57.34 131.278 57.7983 131.142 58.3097 131.142C58.4157 131.142 58.5407 131.146 58.6847 131.153C58.8324 131.161 58.9479 131.17 59.0312 131.182V132.807C58.9631 132.788 58.8419 132.767 58.6676 132.744C58.4934 132.718 58.3191 132.705 58.1449 132.705C57.7434 132.705 57.3854 132.79 57.071 132.96C56.7604 133.127 56.5142 133.36 56.3324 133.659C56.1506 133.955 56.0597 134.292 56.0597 134.67V140H54.3608ZM63.456 140.17C62.7514 140.17 62.1226 139.991 61.5696 139.631C61.0204 139.267 60.5885 138.75 60.2741 138.08C59.9635 137.405 59.8082 136.597 59.8082 135.653C59.8082 134.71 59.9654 133.903 60.2798 133.233C60.598 132.562 61.0336 132.049 61.5866 131.693C62.1397 131.337 62.7666 131.159 63.4673 131.159C64.009 131.159 64.4446 131.25 64.7741 131.432C65.1075 131.61 65.3651 131.818 65.5469 132.057C65.7325 132.295 65.8764 132.506 65.9787 132.688H66.081V128.364H67.7798V140H66.1207V138.642H65.9787C65.8764 138.828 65.7287 139.04 65.5355 139.278C65.3461 139.517 65.0848 139.725 64.7514 139.903C64.4181 140.081 63.9863 140.17 63.456 140.17ZM63.831 138.722C64.3196 138.722 64.7325 138.593 65.0696 138.335C65.4105 138.074 65.6681 137.712 65.8423 137.25C66.0204 136.788 66.1094 136.25 66.1094 135.636C66.1094 135.03 66.0223 134.5 65.848 134.045C65.6738 133.591 65.4181 133.237 65.081 132.983C64.7438 132.729 64.3272 132.602 63.831 132.602C63.3196 132.602 62.8935 132.735 62.5526 133C62.2116 133.265 61.9541 133.627 61.7798 134.085C61.6094 134.544 61.5241 135.061 61.5241 135.636C61.5241 136.22 61.6113 136.744 61.7855 137.21C61.9598 137.676 62.2173 138.045 62.5582 138.318C62.9029 138.587 63.3272 138.722 63.831 138.722ZM76.7443 133.403L75.2045 133.676C75.1402 133.479 75.0379 133.292 74.8977 133.114C74.7614 132.936 74.5758 132.79 74.3409 132.676C74.1061 132.562 73.8125 132.506 73.4602 132.506C72.9792 132.506 72.5777 132.614 72.2557 132.83C71.9337 133.042 71.7727 133.316 71.7727 133.653C71.7727 133.945 71.8807 134.18 72.0966 134.358C72.3125 134.536 72.661 134.682 73.142 134.795L74.5284 135.114C75.3314 135.299 75.9299 135.585 76.3239 135.972C76.7178 136.358 76.9148 136.86 76.9148 137.477C76.9148 138 76.7633 138.466 76.4602 138.875C76.161 139.28 75.7424 139.598 75.2045 139.83C74.6705 140.061 74.0511 140.176 73.3466 140.176C72.3693 140.176 71.572 139.968 70.9545 139.551C70.3371 139.131 69.9583 138.534 69.8182 137.761L71.4602 137.511C71.5625 137.939 71.7727 138.263 72.0909 138.483C72.4091 138.699 72.8239 138.807 73.3352 138.807C73.892 138.807 74.3371 138.691 74.6705 138.46C75.0038 138.225 75.1705 137.939 75.1705 137.602C75.1705 137.33 75.0682 137.1 74.8636 136.915C74.6629 136.729 74.3542 136.589 73.9375 136.494L72.4602 136.17C71.6458 135.985 71.0436 135.689 70.6534 135.284C70.267 134.879 70.0739 134.366 70.0739 133.744C70.0739 133.229 70.2178 132.778 70.5057 132.392C70.7936 132.006 71.1913 131.705 71.6989 131.489C72.2064 131.269 72.7879 131.159 73.4432 131.159C74.3864 131.159 75.1288 131.364 75.6705 131.773C76.2121 132.178 76.5701 132.722 76.7443 133.403Z" fill="#939DB8"/>
<path d="M24.7045 173.875V172.364H33.7102V173.875H30.0795V184H28.3295V173.875H24.7045ZM36.9162 184.193C36.3632 184.193 35.8632 184.091 35.4162 183.886C34.9692 183.678 34.6151 183.377 34.3537 182.983C34.0961 182.589 33.9673 182.106 33.9673 181.534C33.9673 181.042 34.062 180.636 34.2514 180.318C34.4408 180 34.6965 179.748 35.0185 179.562C35.3404 179.377 35.7003 179.237 36.098 179.142C36.4957 179.047 36.901 178.975 37.3139 178.926C37.8366 178.866 38.2609 178.816 38.5866 178.778C38.9124 178.737 39.1491 178.67 39.2969 178.58C39.4446 178.489 39.5185 178.341 39.5185 178.136V178.097C39.5185 177.6 39.3783 177.216 39.098 176.943C38.8215 176.67 38.4086 176.534 37.8594 176.534C37.2874 176.534 36.8366 176.661 36.5071 176.915C36.1813 177.165 35.956 177.443 35.831 177.75L34.2344 177.386C34.4238 176.856 34.7003 176.428 35.0639 176.102C35.4313 175.773 35.8537 175.534 36.331 175.386C36.8082 175.235 37.3101 175.159 37.8366 175.159C38.1851 175.159 38.5545 175.201 38.9446 175.284C39.3385 175.364 39.706 175.511 40.0469 175.727C40.3916 175.943 40.6738 176.252 40.8935 176.653C41.1132 177.051 41.223 177.568 41.223 178.205V184H39.5639V182.807H39.4957C39.3859 183.027 39.2211 183.242 39.0014 183.455C38.7817 183.667 38.4995 183.843 38.1548 183.983C37.8101 184.123 37.3973 184.193 36.9162 184.193ZM37.2855 182.83C37.7552 182.83 38.1567 182.737 38.4901 182.551C38.8272 182.366 39.0829 182.123 39.2571 181.824C39.4351 181.521 39.5241 181.197 39.5241 180.852V179.727C39.4635 179.788 39.3461 179.845 39.1719 179.898C39.0014 179.947 38.8063 179.991 38.5866 180.028C38.367 180.062 38.1529 180.095 37.9446 180.125C37.7363 180.152 37.562 180.174 37.4219 180.193C37.0923 180.235 36.7912 180.305 36.5185 180.403C36.2495 180.502 36.0336 180.644 35.8707 180.83C35.7116 181.011 35.6321 181.254 35.6321 181.557C35.6321 181.977 35.7874 182.295 36.098 182.511C36.4086 182.723 36.8045 182.83 37.2855 182.83ZM50.0256 177.403L48.4858 177.676C48.4214 177.479 48.3191 177.292 48.179 177.114C48.0426 176.936 47.857 176.79 47.6222 176.676C47.3873 176.562 47.0938 176.506 46.7415 176.506C46.2604 176.506 45.8589 176.614 45.5369 176.83C45.215 177.042 45.054 177.316 45.054 177.653C45.054 177.945 45.1619 178.18 45.3778 178.358C45.5938 178.536 45.9422 178.682 46.4233 178.795L47.8097 179.114C48.6127 179.299 49.2112 179.585 49.6051 179.972C49.9991 180.358 50.196 180.86 50.196 181.477C50.196 182 50.0445 182.466 49.7415 182.875C49.4422 183.28 49.0237 183.598 48.4858 183.83C47.9517 184.061 47.3324 184.176 46.6278 184.176C45.6506 184.176 44.8532 183.968 44.2358 183.551C43.6184 183.131 43.2396 182.534 43.0994 181.761L44.7415 181.511C44.8438 181.939 45.054 182.263 45.3722 182.483C45.6903 182.699 46.1051 182.807 46.6165 182.807C47.1733 182.807 47.6184 182.691 47.9517 182.46C48.285 182.225 48.4517 181.939 48.4517 181.602C48.4517 181.33 48.3494 181.1 48.1449 180.915C47.9441 180.729 47.6354 180.589 47.2188 180.494L45.7415 180.17C44.9271 179.985 44.3248 179.689 43.9347 179.284C43.5483 178.879 43.3551 178.366 43.3551 177.744C43.3551 177.229 43.4991 176.778 43.7869 176.392C44.0748 176.006 44.4725 175.705 44.9801 175.489C45.4877 175.269 46.0691 175.159 46.7244 175.159C47.6676 175.159 48.41 175.364 48.9517 175.773C49.4934 176.178 49.8513 176.722 50.0256 177.403ZM53.6264 181.04L53.6151 178.966H53.9105L57.3878 175.273H59.4219L55.456 179.477H55.1889L53.6264 181.04ZM52.0639 184V172.364H53.7628V184H52.0639ZM57.5753 184L54.4503 179.852L55.6207 178.665L59.6605 184H57.5753ZM67.5099 177.403L65.9702 177.676C65.9058 177.479 65.8035 177.292 65.6634 177.114C65.527 176.936 65.3414 176.79 65.1065 176.676C64.8717 176.562 64.5781 176.506 64.2259 176.506C63.7448 176.506 63.3433 176.614 63.0213 176.83C62.6993 177.042 62.5384 177.316 62.5384 177.653C62.5384 177.945 62.6463 178.18 62.8622 178.358C63.0781 178.536 63.4266 178.682 63.9077 178.795L65.294 179.114C66.0971 179.299 66.6955 179.585 67.0895 179.972C67.4834 180.358 67.6804 180.86 67.6804 181.477C67.6804 182 67.5289 182.466 67.2259 182.875C66.9266 183.28 66.508 183.598 65.9702 183.83C65.4361 184.061 64.8168 184.176 64.1122 184.176C63.1349 184.176 62.3376 183.968 61.7202 183.551C61.1027 183.131 60.724 182.534 60.5838 181.761L62.2259 181.511C62.3281 181.939 62.5384 182.263 62.8565 182.483C63.1747 182.699 63.5895 182.807 64.1009 182.807C64.6577 182.807 65.1027 182.691 65.4361 182.46C65.7694 182.225 65.9361 181.939 65.9361 181.602C65.9361 181.33 65.8338 181.1 65.6293 180.915C65.4285 180.729 65.1198 180.589 64.7031 180.494L63.2259 180.17C62.4115 179.985 61.8092 179.689 61.419 179.284C61.0327 178.879 60.8395 178.366 60.8395 177.744C60.8395 177.229 60.9834 176.778 61.2713 176.392C61.5592 176.006 61.9569 175.705 62.4645 175.489C62.9721 175.269 63.5535 175.159 64.2088 175.159C65.152 175.159 65.8944 175.364 66.4361 175.773C66.9777 176.178 67.3357 176.722 67.5099 177.403Z" fill="#939DB8"/>
<path d="M249 0V982H251V0H249Z" fill="#1C1F31" mask="url(#path-1-inside-1_46_4429)"/>
<rect x="583" y="10.5" width="499" height="43" rx="3.5" fill="#0F0F1B"/>
<path d="M606.125 29.4205C606.064 28.8826 605.814 28.4659 605.375 28.1705C604.936 27.8712 604.383 27.7216 603.716 27.7216C603.239 27.7216 602.826 27.7973 602.477 27.9489C602.129 28.0966 601.858 28.3011 601.665 28.5625C601.475 28.8201 601.381 29.1136 601.381 29.4432C601.381 29.7197 601.445 29.9583 601.574 30.1591C601.706 30.3598 601.879 30.5284 602.091 30.6648C602.307 30.7973 602.538 30.9091 602.784 31C603.03 31.0871 603.267 31.1591 603.494 31.2159L604.631 31.5114C605.002 31.6023 605.383 31.7254 605.773 31.8807C606.163 32.036 606.525 32.2405 606.858 32.4943C607.191 32.7481 607.46 33.0625 607.665 33.4375C607.873 33.8125 607.977 34.2614 607.977 34.7841C607.977 35.4432 607.807 36.0284 607.466 36.5398C607.129 37.0511 606.638 37.4545 605.994 37.75C605.354 38.0455 604.58 38.1932 603.67 38.1932C602.799 38.1932 602.045 38.0549 601.409 37.7784C600.773 37.5019 600.275 37.1098 599.915 36.6023C599.555 36.0909 599.356 35.4848 599.318 34.7841H601.08C601.114 35.2045 601.25 35.5549 601.489 35.8352C601.731 36.1117 602.04 36.3182 602.415 36.4545C602.794 36.5871 603.208 36.6534 603.659 36.6534C604.155 36.6534 604.597 36.5758 604.983 36.4205C605.373 36.2614 605.68 36.0417 605.903 35.7614C606.127 35.4773 606.239 35.1458 606.239 34.767C606.239 34.4223 606.14 34.1402 605.943 33.9205C605.75 33.7008 605.487 33.5189 605.153 33.375C604.824 33.2311 604.451 33.1042 604.034 32.9943L602.659 32.6193C601.727 32.3655 600.989 31.9924 600.443 31.5C599.902 31.0076 599.631 30.3561 599.631 29.5455C599.631 28.875 599.813 28.2898 600.176 27.7898C600.54 27.2898 601.032 26.9015 601.653 26.625C602.275 26.3447 602.975 26.2045 603.756 26.2045C604.544 26.2045 605.239 26.3428 605.841 26.6193C606.447 26.8958 606.924 27.2765 607.273 27.7614C607.621 28.2424 607.803 28.7955 607.818 29.4205H606.125ZM613.7 38.1761C612.84 38.1761 612.1 37.9924 611.479 37.625C610.861 37.2538 610.384 36.733 610.047 36.0625C609.714 35.3883 609.547 34.5985 609.547 33.6932C609.547 32.7992 609.714 32.0114 610.047 31.3295C610.384 30.6477 610.854 30.1155 611.456 29.733C612.062 29.3504 612.77 29.1591 613.581 29.1591C614.073 29.1591 614.551 29.2405 615.013 29.4034C615.475 29.5663 615.89 29.822 616.257 30.1705C616.625 30.5189 616.914 30.9716 617.126 31.5284C617.339 32.0814 617.445 32.7538 617.445 33.5455V34.1477H610.507V32.875H615.78C615.78 32.428 615.689 32.0322 615.507 31.6875C615.325 31.339 615.07 31.0644 614.74 30.8636C614.414 30.6629 614.032 30.5625 613.592 30.5625C613.115 30.5625 612.698 30.6799 612.342 30.9148C611.99 31.1458 611.717 31.4489 611.524 31.8239C611.335 32.1951 611.24 32.5985 611.24 33.0341V34.0284C611.24 34.6117 611.342 35.108 611.547 35.517C611.755 35.9261 612.045 36.2386 612.416 36.4545C612.787 36.6667 613.221 36.7727 613.717 36.7727C614.039 36.7727 614.333 36.7273 614.598 36.6364C614.863 36.5417 615.092 36.4015 615.286 36.2159C615.479 36.0303 615.626 35.8011 615.729 35.5284L617.337 35.8182C617.208 36.2917 616.977 36.7064 616.643 37.0625C616.314 37.4148 615.899 37.6894 615.399 37.8864C614.903 38.0795 614.337 38.1761 613.7 38.1761ZM621.869 38.1932C621.316 38.1932 620.816 38.0909 620.369 37.8864C619.922 37.678 619.568 37.3769 619.307 36.983C619.049 36.589 618.92 36.1061 618.92 35.5341C618.92 35.0417 619.015 34.6364 619.205 34.3182C619.394 34 619.65 33.7481 619.972 33.5625C620.294 33.3769 620.653 33.2367 621.051 33.142C621.449 33.0473 621.854 32.9754 622.267 32.9261C622.79 32.8655 623.214 32.8163 623.54 32.7784C623.866 32.7367 624.102 32.6705 624.25 32.5795C624.398 32.4886 624.472 32.3409 624.472 32.1364V32.0966C624.472 31.6004 624.331 31.2159 624.051 30.9432C623.775 30.6705 623.362 30.5341 622.812 30.5341C622.241 30.5341 621.79 30.661 621.46 30.9148C621.134 31.1648 620.909 31.4432 620.784 31.75L619.188 31.3864C619.377 30.8561 619.653 30.428 620.017 30.1023C620.384 29.7727 620.807 29.5341 621.284 29.3864C621.761 29.2348 622.263 29.1591 622.79 29.1591C623.138 29.1591 623.508 29.2008 623.898 29.2841C624.292 29.3636 624.659 29.5114 625 29.7273C625.345 29.9432 625.627 30.2519 625.847 30.6534C626.066 31.0511 626.176 31.5682 626.176 32.2045V38H624.517V36.8068H624.449C624.339 37.0265 624.174 37.2424 623.955 37.4545C623.735 37.6667 623.453 37.8428 623.108 37.983C622.763 38.1231 622.35 38.1932 621.869 38.1932ZM622.239 36.8295C622.708 36.8295 623.11 36.7367 623.443 36.5511C623.78 36.3655 624.036 36.1231 624.21 35.8239C624.388 35.5208 624.477 35.197 624.477 34.8523V33.7273C624.417 33.7879 624.299 33.8447 624.125 33.8977C623.955 33.947 623.759 33.9905 623.54 34.0284C623.32 34.0625 623.106 34.0947 622.898 34.125C622.689 34.1515 622.515 34.1742 622.375 34.1932C622.045 34.2348 621.744 34.3049 621.472 34.4034C621.203 34.5019 620.987 34.6439 620.824 34.8295C620.665 35.0114 620.585 35.2538 620.585 35.5568C620.585 35.9773 620.741 36.2955 621.051 36.5114C621.362 36.7235 621.758 36.8295 622.239 36.8295ZM628.439 38V29.2727H630.081V30.6591H630.172C630.331 30.1894 630.611 29.8201 631.013 29.5511C631.418 29.2784 631.876 29.142 632.388 29.142C632.494 29.142 632.619 29.1458 632.763 29.1534C632.911 29.161 633.026 29.1705 633.109 29.1818V30.8068C633.041 30.7879 632.92 30.767 632.746 30.7443C632.571 30.7178 632.397 30.7045 632.223 30.7045C631.821 30.7045 631.464 30.7898 631.149 30.9602C630.839 31.1269 630.592 31.3598 630.411 31.6591C630.229 31.9545 630.138 32.2917 630.138 32.6705V38H628.439ZM637.943 38.1761C637.098 38.1761 636.371 37.9848 635.761 37.6023C635.155 37.2159 634.689 36.6837 634.364 36.0057C634.038 35.3277 633.875 34.5511 633.875 33.6761C633.875 32.7898 634.042 32.0076 634.375 31.3295C634.708 30.6477 635.178 30.1155 635.784 29.733C636.39 29.3504 637.104 29.1591 637.926 29.1591C638.589 29.1591 639.18 29.2822 639.699 29.5284C640.218 29.7708 640.636 30.1117 640.955 30.5511C641.277 30.9905 641.468 31.5038 641.528 32.0909H639.875C639.784 31.6818 639.576 31.3295 639.25 31.0341C638.928 30.7386 638.496 30.5909 637.955 30.5909C637.481 30.5909 637.066 30.7159 636.71 30.9659C636.358 31.2121 636.083 31.5644 635.886 32.0227C635.689 32.4773 635.591 33.0152 635.591 33.6364C635.591 34.2727 635.688 34.822 635.881 35.2841C636.074 35.7462 636.347 36.1042 636.699 36.358C637.055 36.6117 637.473 36.7386 637.955 36.7386C638.277 36.7386 638.568 36.6799 638.83 36.5625C639.095 36.4413 639.316 36.2689 639.494 36.0455C639.676 35.822 639.803 35.553 639.875 35.2386H641.528C641.468 35.803 641.284 36.3068 640.977 36.75C640.67 37.1932 640.259 37.5417 639.744 37.7955C639.233 38.0492 638.633 38.1761 637.943 38.1761ZM645.044 32.8182V38H643.345V26.3636H645.021V30.6932H645.129C645.334 30.2235 645.646 29.8504 646.067 29.5739C646.487 29.2973 647.036 29.1591 647.714 29.1591C648.313 29.1591 648.836 29.2822 649.283 29.5284C649.733 29.7746 650.082 30.142 650.328 30.6307C650.578 31.1155 650.703 31.7216 650.703 32.4489V38H649.004V32.6534C649.004 32.0133 648.839 31.517 648.51 31.1648C648.18 30.8087 647.722 30.6307 647.135 30.6307C646.733 30.6307 646.374 30.7159 646.055 30.8864C645.741 31.0568 645.493 31.3068 645.311 31.6364C645.133 31.9621 645.044 32.3561 645.044 32.8182Z" fill="#4E5366"/>
<rect x="583" y="10.5" width="499" height="43" rx="3.5" stroke="#1C1F31"/>
<rect x="1399" y="10" width="89" height="44" rx="4" fill="#141623"/>
<path d="M1418.39 40.5H1415.6L1421.88 23.0455H1424.92L1431.2 40.5H1428.41L1423.47 26.2159H1423.34L1418.39 40.5ZM1418.86 33.6648H1427.93V35.8807H1418.86V33.6648Z" fill="#939DB8"/>
<path d="M1454 29L1460 35L1466 29" stroke="#4E5366" stroke-width="2" stroke-linecap="round" stroke-linejoin="round"/>
<path d="M291.918 101V83.5455H294.551V91.1307H303.253V83.5455H305.895V101H303.253V93.3892H294.551V101H291.918ZM315.168 101.264C313.878 101.264 312.767 100.989 311.835 100.438C310.909 99.8807 310.193 99.0994 309.688 98.0938C309.188 97.0824 308.938 95.8977 308.938 94.5398C308.938 93.1989 309.188 92.017 309.688 90.9943C310.193 89.9716 310.898 89.1733 311.801 88.5994C312.71 88.0256 313.773 87.7386 314.989 87.7386C315.727 87.7386 316.443 87.8608 317.136 88.1051C317.83 88.3494 318.452 88.733 319.003 89.2557C319.554 89.7784 319.989 90.4574 320.307 91.2926C320.625 92.1222 320.784 93.1307 320.784 94.3182V95.2216H310.378V93.3125H318.287C318.287 92.642 318.151 92.0483 317.878 91.5312C317.605 91.0085 317.222 90.5966 316.727 90.2955C316.239 89.9943 315.665 89.8438 315.006 89.8438C314.29 89.8438 313.665 90.0199 313.131 90.3722C312.602 90.7187 312.193 91.1733 311.903 91.7358C311.619 92.2926 311.477 92.8977 311.477 93.5511V95.0426C311.477 95.9176 311.631 96.6619 311.938 97.2756C312.25 97.8892 312.685 98.358 313.241 98.6818C313.798 99 314.449 99.1591 315.193 99.1591C315.676 99.1591 316.116 99.0909 316.514 98.9545C316.912 98.8125 317.256 98.6023 317.545 98.3239C317.835 98.0455 318.057 97.7017 318.21 97.2926L320.622 97.7273C320.429 98.4375 320.082 99.0597 319.582 99.5938C319.088 100.122 318.466 100.534 317.716 100.83C316.972 101.119 316.122 101.264 315.168 101.264ZM326.16 83.5455V101H323.612V83.5455H326.16ZM332.136 83.5455V101H329.588V83.5455H332.136ZM341.079 101.264C339.852 101.264 338.781 100.983 337.866 100.42C336.951 99.858 336.241 99.071 335.735 98.0597C335.229 97.0483 334.977 95.8665 334.977 94.5142C334.977 93.1562 335.229 91.9687 335.735 90.9517C336.241 89.9347 336.951 89.1449 337.866 88.5824C338.781 88.0199 339.852 87.7386 341.079 87.7386C342.306 87.7386 343.377 88.0199 344.292 88.5824C345.207 89.1449 345.917 89.9347 346.423 90.9517C346.928 91.9687 347.181 93.1562 347.181 94.5142C347.181 95.8665 346.928 97.0483 346.423 98.0597C345.917 99.071 345.207 99.858 344.292 100.42C343.377 100.983 342.306 101.264 341.079 101.264ZM341.087 99.125C341.883 99.125 342.542 98.9148 343.065 98.4943C343.587 98.0739 343.974 97.5142 344.224 96.8153C344.479 96.1165 344.607 95.3466 344.607 94.5057C344.607 93.6705 344.479 92.9034 344.224 92.2045C343.974 91.5 343.587 90.9347 343.065 90.5085C342.542 90.0824 341.883 89.8693 341.087 89.8693C340.286 89.8693 339.621 90.0824 339.093 90.5085C338.57 90.9347 338.181 91.5 337.925 92.2045C337.675 92.9034 337.55 93.6705 337.55 94.5057C337.55 95.3466 337.675 96.1165 337.925 96.8153C338.181 97.5142 338.57 98.0739 339.093 98.4943C339.621 98.9148 340.286 99.125 341.087 99.125ZM353.341 98.6136L353.213 99.5426C353.128 100.224 352.983 100.935 352.778 101.673C352.58 102.418 352.372 103.108 352.156 103.744C351.946 104.381 351.773 104.886 351.636 105.261H349.83C349.903 104.909 350.006 104.432 350.136 103.83C350.267 103.233 350.395 102.565 350.52 101.827C350.645 101.088 350.739 100.335 350.801 99.5682L350.886 98.6136H353.341ZM364.689 101H361.893L368.175 83.5455H371.217L377.499 101H374.703L369.768 86.7159H369.632L364.689 101ZM365.158 94.1648H374.226V96.3807H365.158V94.1648ZM385.118 101.264C383.851 101.264 382.76 100.977 381.845 100.403C380.936 99.8239 380.237 99.0256 379.749 98.0085C379.26 96.9915 379.016 95.8267 379.016 94.5142C379.016 93.1847 379.266 92.0114 379.766 90.9943C380.266 89.9716 380.97 89.1733 381.879 88.5994C382.788 88.0256 383.859 87.7386 385.092 87.7386C386.087 87.7386 386.973 87.9233 387.751 88.2926C388.53 88.6562 389.158 89.1676 389.635 89.8267C390.118 90.4858 390.405 91.2557 390.496 92.1364H388.016C387.879 91.5227 387.567 90.9943 387.078 90.5511C386.595 90.108 385.947 89.8864 385.135 89.8864C384.425 89.8864 383.803 90.0739 383.268 90.4489C382.74 90.8182 382.328 91.3466 382.033 92.0341C381.737 92.7159 381.589 93.5227 381.589 94.4545C381.589 95.4091 381.734 96.233 382.024 96.9261C382.314 97.6193 382.723 98.1562 383.251 98.5369C383.786 98.9176 384.413 99.108 385.135 99.108C385.618 99.108 386.055 99.0199 386.447 98.8438C386.845 98.6619 387.178 98.4034 387.445 98.0682C387.717 97.733 387.908 97.3295 388.016 96.858H390.496C390.405 97.7045 390.129 98.4602 389.669 99.125C389.209 99.7898 388.592 100.312 387.82 100.693C387.053 101.074 386.152 101.264 385.118 101.264ZM393.221 101V87.9091H395.667V90.0398H395.829C396.102 89.3182 396.548 88.7557 397.167 88.3523C397.786 87.9432 398.528 87.7386 399.391 87.7386C400.266 87.7386 400.999 87.9432 401.59 88.3523C402.187 88.7614 402.627 89.3239 402.911 90.0398H403.048C403.36 89.3409 403.857 88.7841 404.539 88.3693C405.221 87.9489 406.033 87.7386 406.977 87.7386C408.164 87.7386 409.133 88.1108 409.883 88.8551C410.638 89.5994 411.016 90.7216 411.016 92.2216V101H408.468V92.4602C408.468 91.5739 408.227 90.9318 407.744 90.5341C407.261 90.1364 406.684 89.9375 406.013 89.9375C405.184 89.9375 404.539 90.1932 404.079 90.7045C403.619 91.2102 403.388 91.8608 403.388 92.6562V101H400.849V92.2983C400.849 91.5881 400.627 91.017 400.184 90.5852C399.741 90.1534 399.164 89.9375 398.454 89.9375C397.971 89.9375 397.525 90.0653 397.116 90.321C396.712 90.571 396.386 90.9205 396.136 91.3693C395.891 91.8182 395.769 92.3381 395.769 92.929V101H393.221ZM420.074 101.264C418.784 101.264 417.673 100.989 416.741 100.438C415.815 99.8807 415.099 99.0994 414.594 98.0938C414.094 97.0824 413.844 95.8977 413.844 94.5398C413.844 93.1989 414.094 92.017 414.594 90.9943C415.099 89.9716 415.804 89.1733 416.707 88.5994C417.616 88.0256 418.679 87.7386 419.895 87.7386C420.634 87.7386 421.349 87.8608 422.043 88.1051C422.736 88.3494 423.358 88.733 423.909 89.2557C424.46 89.7784 424.895 90.4574 425.213 91.2926C425.531 92.1222 425.69 93.1307 425.69 94.3182V95.2216H415.284V93.3125H423.193C423.193 92.642 423.057 92.0483 422.784 91.5312C422.511 91.0085 422.128 90.5966 421.634 90.2955C421.145 89.9943 420.571 89.8438 419.912 89.8438C419.196 89.8438 418.571 90.0199 418.037 90.3722C417.509 90.7187 417.099 91.1733 416.81 91.7358C416.526 92.2926 416.384 92.8977 416.384 93.5511V95.0426C416.384 95.9176 416.537 96.6619 416.844 97.2756C417.156 97.8892 417.591 98.358 418.148 98.6818C418.705 99 419.355 99.1591 420.099 99.1591C420.582 99.1591 421.023 99.0909 421.42 98.9545C421.818 98.8125 422.162 98.6023 422.452 98.3239C422.741 98.0455 422.963 97.7017 423.116 97.2926L425.528 97.7273C425.335 98.4375 424.989 99.0597 424.489 99.5938C423.994 100.122 423.372 100.534 422.622 100.83C421.878 101.119 421.028 101.264 420.074 101.264ZM431.731 83.5455L431.509 95.9801H429.148L428.927 83.5455H431.731ZM430.333 101.162C429.862 101.162 429.458 100.997 429.123 100.668C428.788 100.332 428.623 99.929 428.629 99.4574C428.623 98.9915 428.788 98.5937 429.123 98.2642C429.458 97.929 429.862 97.7614 430.333 97.7614C430.793 97.7614 431.191 97.929 431.526 98.2642C431.862 98.5937 432.032 98.9915 432.038 99.4574C432.032 99.7699 431.95 100.057 431.79 100.318C431.637 100.574 431.433 100.778 431.177 100.932C430.921 101.085 430.64 101.162 430.333 101.162Z" fill="white"/>
<path d="M291.278 141V129.364H295.426C296.328 129.364 297.076 129.519 297.67 129.83C298.269 130.14 298.716 130.57 299.011 131.119C299.307 131.665 299.455 132.295 299.455 133.011C299.455 133.723 299.305 134.35 299.006 134.892C298.71 135.43 298.263 135.848 297.665 136.148C297.07 136.447 296.322 136.597 295.42 136.597H292.278V135.085H295.261C295.83 135.085 296.292 135.004 296.648 134.841C297.008 134.678 297.271 134.441 297.438 134.131C297.604 133.82 297.688 133.447 297.688 133.011C297.688 132.572 297.602 132.191 297.432 131.869C297.265 131.547 297.002 131.301 296.642 131.131C296.286 130.956 295.818 130.869 295.239 130.869H293.034V141H291.278ZM297.023 135.75L299.898 141H297.898L295.08 135.75H297.023ZM305.107 141.176C304.247 141.176 303.506 140.992 302.885 140.625C302.268 140.254 301.79 139.733 301.453 139.062C301.12 138.388 300.953 137.598 300.953 136.693C300.953 135.799 301.12 135.011 301.453 134.33C301.79 133.648 302.26 133.116 302.862 132.733C303.468 132.35 304.177 132.159 304.987 132.159C305.48 132.159 305.957 132.241 306.419 132.403C306.881 132.566 307.296 132.822 307.663 133.17C308.031 133.519 308.321 133.972 308.533 134.528C308.745 135.081 308.851 135.754 308.851 136.545V137.148H301.913V135.875H307.186C307.186 135.428 307.095 135.032 306.913 134.688C306.732 134.339 306.476 134.064 306.146 133.864C305.821 133.663 305.438 133.562 304.999 133.562C304.521 133.562 304.105 133.68 303.749 133.915C303.396 134.146 303.124 134.449 302.93 134.824C302.741 135.195 302.646 135.598 302.646 136.034V137.028C302.646 137.612 302.749 138.108 302.953 138.517C303.161 138.926 303.451 139.239 303.822 139.455C304.194 139.667 304.627 139.773 305.124 139.773C305.446 139.773 305.739 139.727 306.004 139.636C306.269 139.542 306.499 139.402 306.692 139.216C306.885 139.03 307.033 138.801 307.135 138.528L308.743 138.818C308.614 139.292 308.383 139.706 308.05 140.062C307.72 140.415 307.305 140.689 306.805 140.886C306.309 141.08 305.743 141.176 305.107 141.176ZM314.412 141.176C313.567 141.176 312.84 140.985 312.23 140.602C311.624 140.216 311.158 139.684 310.832 139.006C310.507 138.328 310.344 137.551 310.344 136.676C310.344 135.79 310.51 135.008 310.844 134.33C311.177 133.648 311.647 133.116 312.253 132.733C312.859 132.35 313.573 132.159 314.395 132.159C315.058 132.159 315.649 132.282 316.168 132.528C316.687 132.771 317.105 133.112 317.423 133.551C317.745 133.991 317.937 134.504 317.997 135.091H316.344C316.253 134.682 316.045 134.33 315.719 134.034C315.397 133.739 314.965 133.591 314.423 133.591C313.95 133.591 313.535 133.716 313.179 133.966C312.827 134.212 312.552 134.564 312.355 135.023C312.158 135.477 312.06 136.015 312.06 136.636C312.06 137.273 312.156 137.822 312.349 138.284C312.543 138.746 312.815 139.104 313.168 139.358C313.524 139.612 313.942 139.739 314.423 139.739C314.745 139.739 315.037 139.68 315.298 139.562C315.563 139.441 315.785 139.269 315.963 139.045C316.145 138.822 316.272 138.553 316.344 138.239H317.997C317.937 138.803 317.753 139.307 317.446 139.75C317.139 140.193 316.728 140.542 316.213 140.795C315.702 141.049 315.101 141.176 314.412 141.176ZM323.575 141.176C322.715 141.176 321.975 140.992 321.354 140.625C320.736 140.254 320.259 139.733 319.922 139.062C319.589 138.388 319.422 137.598 319.422 136.693C319.422 135.799 319.589 135.011 319.922 134.33C320.259 133.648 320.729 133.116 321.331 132.733C321.937 132.35 322.645 132.159 323.456 132.159C323.948 132.159 324.426 132.241 324.888 132.403C325.35 132.566 325.765 132.822 326.132 133.17C326.5 133.519 326.789 133.972 327.001 134.528C327.214 135.081 327.32 135.754 327.32 136.545V137.148H320.382V135.875H325.655C325.655 135.428 325.564 135.032 325.382 134.688C325.2 134.339 324.945 134.064 324.615 133.864C324.289 133.663 323.907 133.562 323.467 133.562C322.99 133.562 322.573 133.68 322.217 133.915C321.865 134.146 321.592 134.449 321.399 134.824C321.21 135.195 321.115 135.598 321.115 136.034V137.028C321.115 137.612 321.217 138.108 321.422 138.517C321.63 138.926 321.92 139.239 322.291 139.455C322.662 139.667 323.096 139.773 323.592 139.773C323.914 139.773 324.208 139.727 324.473 139.636C324.738 139.542 324.967 139.402 325.161 139.216C325.354 139.03 325.501 138.801 325.604 138.528L327.212 138.818C327.083 139.292 326.852 139.706 326.518 140.062C326.189 140.415 325.774 140.689 325.274 140.886C324.778 141.08 324.212 141.176 323.575 141.176ZM330.903 135.818V141H329.205V132.273H330.835V133.693H330.943C331.144 133.231 331.458 132.86 331.886 132.58C332.318 132.299 332.862 132.159 333.517 132.159C334.112 132.159 334.633 132.284 335.08 132.534C335.527 132.78 335.873 133.148 336.119 133.636C336.366 134.125 336.489 134.729 336.489 135.449V141H334.79V135.653C334.79 135.021 334.625 134.527 334.295 134.17C333.966 133.811 333.513 133.631 332.938 133.631C332.544 133.631 332.193 133.716 331.886 133.886C331.583 134.057 331.343 134.307 331.165 134.636C330.991 134.962 330.903 135.356 330.903 135.818ZM342.841 132.273V133.636H338.074V132.273H342.841ZM339.352 130.182H341.051V138.438C341.051 138.767 341.1 139.015 341.199 139.182C341.297 139.345 341.424 139.456 341.58 139.517C341.739 139.574 341.911 139.602 342.097 139.602C342.233 139.602 342.352 139.593 342.455 139.574C342.557 139.555 342.636 139.54 342.693 139.528L343 140.932C342.902 140.97 342.761 141.008 342.58 141.045C342.398 141.087 342.17 141.11 341.898 141.114C341.451 141.121 341.034 141.042 340.648 140.875C340.261 140.708 339.949 140.451 339.71 140.102C339.472 139.754 339.352 139.316 339.352 138.79V130.182ZM349.091 141V129.364H350.79V133.688H350.892C350.991 133.506 351.133 133.295 351.318 133.057C351.504 132.818 351.761 132.61 352.091 132.432C352.42 132.25 352.856 132.159 353.398 132.159C354.102 132.159 354.731 132.337 355.284 132.693C355.837 133.049 356.271 133.562 356.585 134.233C356.903 134.903 357.062 135.71 357.062 136.653C357.062 137.597 356.905 138.405 356.591 139.08C356.277 139.75 355.845 140.267 355.295 140.631C354.746 140.991 354.119 141.17 353.415 141.17C352.884 141.17 352.451 141.081 352.114 140.903C351.78 140.725 351.519 140.517 351.33 140.278C351.14 140.04 350.994 139.828 350.892 139.642H350.75V141H349.091ZM350.756 136.636C350.756 137.25 350.845 137.788 351.023 138.25C351.201 138.712 351.458 139.074 351.795 139.335C352.133 139.593 352.545 139.722 353.034 139.722C353.542 139.722 353.966 139.587 354.307 139.318C354.648 139.045 354.905 138.676 355.08 138.21C355.258 137.744 355.347 137.22 355.347 136.636C355.347 136.061 355.259 135.544 355.085 135.085C354.915 134.627 354.657 134.265 354.312 134C353.972 133.735 353.545 133.602 353.034 133.602C352.542 133.602 352.125 133.729 351.784 133.983C351.447 134.237 351.191 134.591 351.017 135.045C350.843 135.5 350.756 136.03 350.756 136.636ZM362.646 141.176C361.828 141.176 361.114 140.989 360.504 140.614C359.894 140.239 359.421 139.714 359.084 139.04C358.747 138.366 358.578 137.578 358.578 136.676C358.578 135.771 358.747 134.979 359.084 134.301C359.421 133.623 359.894 133.097 360.504 132.722C361.114 132.347 361.828 132.159 362.646 132.159C363.464 132.159 364.179 132.347 364.788 132.722C365.398 133.097 365.872 133.623 366.209 134.301C366.546 134.979 366.714 135.771 366.714 136.676C366.714 137.578 366.546 138.366 366.209 139.04C365.872 139.714 365.398 140.239 364.788 140.614C364.179 140.989 363.464 141.176 362.646 141.176ZM362.652 139.75C363.182 139.75 363.622 139.61 363.97 139.33C364.319 139.049 364.576 138.676 364.743 138.21C364.913 137.744 364.999 137.231 364.999 136.67C364.999 136.114 364.913 135.602 364.743 135.136C364.576 134.667 364.319 134.29 363.97 134.006C363.622 133.722 363.182 133.58 362.652 133.58C362.118 133.58 361.675 133.722 361.322 134.006C360.974 134.29 360.714 134.667 360.544 135.136C360.377 135.602 360.294 136.114 360.294 136.67C360.294 137.231 360.377 137.744 360.544 138.21C360.714 138.676 360.974 139.049 361.322 139.33C361.675 139.61 362.118 139.75 362.652 139.75ZM371.151 141.193C370.598 141.193 370.098 141.091 369.651 140.886C369.204 140.678 368.849 140.377 368.588 139.983C368.33 139.589 368.202 139.106 368.202 138.534C368.202 138.042 368.296 137.636 368.486 137.318C368.675 137 368.931 136.748 369.253 136.562C369.575 136.377 369.935 136.237 370.332 136.142C370.73 136.047 371.135 135.975 371.548 135.926C372.071 135.866 372.495 135.816 372.821 135.778C373.147 135.737 373.384 135.67 373.531 135.58C373.679 135.489 373.753 135.341 373.753 135.136V135.097C373.753 134.6 373.613 134.216 373.332 133.943C373.056 133.67 372.643 133.534 372.094 133.534C371.522 133.534 371.071 133.661 370.741 133.915C370.416 134.165 370.19 134.443 370.065 134.75L368.469 134.386C368.658 133.856 368.935 133.428 369.298 133.102C369.666 132.773 370.088 132.534 370.565 132.386C371.043 132.235 371.545 132.159 372.071 132.159C372.42 132.159 372.789 132.201 373.179 132.284C373.573 132.364 373.94 132.511 374.281 132.727C374.626 132.943 374.908 133.252 375.128 133.653C375.348 134.051 375.457 134.568 375.457 135.205V141H373.798V139.807H373.73C373.62 140.027 373.455 140.242 373.236 140.455C373.016 140.667 372.734 140.843 372.389 140.983C372.045 141.123 371.632 141.193 371.151 141.193ZM371.52 139.83C371.99 139.83 372.391 139.737 372.724 139.551C373.062 139.366 373.317 139.123 373.491 138.824C373.67 138.521 373.759 138.197 373.759 137.852V136.727C373.698 136.788 373.58 136.845 373.406 136.898C373.236 136.947 373.041 136.991 372.821 137.028C372.601 137.062 372.387 137.095 372.179 137.125C371.971 137.152 371.796 137.174 371.656 137.193C371.327 137.235 371.026 137.305 370.753 137.403C370.484 137.502 370.268 137.644 370.105 137.83C369.946 138.011 369.866 138.254 369.866 138.557C369.866 138.977 370.022 139.295 370.332 139.511C370.643 139.723 371.039 139.83 371.52 139.83ZM377.72 141V132.273H379.362V133.659H379.453C379.612 133.189 379.893 132.82 380.294 132.551C380.699 132.278 381.158 132.142 381.669 132.142C381.775 132.142 381.9 132.146 382.044 132.153C382.192 132.161 382.307 132.17 382.391 132.182V133.807C382.322 133.788 382.201 133.767 382.027 133.744C381.853 133.718 381.679 133.705 381.504 133.705C381.103 133.705 380.745 133.79 380.43 133.96C380.12 134.127 379.874 134.36 379.692 134.659C379.51 134.955 379.419 135.292 379.419 135.67V141H377.72ZM386.815 141.17C386.111 141.17 385.482 140.991 384.929 140.631C384.38 140.267 383.948 139.75 383.634 139.08C383.323 138.405 383.168 137.597 383.168 136.653C383.168 135.71 383.325 134.903 383.639 134.233C383.957 133.562 384.393 133.049 384.946 132.693C385.499 132.337 386.126 132.159 386.827 132.159C387.368 132.159 387.804 132.25 388.134 132.432C388.467 132.61 388.724 132.818 388.906 133.057C389.092 133.295 389.236 133.506 389.338 133.688H389.44V129.364H391.139V141H389.48V139.642H389.338C389.236 139.828 389.088 140.04 388.895 140.278C388.705 140.517 388.444 140.725 388.111 140.903C387.777 141.081 387.346 141.17 386.815 141.17ZM387.19 139.722C387.679 139.722 388.092 139.593 388.429 139.335C388.77 139.074 389.027 138.712 389.202 138.25C389.38 137.788 389.469 137.25 389.469 136.636C389.469 136.03 389.382 135.5 389.207 135.045C389.033 134.591 388.777 134.237 388.44 133.983C388.103 133.729 387.687 133.602 387.19 133.602C386.679 133.602 386.253 133.735 385.912 134C385.571 134.265 385.313 134.627 385.139 135.085C384.969 135.544 384.884 136.061 384.884 136.636C384.884 137.22 384.971 137.744 385.145 138.21C385.319 138.676 385.577 139.045 385.918 139.318C386.262 139.587 386.687 139.722 387.19 139.722ZM400.104 134.403L398.564 134.676C398.5 134.479 398.397 134.292 398.257 134.114C398.121 133.936 397.935 133.79 397.7 133.676C397.465 133.562 397.172 133.506 396.82 133.506C396.339 133.506 395.937 133.614 395.615 133.83C395.293 134.042 395.132 134.316 395.132 134.653C395.132 134.945 395.24 135.18 395.456 135.358C395.672 135.536 396.02 135.682 396.501 135.795L397.888 136.114C398.691 136.299 399.289 136.585 399.683 136.972C400.077 137.358 400.274 137.86 400.274 138.477C400.274 139 400.123 139.466 399.82 139.875C399.52 140.28 399.102 140.598 398.564 140.83C398.03 141.061 397.411 141.176 396.706 141.176C395.729 141.176 394.931 140.968 394.314 140.551C393.696 140.131 393.318 139.534 393.178 138.761L394.82 138.511C394.922 138.939 395.132 139.263 395.45 139.483C395.768 139.699 396.183 139.807 396.695 139.807C397.251 139.807 397.696 139.691 398.03 139.46C398.363 139.225 398.53 138.939 398.53 138.602C398.53 138.33 398.428 138.1 398.223 137.915C398.022 137.729 397.714 137.589 397.297 137.494L395.82 137.17C395.005 136.985 394.403 136.689 394.013 136.284C393.626 135.879 393.433 135.366 393.433 134.744C393.433 134.229 393.577 133.778 393.865 133.392C394.153 133.006 394.551 132.705 395.058 132.489C395.566 132.269 396.147 132.159 396.803 132.159C397.746 132.159 398.488 132.364 399.03 132.773C399.571 133.178 399.929 133.722 400.104 134.403Z" fill="#939DB8"/>
<path d="M410.636 135.182C410.636 133.758 410.824 132.447 411.199 131.25C411.574 130.053 412.121 128.949 412.841 127.938H414.398C414.117 128.312 413.856 128.773 413.614 129.318C413.371 129.864 413.159 130.462 412.977 131.114C412.795 131.761 412.653 132.434 412.551 133.131C412.449 133.824 412.398 134.508 412.398 135.182C412.398 136.083 412.487 136.996 412.665 137.92C412.843 138.845 413.083 139.703 413.386 140.494C413.689 141.286 414.027 141.932 414.398 142.432H412.841C412.121 141.42 411.574 140.316 411.199 139.119C410.824 137.922 410.636 136.61 410.636 135.182ZM415.922 138.727V137.307L420.95 129.364H422.07V131.455H421.359L417.763 137.148V137.239H424.655V138.727H415.922ZM421.439 141V138.295L421.45 137.648V129.364H423.115V141H421.439ZM429.925 135.182C429.925 136.61 429.737 137.922 429.362 139.119C428.987 140.316 428.44 141.42 427.72 142.432H426.163C426.444 142.057 426.705 141.597 426.947 141.051C427.19 140.506 427.402 139.909 427.584 139.261C427.766 138.61 427.908 137.936 428.01 137.239C428.112 136.542 428.163 135.856 428.163 135.182C428.163 134.284 428.074 133.373 427.896 132.449C427.718 131.525 427.478 130.667 427.175 129.875C426.872 129.083 426.535 128.438 426.163 127.938H427.72C428.44 128.949 428.987 130.053 429.362 131.25C429.737 132.447 429.925 133.758 429.925 135.182Z" fill="#5B63D3"/>
<rect x="274.5" y="165.5" width="249" height="199" rx="3.5" fill="#0F0F1B"/>
<rect x="366" y="259" width="66" height="12" rx="6" fill="#252941"/>
<rect x="274.5" y="165.5" width="249" height="199" rx="3.5" stroke="#1C1F31"/>
<rect x="548.5" y="165.5" width="249" height="199" rx="3.5" fill="#0F0F1B"/>
<rect x="640" y="259" width="66" height="12" rx="6" fill="#252941"/>
<rect x="548.5" y="165.5" width="249" height="199" rx="3.5" stroke="#1C1F31"/>
<rect x="822.5" y="165.5" width="249" height="199" rx="3.5" fill="#0F0F1B"/>
<rect x="914" y="259" width="66" height="12" rx="6" fill="#252941"/>
<rect x="822.5" y="165.5" width="249" height="199" rx="3.5" stroke="#1C1F31"/>
<rect x="1096.5" y="165.5" width="249" height="199" rx="3.5" fill="#0F0F1B"/>
<rect x="1188" y="259" width="66" height="12" rx="6" fill="#252941"/>
<rect x="1096.5" y="165.5" width="249" height="199" rx="3.5" stroke="#1C1F31"/>
<path d="M291.278 417V405.364H295.426C296.328 405.364 297.076 405.519 297.67 405.83C298.269 406.14 298.716 406.57 299.011 407.119C299.307 407.665 299.455 408.295 299.455 409.011C299.455 409.723 299.305 410.35 299.006 410.892C298.71 411.43 298.263 411.848 297.665 412.148C297.07 412.447 296.322 412.597 295.42 412.597H292.278V411.085H295.261C295.83 411.085 296.292 411.004 296.648 410.841C297.008 410.678 297.271 410.441 297.438 410.131C297.604 409.82 297.688 409.447 297.688 409.011C297.688 408.572 297.602 408.191 297.432 407.869C297.265 407.547 297.002 407.301 296.642 407.131C296.286 406.956 295.818 406.869 295.239 406.869H293.034V417H291.278ZM297.023 411.75L299.898 417H297.898L295.08 411.75H297.023ZM305.107 417.176C304.247 417.176 303.506 416.992 302.885 416.625C302.268 416.254 301.79 415.733 301.453 415.062C301.12 414.388 300.953 413.598 300.953 412.693C300.953 411.799 301.12 411.011 301.453 410.33C301.79 409.648 302.26 409.116 302.862 408.733C303.468 408.35 304.177 408.159 304.987 408.159C305.48 408.159 305.957 408.241 306.419 408.403C306.881 408.566 307.296 408.822 307.663 409.17C308.031 409.519 308.321 409.972 308.533 410.528C308.745 411.081 308.851 411.754 308.851 412.545V413.148H301.913V411.875H307.186C307.186 411.428 307.095 411.032 306.913 410.688C306.732 410.339 306.476 410.064 306.146 409.864C305.821 409.663 305.438 409.562 304.999 409.562C304.521 409.562 304.105 409.68 303.749 409.915C303.396 410.146 303.124 410.449 302.93 410.824C302.741 411.195 302.646 411.598 302.646 412.034V413.028C302.646 413.612 302.749 414.108 302.953 414.517C303.161 414.926 303.451 415.239 303.822 415.455C304.194 415.667 304.627 415.773 305.124 415.773C305.446 415.773 305.739 415.727 306.004 415.636C306.269 415.542 306.499 415.402 306.692 415.216C306.885 415.03 307.033 414.801 307.135 414.528L308.743 414.818C308.614 415.292 308.383 415.706 308.05 416.062C307.72 416.415 307.305 416.689 306.805 416.886C306.309 417.08 305.743 417.176 305.107 417.176ZM314.412 417.176C313.567 417.176 312.84 416.985 312.23 416.602C311.624 416.216 311.158 415.684 310.832 415.006C310.507 414.328 310.344 413.551 310.344 412.676C310.344 411.79 310.51 411.008 310.844 410.33C311.177 409.648 311.647 409.116 312.253 408.733C312.859 408.35 313.573 408.159 314.395 408.159C315.058 408.159 315.649 408.282 316.168 408.528C316.687 408.771 317.105 409.112 317.423 409.551C317.745 409.991 317.937 410.504 317.997 411.091H316.344C316.253 410.682 316.045 410.33 315.719 410.034C315.397 409.739 314.965 409.591 314.423 409.591C313.95 409.591 313.535 409.716 313.179 409.966C312.827 410.212 312.552 410.564 312.355 411.023C312.158 411.477 312.06 412.015 312.06 412.636C312.06 413.273 312.156 413.822 312.349 414.284C312.543 414.746 312.815 415.104 313.168 415.358C313.524 415.612 313.942 415.739 314.423 415.739C314.745 415.739 315.037 415.68 315.298 415.562C315.563 415.441 315.785 415.269 315.963 415.045C316.145 414.822 316.272 414.553 316.344 414.239H317.997C317.937 414.803 317.753 415.307 317.446 415.75C317.139 416.193 316.728 416.542 316.213 416.795C315.702 417.049 315.101 417.176 314.412 417.176ZM323.575 417.176C322.715 417.176 321.975 416.992 321.354 416.625C320.736 416.254 320.259 415.733 319.922 415.062C319.589 414.388 319.422 413.598 319.422 412.693C319.422 411.799 319.589 411.011 319.922 410.33C320.259 409.648 320.729 409.116 321.331 408.733C321.937 408.35 322.645 408.159 323.456 408.159C323.948 408.159 324.426 408.241 324.888 408.403C325.35 408.566 325.765 408.822 326.132 409.17C326.5 409.519 326.789 409.972 327.001 410.528C327.214 411.081 327.32 411.754 327.32 412.545V413.148H320.382V411.875H325.655C325.655 411.428 325.564 411.032 325.382 410.688C325.2 410.339 324.945 410.064 324.615 409.864C324.289 409.663 323.907 409.562 323.467 409.562C322.99 409.562 322.573 409.68 322.217 409.915C321.865 410.146 321.592 410.449 321.399 410.824C321.21 411.195 321.115 411.598 321.115 412.034V413.028C321.115 413.612 321.217 414.108 321.422 414.517C321.63 414.926 321.92 415.239 322.291 415.455C322.662 415.667 323.096 415.773 323.592 415.773C323.914 415.773 324.208 415.727 324.473 415.636C324.738 415.542 324.967 415.402 325.161 415.216C325.354 415.03 325.501 414.801 325.604 414.528L327.212 414.818C327.083 415.292 326.852 415.706 326.518 416.062C326.189 416.415 325.774 416.689 325.274 416.886C324.778 417.08 324.212 417.176 323.575 417.176ZM330.903 411.818V417H329.205V408.273H330.835V409.693H330.943C331.144 409.231 331.458 408.86 331.886 408.58C332.318 408.299 332.862 408.159 333.517 408.159C334.112 408.159 334.633 408.284 335.08 408.534C335.527 408.78 335.873 409.148 336.119 409.636C336.366 410.125 336.489 410.729 336.489 411.449V417H334.79V411.653C334.79 411.021 334.625 410.527 334.295 410.17C333.966 409.811 333.513 409.631 332.938 409.631C332.544 409.631 332.193 409.716 331.886 409.886C331.583 410.057 331.343 410.307 331.165 410.636C330.991 410.962 330.903 411.356 330.903 411.818ZM342.841 408.273V409.636H338.074V408.273H342.841ZM339.352 406.182H341.051V414.438C341.051 414.767 341.1 415.015 341.199 415.182C341.297 415.345 341.424 415.456 341.58 415.517C341.739 415.574 341.911 415.602 342.097 415.602C342.233 415.602 342.352 415.593 342.455 415.574C342.557 415.555 342.636 415.54 342.693 415.528L343 416.932C342.902 416.97 342.761 417.008 342.58 417.045C342.398 417.087 342.17 417.11 341.898 417.114C341.451 417.121 341.034 417.042 340.648 416.875C340.261 416.708 339.949 416.451 339.71 416.102C339.472 415.754 339.352 415.316 339.352 414.79V406.182ZM353.028 408.273V409.636H348.261V408.273H353.028ZM349.54 406.182H351.239V414.438C351.239 414.767 351.288 415.015 351.386 415.182C351.485 415.345 351.612 415.456 351.767 415.517C351.926 415.574 352.098 415.602 352.284 415.602C352.42 415.602 352.54 415.593 352.642 415.574C352.744 415.555 352.824 415.54 352.881 415.528L353.188 416.932C353.089 416.97 352.949 417.008 352.767 417.045C352.585 417.087 352.358 417.11 352.085 417.114C351.638 417.121 351.222 417.042 350.835 416.875C350.449 416.708 350.136 416.451 349.898 416.102C349.659 415.754 349.54 415.316 349.54 414.79V406.182ZM357.447 417.193C356.894 417.193 356.394 417.091 355.947 416.886C355.5 416.678 355.146 416.377 354.885 415.983C354.627 415.589 354.499 415.106 354.499 414.534C354.499 414.042 354.593 413.636 354.783 413.318C354.972 413 355.228 412.748 355.55 412.562C355.872 412.377 356.232 412.237 356.629 412.142C357.027 412.047 357.432 411.975 357.845 411.926C358.368 411.866 358.792 411.816 359.118 411.778C359.444 411.737 359.68 411.67 359.828 411.58C359.976 411.489 360.05 411.341 360.05 411.136V411.097C360.05 410.6 359.91 410.216 359.629 409.943C359.353 409.67 358.94 409.534 358.391 409.534C357.819 409.534 357.368 409.661 357.038 409.915C356.713 410.165 356.487 410.443 356.362 410.75L354.766 410.386C354.955 409.856 355.232 409.428 355.595 409.102C355.963 408.773 356.385 408.534 356.862 408.386C357.339 408.235 357.841 408.159 358.368 408.159C358.716 408.159 359.086 408.201 359.476 408.284C359.87 408.364 360.237 408.511 360.578 408.727C360.923 408.943 361.205 409.252 361.425 409.653C361.644 410.051 361.754 410.568 361.754 411.205V417H360.095V415.807H360.027C359.917 416.027 359.752 416.242 359.533 416.455C359.313 416.667 359.031 416.843 358.686 416.983C358.341 417.123 357.929 417.193 357.447 417.193ZM357.817 415.83C358.286 415.83 358.688 415.737 359.021 415.551C359.358 415.366 359.614 415.123 359.788 414.824C359.966 414.521 360.055 414.197 360.055 413.852V412.727C359.995 412.788 359.877 412.845 359.703 412.898C359.533 412.947 359.338 412.991 359.118 413.028C358.898 413.062 358.684 413.095 358.476 413.125C358.268 413.152 358.093 413.174 357.953 413.193C357.624 413.235 357.322 413.305 357.05 413.403C356.781 413.502 356.565 413.644 356.402 413.83C356.243 414.011 356.163 414.254 356.163 414.557C356.163 414.977 356.319 415.295 356.629 415.511C356.94 415.723 357.336 415.83 357.817 415.83ZM370.557 410.403L369.017 410.676C368.953 410.479 368.85 410.292 368.71 410.114C368.574 409.936 368.388 409.79 368.153 409.676C367.919 409.562 367.625 409.506 367.273 409.506C366.792 409.506 366.39 409.614 366.068 409.83C365.746 410.042 365.585 410.316 365.585 410.653C365.585 410.945 365.693 411.18 365.909 411.358C366.125 411.536 366.473 411.682 366.955 411.795L368.341 412.114C369.144 412.299 369.742 412.585 370.136 412.972C370.53 413.358 370.727 413.86 370.727 414.477C370.727 415 370.576 415.466 370.273 415.875C369.973 416.28 369.555 416.598 369.017 416.83C368.483 417.061 367.864 417.176 367.159 417.176C366.182 417.176 365.384 416.968 364.767 416.551C364.15 416.131 363.771 415.534 363.631 414.761L365.273 414.511C365.375 414.939 365.585 415.263 365.903 415.483C366.222 415.699 366.636 415.807 367.148 415.807C367.705 415.807 368.15 415.691 368.483 415.46C368.816 415.225 368.983 414.939 368.983 414.602C368.983 414.33 368.881 414.1 368.676 413.915C368.475 413.729 368.167 413.589 367.75 413.494L366.273 413.17C365.458 412.985 364.856 412.689 364.466 412.284C364.08 411.879 363.886 411.366 363.886 410.744C363.886 410.229 364.03 409.778 364.318 409.392C364.606 409.006 365.004 408.705 365.511 408.489C366.019 408.269 366.6 408.159 367.256 408.159C368.199 408.159 368.941 408.364 369.483 408.773C370.025 409.178 370.383 409.722 370.557 410.403ZM374.158 414.04L374.146 411.966H374.442L377.919 408.273H379.953L375.987 412.477H375.72L374.158 414.04ZM372.595 417V405.364H374.294V417H372.595ZM378.107 417L374.982 412.852L376.152 411.665L380.192 417H378.107ZM388.041 410.403L386.501 410.676C386.437 410.479 386.335 410.292 386.195 410.114C386.058 409.936 385.873 409.79 385.638 409.676C385.403 409.562 385.109 409.506 384.757 409.506C384.276 409.506 383.875 409.614 383.553 409.83C383.231 410.042 383.07 410.316 383.07 410.653C383.07 410.945 383.178 411.18 383.393 411.358C383.609 411.536 383.958 411.682 384.439 411.795L385.825 412.114C386.628 412.299 387.227 412.585 387.621 412.972C388.015 413.358 388.212 413.86 388.212 414.477C388.212 415 388.06 415.466 387.757 415.875C387.458 416.28 387.039 416.598 386.501 416.83C385.967 417.061 385.348 417.176 384.643 417.176C383.666 417.176 382.869 416.968 382.251 416.551C381.634 416.131 381.255 415.534 381.115 414.761L382.757 414.511C382.859 414.939 383.07 415.263 383.388 415.483C383.706 415.699 384.121 415.807 384.632 415.807C385.189 415.807 385.634 415.691 385.967 415.46C386.301 415.225 386.467 414.939 386.467 414.602C386.467 414.33 386.365 414.1 386.161 413.915C385.96 413.729 385.651 413.589 385.234 413.494L383.757 413.17C382.943 412.985 382.34 412.689 381.95 412.284C381.564 411.879 381.371 411.366 381.371 410.744C381.371 410.229 381.515 409.778 381.803 409.392C382.09 409.006 382.488 408.705 382.996 408.489C383.503 408.269 384.085 408.159 384.74 408.159C385.683 408.159 386.426 408.364 386.967 408.773C387.509 409.178 387.867 409.722 388.041 410.403Z" fill="#939DB8"/>
<path d="M398.636 411.182C398.636 409.758 398.824 408.447 399.199 407.25C399.574 406.053 400.121 404.949 400.841 403.938H402.398C402.117 404.312 401.856 404.773 401.614 405.318C401.371 405.864 401.159 406.462 400.977 407.114C400.795 407.761 400.653 408.434 400.551 409.131C400.449 409.824 400.398 410.508 400.398 411.182C400.398 412.083 400.487 412.996 400.665 413.92C400.843 414.845 401.083 415.703 401.386 416.494C401.689 417.286 402.027 417.932 402.398 418.432H400.841C400.121 417.42 399.574 416.316 399.199 415.119C398.824 413.922 398.636 412.61 398.636 411.182ZM404.558 417L409.638 406.955V406.869H403.763V405.364H411.456V406.92L406.393 417H404.558ZM416.722 411.182C416.722 412.61 416.534 413.922 416.159 415.119C415.784 416.316 415.237 417.42 414.517 418.432H412.96C413.241 418.057 413.502 417.597 413.744 417.051C413.987 416.506 414.199 415.909 414.381 415.261C414.563 414.61 414.705 413.936 414.807 413.239C414.909 412.542 414.96 411.856 414.96 411.182C414.96 410.284 414.871 409.373 414.693 408.449C414.515 407.525 414.275 406.667 413.972 405.875C413.669 405.083 413.331 404.438 412.96 403.938H414.517C415.237 404.949 415.784 406.053 416.159 407.25C416.534 408.447 416.722 409.758 416.722 411.182Z" fill="#5B63D3"/>
<rect x="274.5" y="441.5" width="249" height="99" rx="3.5" fill="#0F0F1B"/>
<rect x="366" y="485" width="66" height="12" rx="6" fill="#252941"/>
<rect x="274.5" y="441.5" width="249" height="99" rx="3.5" stroke="#1C1F31"/>
<rect x="548.5" y="441.5" width="249" height="99" rx="3.5" fill="#0F0F1B"/>
<rect x="640" y="485" width="66" height="12" rx="6" fill="#252941"/>
<rect x="548.5" y="441.5" width="249" height="99" rx="3.5" stroke="#1C1F31"/>
<rect x="822.5" y="441.5" width="249" height="99" rx="3.5" fill="#0F0F1B"/>
<rect x="914" y="485" width="66" height="12" rx="6" fill="#252941"/>
<rect x="822.5" y="441.5" width="249" height="99" rx="3.5" stroke="#1C1F31"/>
<rect x="1096.5" y="441.5" width="249" height="99" rx="3.5" fill="#0F0F1B"/>
<rect x="1188" y="485" width="66" height="12" rx="6" fill="#252941"/>
<rect x="1096.5" y="441.5" width="249" height="99" rx="3.5" stroke="#1C1F31"/>
<rect x="274.5" y="565.5" width="249" height="99" rx="3.5" fill="#0F0F1B"/>
<rect x="366" y="609" width="66" height="12" rx="6" fill="#252941"/>
<rect x="274.5" y="565.5" width="249" height="99" rx="3.5" stroke="#1C1F31"/>
<rect x="548.5" y="565.5" width="249" height="99" rx="3.5" fill="#0F0F1B"/>
<rect x="640" y="609" width="66" height="12" rx="6" fill="#252941"/>
<rect x="548.5" y="565.5" width="249" height="99" rx="3.5" stroke="#1C1F31"/>
<rect x="822.5" y="565.5" width="249" height="99" rx="3.5" fill="#0F0F1B"/>
<rect x="914" y="609" width="66" height="12" rx="6" fill="#252941"/>
<rect x="822.5" y="565.5" width="249" height="99" rx="3.5" stroke="#1C1F31"/>
</g>
<defs>
<clipPath id="clip0_46_4429">
<rect width="1512" height="982" fill="white"/>
</clipPath>
</defs>
</svg>
