<svg width="24" height="24" viewBox="0 0 24 24" fill="none" xmlns="http://www.w3.org/2000/svg">
<path d="M11.4616 2.01398C6.41411 2.27898 2.27911 6.41398 2.01411 11.4615C1.71211 17.229 6.29861 22 12.0001 22V20.4395C12.0001 19.9245 11.6071 19.5075 11.0956 19.446C7.26611 18.9855 4.32461 15.6395 4.50861 11.646C4.68411 7.82648 7.82711 4.68398 11.6461 4.50848C15.9491 4.30998 19.5001 7.74048 19.5001 12C19.5001 12 19.4996 12.1195 19.4836 12.331C19.4511 13.077 19.3111 13.794 19.0761 14.468C18.3961 16.7805 16.6251 20.15 12.0001 22C17.5231 22 22.0001 17.523 22.0001 12C22.0001 6.29848 17.2291 1.71198 11.4616 2.01398Z" fill="url(#paint0_linear_8_7)"/>
<defs>
<linearGradient id="paint0_linear_8_7" x1="2.00009" y1="12" x2="22.0001" y2="12" gradientUnits="userSpaceOnUse">
<stop stop-color="#5B63D3"/>
<stop offset="1" stop-color="#5B63D3"/>
</linearGradient>
</defs>
</svg>
