<svg width="1200" height="651" viewBox="0 0 1200 651" fill="none" xmlns="http://www.w3.org/2000/svg">
<g clip-path="url(#clip0_42_321)">
<rect width="1200" height="650" transform="translate(0 0.317505)" fill="#0B0B15"/>
<mask id="path-1-inside-1_42_321" fill="white">
<path d="M0 0.317505H198.413V779.683H0V0.317505Z"/>
</mask>
<path d="M0 0.317505H198.413V779.683H0V0.317505Z" fill="#0F0F1B"/>
<path d="M24.827 15.1471C19.4857 15.4276 15.11 19.8032 14.8296 25.1445C14.51 31.2477 19.3635 36.2963 25.3968 36.2963V34.645C25.3968 34.1 24.9809 33.6588 24.4397 33.5937C20.3873 33.1064 17.2746 29.5656 17.4693 25.3397C17.655 21.2979 20.9809 17.9725 25.0222 17.7868C29.5757 17.5768 33.3333 21.2069 33.3333 25.7143C33.3333 25.7143 33.3328 25.8408 33.3159 26.0646C33.2815 26.854 33.1333 27.6127 32.8847 28.326C32.1651 30.7731 30.291 34.3387 25.3968 36.2963C31.2413 36.2963 35.9788 31.5588 35.9788 25.7143C35.9788 19.681 30.9302 14.8276 24.827 15.1471Z" fill="url(#paint0_linear_42_321)"/>
<path d="M56.0283 25.4907V26.1499C56.0283 27.1167 55.8994 27.9868 55.6416 28.7603C55.3838 29.5278 55.0176 30.1812 54.543 30.7202C54.0684 31.2593 53.5029 31.6724 52.8467 31.9595C52.1904 32.2466 51.4609 32.3901 50.6582 32.3901C49.8672 32.3901 49.1406 32.2466 48.4785 31.9595C47.8223 31.6724 47.2539 31.2593 46.7734 30.7202C46.293 30.1812 45.9209 29.5278 45.6572 28.7603C45.3936 27.9868 45.2617 27.1167 45.2617 26.1499V25.4907C45.2617 24.5181 45.3936 23.6479 45.6572 22.8804C45.9209 22.1128 46.29 21.4595 46.7646 20.9204C47.2393 20.3755 47.8047 19.9595 48.4609 19.6724C49.123 19.3853 49.8496 19.2417 50.6406 19.2417C51.4434 19.2417 52.1729 19.3853 52.8291 19.6724C53.4854 19.9595 54.0508 20.3755 54.5254 20.9204C55.0059 21.4595 55.375 22.1128 55.6328 22.8804C55.8965 23.6479 56.0283 24.5181 56.0283 25.4907ZM53.585 26.1499V25.4731C53.585 24.7759 53.5205 24.1636 53.3916 23.6362C53.2627 23.103 53.0723 22.6548 52.8203 22.2915C52.5684 21.9282 52.2578 21.6558 51.8887 21.4741C51.5195 21.2866 51.1035 21.1929 50.6406 21.1929C50.1719 21.1929 49.7559 21.2866 49.3926 21.4741C49.0352 21.6558 48.7305 21.9282 48.4785 22.2915C48.2266 22.6548 48.0332 23.103 47.8984 23.6362C47.7695 24.1636 47.7051 24.7759 47.7051 25.4731V26.1499C47.7051 26.8413 47.7695 27.4536 47.8984 27.9868C48.0332 28.52 48.2266 28.9712 48.4785 29.3403C48.7363 29.7036 49.0469 29.979 49.4102 30.1665C49.7734 30.354 50.1895 30.4478 50.6582 30.4478C51.127 30.4478 51.543 30.354 51.9062 30.1665C52.2695 29.979 52.5742 29.7036 52.8203 29.3403C53.0723 28.9712 53.2627 28.52 53.3916 27.9868C53.5205 27.4536 53.585 26.8413 53.585 26.1499ZM62.998 27.5474H59.7021V25.6489H62.998C63.5371 25.6489 63.9736 25.561 64.3076 25.3853C64.6475 25.2036 64.8965 24.9575 65.0547 24.647C65.2129 24.3306 65.292 23.9702 65.292 23.5659C65.292 23.1733 65.2129 22.8071 65.0547 22.4673C64.8965 22.1274 64.6475 21.8521 64.3076 21.6411C63.9736 21.4302 63.5371 21.3247 62.998 21.3247H60.4932V32.2144H58.0762V19.4175H62.998C63.9941 19.4175 64.8438 19.5962 65.5469 19.9536C66.2559 20.3052 66.7949 20.7944 67.1641 21.4214C67.5391 22.0425 67.7266 22.7515 67.7266 23.5483C67.7266 24.3745 67.5391 25.0864 67.1641 25.6841C66.7949 26.2817 66.2559 26.7417 65.5469 27.064C64.8438 27.3862 63.9941 27.5474 62.998 27.5474ZM73.3252 21.3599L69.6777 32.2144H67.1201L71.9014 19.4175H73.5361L73.3252 21.3599ZM76.375 32.2144L72.71 21.3599L72.4902 19.4175H74.1338L78.9414 32.2144H76.375ZM76.208 27.4595V29.3667H69.3438V27.4595H76.208ZM88.3809 30.3159V32.2144H81.9473V30.3159H88.3809ZM82.6768 19.4175V32.2144H80.2598V19.4175H82.6768Z" fill="#C9D3EE"/>
<rect x="6.34912" y="57.4603" width="185.714" height="29.0476" rx="3.1746" fill="#141623"/>
<path d="M20.1662 76.9841V66.8023H21.7024V71.227H26.7784V66.8023H28.3196V76.9841H26.7784V72.5445H21.7024V76.9841H20.1662ZM33.6541 77.1383C32.9382 77.1383 32.3135 76.9742 31.7799 76.6461C31.2462 76.3179 30.8319 75.8589 30.537 75.2689C30.242 74.679 30.0945 73.9896 30.0945 73.2007C30.0945 72.4086 30.242 71.7159 30.537 71.1226C30.8319 70.5293 31.2462 70.0686 31.7799 69.7405C32.3135 69.4124 32.9382 69.2483 33.6541 69.2483C34.3701 69.2483 34.9948 69.4124 35.5284 69.7405C36.062 70.0686 36.4763 70.5293 36.7713 71.1226C37.0663 71.7159 37.2138 72.4086 37.2138 73.2007C37.2138 73.9896 37.0663 74.679 36.7713 75.2689C36.4763 75.8589 36.062 76.3179 35.5284 76.6461C34.9948 76.9742 34.3701 77.1383 33.6541 77.1383ZM33.6591 75.8904C34.1231 75.8904 34.5076 75.7677 34.8125 75.5225C35.1174 75.2772 35.3428 74.9508 35.4887 74.5431C35.6378 74.1354 35.7124 73.6863 35.7124 73.1958C35.7124 72.7086 35.6378 72.2611 35.4887 71.8534C35.3428 71.4425 35.1174 71.1127 34.8125 70.8641C34.5076 70.6155 34.1231 70.4912 33.6591 70.4912C33.1918 70.4912 32.804 70.6155 32.4958 70.8641C32.1908 71.1127 31.9638 71.4425 31.8147 71.8534C31.6688 72.2611 31.5959 72.7086 31.5959 73.1958C31.5959 73.6863 31.6688 74.1354 31.8147 74.5431C31.9638 74.9508 32.1908 75.2772 32.4958 75.5225C32.804 75.7677 33.1918 75.8904 33.6591 75.8904ZM38.8731 76.9841V69.3478H40.2999V70.5907H40.3944C40.5535 70.1697 40.8136 69.8416 41.1749 69.6063C41.5362 69.3677 41.9687 69.2483 42.4725 69.2483C42.9829 69.2483 43.4105 69.3677 43.7552 69.6063C44.1032 69.8449 44.36 70.1731 44.5258 70.5907H44.6053C44.7876 70.183 45.0776 69.8582 45.4753 69.6162C45.8731 69.371 46.347 69.2483 46.8972 69.2483C47.5899 69.2483 48.155 69.4654 48.5925 69.8996C49.0333 70.3338 49.2538 70.9884 49.2538 71.8634V76.9841H47.7672V72.0026C47.7672 71.4856 47.6264 71.111 47.3447 70.879C47.0629 70.647 46.7265 70.531 46.3354 70.531C45.8515 70.531 45.4753 70.6802 45.2069 70.9784C44.9384 71.2734 44.8042 71.6529 44.8042 72.1169V76.9841H43.3226V71.9081C43.3226 71.4938 43.1934 71.1607 42.9349 70.9088C42.6763 70.657 42.3399 70.531 41.9256 70.531C41.6439 70.531 41.3837 70.6056 41.1451 70.7547C40.9098 70.9006 40.7192 71.1044 40.5734 71.3662C40.4308 71.6281 40.3596 71.9313 40.3596 72.276V76.9841H38.8731ZM54.5373 77.1383C53.7849 77.1383 53.137 76.9775 52.5934 76.656C52.0532 76.3312 51.6356 75.8755 51.3406 75.2888C51.0489 74.6989 50.9031 74.0078 50.9031 73.2157C50.9031 72.4335 51.0489 71.7441 51.3406 71.1475C51.6356 70.5509 52.0465 70.0852 52.5735 69.7505C53.1038 69.4157 53.7236 69.2483 54.4329 69.2483C54.8638 69.2483 55.2814 69.3196 55.6857 69.4621C56.0901 69.6046 56.453 69.8284 56.7745 70.1333C57.096 70.4382 57.3496 70.8343 57.5352 71.3215C57.7208 71.8054 57.8136 72.3937 57.8136 73.0864V73.6134H51.7433V72.4998H56.3569C56.3569 72.1087 56.2774 71.7623 56.1183 71.4607C55.9592 71.1558 55.7355 70.9155 55.4471 70.7398C55.1621 70.5641 54.8273 70.4763 54.4428 70.4763C54.0252 70.4763 53.6607 70.5791 53.3491 70.7846C53.0409 70.9867 52.8022 71.2519 52.6332 71.58C52.4675 71.9048 52.3846 72.2578 52.3846 72.639V73.509C52.3846 74.0194 52.4741 74.4536 52.6531 74.8115C52.8354 75.1695 53.0889 75.4429 53.4137 75.6319C53.7385 75.8175 54.118 75.9103 54.5522 75.9103C54.8339 75.9103 55.0908 75.8705 55.3228 75.7909C55.5548 75.7081 55.7553 75.5855 55.9244 75.4231C56.0934 75.2606 56.2227 75.0601 56.3122 74.8215L57.7191 75.075C57.6064 75.4893 57.4043 75.8523 57.1126 76.1638C56.8242 76.4721 56.4613 76.7124 56.0238 76.8847C55.5896 77.0537 55.0941 77.1383 54.5373 77.1383Z" fill="white"/>
<path d="M20.1662 112.381V102.199H23.8949C24.6174 102.199 25.2157 102.318 25.6897 102.557C26.1636 102.792 26.5183 103.112 26.7536 103.517C26.9889 103.918 27.1066 104.37 27.1066 104.874C27.1066 105.298 27.0287 105.656 26.8729 105.948C26.7171 106.236 26.5083 106.468 26.2465 106.644C25.9879 106.816 25.7029 106.942 25.3914 107.021V107.121C25.7294 107.137 26.0592 107.247 26.3807 107.449C26.7055 107.648 26.974 107.931 27.1861 108.299C27.3982 108.667 27.5043 109.115 27.5043 109.642C27.5043 110.162 27.3817 110.629 27.1364 111.044C26.8944 111.454 26.5199 111.781 26.0128 112.023C25.5057 112.262 24.8577 112.381 24.0689 112.381H20.1662ZM21.7024 111.063H23.9198C24.6556 111.063 25.1826 110.921 25.5007 110.636C25.8189 110.351 25.978 109.994 25.978 109.567C25.978 109.245 25.8968 108.95 25.7344 108.682C25.572 108.414 25.34 108.2 25.0384 108.041C24.7401 107.882 24.3854 107.802 23.9745 107.802H21.7024V111.063ZM21.7024 106.604H23.7607C24.1054 106.604 24.4153 106.538 24.6904 106.405C24.9688 106.272 25.1892 106.087 25.3516 105.848C25.5173 105.606 25.6002 105.321 25.6002 104.993C25.6002 104.572 25.4527 104.219 25.1577 103.934C24.8627 103.649 24.4103 103.507 23.8004 103.507H21.7024V106.604ZM32.4237 112.535C31.7078 112.535 31.083 112.371 30.5494 112.043C30.0158 111.715 29.6015 111.256 29.3065 110.666C29.0115 110.076 28.864 109.386 28.864 108.597C28.864 107.805 29.0115 107.113 29.3065 106.519C29.6015 105.926 30.0158 105.465 30.5494 105.137C31.083 104.809 31.7078 104.645 32.4237 104.645C33.1396 104.645 33.7643 104.809 34.298 105.137C34.8316 105.465 35.2459 105.926 35.5409 106.519C35.8358 107.113 35.9833 107.805 35.9833 108.597C35.9833 109.386 35.8358 110.076 35.5409 110.666C35.2459 111.256 34.8316 111.715 34.298 112.043C33.7643 112.371 33.1396 112.535 32.4237 112.535ZM32.4286 111.287C32.8927 111.287 33.2771 111.164 33.5821 110.919C33.887 110.674 34.1124 110.347 34.2582 109.94C34.4073 109.532 34.4819 109.083 34.4819 108.593C34.4819 108.105 34.4073 107.658 34.2582 107.25C34.1124 106.839 33.887 106.509 33.5821 106.261C33.2771 106.012 32.8927 105.888 32.4286 105.888C31.9613 105.888 31.5735 106.012 31.2653 106.261C30.9604 106.509 30.7333 106.839 30.5842 107.25C30.4384 107.658 30.3654 108.105 30.3654 108.593C30.3654 109.083 30.4384 109.532 30.5842 109.94C30.7333 110.347 30.9604 110.674 31.2653 110.919C31.5735 111.164 31.9613 111.287 32.4286 111.287ZM39.8649 112.55C39.381 112.55 38.9435 112.46 38.5524 112.281C38.1613 112.099 37.8514 111.836 37.6227 111.491C37.3973 111.146 37.2846 110.724 37.2846 110.223C37.2846 109.792 37.3675 109.438 37.5332 109.159C37.6989 108.881 37.9227 108.66 38.2044 108.498C38.4861 108.336 38.801 108.213 39.149 108.13C39.497 108.047 39.8516 107.984 40.2129 107.941C40.6703 107.888 41.0415 107.845 41.3265 107.812C41.6116 107.776 41.8187 107.718 41.948 107.638C42.0773 107.558 42.1419 107.429 42.1419 107.25V107.215C42.1419 106.781 42.0193 106.445 41.774 106.206C41.532 105.968 41.1708 105.848 40.6902 105.848C40.1897 105.848 39.7953 105.959 39.5069 106.181C39.2219 106.4 39.0247 106.644 38.9153 106.912L37.5183 106.594C37.684 106.13 37.926 105.755 38.2442 105.47C38.5657 105.182 38.9352 104.973 39.3528 104.844C39.7704 104.711 40.2096 104.645 40.6703 104.645C40.9752 104.645 41.2984 104.682 41.6398 104.754C41.9845 104.824 42.306 104.953 42.6042 105.142C42.9059 105.331 43.1528 105.601 43.345 105.953C43.5373 106.301 43.6334 106.753 43.6334 107.31V112.381H42.1817V111.337H42.122C42.0259 111.529 41.8817 111.718 41.6895 111.904C41.4972 112.089 41.2503 112.243 40.9487 112.366C40.6471 112.489 40.2858 112.55 39.8649 112.55ZM40.1881 111.357C40.599 111.357 40.9504 111.276 41.242 111.113C41.537 110.951 41.7607 110.739 41.9132 110.477C42.069 110.212 42.1469 109.928 42.1469 109.627V108.642C42.0938 108.695 41.9911 108.745 41.8386 108.791C41.6895 108.834 41.5188 108.873 41.3265 108.906C41.1343 108.936 40.9471 108.964 40.7648 108.99C40.5825 109.013 40.43 109.033 40.3074 109.05C40.019 109.086 39.7555 109.148 39.5169 109.234C39.2816 109.32 39.0926 109.444 38.9501 109.607C38.8109 109.766 38.7413 109.978 38.7413 110.243C38.7413 110.611 38.8772 110.889 39.149 111.078C39.4208 111.264 39.7671 111.357 40.1881 111.357ZM45.6133 112.381V104.744H47.0501V105.958H47.1296C47.2688 105.547 47.5141 105.223 47.8654 104.988C48.2201 104.749 48.6211 104.63 49.0686 104.63C49.1614 104.63 49.2707 104.633 49.3967 104.64C49.5259 104.647 49.627 104.655 49.7 104.665V106.087C49.6403 106.07 49.5342 106.052 49.3818 106.032C49.2293 106.009 49.0768 105.997 48.9244 105.997C48.5731 105.997 48.2598 106.072 47.9848 106.221C47.713 106.367 47.4975 106.571 47.3384 106.833C47.1794 107.091 47.0998 107.386 47.0998 107.718V112.381H45.6133ZM53.5716 112.53C52.9551 112.53 52.4049 112.373 51.921 112.058C51.4404 111.74 51.0626 111.287 50.7875 110.7C50.5157 110.11 50.3798 109.403 50.3798 108.578C50.3798 107.752 50.5174 107.046 50.7925 106.46C51.0709 105.873 51.452 105.424 51.9359 105.112C52.4198 104.801 52.9684 104.645 53.5815 104.645C54.0555 104.645 54.4366 104.725 54.725 104.884C55.0167 105.039 55.242 105.222 55.4011 105.431C55.5635 105.639 55.6895 105.823 55.779 105.982H55.8685V102.199H57.355V112.381H55.9033V111.193H55.779C55.6895 111.355 55.5602 111.541 55.3912 111.749C55.2255 111.958 54.9968 112.141 54.7051 112.296C54.4134 112.452 54.0356 112.53 53.5716 112.53ZM53.8997 111.262C54.3273 111.262 54.6885 111.15 54.9835 110.924C55.2818 110.695 55.5072 110.379 55.6596 109.975C55.8154 109.57 55.8933 109.1 55.8933 108.563C55.8933 108.032 55.8171 107.568 55.6646 107.171C55.5122 106.773 55.2884 106.463 54.9935 106.241C54.6985 106.019 54.3339 105.908 53.8997 105.908C53.4523 105.908 53.0794 106.024 52.7811 106.256C52.4828 106.488 52.2574 106.804 52.105 107.205C51.9558 107.606 51.8812 108.059 51.8812 108.563C51.8812 109.073 51.9575 109.532 52.1099 109.94C52.2624 110.347 52.4878 110.671 52.7861 110.909C53.0877 111.145 53.4589 111.262 53.8997 111.262ZM65.1989 106.609L63.8516 106.847C63.7952 106.675 63.7058 106.511 63.5831 106.355C63.4638 106.2 63.3014 106.072 63.0959 105.972C62.8904 105.873 62.6335 105.823 62.3253 105.823C61.9044 105.823 61.5531 105.918 61.2713 106.107C60.9896 106.292 60.8487 106.533 60.8487 106.828C60.8487 107.083 60.9432 107.288 61.1321 107.444C61.321 107.6 61.626 107.727 62.0469 107.827L63.26 108.105C63.9626 108.268 64.4863 108.518 64.831 108.856C65.1757 109.194 65.348 109.633 65.348 110.173C65.348 110.631 65.2155 111.039 64.9503 111.396C64.6885 111.751 64.3222 112.03 63.8516 112.232C63.3843 112.434 62.8424 112.535 62.2259 112.535C61.3708 112.535 60.6731 112.353 60.1328 111.988C59.5926 111.62 59.2611 111.098 59.1385 110.422L60.5753 110.203C60.6648 110.578 60.8487 110.861 61.1272 111.053C61.4056 111.242 61.7685 111.337 62.2159 111.337C62.7031 111.337 63.0926 111.236 63.3843 111.034C63.6759 110.828 63.8218 110.578 63.8218 110.283C63.8218 110.044 63.7323 109.844 63.5533 109.681C63.3776 109.519 63.1075 109.396 62.7429 109.313L61.4503 109.03C60.7377 108.868 60.2107 108.609 59.8693 108.254C59.5313 107.9 59.3622 107.451 59.3622 106.907C59.3622 106.456 59.4882 106.062 59.7401 105.724C59.992 105.386 60.34 105.122 60.7841 104.933C61.2282 104.741 61.737 104.645 62.3104 104.645C63.1357 104.645 63.7853 104.824 64.2593 105.182C64.7332 105.537 65.0464 106.012 65.1989 106.609Z" fill="#939DB8"/>
<path d="M19.6641 138.918V137.596H27.5441V138.918H24.3672V147.778H22.836V138.918H19.6641ZM30.3493 147.947C29.8654 147.947 29.4279 147.857 29.0368 147.678C28.6457 147.496 28.3358 147.232 28.1071 146.888C27.8817 146.543 27.769 146.121 27.769 145.62C27.769 145.189 27.8519 144.835 28.0176 144.556C28.1833 144.278 28.407 144.057 28.6888 143.895C28.9705 143.732 29.2854 143.61 29.6334 143.527C29.9814 143.444 30.336 143.381 30.6973 143.338C31.1547 143.285 31.5259 143.242 31.8109 143.209C32.096 143.172 32.3031 143.114 32.4324 143.035C32.5616 142.955 32.6263 142.826 32.6263 142.647V142.612C32.6263 142.178 32.5036 141.842 32.2584 141.603C32.0164 141.364 31.6551 141.245 31.1746 141.245C30.6741 141.245 30.2797 141.356 29.9913 141.578C29.7063 141.797 29.5091 142.04 29.3997 142.309L28.0027 141.991C28.1684 141.527 28.4104 141.152 28.7285 140.867C29.05 140.579 29.4196 140.37 29.8372 140.241C30.2548 140.108 30.694 140.042 31.1547 140.042C31.4596 140.042 31.7828 140.078 32.1241 140.151C32.4688 140.221 32.7903 140.35 33.0886 140.539C33.3902 140.728 33.6372 140.998 33.8294 141.349C34.0216 141.697 34.1177 142.15 34.1177 142.707V147.778H32.666V146.734H32.6064C32.5103 146.926 32.3661 147.115 32.1739 147.3C31.9816 147.486 31.7347 147.64 31.4331 147.763C31.1315 147.885 30.7702 147.947 30.3493 147.947ZM30.6724 146.754C31.0834 146.754 31.4347 146.672 31.7264 146.51C32.0214 146.348 32.2451 146.135 32.3976 145.874C32.5533 145.608 32.6312 145.325 32.6312 145.023V144.039C32.5782 144.092 32.4755 144.142 32.323 144.188C32.1739 144.231 32.0032 144.269 31.8109 144.303C31.6187 144.332 31.4314 144.361 31.2491 144.387C31.0668 144.41 30.9144 144.43 30.7917 144.447C30.5034 144.483 30.2399 144.545 30.0013 144.631C29.7659 144.717 29.577 144.841 29.4345 145.004C29.2953 145.163 29.2257 145.375 29.2257 145.64C29.2257 146.008 29.3616 146.286 29.6334 146.475C29.9051 146.661 30.2515 146.754 30.6724 146.754ZM41.82 142.006L40.4727 142.244C40.4163 142.072 40.3268 141.908 40.2042 141.752C40.0849 141.596 39.9225 141.469 39.717 141.369C39.5115 141.27 39.2546 141.22 38.9464 141.22C38.5255 141.22 38.1741 141.315 37.8924 141.504C37.6107 141.689 37.4698 141.929 37.4698 142.224C37.4698 142.48 37.5643 142.685 37.7532 142.841C37.9421 142.997 38.2471 143.124 38.668 143.224L39.8811 143.502C40.5837 143.665 41.1074 143.915 41.4521 144.253C41.7968 144.591 41.9691 145.03 41.9691 145.57C41.9691 146.028 41.8366 146.435 41.5714 146.793C41.3096 147.148 40.9433 147.426 40.4727 147.629C40.0053 147.831 39.4634 147.932 38.847 147.932C37.9919 147.932 37.2942 147.75 36.7539 147.385C36.2137 147.017 35.8822 146.495 35.7596 145.819L37.1964 145.6C37.2859 145.975 37.4698 146.258 37.7482 146.45C38.0267 146.639 38.3896 146.734 38.837 146.734C39.3242 146.734 39.7137 146.633 40.0053 146.43C40.297 146.225 40.4428 145.975 40.4428 145.68C40.4428 145.441 40.3534 145.241 40.1744 145.078C39.9987 144.916 39.7286 144.793 39.364 144.71L38.0714 144.427C37.3588 144.264 36.8318 144.006 36.4904 143.651C36.1524 143.297 35.9833 142.848 35.9833 142.304C35.9833 141.853 36.1093 141.459 36.3612 141.121C36.6131 140.783 36.9611 140.519 37.4052 140.33C37.8493 140.138 38.3581 140.042 38.9315 140.042C39.7568 140.042 40.4064 140.221 40.8803 140.579C41.3543 140.933 41.6675 141.409 41.82 142.006ZM44.9707 145.188L44.9608 143.373H45.2193L48.2619 140.141H50.0417L46.5716 143.82H46.3379L44.9707 145.188ZM43.6035 147.778V137.596H45.09V147.778H43.6035ZM48.426 147.778L45.6916 144.148L46.7158 143.109L50.2506 147.778H48.426ZM57.1188 142.006L55.7715 142.244C55.7152 142.072 55.6257 141.908 55.503 141.752C55.3837 141.596 55.2213 141.469 55.0158 141.369C54.8103 141.27 54.5535 141.22 54.2452 141.22C53.8243 141.22 53.473 141.315 53.1913 141.504C52.9095 141.689 52.7687 141.929 52.7687 142.224C52.7687 142.48 52.8631 142.685 53.052 142.841C53.241 142.997 53.5459 143.124 53.9668 143.224L55.1799 143.502C55.8825 143.665 56.4062 143.915 56.7509 144.253C57.0956 144.591 57.268 145.03 57.268 145.57C57.268 146.028 57.1354 146.435 56.8702 146.793C56.6084 147.148 56.2422 147.426 55.7715 147.629C55.3042 147.831 54.7623 147.932 54.1458 147.932C53.2907 147.932 52.593 147.75 52.0528 147.385C51.5125 147.017 51.1811 146.495 51.0584 145.819L52.4952 145.6C52.5847 145.975 52.7687 146.258 53.0471 146.45C53.3255 146.639 53.6884 146.734 54.1359 146.734C54.6231 146.734 55.0125 146.633 55.3042 146.43C55.5958 146.225 55.7417 145.975 55.7417 145.68C55.7417 145.441 55.6522 145.241 55.4732 145.078C55.2975 144.916 55.0274 144.793 54.6628 144.71L53.3702 144.427C52.6576 144.264 52.1306 144.006 51.7893 143.651C51.4512 143.297 51.2822 142.848 51.2822 142.304C51.2822 141.853 51.4081 141.459 51.66 141.121C51.9119 140.783 52.2599 140.519 52.704 140.33C53.1482 140.138 53.6569 140.042 54.2303 140.042C55.0556 140.042 55.7052 140.221 56.1792 140.579C56.6531 140.933 56.9663 141.409 57.1188 142.006Z" fill="#939DB8"/>
<path d="M197.619 0.317505V779.683H199.206V0.317505H197.619Z" fill="#151521" mask="url(#path-1-inside-1_42_321)"/>
<g clip-path="url(#clip1_42_321)">
<rect x="475.492" y="8.65085" width="396.032" height="34.6032" rx="2.77778" fill="#141623"/>
<path d="M494.466 23.4453C494.413 22.9746 494.194 22.6101 493.809 22.3515C493.425 22.0897 492.941 21.9588 492.358 21.9588C491.94 21.9588 491.579 22.0251 491.274 22.1576C490.969 22.2869 490.732 22.4659 490.563 22.6946C490.397 22.92 490.314 23.1768 490.314 23.4652C490.314 23.7071 490.371 23.9159 490.483 24.0916C490.599 24.2673 490.75 24.4148 490.936 24.5341C491.125 24.6501 491.327 24.7478 491.542 24.8274C491.758 24.9036 491.965 24.9666 492.164 25.0163L493.158 25.2748C493.483 25.3544 493.816 25.4621 494.157 25.598C494.499 25.7339 494.815 25.9129 495.107 26.1349C495.399 26.357 495.634 26.6321 495.813 26.9602C495.995 27.2883 496.086 27.6811 496.086 28.1385C496.086 28.7152 495.937 29.2273 495.639 29.6747C495.344 30.1221 494.915 30.4751 494.351 30.7336C493.791 30.9922 493.113 31.1214 492.318 31.1214C491.556 31.1214 490.896 31.0005 490.339 30.7585C489.782 30.5165 489.346 30.1735 489.032 29.7294C488.717 29.2819 488.543 28.7516 488.51 28.1385H490.051C490.081 28.5064 490.2 28.813 490.409 29.0582C490.621 29.3002 490.891 29.4808 491.219 29.6001C491.551 29.7161 491.913 29.7741 492.308 29.7741C492.742 29.7741 493.128 29.7062 493.466 29.5703C493.808 29.4311 494.076 29.2389 494.272 28.9936C494.467 28.745 494.565 28.455 494.565 28.1236C494.565 27.8219 494.479 27.575 494.306 27.3828C494.137 27.1906 493.907 27.0315 493.615 26.9055C493.327 26.7796 493.001 26.6685 492.636 26.5724L491.433 26.2443C490.618 26.0222 489.971 25.6958 489.494 25.2649C489.02 24.834 488.783 24.2639 488.783 23.5547C488.783 22.968 488.942 22.4559 489.26 22.0184C489.579 21.5809 490.009 21.2412 490.553 20.9993C491.096 20.754 491.71 20.6314 492.392 20.6314C493.082 20.6314 493.69 20.7523 494.217 20.9943C494.747 21.2362 495.165 21.5693 495.47 21.9936C495.775 22.4145 495.934 22.8984 495.947 23.4453H494.466ZM501.094 31.1065C500.342 31.1065 499.694 30.9458 499.15 30.6243C498.61 30.2995 498.192 29.8437 497.897 29.2571C497.606 28.6671 497.46 27.9761 497.46 27.1839C497.46 26.4017 497.606 25.7123 497.897 25.1157C498.192 24.5192 498.603 24.0535 499.13 23.7187C499.66 23.384 500.28 23.2166 500.99 23.2166C501.42 23.2166 501.838 23.2879 502.242 23.4304C502.647 23.5729 503.01 23.7966 503.331 24.1015C503.653 24.4065 503.906 24.8025 504.092 25.2898C504.277 25.7737 504.37 26.362 504.37 27.0547V27.5817H498.3V26.468H502.914C502.914 26.0769 502.834 25.7306 502.675 25.429C502.516 25.124 502.292 24.8837 502.004 24.7081C501.719 24.5324 501.384 24.4446 500.999 24.4446C500.582 24.4446 500.217 24.5473 499.906 24.7528C499.598 24.955 499.359 25.2201 499.19 25.5483C499.024 25.8731 498.941 26.2261 498.941 26.6072V27.4773C498.941 27.9877 499.031 28.4219 499.21 28.7798C499.392 29.1378 499.646 29.4112 499.97 29.6001C500.295 29.7857 500.675 29.8785 501.109 29.8785C501.391 29.8785 501.647 29.8388 501.879 29.7592C502.111 29.6764 502.312 29.5537 502.481 29.3913C502.65 29.2289 502.779 29.0284 502.869 28.7898L504.276 29.0433C504.163 29.4576 503.961 29.8205 503.669 30.1321C503.381 30.4403 503.018 30.6806 502.58 30.853C502.146 31.022 501.651 31.1065 501.094 31.1065ZM508.242 31.1214C507.758 31.1214 507.32 31.0319 506.929 30.853C506.538 30.6707 506.228 30.4072 506 30.0625C505.774 29.7178 505.662 29.2952 505.662 28.7947C505.662 28.3639 505.744 28.0092 505.91 27.7308C506.076 27.4524 506.3 27.232 506.581 27.0696C506.863 26.9072 507.178 26.7845 507.526 26.7017C507.874 26.6188 508.229 26.5558 508.59 26.5128C509.047 26.4597 509.418 26.4166 509.704 26.3835C509.989 26.347 510.196 26.289 510.325 26.2095C510.454 26.1299 510.519 26.0007 510.519 25.8217V25.7869C510.519 25.3527 510.396 25.0163 510.151 24.7777C509.909 24.539 509.548 24.4197 509.067 24.4197C508.567 24.4197 508.172 24.5308 507.884 24.7528C507.599 24.9716 507.402 25.2152 507.292 25.4836L505.895 25.1655C506.061 24.7014 506.303 24.3269 506.621 24.0419C506.943 23.7535 507.312 23.5447 507.73 23.4155C508.147 23.2829 508.587 23.2166 509.047 23.2166C509.352 23.2166 509.675 23.2531 510.017 23.326C510.361 23.3956 510.683 23.5248 510.981 23.7138C511.283 23.9027 511.53 24.1728 511.722 24.5241C511.914 24.8721 512.01 25.3246 512.01 25.8814V30.9524H510.559V29.9084H510.499C510.403 30.1006 510.259 30.2895 510.066 30.4751C509.874 30.6607 509.627 30.8148 509.326 30.9375C509.024 31.0601 508.663 31.1214 508.242 31.1214ZM508.565 29.9282C508.976 29.9282 509.327 29.847 509.619 29.6846C509.914 29.5222 510.138 29.3101 510.29 29.0483C510.446 28.7831 510.524 28.4997 510.524 28.1981V27.2138C510.471 27.2668 510.368 27.3165 510.216 27.3629C510.066 27.406 509.896 27.4441 509.704 27.4773C509.511 27.5071 509.324 27.5353 509.142 27.5618C508.959 27.585 508.807 27.6049 508.684 27.6214C508.396 27.6579 508.132 27.7192 507.894 27.8054C507.659 27.8915 507.47 28.0158 507.327 28.1782C507.188 28.3373 507.118 28.5495 507.118 28.8146C507.118 29.1825 507.254 29.4609 507.526 29.6498C507.798 29.8354 508.144 29.9282 508.565 29.9282ZM513.99 30.9524V23.316H515.427V24.5291H515.507C515.646 24.1181 515.891 23.795 516.242 23.5596C516.597 23.321 516.998 23.2017 517.446 23.2017C517.538 23.2017 517.648 23.205 517.774 23.2116C517.903 23.2183 518.004 23.2265 518.077 23.2365V24.6584C518.017 24.6418 517.911 24.6236 517.759 24.6037C517.606 24.5805 517.454 24.5689 517.301 24.5689C516.95 24.5689 516.637 24.6434 516.362 24.7926C516.09 24.9384 515.874 25.1423 515.715 25.4041C515.556 25.6626 515.477 25.9576 515.477 26.289V30.9524H513.99ZM522.306 31.1065C521.567 31.1065 520.931 30.9391 520.397 30.6044C519.867 30.2663 519.459 29.8006 519.174 29.2074C518.889 28.6141 518.747 27.9346 518.747 27.169C518.747 26.3934 518.893 25.709 519.184 25.1157C519.476 24.5192 519.887 24.0535 520.417 23.7187C520.948 23.384 521.572 23.2166 522.292 23.2166C522.872 23.2166 523.389 23.3243 523.843 23.5398C524.297 23.7519 524.663 24.0502 524.941 24.4346C525.223 24.8191 525.391 25.2682 525.444 25.7819H523.997C523.917 25.424 523.735 25.1157 523.45 24.8572C523.168 24.5987 522.79 24.4694 522.316 24.4694C521.902 24.4694 521.539 24.5788 521.228 24.7976C520.919 25.013 520.679 25.3212 520.507 25.7223C520.334 26.12 520.248 26.5907 520.248 27.1342C520.248 27.691 520.333 28.1716 520.502 28.576C520.671 28.9803 520.909 29.2935 521.218 29.5156C521.529 29.7377 521.896 29.8487 522.316 29.8487C522.598 29.8487 522.853 29.7973 523.082 29.6946C523.314 29.5885 523.508 29.4377 523.664 29.2422C523.823 29.0466 523.934 28.8113 523.997 28.5362H525.444C525.391 29.03 525.23 29.4709 524.961 29.8586C524.693 30.2464 524.333 30.5514 523.882 30.7734C523.435 30.9955 522.91 31.1065 522.306 31.1065ZM528.52 26.4183V30.9524H527.033V20.7706H528.5V24.5589H528.594C528.773 24.1479 529.047 23.8215 529.415 23.5795C529.783 23.3376 530.263 23.2166 530.856 23.2166C531.38 23.2166 531.837 23.3243 532.229 23.5398C532.623 23.7552 532.928 24.0767 533.143 24.5042C533.362 24.9285 533.471 25.4588 533.471 26.0951V30.9524H531.985V26.2741C531.985 25.714 531.841 25.2798 531.552 24.9716C531.264 24.66 530.863 24.5042 530.349 24.5042C529.998 24.5042 529.683 24.5788 529.405 24.728C529.13 24.8771 528.912 25.0959 528.753 25.3842C528.598 25.6692 528.52 26.0139 528.52 26.4183Z" fill="#939DB8" fill-opacity="0.5"/>
<rect x="475.492" y="8.65085" width="396.032" height="34.6032" rx="2.77778" stroke="#1E1E2E" stroke-width="0.793651"/>
<rect x="1135.9" y="8.25403" width="45.0476" height="35.3968" rx="3.1746" fill="#141623"/>
<path d="M1145.88 30.9524H1144.25L1147.92 20.7706H1149.69L1153.36 30.9524H1151.73L1148.85 22.62H1148.77L1145.88 30.9524ZM1146.16 26.9652H1151.45V28.2578H1146.16V26.9652Z" fill="#939DB8"/>
<path d="M1162.67 23.5714L1167.43 28.3333L1172.19 23.5714" stroke="#939DB8" stroke-opacity="0.5" stroke-width="1.5873" stroke-linecap="round" stroke-linejoin="round"/>
<path d="M231.597 80.4603V67.3694H233.572V73.0583H240.098V67.3694H242.08V80.4603H240.098V74.7522H233.572V80.4603H231.597ZM249.034 80.6585C248.067 80.6585 247.234 80.4518 246.535 80.0385C245.841 79.6208 245.304 79.0349 244.924 78.2806C244.549 77.5221 244.362 76.6336 244.362 75.6152C244.362 74.6095 244.549 73.7231 244.924 72.9561C245.304 72.189 245.832 71.5903 246.51 71.1599C247.191 70.7295 247.988 70.5143 248.9 70.5143C249.454 70.5143 249.991 70.6059 250.511 70.7892C251.031 70.9724 251.497 71.26 251.911 71.6521C252.324 72.0441 252.65 72.5534 252.889 73.1798C253.127 73.8019 253.247 74.5583 253.247 75.449V76.1265H245.442V74.6947H251.374C251.374 74.1919 251.272 73.7465 251.067 73.3588C250.863 72.9667 250.575 72.6578 250.204 72.4319C249.838 72.2061 249.407 72.0931 248.913 72.0931C248.376 72.0931 247.907 72.2252 247.507 72.4894C247.11 72.7494 246.804 73.0903 246.586 73.5122C246.373 73.9298 246.267 74.3836 246.267 74.8737V75.9923C246.267 76.6485 246.382 77.2068 246.612 77.667C246.846 78.1272 247.172 78.4788 247.59 78.7217C248.007 78.9603 248.495 79.0796 249.054 79.0796C249.416 79.0796 249.746 79.0285 250.044 78.9262C250.343 78.8197 250.6 78.662 250.818 78.4532C251.035 78.2444 251.201 77.9866 251.316 77.6798L253.125 78.0058C252.98 78.5385 252.72 79.0051 252.345 79.4056C251.975 79.8019 251.508 80.1109 250.946 80.3325C250.387 80.5498 249.75 80.6585 249.034 80.6585ZM257.279 67.3694V80.4603H255.367V67.3694H257.279ZM261.761 67.3694V80.4603H259.85V67.3694H261.761ZM268.468 80.6585C267.547 80.6585 266.744 80.4475 266.058 80.0257C265.372 79.6038 264.839 79.0136 264.46 78.2551C264.081 77.4965 263.891 76.6102 263.891 75.596C263.891 74.5775 264.081 73.6869 264.46 72.9241C264.839 72.1613 265.372 71.569 266.058 71.1471C266.744 70.7252 267.547 70.5143 268.468 70.5143C269.388 70.5143 270.192 70.7252 270.878 71.1471C271.564 71.569 272.096 72.1613 272.476 72.9241C272.855 73.6869 273.045 74.5775 273.045 75.596C273.045 76.6102 272.855 77.4965 272.476 78.2551C272.096 79.0136 271.564 79.6038 270.878 80.0257C270.192 80.4475 269.388 80.6585 268.468 80.6585ZM268.474 79.0541C269.071 79.0541 269.565 78.8964 269.957 78.5811C270.349 78.2657 270.639 77.846 270.826 77.3218C271.018 76.7977 271.114 76.2203 271.114 75.5896C271.114 74.9632 271.018 74.3879 270.826 73.8637C270.639 73.3353 270.349 72.9113 269.957 72.5917C269.565 72.2721 269.071 72.1123 268.474 72.1123C267.873 72.1123 267.375 72.2721 266.978 72.5917C266.586 72.9113 266.295 73.3353 266.103 73.8637C265.915 74.3879 265.822 74.9632 265.822 75.5896C265.822 76.2203 265.915 76.7977 266.103 77.3218C266.295 77.846 266.586 78.2657 266.978 78.5811C267.375 78.8964 267.873 79.0541 268.474 79.0541ZM277.664 78.6706L277.568 79.3673C277.505 79.8787 277.396 80.4113 277.242 80.9653C277.093 81.5235 276.938 82.0413 276.776 82.5186C276.618 82.9958 276.488 83.3751 276.386 83.6564H275.031C275.086 83.3921 275.163 83.0342 275.261 82.5825C275.359 82.135 275.455 81.6343 275.549 81.0804C275.642 80.5264 275.713 79.9617 275.76 79.3865L275.823 78.6706H277.664ZM286.175 80.4603H284.079L288.79 67.3694H291.072L295.783 80.4603H293.686L289.985 69.7473H289.883L286.175 80.4603ZM286.527 75.3339H293.328V76.9958H286.527V75.3339ZM301.497 80.6585C300.547 80.6585 299.729 80.4433 299.043 80.0129C298.361 79.5782 297.837 78.9795 297.47 78.2167C297.104 77.4539 296.92 76.5804 296.92 75.596C296.92 74.5988 297.108 73.7188 297.483 72.9561C297.858 72.189 298.386 71.5903 299.068 71.1599C299.75 70.7295 300.553 70.5143 301.478 70.5143C302.224 70.5143 302.888 70.6528 303.472 70.9298C304.056 71.2025 304.527 71.586 304.885 72.0804C305.247 72.5747 305.462 73.1521 305.53 73.8126H303.67C303.568 73.3524 303.334 72.9561 302.967 72.6237C302.605 72.2913 302.119 72.1251 301.51 72.1251C300.977 72.1251 300.511 72.2657 300.11 72.547C299.714 72.824 299.405 73.2203 299.183 73.7359C298.962 74.2473 298.851 74.8524 298.851 75.5512C298.851 76.2671 298.959 76.885 299.177 77.4049C299.394 77.9248 299.701 78.3275 300.097 78.613C300.498 78.8985 300.969 79.0413 301.51 79.0413C301.872 79.0413 302.2 78.9752 302.494 78.8431C302.793 78.7068 303.042 78.5129 303.242 78.2615C303.447 78.01 303.589 77.7075 303.67 77.3538H305.53C305.462 77.9887 305.256 78.5555 304.91 79.0541C304.565 79.5527 304.103 79.9447 303.523 80.2302C302.948 80.5157 302.273 80.6585 301.497 80.6585ZM307.574 80.4603V70.6421H309.409V72.2402H309.53C309.735 71.699 310.069 71.2771 310.534 70.9745C310.998 70.6677 311.554 70.5143 312.202 70.5143C312.858 70.5143 313.408 70.6677 313.851 70.9745C314.299 71.2813 314.629 71.7032 314.842 72.2402H314.944C315.179 71.716 315.552 71.2984 316.063 70.9873C316.574 70.672 317.184 70.5143 317.891 70.5143C318.782 70.5143 319.508 70.7934 320.071 71.3517C320.638 71.9099 320.921 72.7515 320.921 73.8765V80.4603H319.01V74.0555C319.01 73.3907 318.829 72.9092 318.466 72.6109C318.104 72.3126 317.672 72.1635 317.169 72.1635C316.547 72.1635 316.063 72.3552 315.718 72.7387C315.373 73.118 315.2 73.6059 315.2 74.2025V80.4603H313.295V73.934C313.295 73.4014 313.129 72.9731 312.797 72.6492C312.464 72.3254 312.032 72.1635 311.499 72.1635C311.137 72.1635 310.802 72.2593 310.496 72.4511C310.193 72.6386 309.948 72.9007 309.76 73.2373C309.577 73.574 309.486 73.9639 309.486 74.4071V80.4603H307.574ZM327.714 80.6585C326.747 80.6585 325.914 80.4518 325.215 80.0385C324.52 79.6208 323.983 79.0349 323.604 78.2806C323.229 77.5221 323.042 76.6336 323.042 75.6152C323.042 74.6095 323.229 73.7231 323.604 72.9561C323.983 72.189 324.512 71.5903 325.189 71.1599C325.871 70.7295 326.668 70.5143 327.58 70.5143C328.134 70.5143 328.671 70.6059 329.191 70.7892C329.711 70.9724 330.177 71.26 330.591 71.6521C331.004 72.0441 331.33 72.5534 331.568 73.1798C331.807 73.8019 331.926 74.5583 331.926 75.449V76.1265H324.122V74.6947H330.054C330.054 74.1919 329.951 73.7465 329.747 73.3588C329.542 72.9667 329.255 72.6578 328.884 72.4319C328.517 72.2061 328.087 72.0931 327.593 72.0931C327.056 72.0931 326.587 72.2252 326.186 72.4894C325.79 72.7494 325.483 73.0903 325.266 73.5122C325.053 73.9298 324.946 74.3836 324.946 74.8737V75.9923C324.946 76.6485 325.061 77.2068 325.292 77.667C325.526 78.1272 325.852 78.4788 326.269 78.7217C326.687 78.9603 327.175 79.0796 327.733 79.0796C328.095 79.0796 328.426 79.0285 328.724 78.9262C329.022 78.8197 329.28 78.662 329.497 78.4532C329.715 78.2444 329.881 77.9866 329.996 77.6798L331.805 78.0058C331.66 78.5385 331.4 79.0051 331.025 79.4056C330.654 79.8019 330.188 80.1109 329.625 80.3325C329.067 80.5498 328.43 80.6585 327.714 80.6585ZM336.457 67.3694L336.291 76.6954H334.52L334.354 67.3694H336.457ZM335.409 80.5818C335.055 80.5818 334.752 80.4582 334.501 80.211C334.249 79.9596 334.126 79.6571 334.13 79.3034C334.126 78.9539 334.249 78.6556 334.501 78.4085C334.752 78.1571 335.055 78.0313 335.409 78.0313C335.754 78.0313 336.052 78.1571 336.303 78.4085C336.555 78.6556 336.683 78.9539 336.687 79.3034C336.683 79.5377 336.621 79.7529 336.502 79.949C336.386 80.1407 336.233 80.2941 336.041 80.4092C335.85 80.5242 335.639 80.5818 335.409 80.5818Z" fill="white"/>
<path d="M231.277 112.682V102.501H234.907C235.695 102.501 236.35 102.637 236.87 102.908C237.394 103.18 237.785 103.556 238.044 104.037C238.302 104.514 238.431 105.066 238.431 105.692C238.431 106.316 238.301 106.864 238.039 107.338C237.78 107.809 237.389 108.175 236.865 108.437C236.345 108.699 235.69 108.83 234.902 108.83H232.152V107.507H234.762C235.26 107.507 235.664 107.436 235.975 107.293C236.29 107.151 236.521 106.944 236.667 106.672C236.812 106.4 236.885 106.074 236.885 105.692C236.885 105.308 236.811 104.975 236.662 104.693C236.516 104.411 236.285 104.196 235.97 104.047C235.659 103.894 235.25 103.818 234.742 103.818H232.814V112.682H231.277ZM236.304 108.089L238.819 112.682H237.069L234.603 108.089H236.304ZM243.377 112.837C242.625 112.837 241.977 112.676 241.433 112.354C240.893 112.03 240.475 111.574 240.18 110.987C239.889 110.397 239.743 109.706 239.743 108.914C239.743 108.132 239.889 107.442 240.18 106.846C240.475 106.249 240.886 105.784 241.413 105.449C241.943 105.114 242.563 104.947 243.273 104.947C243.703 104.947 244.121 105.018 244.525 105.16C244.93 105.303 245.293 105.527 245.614 105.832C245.936 106.137 246.189 106.533 246.375 107.02C246.56 107.504 246.653 108.092 246.653 108.785V109.312H240.583V108.198H245.197C245.197 107.807 245.117 107.461 244.958 107.159C244.799 106.854 244.575 106.614 244.287 106.438C244.002 106.263 243.667 106.175 243.282 106.175C242.865 106.175 242.5 106.277 242.189 106.483C241.88 106.685 241.642 106.95 241.473 107.278C241.307 107.603 241.224 107.956 241.224 108.337V109.207C241.224 109.718 241.314 110.152 241.493 110.51C241.675 110.868 241.929 111.141 242.253 111.33C242.578 111.516 242.958 111.609 243.392 111.609C243.674 111.609 243.93 111.569 244.162 111.489C244.394 111.406 244.595 111.284 244.764 111.121C244.933 110.959 245.062 110.758 245.152 110.52L246.559 110.773C246.446 111.188 246.244 111.551 245.952 111.862C245.664 112.17 245.301 112.411 244.863 112.583C244.429 112.752 243.934 112.837 243.377 112.837ZM251.519 112.837C250.78 112.837 250.144 112.669 249.61 112.334C249.08 111.996 248.672 111.531 248.387 110.937C248.102 110.344 247.959 109.665 247.959 108.899C247.959 108.124 248.105 107.439 248.397 106.846C248.689 106.249 249.1 105.784 249.63 105.449C250.16 105.114 250.785 104.947 251.504 104.947C252.084 104.947 252.601 105.054 253.055 105.27C253.509 105.482 253.876 105.78 254.154 106.165C254.436 106.549 254.603 106.998 254.656 107.512H253.209C253.13 107.154 252.948 106.846 252.663 106.587C252.381 106.329 252.003 106.2 251.529 106.2C251.115 106.2 250.752 106.309 250.44 106.528C250.132 106.743 249.892 107.051 249.719 107.452C249.547 107.85 249.461 108.321 249.461 108.864C249.461 109.421 249.545 109.902 249.714 110.306C249.883 110.71 250.122 111.024 250.43 111.246C250.742 111.468 251.108 111.579 251.529 111.579C251.811 111.579 252.066 111.527 252.295 111.425C252.527 111.319 252.721 111.168 252.876 110.972C253.035 110.777 253.146 110.541 253.209 110.266H254.656C254.603 110.76 254.442 111.201 254.174 111.589C253.905 111.977 253.546 112.281 253.095 112.504C252.648 112.726 252.122 112.837 251.519 112.837ZM259.537 112.837C258.785 112.837 258.137 112.676 257.593 112.354C257.053 112.03 256.635 111.574 256.34 110.987C256.049 110.397 255.903 109.706 255.903 108.914C255.903 108.132 256.049 107.442 256.34 106.846C256.635 106.249 257.046 105.784 257.573 105.449C258.104 105.114 258.723 104.947 259.433 104.947C259.864 104.947 260.281 105.018 260.686 105.16C261.09 105.303 261.453 105.527 261.774 105.832C262.096 106.137 262.349 106.533 262.535 107.02C262.721 107.504 262.813 108.092 262.813 108.785V109.312H256.743V108.198H261.357C261.357 107.807 261.277 107.461 261.118 107.159C260.959 106.854 260.735 106.614 260.447 106.438C260.162 106.263 259.827 106.175 259.443 106.175C259.025 106.175 258.66 106.277 258.349 106.483C258.041 106.685 257.802 106.95 257.633 107.278C257.467 107.603 257.384 107.956 257.384 108.337V109.207C257.384 109.718 257.474 110.152 257.653 110.51C257.835 110.868 258.089 111.141 258.413 111.33C258.738 111.516 259.118 111.609 259.552 111.609C259.834 111.609 260.091 111.569 260.323 111.489C260.555 111.406 260.755 111.284 260.924 111.121C261.093 110.959 261.222 110.758 261.312 110.52L262.719 110.773C262.606 111.188 262.404 111.551 262.112 111.862C261.824 112.17 261.461 112.411 261.024 112.583C260.589 112.752 260.094 112.837 259.537 112.837ZM265.949 108.148V112.682H264.463V105.046H265.89V106.289H265.984C266.16 105.885 266.435 105.56 266.809 105.315C267.187 105.069 267.663 104.947 268.236 104.947C268.756 104.947 269.212 105.056 269.603 105.275C269.994 105.49 270.298 105.812 270.513 106.239C270.729 106.667 270.836 107.196 270.836 107.825V112.682H269.35V108.004C269.35 107.451 269.206 107.018 268.917 106.707C268.629 106.392 268.233 106.234 267.729 106.234C267.384 106.234 267.078 106.309 266.809 106.458C266.544 106.607 266.334 106.826 266.178 107.114C266.025 107.399 265.949 107.744 265.949 108.148ZM276.394 105.046V106.239H272.223V105.046H276.394ZM273.342 103.217H274.828V110.44C274.828 110.729 274.872 110.946 274.958 111.092C275.044 111.234 275.155 111.332 275.291 111.385C275.43 111.435 275.581 111.459 275.743 111.459C275.863 111.459 275.967 111.451 276.056 111.435C276.146 111.418 276.216 111.405 276.265 111.395L276.534 112.623C276.448 112.656 276.325 112.689 276.166 112.722C276.007 112.759 275.808 112.779 275.569 112.782C275.178 112.789 274.814 112.719 274.475 112.573C274.137 112.427 273.864 112.202 273.655 111.897C273.446 111.592 273.342 111.209 273.342 110.749V103.217ZM281.863 112.682V102.501H283.35V106.284H283.439C283.525 106.125 283.65 105.941 283.812 105.732C283.975 105.523 284.2 105.341 284.488 105.185C284.777 105.026 285.158 104.947 285.632 104.947C286.248 104.947 286.798 105.102 287.282 105.414C287.766 105.726 288.146 106.175 288.421 106.761C288.699 107.348 288.838 108.054 288.838 108.879C288.838 109.705 288.701 110.412 288.426 111.002C288.151 111.589 287.773 112.041 287.292 112.359C286.812 112.674 286.263 112.832 285.647 112.832C285.183 112.832 284.803 112.754 284.508 112.598C284.216 112.442 283.988 112.26 283.822 112.051C283.656 111.842 283.529 111.657 283.439 111.494H283.315V112.682H281.863ZM283.32 108.864C283.32 109.401 283.398 109.872 283.554 110.276C283.709 110.681 283.935 110.997 284.23 111.226C284.525 111.451 284.886 111.564 285.314 111.564C285.758 111.564 286.129 111.446 286.427 111.211C286.725 110.972 286.951 110.649 287.103 110.241C287.259 109.834 287.337 109.375 287.337 108.864C287.337 108.361 287.261 107.908 287.108 107.507C286.959 107.106 286.734 106.79 286.432 106.557C286.134 106.325 285.761 106.209 285.314 106.209C284.883 106.209 284.518 106.321 284.22 106.543C283.925 106.765 283.701 107.075 283.549 107.472C283.396 107.87 283.32 108.334 283.32 108.864ZM293.724 112.837C293.008 112.837 292.384 112.673 291.85 112.344C291.316 112.016 290.902 111.557 290.607 110.967C290.312 110.377 290.165 109.688 290.165 108.899C290.165 108.107 290.312 107.414 290.607 106.821C290.902 106.228 291.316 105.767 291.85 105.439C292.384 105.111 293.008 104.947 293.724 104.947C294.44 104.947 295.065 105.111 295.598 105.439C296.132 105.767 296.546 106.228 296.841 106.821C297.136 107.414 297.284 108.107 297.284 108.899C297.284 109.688 297.136 110.377 296.841 110.967C296.546 111.557 296.132 112.016 295.598 112.344C295.065 112.673 294.44 112.837 293.724 112.837ZM293.729 111.589C294.193 111.589 294.578 111.466 294.883 111.221C295.188 110.976 295.413 110.649 295.559 110.241C295.708 109.834 295.782 109.385 295.782 108.894C295.782 108.407 295.708 107.959 295.559 107.552C295.413 107.141 295.188 106.811 294.883 106.562C294.578 106.314 294.193 106.19 293.729 106.19C293.262 106.19 292.874 106.314 292.566 106.562C292.261 106.811 292.034 107.141 291.885 107.552C291.739 107.959 291.666 108.407 291.666 108.894C291.666 109.385 291.739 109.834 291.885 110.241C292.034 110.649 292.261 110.976 292.566 111.221C292.874 111.466 293.262 111.589 293.729 111.589ZM301.165 112.852C300.682 112.852 300.244 112.762 299.853 112.583C299.462 112.401 299.152 112.137 298.923 111.793C298.698 111.448 298.585 111.025 298.585 110.525C298.585 110.094 298.668 109.739 298.834 109.461C298.999 109.182 299.223 108.962 299.505 108.8C299.787 108.637 300.102 108.515 300.45 108.432C300.798 108.349 301.152 108.286 301.513 108.243C301.971 108.19 302.342 108.147 302.627 108.114C302.912 108.077 303.119 108.019 303.249 107.94C303.378 107.86 303.442 107.731 303.442 107.552V107.517C303.442 107.083 303.32 106.746 303.075 106.508C302.833 106.269 302.471 106.15 301.991 106.15C301.49 106.15 301.096 106.261 300.807 106.483C300.522 106.702 300.325 106.945 300.216 107.214L298.819 106.896C298.985 106.432 299.227 106.057 299.545 105.772C299.866 105.484 300.236 105.275 300.653 105.146C301.071 105.013 301.51 104.947 301.971 104.947C302.276 104.947 302.599 104.983 302.94 105.056C303.285 105.126 303.606 105.255 303.905 105.444C304.206 105.633 304.453 105.903 304.646 106.254C304.838 106.602 304.934 107.055 304.934 107.611V112.682H303.482V111.638H303.423C303.326 111.831 303.182 112.02 302.99 112.205C302.798 112.391 302.551 112.545 302.249 112.668C301.948 112.79 301.586 112.852 301.165 112.852ZM301.489 111.658C301.9 111.658 302.251 111.577 302.543 111.415C302.838 111.252 303.061 111.04 303.214 110.778C303.37 110.513 303.447 110.23 303.447 109.928V108.944C303.394 108.997 303.292 109.047 303.139 109.093C302.99 109.136 302.819 109.174 302.627 109.207C302.435 109.237 302.248 109.265 302.065 109.292C301.883 109.315 301.731 109.335 301.608 109.352C301.32 109.388 301.056 109.449 300.817 109.535C300.582 109.622 300.393 109.746 300.251 109.908C300.111 110.067 300.042 110.28 300.042 110.545C300.042 110.913 300.178 111.191 300.45 111.38C300.721 111.566 301.068 111.658 301.489 111.658ZM306.914 112.682V105.046H308.351V106.259H308.43C308.569 105.848 308.815 105.525 309.166 105.29C309.521 105.051 309.922 104.932 310.369 104.932C310.462 104.932 310.571 104.935 310.697 104.942C310.826 104.948 310.928 104.957 311 104.967V106.388C310.941 106.372 310.835 106.354 310.682 106.334C310.53 106.311 310.377 106.299 310.225 106.299C309.874 106.299 309.56 106.374 309.285 106.523C309.014 106.669 308.798 106.872 308.639 107.134C308.48 107.393 308.4 107.688 308.4 108.019V112.682H306.914ZM314.872 112.832C314.256 112.832 313.705 112.674 313.222 112.359C312.741 112.041 312.363 111.589 312.088 111.002C311.816 110.412 311.68 109.705 311.68 108.879C311.68 108.054 311.818 107.348 312.093 106.761C312.371 106.175 312.753 105.726 313.236 105.414C313.72 105.102 314.269 104.947 314.882 104.947C315.356 104.947 315.737 105.026 316.026 105.185C316.317 105.341 316.543 105.523 316.702 105.732C316.864 105.941 316.99 106.125 317.08 106.284H317.169V102.501H318.655V112.682H317.204V111.494H317.08C316.99 111.657 316.861 111.842 316.692 112.051C316.526 112.26 316.297 112.442 316.006 112.598C315.714 112.754 315.336 112.832 314.872 112.832ZM315.2 111.564C315.628 111.564 315.989 111.451 316.284 111.226C316.582 110.997 316.808 110.681 316.96 110.276C317.116 109.872 317.194 109.401 317.194 108.864C317.194 108.334 317.118 107.87 316.965 107.472C316.813 107.075 316.589 106.765 316.294 106.543C315.999 106.321 315.634 106.209 315.2 106.209C314.753 106.209 314.38 106.325 314.082 106.557C313.783 106.79 313.558 107.106 313.405 107.507C313.256 107.908 313.182 108.361 313.182 108.864C313.182 109.375 313.258 109.834 313.41 110.241C313.563 110.649 313.788 110.972 314.087 111.211C314.388 111.446 314.759 111.564 315.2 111.564ZM326.499 106.91L325.152 107.149C325.096 106.977 325.006 106.813 324.884 106.657C324.764 106.501 324.602 106.374 324.396 106.274C324.191 106.175 323.934 106.125 323.626 106.125C323.205 106.125 322.854 106.219 322.572 106.408C322.29 106.594 322.149 106.834 322.149 107.129C322.149 107.384 322.244 107.59 322.433 107.746C322.622 107.901 322.927 108.029 323.347 108.129L324.561 108.407C325.263 108.569 325.787 108.82 326.132 109.158C326.476 109.496 326.649 109.935 326.649 110.475C326.649 110.932 326.516 111.34 326.251 111.698C325.989 112.053 325.623 112.331 325.152 112.533C324.685 112.736 324.143 112.837 323.526 112.837C322.671 112.837 321.974 112.654 321.433 112.29C320.893 111.922 320.562 111.4 320.439 110.724L321.876 110.505C321.965 110.879 322.149 111.163 322.428 111.355C322.706 111.544 323.069 111.638 323.516 111.638C324.004 111.638 324.393 111.537 324.685 111.335C324.976 111.13 325.122 110.879 325.122 110.584C325.122 110.346 325.033 110.145 324.854 109.983C324.678 109.821 324.408 109.698 324.043 109.615L322.751 109.332C322.038 109.169 321.511 108.911 321.17 108.556C320.832 108.201 320.663 107.752 320.663 107.209C320.663 106.758 320.789 106.364 321.041 106.026C321.293 105.687 321.641 105.424 322.085 105.235C322.529 105.043 323.038 104.947 323.611 104.947C324.436 104.947 325.086 105.126 325.56 105.484C326.034 105.838 326.347 106.314 326.499 106.91Z" fill="#939DB8"/>
<path d="M335.94 107.592C335.94 106.345 336.104 105.199 336.432 104.151C336.76 103.104 337.239 102.138 337.869 101.253H339.231C338.986 101.581 338.757 101.984 338.545 102.461C338.333 102.938 338.147 103.462 337.988 104.032C337.829 104.599 337.705 105.187 337.615 105.797C337.526 106.403 337.481 107.002 337.481 107.592C337.481 108.38 337.559 109.179 337.714 109.988C337.87 110.797 338.081 111.547 338.346 112.24C338.611 112.933 338.906 113.498 339.231 113.935H337.869C337.239 113.05 336.76 112.084 336.432 111.037C336.104 109.99 335.94 108.841 335.94 107.592ZM340.564 110.694V109.451L344.964 102.501H345.944V104.33H345.322L342.175 109.312V109.391H348.206V110.694H340.564ZM345.392 112.682V110.316L345.402 109.749V102.501H346.858V112.682H345.392ZM352.817 107.592C352.817 108.841 352.653 109.99 352.325 111.037C351.997 112.084 351.518 113.05 350.888 113.935H349.526C349.771 113.607 350 113.205 350.212 112.727C350.424 112.25 350.61 111.728 350.769 111.161C350.928 110.591 351.052 110.001 351.142 109.391C351.231 108.781 351.276 108.182 351.276 107.592C351.276 106.806 351.198 106.009 351.042 105.2C350.886 104.392 350.676 103.641 350.411 102.948C350.146 102.255 349.851 101.69 349.526 101.253H350.888C351.518 102.138 351.997 103.104 352.325 104.151C352.653 105.199 352.817 106.345 352.817 107.592Z" fill="#5B63D3"/>
<rect x="217.857" y="132.127" width="197.619" height="157.937" rx="2.77778" fill="#0F0F1B"/>
<rect x="290.476" y="206.333" width="52.381" height="9.52381" rx="4.7619" fill="#252941"/>
<rect x="217.857" y="132.127" width="197.619" height="157.937" rx="2.77778" stroke="#1E1E2E" stroke-width="0.793651"/>
<rect x="435.317" y="132.127" width="197.619" height="157.937" rx="2.77778" fill="#0F0F1B"/>
<rect x="507.936" y="206.333" width="52.381" height="9.52381" rx="4.7619" fill="#252941"/>
<rect x="435.317" y="132.127" width="197.619" height="157.937" rx="2.77778" stroke="#1E1E2E" stroke-width="0.793651"/>
<rect x="652.778" y="132.127" width="197.619" height="157.937" rx="2.77778" fill="#0F0F1B"/>
<rect x="725.397" y="206.333" width="52.381" height="9.52381" rx="4.7619" fill="#252941"/>
<rect x="652.778" y="132.127" width="197.619" height="157.937" rx="2.77778" stroke="#1E1E2E" stroke-width="0.793651"/>
<rect x="870.238" y="132.127" width="197.619" height="157.937" rx="2.77778" fill="#0F0F1B"/>
<rect x="942.857" y="206.333" width="52.381" height="9.52381" rx="4.7619" fill="#252941"/>
<rect x="870.238" y="132.127" width="197.619" height="157.937" rx="2.77778" stroke="#1E1E2E" stroke-width="0.793651"/>
<path d="M231.277 332.206V322.024H234.907C235.695 322.024 236.35 322.16 236.87 322.432C237.394 322.704 237.785 323.08 238.044 323.561C238.302 324.038 238.431 324.59 238.431 325.216C238.431 325.839 238.301 326.388 238.039 326.862C237.78 327.332 237.389 327.699 236.865 327.961C236.345 328.222 235.69 328.353 234.902 328.353H232.152V327.031H234.762C235.26 327.031 235.664 326.96 235.975 326.817C236.29 326.675 236.521 326.467 236.667 326.196C236.812 325.924 236.885 325.597 236.885 325.216C236.885 324.832 236.811 324.499 236.662 324.217C236.516 323.935 236.285 323.72 235.97 323.571C235.659 323.418 235.25 323.342 234.742 323.342H232.814V332.206H231.277ZM236.304 327.613L238.819 332.206H237.069L234.603 327.613H236.304ZM243.377 332.36C242.625 332.36 241.977 332.2 241.433 331.878C240.893 331.553 240.475 331.098 240.18 330.511C239.889 329.921 239.743 329.23 239.743 328.438C239.743 327.656 239.889 326.966 240.18 326.37C240.475 325.773 240.886 325.307 241.413 324.973C241.943 324.638 242.563 324.471 243.273 324.471C243.703 324.471 244.121 324.542 244.525 324.684C244.93 324.827 245.293 325.051 245.614 325.355C245.936 325.66 246.189 326.056 246.375 326.544C246.56 327.028 246.653 327.616 246.653 328.309V328.836H240.583V327.722H245.197C245.197 327.331 245.117 326.984 244.958 326.683C244.799 326.378 244.575 326.138 244.287 325.962C244.002 325.786 243.667 325.698 243.282 325.698C242.865 325.698 242.5 325.801 242.189 326.007C241.88 326.209 241.642 326.474 241.473 326.802C241.307 327.127 241.224 327.48 241.224 327.861V328.731C241.224 329.242 241.314 329.676 241.493 330.034C241.675 330.392 241.929 330.665 242.253 330.854C242.578 331.04 242.958 331.132 243.392 331.132C243.674 331.132 243.93 331.093 244.162 331.013C244.394 330.93 244.595 330.808 244.764 330.645C244.933 330.483 245.062 330.282 245.152 330.044L246.559 330.297C246.446 330.712 246.244 331.074 245.952 331.386C245.664 331.694 245.301 331.935 244.863 332.107C244.429 332.276 243.934 332.36 243.377 332.36ZM251.519 332.36C250.78 332.36 250.144 332.193 249.61 331.858C249.08 331.52 248.672 331.055 248.387 330.461C248.102 329.868 247.959 329.189 247.959 328.423C247.959 327.647 248.105 326.963 248.397 326.37C248.689 325.773 249.1 325.307 249.63 324.973C250.16 324.638 250.785 324.471 251.504 324.471C252.084 324.471 252.601 324.578 253.055 324.794C253.509 325.006 253.876 325.304 254.154 325.689C254.436 326.073 254.603 326.522 254.656 327.036H253.209C253.13 326.678 252.948 326.37 252.663 326.111C252.381 325.853 252.003 325.723 251.529 325.723C251.115 325.723 250.752 325.833 250.44 326.051C250.132 326.267 249.892 326.575 249.719 326.976C249.547 327.374 249.461 327.845 249.461 328.388C249.461 328.945 249.545 329.426 249.714 329.83C249.883 330.234 250.122 330.547 250.43 330.77C250.742 330.992 251.108 331.103 251.529 331.103C251.811 331.103 252.066 331.051 252.295 330.948C252.527 330.842 252.721 330.692 252.876 330.496C253.035 330.301 253.146 330.065 253.209 329.79H254.656C254.603 330.284 254.442 330.725 254.174 331.113C253.905 331.5 253.546 331.805 253.095 332.027C252.648 332.249 252.122 332.36 251.519 332.36ZM259.537 332.36C258.785 332.36 258.137 332.2 257.593 331.878C257.053 331.553 256.635 331.098 256.34 330.511C256.049 329.921 255.903 329.23 255.903 328.438C255.903 327.656 256.049 326.966 256.34 326.37C256.635 325.773 257.046 325.307 257.573 324.973C258.104 324.638 258.723 324.471 259.433 324.471C259.864 324.471 260.281 324.542 260.686 324.684C261.09 324.827 261.453 325.051 261.774 325.355C262.096 325.66 262.349 326.056 262.535 326.544C262.721 327.028 262.813 327.616 262.813 328.309V328.836H256.743V327.722H261.357C261.357 327.331 261.277 326.984 261.118 326.683C260.959 326.378 260.735 326.138 260.447 325.962C260.162 325.786 259.827 325.698 259.443 325.698C259.025 325.698 258.66 325.801 258.349 326.007C258.041 326.209 257.802 326.474 257.633 326.802C257.467 327.127 257.384 327.48 257.384 327.861V328.731C257.384 329.242 257.474 329.676 257.653 330.034C257.835 330.392 258.089 330.665 258.413 330.854C258.738 331.04 259.118 331.132 259.552 331.132C259.834 331.132 260.091 331.093 260.323 331.013C260.555 330.93 260.755 330.808 260.924 330.645C261.093 330.483 261.222 330.282 261.312 330.044L262.719 330.297C262.606 330.712 262.404 331.074 262.112 331.386C261.824 331.694 261.461 331.935 261.024 332.107C260.589 332.276 260.094 332.36 259.537 332.36ZM265.949 327.672V332.206H264.463V324.57H265.89V325.813H265.984C266.16 325.408 266.435 325.084 266.809 324.838C267.187 324.593 267.663 324.471 268.236 324.471C268.756 324.471 269.212 324.58 269.603 324.799C269.994 325.014 270.298 325.336 270.513 325.763C270.729 326.191 270.836 326.719 270.836 327.349V332.206H269.35V327.528C269.35 326.975 269.206 326.542 268.917 326.23C268.629 325.916 268.233 325.758 267.729 325.758C267.384 325.758 267.078 325.833 266.809 325.982C266.544 326.131 266.334 326.35 266.178 326.638C266.025 326.923 265.949 327.268 265.949 327.672ZM276.394 324.57V325.763H272.223V324.57H276.394ZM273.342 322.74H274.828V329.964C274.828 330.252 274.872 330.47 274.958 330.615C275.044 330.758 275.155 330.856 275.291 330.909C275.43 330.958 275.581 330.983 275.743 330.983C275.863 330.983 275.967 330.975 276.056 330.958C276.146 330.942 276.216 330.929 276.265 330.919L276.534 332.147C276.448 332.18 276.325 332.213 276.166 332.246C276.007 332.283 275.808 332.302 275.569 332.306C275.178 332.312 274.814 332.243 274.475 332.097C274.137 331.951 273.864 331.726 273.655 331.421C273.446 331.116 273.342 330.733 273.342 330.272V322.74ZM285.309 324.57V325.763H281.137V324.57H285.309ZM282.256 322.74H283.742V329.964C283.742 330.252 283.786 330.47 283.872 330.615C283.958 330.758 284.069 330.856 284.205 330.909C284.344 330.958 284.495 330.983 284.657 330.983C284.777 330.983 284.881 330.975 284.97 330.958C285.06 330.942 285.13 330.929 285.179 330.919L285.448 332.147C285.362 332.18 285.239 332.213 285.08 332.246C284.921 332.283 284.722 332.302 284.483 332.306C284.092 332.312 283.728 332.243 283.39 332.097C283.051 331.951 282.778 331.726 282.569 331.421C282.36 331.116 282.256 330.733 282.256 330.272V322.74ZM289.175 332.375C288.691 332.375 288.254 332.286 287.863 332.107C287.472 331.925 287.162 331.661 286.933 331.316C286.708 330.972 286.595 330.549 286.595 330.049C286.595 329.618 286.678 329.263 286.844 328.985C287.009 328.706 287.233 328.486 287.515 328.323C287.796 328.161 288.111 328.038 288.459 327.956C288.807 327.873 289.162 327.81 289.523 327.767C289.981 327.714 290.352 327.671 290.637 327.637C290.922 327.601 291.129 327.543 291.258 327.463C291.388 327.384 291.452 327.255 291.452 327.076V327.041C291.452 326.607 291.33 326.27 291.084 326.032C290.842 325.793 290.481 325.674 290 325.674C289.5 325.674 289.106 325.785 288.817 326.007C288.532 326.225 288.335 326.469 288.226 326.738L286.829 326.419C286.994 325.955 287.236 325.581 287.554 325.296C287.876 325.007 288.246 324.799 288.663 324.669C289.081 324.537 289.52 324.471 289.981 324.471C290.286 324.471 290.609 324.507 290.95 324.58C291.295 324.649 291.616 324.779 291.915 324.968C292.216 325.157 292.463 325.427 292.655 325.778C292.848 326.126 292.944 326.578 292.944 327.135V332.206H291.492V331.162H291.432C291.336 331.354 291.192 331.543 291 331.729C290.808 331.915 290.561 332.069 290.259 332.191C289.957 332.314 289.596 332.375 289.175 332.375ZM289.498 331.182C289.909 331.182 290.261 331.101 290.552 330.939C290.847 330.776 291.071 330.564 291.223 330.302C291.379 330.037 291.457 329.754 291.457 329.452V328.468C291.404 328.521 291.301 328.57 291.149 328.617C291 328.66 290.829 328.698 290.637 328.731C290.445 328.761 290.257 328.789 290.075 328.816C289.893 328.839 289.74 328.859 289.618 328.875C289.329 328.912 289.066 328.973 288.827 329.059C288.592 329.145 288.403 329.27 288.26 329.432C288.121 329.591 288.052 329.803 288.052 330.069C288.052 330.436 288.188 330.715 288.459 330.904C288.731 331.089 289.077 331.182 289.498 331.182ZM300.646 326.434L299.299 326.673C299.242 326.501 299.153 326.337 299.03 326.181C298.911 326.025 298.748 325.897 298.543 325.798C298.337 325.698 298.081 325.649 297.772 325.649C297.351 325.649 297 325.743 296.718 325.932C296.437 326.118 296.296 326.358 296.296 326.653C296.296 326.908 296.39 327.114 296.579 327.27C296.768 327.425 297.073 327.553 297.494 327.652L298.707 327.931C299.41 328.093 299.933 328.343 300.278 328.681C300.623 329.02 300.795 329.459 300.795 329.999C300.795 330.456 300.662 330.864 300.397 331.222C300.135 331.577 299.769 331.855 299.299 332.057C298.831 332.259 298.289 332.36 297.673 332.36C296.818 332.36 296.12 332.178 295.58 331.814C295.04 331.446 294.708 330.924 294.586 330.247L296.022 330.029C296.112 330.403 296.296 330.687 296.574 330.879C296.853 331.068 297.216 331.162 297.663 331.162C298.15 331.162 298.54 331.061 298.831 330.859C299.123 330.654 299.269 330.403 299.269 330.108C299.269 329.87 299.179 329.669 299 329.507C298.825 329.344 298.555 329.222 298.19 329.139L296.897 328.855C296.185 328.693 295.658 328.435 295.316 328.08C294.978 327.725 294.809 327.276 294.809 326.733C294.809 326.282 294.935 325.887 295.187 325.549C295.439 325.211 295.787 324.948 296.231 324.759C296.675 324.567 297.184 324.471 297.757 324.471C298.583 324.471 299.232 324.649 299.706 325.007C300.18 325.362 300.493 325.838 300.646 326.434ZM303.797 329.616L303.787 327.801H304.045L307.088 324.57H308.868L305.398 328.249H305.164L303.797 329.616ZM302.429 332.206V322.024H303.916V332.206H302.429ZM307.252 332.206L304.518 328.577L305.542 327.538L309.076 332.206H307.252ZM315.945 326.434L314.597 326.673C314.541 326.501 314.452 326.337 314.329 326.181C314.21 326.025 314.047 325.897 313.842 325.798C313.636 325.698 313.379 325.649 313.071 325.649C312.65 325.649 312.299 325.743 312.017 325.932C311.735 326.118 311.595 326.358 311.595 326.653C311.595 326.908 311.689 327.114 311.878 327.27C312.067 327.425 312.372 327.553 312.793 327.652L314.006 327.931C314.708 328.093 315.232 328.343 315.577 328.681C315.922 329.02 316.094 329.459 316.094 329.999C316.094 330.456 315.961 330.864 315.696 331.222C315.434 331.577 315.068 331.855 314.597 332.057C314.13 332.259 313.588 332.36 312.972 332.36C312.117 332.36 311.419 332.178 310.879 331.814C310.338 331.446 310.007 330.924 309.884 330.247L311.321 330.029C311.411 330.403 311.595 330.687 311.873 330.879C312.151 331.068 312.514 331.162 312.962 331.162C313.449 331.162 313.838 331.061 314.13 330.859C314.422 330.654 314.568 330.403 314.568 330.108C314.568 329.87 314.478 329.669 314.299 329.507C314.123 329.344 313.853 329.222 313.489 329.139L312.196 328.855C311.484 328.693 310.957 328.435 310.615 328.08C310.277 327.725 310.108 327.276 310.108 326.733C310.108 326.282 310.234 325.887 310.486 325.549C310.738 325.211 311.086 324.948 311.53 324.759C311.974 324.567 312.483 324.471 313.056 324.471C313.882 324.471 314.531 324.649 315.005 325.007C315.479 325.362 315.792 325.838 315.945 326.434Z" fill="#939DB8"/>
<path d="M324.94 327.115C324.94 325.869 325.104 324.722 325.432 323.675C325.76 322.628 326.239 321.662 326.869 320.777H328.231C327.986 321.105 327.757 321.507 327.545 321.985C327.333 322.462 327.147 322.986 326.988 323.556C326.829 324.122 326.705 324.711 326.615 325.321C326.526 325.927 326.481 326.525 326.481 327.115C326.481 327.904 326.559 328.703 326.714 329.512C326.87 330.32 327.081 331.071 327.346 331.764C327.611 332.457 327.906 333.022 328.231 333.459H326.869C326.239 332.574 325.76 331.608 325.432 330.561C325.104 329.513 324.94 328.365 324.94 327.115ZM330.121 332.206L334.566 323.417V323.342H329.425V322.024H336.157V323.387L331.727 332.206H330.121ZM340.764 327.115C340.764 328.365 340.6 329.513 340.272 330.561C339.944 331.608 339.465 332.574 338.835 333.459H337.473C337.718 333.131 337.947 332.728 338.159 332.251C338.371 331.774 338.557 331.252 338.716 330.685C338.875 330.115 338.999 329.525 339.089 328.915C339.178 328.305 339.223 327.705 339.223 327.115C339.223 326.33 339.145 325.533 338.989 324.724C338.834 323.915 338.623 323.165 338.358 322.472C338.093 321.779 337.798 321.214 337.473 320.777H338.835C339.465 321.662 339.944 322.628 340.272 323.675C340.6 324.722 340.764 325.869 340.764 327.115Z" fill="#5B63D3"/>
<rect x="217.857" y="351.651" width="197.619" height="78.5714" rx="2.77778" fill="#0F0F1B"/>
<rect x="290.476" y="386.175" width="52.381" height="9.52381" rx="4.7619" fill="#252941"/>
<rect x="217.857" y="351.651" width="197.619" height="78.5714" rx="2.77778" stroke="#1E1E2E" stroke-width="0.793651"/>
<rect x="435.317" y="351.651" width="197.619" height="78.5714" rx="2.77778" fill="#0F0F1B"/>
<rect x="507.936" y="386.175" width="52.381" height="9.52381" rx="4.7619" fill="#252941"/>
<rect x="435.317" y="351.651" width="197.619" height="78.5714" rx="2.77778" stroke="#1E1E2E" stroke-width="0.793651"/>
<rect x="652.778" y="351.651" width="197.619" height="78.5714" rx="2.77778" fill="#0F0F1B"/>
<rect x="725.397" y="386.175" width="52.381" height="9.52381" rx="4.7619" fill="#252941"/>
<rect x="652.778" y="351.651" width="197.619" height="78.5714" rx="2.77778" stroke="#1E1E2E" stroke-width="0.793651"/>
<rect x="870.238" y="351.651" width="197.619" height="78.5714" rx="2.77778" fill="#0F0F1B"/>
<rect x="942.857" y="386.175" width="52.381" height="9.52381" rx="4.7619" fill="#252941"/>
<rect x="870.238" y="351.651" width="197.619" height="78.5714" rx="2.77778" stroke="#1E1E2E" stroke-width="0.793651"/>
<rect x="217.857" y="450.063" width="197.619" height="78.5714" rx="2.77778" fill="#0F0F1B"/>
<rect x="290.476" y="484.587" width="52.381" height="9.52381" rx="4.7619" fill="#252941"/>
<rect x="217.857" y="450.063" width="197.619" height="78.5714" rx="2.77778" stroke="#1E1E2E" stroke-width="0.793651"/>
<rect x="435.317" y="450.063" width="197.619" height="78.5714" rx="2.77778" fill="#0F0F1B"/>
<rect x="507.936" y="484.587" width="52.381" height="9.52381" rx="4.7619" fill="#252941"/>
<rect x="435.317" y="450.063" width="197.619" height="78.5714" rx="2.77778" stroke="#1E1E2E" stroke-width="0.793651"/>
<rect x="652.778" y="450.063" width="197.619" height="78.5714" rx="2.77778" fill="#0F0F1B"/>
<rect x="725.397" y="484.587" width="52.381" height="9.52381" rx="4.7619" fill="#252941"/>
<rect x="652.778" y="450.063" width="197.619" height="78.5714" rx="2.77778" stroke="#1E1E2E" stroke-width="0.793651"/>
</g>
</g>
<defs>
<linearGradient id="paint0_linear_42_321" x1="14.8148" y1="25.7143" x2="35.9788" y2="25.7143" gradientUnits="userSpaceOnUse">
<stop stop-color="#5B63D3"/>
<stop offset="1" stop-color="#5B63D3"/>
</linearGradient>
<clipPath id="clip0_42_321">
<rect width="1200" height="650" fill="white" transform="translate(0 0.317505)"/>
</clipPath>
<clipPath id="clip1_42_321">
<rect width="1001.59" height="779.365" fill="white" transform="translate(198.413 0.317505)"/>
</clipPath>
</defs>
</svg>
