<svg width="1300" height="600" viewBox="0 0 1300 600" fill="none" xmlns="http://www.w3.org/2000/svg">
<g clip-path="url(#clip0_81_2671)">
<rect width="1300" height="600" rx="16" fill="white"/>
<g clip-path="url(#clip1_81_2671)">
<mask id="path-2-inside-1_81_2671" fill="white">
<path d="M0 0H200V600H0V0Z"/>
</mask>
<path d="M0 0H200V600H0V0Z" fill="#0F0F1B"/>
<path d="M39.282 18.6853C32.552 19.0386 27.0386 24.552 26.6853 31.282C26.2826 38.972 32.398 45.3333 40 45.3333V43.2526C40 42.566 39.476 42.01 38.794 41.928C33.688 41.314 29.766 36.8526 30.0113 31.528C30.2453 26.4353 34.436 22.2453 39.528 22.0113C45.2653 21.7466 50 26.3206 50 32C50 32 49.9993 32.1593 49.978 32.4413C49.9346 33.436 49.748 34.392 49.4346 35.2906C48.528 38.374 46.1666 42.8666 40 45.3333C47.364 45.3333 53.3333 39.364 53.3333 32C53.3333 24.398 46.972 18.2826 39.282 18.6853Z" fill="url(#paint0_linear_81_2671)"/>
<path d="M81.3182 31.7727C81.3182 33.6534 80.9659 35.2642 80.2614 36.6051C79.5625 37.9403 78.608 38.9631 77.3977 39.6733C76.1932 40.3835 74.8267 40.7386 73.2983 40.7386C71.7699 40.7386 70.4006 40.3835 69.1903 39.6733C67.9858 38.9574 67.0313 37.9318 66.3267 36.5966C65.6278 35.2557 65.2784 33.6477 65.2784 31.7727C65.2784 29.892 65.6278 28.2841 66.3267 26.9489C67.0313 25.608 67.9858 24.5824 69.1903 23.8722C70.4006 23.1619 71.7699 22.8068 73.2983 22.8068C74.8267 22.8068 76.1932 23.1619 77.3977 23.8722C78.608 24.5824 79.5625 25.608 80.2614 26.9489C80.9659 28.2841 81.3182 29.892 81.3182 31.7727ZM78.1392 31.7727C78.1392 30.4489 77.9318 29.3324 77.517 28.4233C77.108 27.5085 76.5398 26.8182 75.8125 26.3523C75.0852 25.8807 74.2472 25.6449 73.2983 25.6449C72.3494 25.6449 71.5114 25.8807 70.7841 26.3523C70.0568 26.8182 69.4858 27.5085 69.071 28.4233C68.6619 29.3324 68.4574 30.4489 68.4574 31.7727C68.4574 33.0966 68.6619 34.2159 69.071 35.1307C69.4858 36.0398 70.0568 36.7301 70.7841 37.2017C71.5114 37.6676 72.3494 37.9006 73.2983 37.9006C74.2472 37.9006 75.0852 37.6676 75.8125 37.2017C76.5398 36.7301 77.108 36.0398 77.517 35.1307C77.9318 34.2159 78.1392 33.0966 78.1392 31.7727ZM84.3075 40.5V23.0455H90.853C92.1939 23.0455 93.3189 23.2955 94.228 23.7955C95.1428 24.2955 95.8331 24.983 96.299 25.858C96.7706 26.7273 97.0064 27.7159 97.0064 28.8239C97.0064 29.9432 96.7706 30.9375 96.299 31.8068C95.8274 32.6761 95.1314 33.3608 94.2109 33.8608C93.2905 34.3551 92.157 34.6023 90.8104 34.6023H86.4723V32.0028H90.3842C91.1683 32.0028 91.8104 31.8665 92.3104 31.5938C92.8104 31.321 93.1797 30.946 93.4183 30.4688C93.6626 29.9915 93.7848 29.4432 93.7848 28.8239C93.7848 28.2045 93.6626 27.6591 93.4183 27.1875C93.1797 26.7159 92.8075 26.3494 92.3018 26.0881C91.8018 25.821 91.157 25.6875 90.3672 25.6875H87.4695V40.5H84.3075ZM100.049 40.5H96.674L102.819 23.0455H106.722L112.876 40.5H109.501L104.839 26.625H104.702L100.049 40.5ZM100.16 33.6562H109.364V36.196H100.16V33.6562ZM115.175 40.5V23.0455H118.337V37.8494H126.024V40.5H115.175Z" fill="#C9D3EE"/>
<rect x="16" y="64" width="168" height="36" rx="8" fill="#141623"/>
<rect x="24" y="70" width="24" height="24" rx="12" fill="#9396A9" fill-opacity="0.2"/>
<rect x="64.5" y="76.5" width="75" height="11" rx="5.5" fill="#3C4059"/>
<rect x="64.5" y="76.5" width="75" height="11" rx="5.5" stroke="#141623"/>
<rect x="24" y="122" width="24" height="24" rx="12" fill="#9396A9" fill-opacity="0.2"/>
<rect x="64.5" y="128.5" width="75" height="11" rx="5.5" fill="#3C4059" fill-opacity="0.5"/>
<rect x="64.5" y="128.5" width="75" height="11" rx="5.5" stroke="#141623"/>
<rect x="24" y="174" width="24" height="24" rx="12" fill="#9396A9" fill-opacity="0.2"/>
<rect x="64.5" y="180.5" width="75" height="11" rx="5.5" fill="#3C4059" fill-opacity="0.5"/>
<rect x="64.5" y="180.5" width="75" height="11" rx="5.5" stroke="#141623"/>
<rect x="24" y="226" width="24" height="24" rx="12" fill="#9396A9" fill-opacity="0.2"/>
<rect x="64.5" y="232.5" width="75" height="11" rx="5.5" fill="#3C4059" fill-opacity="0.5"/>
<rect x="64.5" y="232.5" width="75" height="11" rx="5.5" stroke="#141623"/>
<path d="M199 0V600H201V0H199Z" fill="#151521" mask="url(#path-2-inside-1_81_2671)"/>
<rect width="1100" height="600" transform="translate(200)" fill="#0B0B15"/>
<path d="M240 32C240 23.1634 247.163 16 256 16H1524C1532.84 16 1540 23.1634 1540 32V44H240V32Z" fill="#0B0B15"/>
<rect x="240.5" y="24.5" width="49" height="11" rx="5.5" fill="#3C4059" fill-opacity="0.5"/>
<rect x="240.5" y="24.5" width="49" height="11" rx="5.5" stroke="#141623"/>
<rect x="306.5" y="24.5" width="49" height="11" rx="5.5" fill="#3C4059" fill-opacity="0.5"/>
<rect x="306.5" y="24.5" width="49" height="11" rx="5.5" stroke="#141623"/>
<rect x="372.5" y="24.5" width="49" height="11" rx="5.5" fill="#3C4059" fill-opacity="0.5"/>
<rect x="372.5" y="24.5" width="49" height="11" rx="5.5" stroke="#141623"/>
<rect x="438.5" y="24.5" width="49" height="11" rx="5.5" fill="#3C4059" fill-opacity="0.5"/>
<rect x="438.5" y="24.5" width="49" height="11" rx="5.5" stroke="#141623"/>
<rect x="248" y="70" width="24" height="24" rx="12" fill="#9396A9" fill-opacity="0.2"/>
<rect x="288.5" y="75.5" width="75" height="13" rx="6.5" fill="#3C4059"/>
<rect x="288.5" y="75.5" width="75" height="13" rx="6.5" stroke="#141623"/>
<rect x="240.5" y="120.5" width="328.333" height="199" rx="15.5" fill="#0F0F1B"/>
<rect x="240.5" y="120.5" width="328.333" height="199" rx="15.5" stroke="#1E1E2E"/>
<rect x="585.833" y="120.5" width="328.333" height="199" rx="15.5" fill="#0F0F1B"/>
<rect x="585.833" y="120.5" width="328.333" height="199" rx="15.5" stroke="#1E1E2E"/>
<rect x="931.167" y="120.5" width="328.333" height="199" rx="15.5" fill="#0F0F1B"/>
<rect x="931.167" y="120.5" width="328.333" height="199" rx="15.5" stroke="#1E1E2E"/>
<rect x="248" y="346" width="24" height="24" rx="12" fill="#9396A9" fill-opacity="0.2"/>
<rect x="288.5" y="351.5" width="75" height="13" rx="6.5" fill="#3C4059"/>
<rect x="288.5" y="351.5" width="75" height="13" rx="6.5" stroke="#141623"/>
<rect x="240.5" y="396.5" width="328.333" height="199" rx="15.5" fill="#0F0F1B"/>
<rect x="240.5" y="396.5" width="328.333" height="199" rx="15.5" stroke="#1E1E2E"/>
<rect x="585.833" y="396.5" width="328.333" height="199" rx="15.5" fill="#0F0F1B"/>
<rect x="585.833" y="396.5" width="328.333" height="199" rx="15.5" stroke="#1E1E2E"/>
<rect x="931.167" y="396.5" width="328.333" height="199" rx="15.5" fill="#0F0F1B"/>
<rect x="931.167" y="396.5" width="328.333" height="199" rx="15.5" stroke="#1E1E2E"/>
</g>
</g>
<defs>
<linearGradient id="paint0_linear_81_2671" x1="26.6666" y1="32" x2="53.3333" y2="32" gradientUnits="userSpaceOnUse">
<stop stop-color="#5B63D3"/>
<stop offset="1" stop-color="#5B63D3"/>
</linearGradient>
<clipPath id="clip0_81_2671">
<rect width="1300" height="600" rx="16" fill="white"/>
</clipPath>
<clipPath id="clip1_81_2671">
<rect width="1300" height="600" fill="white"/>
</clipPath>
</defs>
</svg>
