<svg width="800" height="800" viewBox="0 0 800 800" fill="none" xmlns="http://www.w3.org/2000/svg">
<path d="M79.3766 513.775C79.3516 521 76.3016 527.5 71.4266 532.1H71.4016C66.4016 536.8 59.6516 539.675 52.2266 539.675C44.8016 539.675 38.0266 536.775 33.0016 532.075L33.0266 532.1C28.1516 527.5 25.1016 521 25.1016 513.8C25.1016 506.6 28.1516 500.075 33.0516 495.5C38.0516 490.8 44.8266 487.925 52.2516 487.925C59.6766 487.925 66.4266 490.8 71.4516 495.525L71.4266 495.5C76.3016 500.1 79.3516 506.6 79.3766 513.825V513.775ZM351.277 535.425H302.602L174.452 333.225C171.502 328.675 168.777 323.425 166.602 317.9L166.377 317.3H165.252C166.277 326.425 166.852 336.975 166.852 347.675C166.852 350.275 166.827 352.875 166.752 355.475V355.1V535.425H123.727V260.35H175.552L299.427 457.8C304.652 465.95 308.027 471.6 309.527 474.675H310.277C309.027 465.325 308.327 454.525 308.327 443.55C308.327 441.475 308.352 439.425 308.402 437.35V437.65V260.325H351.277V535.425ZM560.827 535.425H410.202V260.35H554.852V299.1H454.727V377.025H546.977V415.575H454.727V496.925H560.827V535.425ZM774.902 299.1H697.802V535.45H653.277V299.1H576.352V260.35H774.877L774.902 299.1Z" fill="#475569"/>
</svg>
