<svg width="280" height="207" viewBox="0 0 280 207" fill="none" xmlns="http://www.w3.org/2000/svg">
<g opacity="0.8">
<rect width="200" height="150" rx="8" transform="matrix(0.866025 -0.5 0.707107 0.707107 0 100)" fill="#1C1F31"/>
<path d="M169.628 151.523L163.457 145.352L164.597 144.693L169.967 150.063L173.391 148.086L174.193 148.887L169.628 151.523ZM176.19 147.825C175.988 147.941 175.756 147.983 175.494 147.951C175.231 147.916 175.016 147.815 174.849 147.648C174.684 147.484 174.616 147.301 174.645 147.101C174.671 146.899 174.786 146.739 174.987 146.623C175.189 146.506 175.422 146.465 175.685 146.5C175.947 146.533 176.16 146.631 176.325 146.796C176.436 146.907 176.503 147.028 176.526 147.16C176.55 147.289 176.534 147.412 176.477 147.53C176.421 147.649 176.325 147.747 176.19 147.825ZM183.696 143.562C183.111 143.897 182.487 144.059 181.825 144.049C181.162 144.038 180.483 143.858 179.788 143.508C179.093 143.159 178.41 142.648 177.739 141.978C177.07 141.309 176.608 140.674 176.353 140.073C176.101 139.471 176.056 138.927 176.221 138.439C176.387 137.95 176.76 137.538 177.338 137.204C177.916 136.871 178.537 136.71 179.202 136.722C179.864 136.733 180.542 136.912 181.235 137.26C181.929 137.604 182.61 138.11 183.279 138.779C183.952 139.452 184.417 140.09 184.674 140.693C184.929 141.293 184.975 141.838 184.813 142.328C184.649 142.816 184.277 143.227 183.696 143.562ZM182.891 142.758C183.403 142.462 183.599 142.028 183.479 141.454C183.362 140.878 182.917 140.205 182.146 139.434C181.634 138.921 181.134 138.527 180.648 138.25C180.162 137.97 179.704 137.809 179.276 137.768C178.847 137.724 178.465 137.799 178.127 137.994C177.618 138.288 177.423 138.724 177.543 139.301C177.662 139.879 178.105 140.553 178.872 141.323C179.387 141.838 179.887 142.235 180.373 142.515C180.859 142.792 181.316 142.952 181.742 142.994C182.166 143.034 182.549 142.955 182.891 142.758ZM186.307 139.992L185.553 139.239L184.607 133.141L185.334 132.721L186.443 133.83L185.981 134.096L186.665 138.464L186.713 138.513L191.189 135.928L191.979 136.718L186.307 139.992ZM191.095 139.129L189.661 137.695L189.325 137.347L184.932 132.953L186.013 132.329L192.184 138.5L191.095 139.129Z" fill="white"/>
</g>
</svg>
