<svg width="280" height="207" viewBox="0 0 280 207" fill="none" xmlns="http://www.w3.org/2000/svg">
<g opacity="0.8">
<rect width="200" height="150" rx="8" transform="matrix(0.866025 -0.5 0.707107 0.707107 0 100)" fill="#141623"/>
<path d="M169.628 151.523L163.457 145.352L164.597 144.693L169.967 150.063L173.391 148.086L174.193 148.887L169.628 151.523ZM176.19 147.825C175.988 147.941 175.756 147.983 175.494 147.951C175.231 147.916 175.016 147.815 174.849 147.648C174.684 147.484 174.616 147.301 174.645 147.101C174.671 146.899 174.786 146.739 174.987 146.623C175.189 146.506 175.422 146.465 175.685 146.5C175.947 146.533 176.16 146.631 176.325 146.796C176.436 146.907 176.503 147.028 176.526 147.16C176.55 147.289 176.534 147.412 176.477 147.53C176.421 147.649 176.325 147.747 176.19 147.825ZM183.696 143.562C183.111 143.897 182.487 144.059 181.825 144.049C181.162 144.038 180.483 143.858 179.788 143.508C179.093 143.159 178.41 142.648 177.739 141.978C177.07 141.309 176.608 140.674 176.353 140.073C176.101 139.471 176.056 138.927 176.221 138.439C176.387 137.95 176.76 137.538 177.338 137.204C177.916 136.871 178.537 136.71 179.202 136.722C179.864 136.733 180.542 136.912 181.235 137.26C181.929 137.604 182.61 138.11 183.279 138.779C183.952 139.452 184.417 140.09 184.674 140.693C184.929 141.293 184.975 141.838 184.813 142.328C184.649 142.816 184.277 143.227 183.696 143.562ZM182.891 142.758C183.403 142.462 183.599 142.028 183.479 141.454C183.362 140.878 182.917 140.205 182.146 139.434C181.634 138.921 181.134 138.527 180.648 138.25C180.162 137.97 179.704 137.809 179.276 137.768C178.847 137.724 178.465 137.799 178.127 137.994C177.618 138.288 177.423 138.724 177.543 139.301C177.662 139.879 178.105 140.553 178.872 141.323C179.387 141.838 179.887 142.235 180.373 142.515C180.859 142.792 181.316 142.952 181.742 142.994C182.166 143.034 182.549 142.955 182.891 142.758ZM190.386 139.671C189.879 139.964 189.355 140.154 188.814 140.241C188.275 140.327 187.764 140.311 187.279 140.191C186.796 140.068 186.377 139.844 186.025 139.518L187.183 138.849C187.381 139.024 187.615 139.139 187.885 139.195C188.155 139.248 188.437 139.247 188.731 139.192C189.024 139.136 189.307 139.03 189.577 138.874C189.875 138.702 190.096 138.508 190.24 138.291C190.387 138.074 190.451 137.852 190.43 137.626C190.408 137.398 190.298 137.184 190.099 136.985C189.892 136.779 189.645 136.634 189.358 136.553C189.071 136.468 188.758 136.452 188.419 136.505C188.083 136.557 187.74 136.684 187.391 136.885L186.752 137.254L185.993 136.495L186.631 136.126C186.912 135.964 187.117 135.781 187.246 135.576C187.378 135.37 187.43 135.159 187.404 134.943C187.376 134.725 187.263 134.516 187.064 134.317C186.873 134.127 186.654 133.991 186.408 133.912C186.162 133.829 185.903 133.803 185.631 133.833C185.361 133.862 185.097 133.951 184.838 134.1C184.592 134.242 184.4 134.412 184.26 134.61C184.121 134.805 184.053 135.009 184.057 135.222C184.058 135.433 184.149 135.636 184.328 135.831L183.224 136.468C182.903 136.127 182.73 135.764 182.706 135.379C182.684 134.992 182.791 134.618 183.028 134.257C183.264 133.896 183.613 133.581 184.076 133.314C184.561 133.035 185.056 132.87 185.563 132.822C186.07 132.77 186.547 132.816 186.994 132.961C187.443 133.104 187.818 133.327 188.119 133.632C188.467 133.976 188.642 134.338 188.645 134.717C188.65 135.094 188.496 135.437 188.185 135.747L188.233 135.795C188.797 135.568 189.349 135.506 189.888 135.61C190.429 135.713 190.893 135.96 191.28 136.351C191.622 136.689 191.811 137.06 191.846 137.464C191.884 137.867 191.78 138.261 191.534 138.648C191.285 139.032 190.903 139.373 190.386 139.671Z" fill="#939DB8"/>
</g>
</svg>
