<svg width="415" height="858" viewBox="0 0 415 858" fill="none" xmlns="http://www.w3.org/2000/svg">
<g clip-path="url(#clip0_29_1002)">
<path d="M0 53C0 23.7289 23.7289 0 53 0H359C388.271 0 412 23.7289 412 53V805C412 834.271 388.271 858 359 858H53C23.7289 858 0 834.271 0 805V53Z" fill="#3A4245"/>
<path d="M6 53C6 27.0426 27.0426 6 53 6H359C384.957 6 406 27.0426 406 53V805C406 830.957 384.957 852 359 852H53C27.0426 852 6 830.957 6 805V53Z" fill="#121515"/>
<path d="M162.69 11C160.871 11 160.713 8.4977 159.183 8.06373C159.012 8.01532 158.931 7.79456 159.072 7.68582C159.451 7.39261 160.075 7 160.698 7H251.302C251.925 7 252.549 7.39261 252.928 7.68582C253.069 7.79456 252.988 8.01532 252.817 8.06373C251.287 8.4977 251.129 11 249.31 11H162.69Z" fill="#262C2D"/>
<path d="M412 333H413C414.105 333 415 334.481 415 336.308L415 447.692C415 449.519 414.105 451 413 451H412L412 333Z" fill="#121515"/>
<path d="M412 214H413C414.105 214 415 215.481 415 217.308L415 269.692C415 271.519 414.105 273 413 273H412L412 214Z" fill="#AFC5B7"/>
<g clip-path="url(#clip1_29_1002)">
<rect x="20" y="26" width="372" height="805" rx="32" fill="#EDE7DE"/>
<path d="M45.671 71.7429H42.7368V51.2308H47.5484L55.642 70.3105L55.2805 70.4496V51.2308H58.2286V71.7429H53.3475L45.2817 52.691L45.671 52.5658V71.7429ZM69.2255 72.0211C67.705 72.0211 66.3607 71.6919 65.1926 71.0337C64.0337 70.3754 63.1251 69.4715 62.4669 68.3219C61.8179 67.163 61.4934 65.8373 61.4934 64.3446C61.4934 62.8613 61.8179 61.5494 62.4669 60.4091C63.1251 59.2595 64.0337 58.3648 65.1926 57.7251C66.3607 57.0762 67.705 56.7517 69.2255 56.7517C70.7459 56.7517 72.0856 57.0762 73.2445 57.7251C74.4126 58.3648 75.3212 59.2595 75.9701 60.4091C76.6284 61.5494 76.9575 62.8613 76.9575 64.3446C76.9575 65.8373 76.6284 67.163 75.9701 68.3219C75.3212 69.4715 74.4126 70.3754 73.2445 71.0337C72.0856 71.6919 70.7459 72.0211 69.2255 72.0211ZM69.2255 69.4344C70.1526 69.4344 70.9684 69.2258 71.673 68.8086C72.3776 68.3914 72.9292 67.8027 73.3279 67.0425C73.7265 66.273 73.9259 65.3737 73.9259 64.3446C73.9259 63.3248 73.7265 62.4394 73.3279 61.6885C72.9292 60.9375 72.3776 60.3581 71.673 59.9502C70.9684 59.5422 70.1526 59.3383 69.2255 59.3383C68.3076 59.3383 67.4918 59.5422 66.7779 59.9502C66.0733 60.3581 65.5217 60.9375 65.123 61.6885C64.7244 62.4394 64.5251 63.3248 64.5251 64.3446C64.5251 65.3737 64.7244 66.273 65.123 67.0425C65.5217 67.8027 66.0733 68.3914 66.7779 68.8086C67.4918 69.2258 68.3076 69.4344 69.2255 69.4344ZM86.3857 71.9932C85.8943 71.9932 85.403 71.9422 84.9116 71.8403C84.4295 71.7383 83.9845 71.5529 83.5766 71.284C83.1779 71.0059 82.8581 70.6119 82.617 70.1019C82.376 69.592 82.2555 68.9245 82.2555 68.0994C82.2555 67.9047 82.2555 67.7008 82.2555 67.4875C82.2555 67.2743 82.2555 67.0564 82.2555 66.8339V59.4773H78.7093V56.9742H80.5728C80.9714 56.9742 81.282 56.9603 81.5045 56.9325C81.7363 56.8954 81.9032 56.8166 82.0051 56.696C82.1164 56.5662 82.1859 56.3623 82.2137 56.0842C82.2416 55.806 82.2555 55.4259 82.2555 54.9438V52.093H85.2732V56.9742H89.7928V59.4773H85.2732V66.0273C85.2732 66.2128 85.2732 66.3982 85.2732 66.5836C85.2732 66.769 85.2732 66.9405 85.2732 67.0981C85.2732 67.8398 85.3613 68.4239 85.5374 68.8504C85.7228 69.2768 86.14 69.4901 86.789 69.4901C87.0671 69.4901 87.3313 69.4669 87.5817 69.4205C87.832 69.3742 88.022 69.3232 88.1518 69.2676V71.729C87.985 71.7939 87.7485 71.8542 87.4426 71.9098C87.1367 71.9654 86.7844 71.9932 86.3857 71.9932ZM93.3112 65.4154V63.0652H104.186L103.769 63.7606C103.769 63.7049 103.769 63.6493 103.769 63.5937C103.769 63.5288 103.769 63.4732 103.769 63.4268C103.769 62.6759 103.607 61.9852 103.282 61.3547C102.958 60.715 102.471 60.2051 101.822 59.825C101.182 59.4356 100.38 59.2409 99.4161 59.2409C98.4519 59.2409 97.6036 59.4495 96.8712 59.8667C96.1481 60.2747 95.5826 60.8587 95.1746 61.619C94.776 62.3699 94.5767 63.2738 94.5767 64.3307C94.5767 65.4062 94.7713 66.3333 95.1607 67.112C95.5501 67.8815 96.111 68.4749 96.8434 68.8921C97.5758 69.3093 98.4519 69.5179 99.4718 69.5179C100.186 69.5179 100.802 69.4483 101.321 69.3093C101.85 69.1609 102.281 68.9662 102.615 68.7252C102.958 68.4842 103.217 68.2246 103.393 67.9464C103.57 67.659 103.672 67.3763 103.699 67.0981H106.703C106.648 67.7008 106.448 68.2987 106.105 68.8921C105.771 69.4762 105.294 70.0092 104.673 70.4913C104.061 70.9642 103.31 71.3443 102.42 71.6317C101.539 71.9098 100.524 72.0489 99.3744 72.0489C97.8354 72.0489 96.4865 71.7244 95.3276 71.0754C94.1687 70.4264 93.2648 69.5271 92.6158 68.3775C91.9669 67.2187 91.6424 65.8929 91.6424 64.4003C91.6424 62.8798 91.9715 61.5448 92.6297 60.3952C93.288 59.2456 94.2012 58.3509 95.3693 57.7112C96.5375 57.0622 97.8771 56.7378 99.3883 56.7378C100.927 56.7378 102.258 57.0622 103.379 57.7112C104.511 58.3602 105.382 59.2548 105.994 60.3952C106.606 61.5355 106.912 62.8474 106.912 64.3307C106.912 64.5069 106.907 64.7108 106.898 64.9426C106.889 65.1744 106.875 65.332 106.856 65.4154H93.3112ZM110.275 71.7429V56.9742H113.293V61.6885L112.487 61.3269C112.551 60.7243 112.704 60.1495 112.945 59.6025C113.187 59.0555 113.506 58.5688 113.905 58.1423C114.313 57.7066 114.814 57.3636 115.407 57.1132C116 56.8629 116.686 56.7378 117.465 56.7378C118.058 56.7378 118.536 56.7841 118.897 56.8768C119.268 56.9695 119.495 57.0437 119.579 57.0993L118.939 59.9363C118.846 59.8714 118.656 59.7879 118.369 59.6859C118.091 59.584 117.701 59.533 117.201 59.533C116.441 59.533 115.81 59.6674 115.31 59.9363C114.809 60.2051 114.41 60.5621 114.114 61.0071C113.817 61.4521 113.604 61.9388 113.474 62.4673C113.353 62.9864 113.293 63.5102 113.293 64.0387V71.7429H110.275Z" fill="#233831"/>
<rect x="336.373" y="46.8599" width="34.7664" height="34.7664" rx="17.3832" fill="#2D483F"/>
<path d="M358.97 64.701C358.879 65.6874 358.509 66.6273 357.903 67.4109C357.297 68.1946 356.481 68.7894 355.549 69.1259C354.617 69.4624 353.609 69.5267 352.643 69.3111C351.676 69.0955 350.79 68.6091 350.09 67.9087C349.39 67.2083 348.903 66.3229 348.687 65.3561C348.472 64.3893 348.536 63.3811 348.873 62.4495C349.209 61.5179 349.804 60.7014 350.588 60.0955C351.371 59.4896 352.311 59.1195 353.298 59.0283C352.72 59.8096 352.442 60.7721 352.514 61.7409C352.587 62.7097 353.004 63.6204 353.691 64.3074C354.378 64.9943 355.289 65.4119 356.258 65.4841C357.226 65.5564 358.189 65.2785 358.97 64.701V64.701Z" stroke="#FAF8F6" stroke-width="1.73832" stroke-linecap="round" stroke-linejoin="round"/>
<rect x="33.9062" y="95.5327" width="344.187" height="34.7664" rx="13.9065" fill="#FAF8F6"/>
<path d="M44.3359 111.177L47.8126 114.654L51.2892 111.177" stroke="#4E6964" stroke-width="1.73832" stroke-linecap="round" stroke-linejoin="round"/>
<path d="M63.8534 117.916H62.6992V107.66H64.6391L68.9919 117.235L68.9015 117.29V107.66H70.0557V117.916H68.0879L63.7491 108.355L63.8534 108.307V117.916ZM72.4813 114.697V113.64H78.19L77.9814 113.987C77.9814 113.96 77.9814 113.934 77.9814 113.911C77.9814 113.883 77.9814 113.858 77.9814 113.834C77.9814 113.408 77.891 113.019 77.7102 112.666C77.534 112.309 77.2698 112.024 76.9175 111.811C76.5652 111.598 76.1295 111.491 75.6103 111.491C75.0865 111.491 74.6253 111.602 74.2266 111.825C73.8279 112.047 73.5174 112.363 73.2949 112.771C73.0724 113.174 72.9611 113.656 72.9611 114.217C72.9611 114.787 73.0677 115.278 73.281 115.691C73.4988 116.104 73.8071 116.421 74.2057 116.644C74.6044 116.866 75.0772 116.977 75.6242 116.977C76.0136 116.977 76.352 116.938 76.6394 116.859C76.9268 116.776 77.1632 116.667 77.3486 116.532C77.5387 116.393 77.6824 116.243 77.7797 116.08C77.8771 115.918 77.935 115.756 77.9536 115.594H79.1356C79.1124 115.89 79.0197 116.185 78.8575 116.477C78.6952 116.769 78.4658 117.035 78.1691 117.276C77.8724 117.513 77.5085 117.703 77.0774 117.846C76.6463 117.99 76.1503 118.062 75.5894 118.062C74.8478 118.062 74.1941 117.9 73.6286 117.575C73.0631 117.251 72.6181 116.801 72.2936 116.226C71.9737 115.652 71.8138 114.991 71.8138 114.245C71.8138 113.489 71.9761 112.826 72.3005 112.256C72.625 111.681 73.0724 111.232 73.6425 110.907C74.2127 110.583 74.864 110.42 75.5964 110.42C76.3427 110.42 76.9894 110.583 77.5364 110.907C78.0833 111.232 78.5052 111.677 78.8019 112.242C79.0985 112.803 79.2469 113.443 79.2469 114.161C79.2469 114.235 79.2445 114.333 79.2399 114.453C79.2353 114.574 79.2283 114.655 79.219 114.697H72.4813ZM86.8306 117.916L84.7655 110.532H85.8154L87.7693 117.395H87.5537L88.847 110.532H90.0778L88.4855 117.916H86.8306ZM81.8381 117.916L80.2319 110.532H81.4627L82.7699 117.395H82.5543L84.4873 110.532H85.5373L83.5 117.916H81.8381ZM100.321 117.916V114.377C100.321 114.164 100.321 113.99 100.321 113.855C100.321 113.716 100.321 113.584 100.321 113.459C100.321 113.074 100.256 112.738 100.126 112.451C99.9965 112.163 99.7926 111.941 99.5144 111.783C99.2363 111.626 98.8724 111.547 98.4228 111.547C98.0288 111.547 97.6626 111.649 97.3242 111.853C96.9904 112.052 96.7216 112.323 96.5176 112.666C96.3183 113.005 96.2186 113.385 96.2186 113.807L95.5441 113.549C95.5441 112.97 95.6855 112.444 95.9683 111.971C96.2557 111.498 96.6358 111.123 97.1086 110.845C97.5861 110.562 98.1053 110.42 98.6661 110.42C99.2363 110.42 99.7346 110.529 100.161 110.747C100.588 110.965 100.917 111.278 101.148 111.686C101.385 112.089 101.503 112.576 101.503 113.146C101.503 113.35 101.503 113.573 101.503 113.814C101.503 114.055 101.503 114.279 101.503 114.488V117.916H100.321ZM95.0365 117.916V110.532H96.2186V117.916H95.0365ZM107.063 118.048C106.321 118.048 105.665 117.884 105.095 117.554C104.529 117.221 104.084 116.766 103.76 116.192C103.44 115.612 103.28 114.954 103.28 114.217C103.28 113.48 103.44 112.826 103.76 112.256C104.084 111.686 104.529 111.239 105.095 110.914C105.665 110.59 106.321 110.427 107.063 110.427C107.804 110.427 108.458 110.59 109.023 110.914C109.594 111.239 110.039 111.686 110.359 112.256C110.683 112.826 110.845 113.48 110.845 114.217C110.845 114.954 110.683 115.612 110.359 116.192C110.039 116.766 109.594 117.221 109.023 117.554C108.458 117.884 107.804 118.048 107.063 118.048ZM107.063 116.963C107.573 116.963 108.022 116.85 108.412 116.623C108.801 116.396 109.105 116.076 109.322 115.663C109.545 115.251 109.656 114.769 109.656 114.217C109.656 113.665 109.545 113.188 109.322 112.785C109.105 112.377 108.801 112.064 108.412 111.846C108.022 111.623 107.573 111.512 107.063 111.512C106.557 111.512 106.108 111.623 105.714 111.846C105.324 112.064 105.018 112.377 104.796 112.785C104.578 113.188 104.469 113.665 104.469 114.217C104.469 114.769 104.578 115.251 104.796 115.663C105.018 116.076 105.324 116.396 105.714 116.623C106.108 116.85 106.557 116.963 107.063 116.963ZM115.462 118.027C115.235 118.027 115.013 118.002 114.795 117.951C114.577 117.9 114.38 117.809 114.204 117.68C114.032 117.545 113.896 117.357 113.794 117.116C113.692 116.871 113.641 116.555 113.641 116.171C113.641 116.073 113.641 115.974 113.641 115.872C113.641 115.765 113.641 115.654 113.641 115.538V111.575H111.84V110.532H112.994C113.152 110.532 113.274 110.527 113.362 110.518C113.451 110.504 113.513 110.474 113.55 110.427C113.592 110.376 113.617 110.3 113.627 110.198C113.636 110.091 113.641 109.945 113.641 109.76V108.084H114.83V110.532H117.138V111.575H114.83V115.156C114.83 115.258 114.83 115.357 114.83 115.455C114.83 115.552 114.83 115.642 114.83 115.726C114.83 116.12 114.876 116.428 114.969 116.651C115.066 116.873 115.282 116.984 115.615 116.984C115.75 116.984 115.877 116.973 115.998 116.95C116.118 116.926 116.209 116.903 116.269 116.88V117.909C116.19 117.937 116.079 117.962 115.935 117.986C115.796 118.013 115.638 118.027 115.462 118.027ZM118.791 114.697V113.64H124.5L124.291 113.987C124.291 113.96 124.291 113.934 124.291 113.911C124.291 113.883 124.291 113.858 124.291 113.834C124.291 113.408 124.201 113.019 124.02 112.666C123.844 112.309 123.58 112.024 123.227 111.811C122.875 111.598 122.439 111.491 121.92 111.491C121.396 111.491 120.935 111.602 120.536 111.825C120.138 112.047 119.827 112.363 119.605 112.771C119.382 113.174 119.271 113.656 119.271 114.217C119.271 114.787 119.378 115.278 119.591 115.691C119.809 116.104 120.117 116.421 120.516 116.644C120.914 116.866 121.387 116.977 121.934 116.977C122.323 116.977 122.662 116.938 122.949 116.859C123.237 116.776 123.473 116.667 123.658 116.532C123.849 116.393 123.992 116.243 124.09 116.08C124.187 115.918 124.245 115.756 124.263 115.594H125.445C125.422 115.89 125.33 116.185 125.167 116.477C125.005 116.769 124.776 117.035 124.479 117.276C124.182 117.513 123.818 117.703 123.387 117.846C122.956 117.99 122.46 118.062 121.899 118.062C121.158 118.062 120.504 117.9 119.938 117.575C119.373 117.251 118.928 116.801 118.603 116.226C118.284 115.652 118.124 114.991 118.124 114.245C118.124 113.489 118.286 112.826 118.61 112.256C118.935 111.681 119.382 111.232 119.952 110.907C120.523 110.583 121.174 110.42 121.906 110.42C122.653 110.42 123.299 110.583 123.846 110.907C124.393 111.232 124.815 111.677 125.112 112.242C125.408 112.803 125.557 113.443 125.557 114.161C125.557 114.235 125.554 114.333 125.55 114.453C125.545 114.574 125.538 114.655 125.529 114.697H118.791ZM128.122 118.097C127.895 118.097 127.703 118.02 127.545 117.867C127.392 117.71 127.316 117.517 127.316 117.29C127.316 117.068 127.392 116.878 127.545 116.72C127.703 116.562 127.895 116.484 128.122 116.484C128.345 116.484 128.535 116.562 128.692 116.72C128.85 116.878 128.929 117.068 128.929 117.29C128.929 117.517 128.85 117.71 128.692 117.867C128.535 118.02 128.345 118.097 128.122 118.097ZM131.694 118.097C131.467 118.097 131.274 118.02 131.117 117.867C130.964 117.71 130.887 117.517 130.887 117.29C130.887 117.068 130.964 116.878 131.117 116.72C131.274 116.562 131.467 116.484 131.694 116.484C131.916 116.484 132.107 116.562 132.264 116.72C132.422 116.878 132.501 117.068 132.501 117.29C132.501 117.517 132.422 117.71 132.264 117.867C132.107 118.02 131.916 118.097 131.694 118.097ZM135.266 118.097C135.039 118.097 134.846 118.02 134.689 117.867C134.536 117.71 134.459 117.517 134.459 117.29C134.459 117.068 134.536 116.878 134.689 116.72C134.846 116.562 135.039 116.484 135.266 116.484C135.488 116.484 135.678 116.562 135.836 116.72C135.993 116.878 136.072 117.068 136.072 117.29C136.072 117.517 135.993 117.71 135.836 117.867C135.678 118.02 135.488 118.097 135.266 118.097Z" fill="#657E75"/>
<rect x="33.9062" y="144.206" width="344.187" height="34.8598" rx="13.9065" fill="#F6F3EF" fill-opacity="0.5"/>
<g clip-path="url(#clip2_29_1002)">
<path d="M47.812 167.43C51.0121 167.43 53.6064 164.836 53.6064 161.635C53.6064 158.435 51.0121 155.841 47.812 155.841C44.6118 155.841 42.0176 158.435 42.0176 161.635C42.0176 164.836 44.6118 167.43 47.812 167.43Z" stroke="#4E6964" stroke-width="1.73832" stroke-linecap="round" stroke-linejoin="round"/>
</g>
<path d="M65.8003 165.775C65.0911 165.775 64.4838 165.663 63.9786 165.441C63.4779 165.214 63.0932 164.873 62.8243 164.419C62.5555 163.964 62.421 163.399 62.421 162.722C62.421 162.629 62.421 162.551 62.421 162.486C62.421 162.421 62.421 162.342 62.421 162.249H63.61C63.61 162.337 63.61 162.411 63.61 162.472C63.61 162.532 63.61 162.609 63.61 162.701C63.61 163.41 63.7955 163.923 64.1663 164.238C64.5371 164.548 65.0772 164.704 65.7864 164.704C66.5188 164.704 67.0728 164.579 67.4482 164.328C67.8237 164.078 68.0115 163.672 68.0115 163.111C68.0115 162.717 67.9025 162.391 67.6847 162.131C67.4714 161.867 67.1748 161.644 66.7946 161.464C66.4145 161.278 65.9718 161.109 65.4666 160.956C64.8964 160.78 64.3865 160.557 63.9368 160.288C63.4918 160.02 63.1395 159.688 62.8799 159.294C62.625 158.895 62.4975 158.411 62.4975 157.841C62.4975 157.285 62.6319 156.814 62.9008 156.429C63.1743 156.045 63.5544 155.753 64.0411 155.553C64.5279 155.354 65.0934 155.254 65.7377 155.254C66.4192 155.254 67.0102 155.361 67.5108 155.574C68.0161 155.783 68.4055 156.103 68.679 156.534C68.9571 156.96 69.0962 157.498 69.0962 158.147C69.0962 158.249 69.0962 158.337 69.0962 158.411C69.0962 158.481 69.0962 158.566 69.0962 158.668H67.9072C67.9072 158.58 67.9072 158.501 67.9072 158.432C67.9072 158.362 67.9072 158.284 67.9072 158.195C67.9072 157.519 67.7241 157.039 67.3579 156.756C66.9916 156.469 66.4586 156.325 65.7586 156.325C65.0865 156.325 64.5673 156.443 64.2011 156.68C63.8349 156.916 63.6518 157.303 63.6518 157.841C63.6518 158.244 63.763 158.578 63.9855 158.842C64.2127 159.102 64.5209 159.324 64.9103 159.51C65.2997 159.69 65.7447 159.864 66.2453 160.031C66.8526 160.23 67.3741 160.458 67.8098 160.713C68.2502 160.963 68.5863 161.276 68.818 161.651C69.0545 162.027 69.1727 162.5 69.1727 163.07C69.1727 163.64 69.0359 164.127 68.7624 164.53C68.4936 164.933 68.1065 165.241 67.6012 165.455C67.1006 165.668 66.5003 165.775 65.8003 165.775ZM74.442 165.768C73.7004 165.768 73.0444 165.603 72.4743 165.274C71.9087 164.94 71.4637 164.486 71.1392 163.911C70.8194 163.332 70.6595 162.673 70.6595 161.936C70.6595 161.199 70.8194 160.546 71.1392 159.976C71.4637 159.405 71.9087 158.958 72.4743 158.634C73.0444 158.309 73.7004 158.147 74.442 158.147C75.1837 158.147 75.8373 158.309 76.4029 158.634C76.973 158.958 77.418 159.405 77.7379 159.976C78.0624 160.546 78.2246 161.199 78.2246 161.936C78.2246 162.673 78.0624 163.332 77.7379 163.911C77.418 164.486 76.973 164.94 76.4029 165.274C75.8373 165.603 75.1837 165.768 74.442 165.768ZM74.442 164.683C74.9519 164.683 75.4016 164.569 75.791 164.342C76.1804 164.115 76.484 163.795 76.7019 163.383C76.9244 162.97 77.0356 162.488 77.0356 161.936C77.0356 161.385 76.9244 160.907 76.7019 160.504C76.484 160.096 76.1804 159.783 75.791 159.565C75.4016 159.343 74.9519 159.232 74.442 159.232C73.9368 159.232 73.4871 159.343 73.0931 159.565C72.7037 159.783 72.3978 160.096 72.1753 160.504C71.9574 160.907 71.8485 161.385 71.8485 161.936C71.8485 162.488 71.9574 162.97 72.1753 163.383C72.3978 163.795 72.7037 164.115 73.0931 164.342C73.4871 164.569 73.9368 164.683 74.442 164.683ZM84.6112 165.635V162.374C84.6112 162.087 84.6112 161.839 84.6112 161.63C84.6112 161.417 84.6112 161.239 84.6112 161.095C84.6112 160.914 84.5973 160.72 84.5695 160.511C84.5463 160.298 84.4884 160.098 84.3956 159.913C84.3029 159.723 84.1569 159.568 83.9576 159.447C83.7629 159.327 83.4917 159.266 83.1441 159.266C82.7918 159.266 82.4951 159.336 82.254 159.475C82.013 159.609 81.8183 159.788 81.67 160.01C81.5216 160.233 81.415 160.478 81.3501 160.747C81.2852 161.012 81.2528 161.273 81.2528 161.533L80.5853 161.262C80.5853 160.706 80.7011 160.191 80.9329 159.718C81.1647 159.245 81.4892 158.865 81.9064 158.578C82.3282 158.286 82.8219 158.14 83.3874 158.14C83.9483 158.14 84.4049 158.253 84.7572 158.481C85.1095 158.708 85.3691 159.021 85.536 159.419C85.7029 159.818 85.7863 160.277 85.7863 160.796C85.7863 160.981 85.7863 161.22 85.7863 161.512C85.7863 161.8 85.7863 162.129 85.7863 162.5V165.635H84.6112ZM80.0707 165.635V158.251H81.2528V165.635H80.0707ZM89.1378 165.635V162.374C89.1378 162.059 89.1378 161.8 89.1378 161.596C89.1378 161.387 89.1378 161.211 89.1378 161.067C89.1378 160.886 89.1262 160.692 89.103 160.483C89.0798 160.275 89.0219 160.08 88.9292 159.899C88.8365 159.714 88.6881 159.563 88.4842 159.447C88.2848 159.327 88.0044 159.266 87.6428 159.266C87.2859 159.266 86.9869 159.334 86.7459 159.468C86.5094 159.602 86.3194 159.779 86.1757 159.996C86.0366 160.214 85.937 160.451 85.8767 160.706C85.8164 160.956 85.7863 161.197 85.7863 161.429L85.1188 161.171C85.1188 160.643 85.23 160.149 85.4525 159.69C85.6797 159.227 85.9995 158.854 86.4121 158.571C86.8293 158.284 87.323 158.14 87.8931 158.14C88.4262 158.14 88.8712 158.244 89.2282 158.453C89.5897 158.661 89.8609 158.956 90.0417 159.336C90.2271 159.711 90.3198 160.159 90.3198 160.678C90.3198 160.873 90.3198 161.114 90.3198 161.401C90.3198 161.688 90.3198 162.013 90.3198 162.374V165.635H89.1378ZM92.7572 162.416V161.359H98.4658L98.2572 161.707C98.2572 161.679 98.2572 161.654 98.2572 161.63C98.2572 161.603 98.2572 161.577 98.2572 161.554C98.2572 161.127 98.1668 160.738 97.986 160.386C97.8099 160.029 97.5457 159.744 97.1934 159.531C96.8411 159.317 96.4053 159.211 95.8861 159.211C95.3623 159.211 94.9011 159.322 94.5024 159.544C94.1038 159.767 93.7932 160.082 93.5707 160.49C93.3482 160.893 93.237 161.375 93.237 161.936C93.237 162.507 93.3436 162.998 93.5568 163.41C93.7747 163.823 94.0829 164.141 94.4816 164.363C94.8802 164.586 95.3531 164.697 95.9001 164.697C96.2894 164.697 96.6278 164.657 96.9152 164.579C97.2026 164.495 97.439 164.386 97.6245 164.252C97.8145 164.113 97.9582 163.962 98.0556 163.8C98.1529 163.638 98.2109 163.475 98.2294 163.313H99.4115C99.3883 163.61 99.2956 163.904 99.1333 164.196C98.9711 164.488 98.7416 164.755 98.445 164.996C98.1483 165.232 97.7844 165.422 97.3533 165.566C96.9222 165.71 96.4262 165.782 95.8653 165.782C95.1236 165.782 94.47 165.619 93.9045 165.295C93.3389 164.97 92.8939 164.521 92.5694 163.946C92.2496 163.371 92.0897 162.71 92.0897 161.964C92.0897 161.209 92.2519 160.546 92.5764 159.976C92.9009 159.401 93.3482 158.951 93.9184 158.627C94.4885 158.302 95.1398 158.14 95.8722 158.14C96.6186 158.14 97.2652 158.302 97.8122 158.627C98.3592 158.951 98.781 159.396 99.0777 159.962C99.3744 160.523 99.5227 161.162 99.5227 161.881C99.5227 161.955 99.5204 162.052 99.5158 162.173C99.5111 162.293 99.5042 162.374 99.4949 162.416H92.7572ZM104.136 165.747C103.909 165.747 103.686 165.721 103.469 165.67C103.251 165.619 103.054 165.529 102.878 165.399C102.706 165.265 102.569 165.077 102.467 164.836C102.365 164.59 102.314 164.275 102.314 163.89C102.314 163.793 102.314 163.693 102.314 163.591C102.314 163.485 102.314 163.373 102.314 163.257V159.294H100.513V158.251H101.668C101.825 158.251 101.948 158.246 102.036 158.237C102.124 158.223 102.187 158.193 102.224 158.147C102.266 158.096 102.291 158.019 102.3 157.917C102.31 157.811 102.314 157.665 102.314 157.479V155.804H103.503V158.251H105.812V159.294H103.503V162.875C103.503 162.977 103.503 163.077 103.503 163.174C103.503 163.271 103.503 163.362 103.503 163.445C103.503 163.839 103.55 164.147 103.642 164.37C103.74 164.593 103.955 164.704 104.289 164.704C104.423 164.704 104.551 164.692 104.671 164.669C104.792 164.646 104.882 164.623 104.943 164.599V165.629C104.864 165.656 104.753 165.682 104.609 165.705C104.47 165.733 104.312 165.747 104.136 165.747ZM112.618 165.635V162.889C112.618 162.759 112.618 162.606 112.618 162.43C112.618 162.249 112.618 162.068 112.618 161.888C112.618 161.702 112.618 161.545 112.618 161.415C112.618 160.706 112.465 160.17 112.16 159.809C111.858 159.447 111.378 159.266 110.72 159.266C110.28 159.266 109.893 159.352 109.559 159.524C109.23 159.695 108.973 159.929 108.787 160.226C108.602 160.523 108.509 160.859 108.509 161.234L107.758 161.005C107.758 160.476 107.895 159.996 108.168 159.565C108.446 159.13 108.824 158.784 109.302 158.529C109.784 158.27 110.328 158.14 110.936 158.14C111.821 158.14 112.519 158.406 113.029 158.939C113.543 159.473 113.8 160.21 113.8 161.151C113.8 161.396 113.8 161.679 113.8 161.999C113.8 162.319 113.8 162.655 113.8 163.007V165.635H112.618ZM107.327 165.635V154.768H108.509V165.635H107.327ZM115.925 165.635V158.251H117.093V165.635H115.925ZM116.516 156.555C116.298 156.555 116.108 156.494 115.946 156.374C115.788 156.249 115.71 156.079 115.71 155.866C115.71 155.658 115.788 155.493 115.946 155.372C116.108 155.247 116.298 155.185 116.516 155.185C116.734 155.185 116.922 155.247 117.079 155.372C117.237 155.493 117.316 155.658 117.316 155.866C117.316 156.079 117.237 156.249 117.079 156.374C116.922 156.494 116.734 156.555 116.516 156.555ZM124.576 165.635V162.096C124.576 161.883 124.576 161.709 124.576 161.575C124.576 161.436 124.576 161.304 124.576 161.178C124.576 160.794 124.511 160.458 124.381 160.17C124.252 159.883 124.048 159.66 123.769 159.503C123.491 159.345 123.127 159.266 122.678 159.266C122.284 159.266 121.918 159.368 121.579 159.572C121.245 159.772 120.977 160.043 120.773 160.386C120.573 160.724 120.474 161.104 120.474 161.526L119.799 161.269C119.799 160.689 119.94 160.163 120.223 159.69C120.511 159.218 120.891 158.842 121.364 158.564C121.841 158.281 122.36 158.14 122.921 158.14C123.491 158.14 123.99 158.249 124.416 158.467C124.843 158.685 125.172 158.997 125.403 159.405C125.64 159.809 125.758 160.295 125.758 160.866C125.758 161.07 125.758 161.292 125.758 161.533C125.758 161.774 125.758 161.999 125.758 162.208V165.635H124.576ZM119.292 165.635V158.251H120.474V165.635H119.292ZM132.534 165.184C132.933 165.216 133.283 165.29 133.584 165.406C133.89 165.517 134.129 165.682 134.301 165.9C134.472 166.122 134.558 166.412 134.558 166.769C134.558 167.163 134.423 167.511 134.155 167.812C133.886 168.118 133.478 168.357 132.931 168.528C132.384 168.7 131.695 168.785 130.866 168.785C129.693 168.785 128.807 168.614 128.21 168.271C127.612 167.932 127.313 167.469 127.313 166.88C127.313 166.695 127.333 166.53 127.375 166.386C127.421 166.247 127.472 166.134 127.528 166.046L128.655 166.213C128.617 166.264 128.58 166.34 128.543 166.442C128.511 166.549 128.495 166.672 128.495 166.811C128.495 167.181 128.706 167.441 129.127 167.589C129.549 167.742 130.147 167.819 130.921 167.819C131.501 167.819 131.976 167.779 132.347 167.701C132.718 167.622 132.993 167.508 133.174 167.36C133.355 167.212 133.445 167.038 133.445 166.838C133.445 166.537 133.318 166.349 133.063 166.275C132.813 166.206 132.502 166.157 132.131 166.129L129.322 165.921C128.854 165.883 128.471 165.74 128.175 165.489C127.883 165.235 127.737 164.926 127.737 164.565C127.737 164.342 127.79 164.131 127.897 163.932C128.008 163.733 128.135 163.566 128.279 163.431C128.427 163.292 128.559 163.209 128.675 163.181L129.607 163.605C129.491 163.624 129.348 163.705 129.176 163.849C129.009 163.988 128.926 164.152 128.926 164.342C128.926 164.514 128.993 164.655 129.127 164.766C129.262 164.873 129.528 164.942 129.927 164.975L132.534 165.184ZM133.557 158.251H134.669L134.21 161.158C134.127 161.7 133.953 162.191 133.689 162.632C133.424 163.067 133.063 163.415 132.604 163.675C132.15 163.93 131.586 164.057 130.914 164.057C130.214 164.057 129.616 163.93 129.12 163.675C128.624 163.42 128.244 163.072 127.98 162.632C127.716 162.187 127.584 161.686 127.584 161.13C127.584 160.564 127.72 160.057 127.994 159.607C128.272 159.153 128.657 158.796 129.148 158.536C129.64 158.272 130.203 158.14 130.838 158.14C131.408 158.14 131.906 158.24 132.333 158.439C132.759 158.634 133.095 158.879 133.341 159.176C133.591 159.473 133.73 159.772 133.758 160.073L133.313 160.101L133.557 158.251ZM130.907 163C131.357 163 131.742 162.926 132.062 162.778C132.386 162.629 132.634 162.414 132.806 162.131C132.982 161.848 133.07 161.505 133.07 161.102C133.07 160.713 132.982 160.377 132.806 160.094C132.634 159.806 132.386 159.586 132.062 159.433C131.742 159.276 131.359 159.197 130.914 159.197C130.488 159.197 130.11 159.278 129.781 159.44C129.456 159.598 129.202 159.82 129.016 160.108C128.835 160.395 128.745 160.733 128.745 161.123C128.745 161.517 128.831 161.855 129.002 162.138C129.178 162.416 129.426 162.629 129.746 162.778C130.071 162.926 130.458 163 130.907 163Z" fill="#4E6964"/>
<rect x="357.233" y="154.682" width="13.9065" height="13.9065" rx="6.95327" fill="#FAF8F6"/>
<path d="M366.794 159.028L361.579 164.243" stroke="#2D483F" stroke-width="1.73832" stroke-linecap="round" stroke-linejoin="round"/>
<path d="M361.579 159.028L366.794 164.243" stroke="#2D483F" stroke-width="1.73832" stroke-linecap="round" stroke-linejoin="round"/>
<rect x="33.9062" y="186.019" width="344.187" height="34.8598" rx="13.9065" fill="#FAF8F6"/>
<g clip-path="url(#clip3_29_1002)">
<path d="M47.812 209.243C51.0121 209.243 53.6064 206.649 53.6064 203.448C53.6064 200.248 51.0121 197.654 47.812 197.654C44.6118 197.654 42.0176 200.248 42.0176 203.448C42.0176 206.649 44.6118 209.243 47.812 209.243Z" stroke="#4E6964" stroke-width="1.73832" stroke-linecap="round" stroke-linejoin="round"/>
</g>
<path d="M65.8003 207.588C65.0911 207.588 64.4838 207.476 63.9786 207.254C63.4779 207.027 63.0932 206.686 62.8243 206.232C62.5555 205.777 62.421 205.212 62.421 204.535C62.421 204.442 62.421 204.364 62.421 204.299C62.421 204.234 62.421 204.155 62.421 204.062H63.61C63.61 204.15 63.61 204.224 63.61 204.285C63.61 204.345 63.61 204.421 63.61 204.514C63.61 205.223 63.7955 205.736 64.1663 206.051C64.5371 206.361 65.0772 206.517 65.7864 206.517C66.5188 206.517 67.0728 206.392 67.4482 206.141C67.8237 205.891 68.0115 205.485 68.0115 204.924C68.0115 204.53 67.9025 204.204 67.6847 203.944C67.4714 203.68 67.1748 203.457 66.7946 203.277C66.4145 203.091 65.9718 202.922 65.4666 202.769C64.8964 202.593 64.3865 202.37 63.9368 202.101C63.4918 201.833 63.1395 201.501 62.8799 201.107C62.625 200.708 62.4975 200.224 62.4975 199.654C62.4975 199.098 62.6319 198.627 62.9008 198.242C63.1743 197.858 63.5544 197.566 64.0411 197.366C64.5279 197.167 65.0934 197.067 65.7377 197.067C66.4192 197.067 67.0102 197.174 67.5108 197.387C68.0161 197.596 68.4055 197.916 68.679 198.347C68.9571 198.773 69.0962 199.311 69.0962 199.96C69.0962 200.062 69.0962 200.15 69.0962 200.224C69.0962 200.294 69.0962 200.379 69.0962 200.481H67.9072C67.9072 200.393 67.9072 200.314 67.9072 200.245C67.9072 200.175 67.9072 200.097 67.9072 200.008C67.9072 199.332 67.7241 198.852 67.3579 198.569C66.9916 198.282 66.4586 198.138 65.7586 198.138C65.0865 198.138 64.5673 198.256 64.2011 198.493C63.8349 198.729 63.6518 199.116 63.6518 199.654C63.6518 200.057 63.763 200.391 63.9855 200.655C64.2127 200.915 64.5209 201.137 64.9103 201.323C65.2997 201.503 65.7447 201.677 66.2453 201.844C66.8526 202.043 67.3741 202.271 67.8098 202.526C68.2502 202.776 68.5863 203.089 68.818 203.464C69.0545 203.84 69.1727 204.313 69.1727 204.883C69.1727 205.453 69.0359 205.94 68.7624 206.343C68.4936 206.746 68.1065 207.054 67.6012 207.268C67.1006 207.481 66.5003 207.588 65.8003 207.588ZM74.442 207.581C73.7004 207.581 73.0444 207.416 72.4743 207.087C71.9087 206.753 71.4637 206.299 71.1392 205.724C70.8194 205.145 70.6595 204.486 70.6595 203.749C70.6595 203.012 70.8194 202.359 71.1392 201.789C71.4637 201.218 71.9087 200.771 72.4743 200.447C73.0444 200.122 73.7004 199.96 74.442 199.96C75.1837 199.96 75.8373 200.122 76.4029 200.447C76.973 200.771 77.418 201.218 77.7379 201.789C78.0624 202.359 78.2246 203.012 78.2246 203.749C78.2246 204.486 78.0624 205.145 77.7379 205.724C77.418 206.299 76.973 206.753 76.4029 207.087C75.8373 207.416 75.1837 207.581 74.442 207.581ZM74.442 206.496C74.9519 206.496 75.4016 206.382 75.791 206.155C76.1804 205.928 76.484 205.608 76.7019 205.196C76.9244 204.783 77.0356 204.301 77.0356 203.749C77.0356 203.198 76.9244 202.72 76.7019 202.317C76.484 201.909 76.1804 201.596 75.791 201.378C75.4016 201.156 74.9519 201.045 74.442 201.045C73.9368 201.045 73.4871 201.156 73.0931 201.378C72.7037 201.596 72.3978 201.909 72.1753 202.317C71.9574 202.72 71.8485 203.198 71.8485 203.749C71.8485 204.301 71.9574 204.783 72.1753 205.196C72.3978 205.608 72.7037 205.928 73.0931 206.155C73.4871 206.382 73.9368 206.496 74.442 206.496ZM84.6112 207.448V204.187C84.6112 203.9 84.6112 203.652 84.6112 203.443C84.6112 203.23 84.6112 203.052 84.6112 202.908C84.6112 202.727 84.5973 202.533 84.5695 202.324C84.5463 202.111 84.4884 201.911 84.3956 201.726C84.3029 201.536 84.1569 201.381 83.9576 201.26C83.7629 201.14 83.4917 201.079 83.1441 201.079C82.7918 201.079 82.4951 201.149 82.254 201.288C82.013 201.422 81.8183 201.601 81.67 201.823C81.5216 202.046 81.415 202.291 81.3501 202.56C81.2852 202.825 81.2528 203.086 81.2528 203.346L80.5853 203.075C80.5853 202.519 80.7011 202.004 80.9329 201.531C81.1647 201.058 81.4892 200.678 81.9064 200.391C82.3282 200.099 82.8219 199.953 83.3874 199.953C83.9483 199.953 84.4049 200.066 84.7572 200.294C85.1095 200.521 85.3691 200.834 85.536 201.232C85.7029 201.631 85.7863 202.09 85.7863 202.609C85.7863 202.794 85.7863 203.033 85.7863 203.325C85.7863 203.613 85.7863 203.942 85.7863 204.313V207.448H84.6112ZM80.0707 207.448V200.064H81.2528V207.448H80.0707ZM89.1378 207.448V204.187C89.1378 203.872 89.1378 203.613 89.1378 203.409C89.1378 203.2 89.1378 203.024 89.1378 202.88C89.1378 202.699 89.1262 202.505 89.103 202.296C89.0798 202.088 89.0219 201.893 88.9292 201.712C88.8365 201.527 88.6881 201.376 88.4842 201.26C88.2848 201.14 88.0044 201.079 87.6428 201.079C87.2859 201.079 86.9869 201.147 86.7459 201.281C86.5094 201.415 86.3194 201.592 86.1757 201.809C86.0366 202.027 85.937 202.264 85.8767 202.519C85.8164 202.769 85.7863 203.01 85.7863 203.242L85.1188 202.984C85.1188 202.456 85.23 201.962 85.4525 201.503C85.6797 201.04 85.9995 200.667 86.4121 200.384C86.8293 200.097 87.323 199.953 87.8931 199.953C88.4262 199.953 88.8712 200.057 89.2282 200.266C89.5897 200.474 89.8609 200.769 90.0417 201.149C90.2271 201.524 90.3198 201.972 90.3198 202.491C90.3198 202.685 90.3198 202.927 90.3198 203.214C90.3198 203.501 90.3198 203.826 90.3198 204.187V207.448H89.1378ZM92.7572 204.229V203.172H98.4658L98.2572 203.52C98.2572 203.492 98.2572 203.467 98.2572 203.443C98.2572 203.416 98.2572 203.39 98.2572 203.367C98.2572 202.94 98.1668 202.551 97.986 202.199C97.8099 201.842 97.5457 201.557 97.1934 201.344C96.8411 201.13 96.4053 201.024 95.8861 201.024C95.3623 201.024 94.9011 201.135 94.5024 201.357C94.1038 201.58 93.7932 201.895 93.5707 202.303C93.3482 202.706 93.237 203.188 93.237 203.749C93.237 204.32 93.3436 204.811 93.5568 205.223C93.7747 205.636 94.0829 205.954 94.4816 206.176C94.8802 206.399 95.3531 206.51 95.9001 206.51C96.2894 206.51 96.6278 206.47 96.9152 206.392C97.2026 206.308 97.439 206.199 97.6245 206.065C97.8145 205.926 97.9582 205.775 98.0556 205.613C98.1529 205.451 98.2109 205.288 98.2294 205.126H99.4115C99.3883 205.423 99.2956 205.717 99.1333 206.009C98.9711 206.301 98.7416 206.568 98.445 206.809C98.1483 207.045 97.7844 207.235 97.3533 207.379C96.9222 207.523 96.4262 207.595 95.8653 207.595C95.1236 207.595 94.47 207.432 93.9045 207.108C93.3389 206.783 92.8939 206.334 92.5694 205.759C92.2496 205.184 92.0897 204.523 92.0897 203.777C92.0897 203.022 92.2519 202.359 92.5764 201.789C92.9009 201.214 93.3482 200.764 93.9184 200.44C94.4885 200.115 95.1398 199.953 95.8722 199.953C96.6186 199.953 97.2652 200.115 97.8122 200.44C98.3592 200.764 98.781 201.209 99.0777 201.775C99.3744 202.336 99.5227 202.975 99.5227 203.694C99.5227 203.768 99.5204 203.865 99.5158 203.986C99.5111 204.106 99.5042 204.187 99.4949 204.229H92.7572ZM104.136 207.56C103.909 207.56 103.686 207.534 103.469 207.483C103.251 207.432 103.054 207.342 102.878 207.212C102.706 207.078 102.569 206.89 102.467 206.649C102.365 206.403 102.314 206.088 102.314 205.703C102.314 205.606 102.314 205.506 102.314 205.404C102.314 205.298 102.314 205.186 102.314 205.07V201.107H100.513V200.064H101.668C101.825 200.064 101.948 200.059 102.036 200.05C102.124 200.036 102.187 200.006 102.224 199.96C102.266 199.909 102.291 199.832 102.3 199.73C102.31 199.624 102.314 199.478 102.314 199.292V197.617H103.503V200.064H105.812V201.107H103.503V204.688C103.503 204.79 103.503 204.89 103.503 204.987C103.503 205.084 103.503 205.175 103.503 205.258C103.503 205.652 103.55 205.96 103.642 206.183C103.74 206.405 103.955 206.517 104.289 206.517C104.423 206.517 104.551 206.505 104.671 206.482C104.792 206.459 104.882 206.436 104.943 206.412V207.442C104.864 207.469 104.753 207.495 104.609 207.518C104.47 207.546 104.312 207.56 104.136 207.56ZM112.618 207.448V204.702C112.618 204.572 112.618 204.419 112.618 204.243C112.618 204.062 112.618 203.881 112.618 203.701C112.618 203.515 112.618 203.358 112.618 203.228C112.618 202.519 112.465 201.983 112.16 201.622C111.858 201.26 111.378 201.079 110.72 201.079C110.28 201.079 109.893 201.165 109.559 201.337C109.23 201.508 108.973 201.742 108.787 202.039C108.602 202.336 108.509 202.672 108.509 203.047L107.758 202.818C107.758 202.289 107.895 201.809 108.168 201.378C108.446 200.943 108.824 200.597 109.302 200.342C109.784 200.083 110.328 199.953 110.936 199.953C111.821 199.953 112.519 200.219 113.029 200.752C113.543 201.286 113.8 202.023 113.8 202.964C113.8 203.209 113.8 203.492 113.8 203.812C113.8 204.132 113.8 204.468 113.8 204.82V207.448H112.618ZM107.327 207.448V196.581H108.509V207.448H107.327ZM115.925 207.448V200.064H117.093V207.448H115.925ZM116.516 198.368C116.298 198.368 116.108 198.307 115.946 198.187C115.788 198.062 115.71 197.892 115.71 197.679C115.71 197.471 115.788 197.306 115.946 197.185C116.108 197.06 116.298 196.998 116.516 196.998C116.734 196.998 116.922 197.06 117.079 197.185C117.237 197.306 117.316 197.471 117.316 197.679C117.316 197.892 117.237 198.062 117.079 198.187C116.922 198.307 116.734 198.368 116.516 198.368ZM124.576 207.448V203.909C124.576 203.696 124.576 203.522 124.576 203.388C124.576 203.249 124.576 203.117 124.576 202.991C124.576 202.607 124.511 202.271 124.381 201.983C124.252 201.696 124.048 201.473 123.769 201.316C123.491 201.158 123.127 201.079 122.678 201.079C122.284 201.079 121.918 201.181 121.579 201.385C121.245 201.585 120.977 201.856 120.773 202.199C120.573 202.537 120.474 202.917 120.474 203.339L119.799 203.082C119.799 202.502 119.94 201.976 120.223 201.503C120.511 201.031 120.891 200.655 121.364 200.377C121.841 200.094 122.36 199.953 122.921 199.953C123.491 199.953 123.99 200.062 124.416 200.28C124.843 200.498 125.172 200.81 125.403 201.218C125.64 201.622 125.758 202.108 125.758 202.679C125.758 202.883 125.758 203.105 125.758 203.346C125.758 203.587 125.758 203.812 125.758 204.021V207.448H124.576ZM119.292 207.448V200.064H120.474V207.448H119.292ZM132.534 206.997C132.933 207.029 133.283 207.103 133.584 207.219C133.89 207.33 134.129 207.495 134.301 207.713C134.472 207.935 134.558 208.225 134.558 208.582C134.558 208.976 134.423 209.324 134.155 209.625C133.886 209.931 133.478 210.17 132.931 210.341C132.384 210.513 131.695 210.598 130.866 210.598C129.693 210.598 128.807 210.427 128.21 210.084C127.612 209.745 127.313 209.282 127.313 208.693C127.313 208.508 127.333 208.343 127.375 208.199C127.421 208.06 127.472 207.947 127.528 207.859L128.655 208.026C128.617 208.077 128.58 208.153 128.543 208.255C128.511 208.362 128.495 208.485 128.495 208.624C128.495 208.994 128.706 209.254 129.127 209.402C129.549 209.555 130.147 209.632 130.921 209.632C131.501 209.632 131.976 209.592 132.347 209.514C132.718 209.435 132.993 209.321 133.174 209.173C133.355 209.025 133.445 208.851 133.445 208.651C133.445 208.35 133.318 208.162 133.063 208.088C132.813 208.019 132.502 207.97 132.131 207.942L129.322 207.734C128.854 207.696 128.471 207.553 128.175 207.302C127.883 207.048 127.737 206.739 127.737 206.378C127.737 206.155 127.79 205.944 127.897 205.745C128.008 205.546 128.135 205.379 128.279 205.244C128.427 205.105 128.559 205.022 128.675 204.994L129.607 205.418C129.491 205.437 129.348 205.518 129.176 205.661C129.009 205.801 128.926 205.965 128.926 206.155C128.926 206.327 128.993 206.468 129.127 206.579C129.262 206.686 129.528 206.755 129.927 206.788L132.534 206.997ZM133.557 200.064H134.669L134.21 202.971C134.127 203.513 133.953 204.004 133.689 204.445C133.424 204.88 133.063 205.228 132.604 205.488C132.15 205.743 131.586 205.87 130.914 205.87C130.214 205.87 129.616 205.743 129.12 205.488C128.624 205.233 128.244 204.885 127.98 204.445C127.716 204 127.584 203.499 127.584 202.943C127.584 202.377 127.72 201.87 127.994 201.42C128.272 200.966 128.657 200.609 129.148 200.349C129.64 200.085 130.203 199.953 130.838 199.953C131.408 199.953 131.906 200.053 132.333 200.252C132.759 200.447 133.095 200.692 133.341 200.989C133.591 201.286 133.73 201.585 133.758 201.886L133.313 201.914L133.557 200.064ZM130.907 204.813C131.357 204.813 131.742 204.739 132.062 204.591C132.386 204.442 132.634 204.227 132.806 203.944C132.982 203.661 133.07 203.318 133.07 202.915C133.07 202.526 132.982 202.189 132.806 201.907C132.634 201.619 132.386 201.399 132.062 201.246C131.742 201.089 131.359 201.01 130.914 201.01C130.488 201.01 130.11 201.091 129.781 201.253C129.456 201.411 129.202 201.633 129.016 201.921C128.835 202.208 128.745 202.546 128.745 202.936C128.745 203.33 128.831 203.668 129.002 203.951C129.178 204.229 129.426 204.442 129.746 204.591C130.071 204.739 130.458 204.813 130.907 204.813Z" fill="#4E6964"/>
<rect x="33.9062" y="227.832" width="344.187" height="34.8598" rx="13.9065" fill="#FAF8F6"/>
<g clip-path="url(#clip4_29_1002)">
<path d="M47.812 251.056C51.0121 251.056 53.6064 248.462 53.6064 245.262C53.6064 242.062 51.0121 239.467 47.812 239.467C44.6118 239.467 42.0176 242.062 42.0176 245.262C42.0176 248.462 44.6118 251.056 47.812 251.056Z" stroke="#4E6964" stroke-width="1.73832" stroke-linecap="round" stroke-linejoin="round"/>
</g>
<path d="M65.8003 249.401C65.0911 249.401 64.4838 249.29 63.9786 249.067C63.4779 248.84 63.0932 248.499 62.8243 248.045C62.5555 247.591 62.421 247.025 62.421 246.348C62.421 246.256 62.421 246.177 62.421 246.112C62.421 246.047 62.421 245.968 62.421 245.875H63.61C63.61 245.964 63.61 246.038 63.61 246.098C63.61 246.158 63.61 246.235 63.61 246.327C63.61 247.037 63.7955 247.549 64.1663 247.864C64.5371 248.175 65.0772 248.33 65.7864 248.33C66.5188 248.33 67.0728 248.205 67.4482 247.955C67.8237 247.704 68.0115 247.299 68.0115 246.738C68.0115 246.344 67.9025 246.017 67.6847 245.757C67.4714 245.493 67.1748 245.271 66.7946 245.09C66.4145 244.904 65.9718 244.735 65.4666 244.582C64.8964 244.406 64.3865 244.184 63.9368 243.915C63.4918 243.646 63.1395 243.314 62.8799 242.92C62.625 242.522 62.4975 242.037 62.4975 241.467C62.4975 240.911 62.6319 240.44 62.9008 240.056C63.1743 239.671 63.5544 239.379 64.0411 239.179C64.5279 238.98 65.0934 238.88 65.7377 238.88C66.4192 238.88 67.0102 238.987 67.5108 239.2C68.0161 239.409 68.4055 239.729 68.679 240.16C68.9571 240.586 69.0962 241.124 69.0962 241.773C69.0962 241.875 69.0962 241.963 69.0962 242.037C69.0962 242.107 69.0962 242.193 69.0962 242.295H67.9072C67.9072 242.206 67.9072 242.128 67.9072 242.058C67.9072 241.989 67.9072 241.91 67.9072 241.822C67.9072 241.145 67.7241 240.665 67.3579 240.382C66.9916 240.095 66.4586 239.951 65.7586 239.951C65.0865 239.951 64.5673 240.069 64.2011 240.306C63.8349 240.542 63.6518 240.929 63.6518 241.467C63.6518 241.87 63.763 242.204 63.9855 242.468C64.2127 242.728 64.5209 242.95 64.9103 243.136C65.2997 243.317 65.7447 243.491 66.2453 243.657C66.8526 243.857 67.3741 244.084 67.8098 244.339C68.2502 244.589 68.5863 244.902 68.818 245.277C69.0545 245.653 69.1727 246.126 69.1727 246.696C69.1727 247.266 69.0359 247.753 68.7624 248.156C68.4936 248.559 68.1065 248.868 67.6012 249.081C67.1006 249.294 66.5003 249.401 65.8003 249.401ZM74.442 249.394C73.7004 249.394 73.0444 249.229 72.4743 248.9C71.9087 248.566 71.4637 248.112 71.1392 247.537C70.8194 246.958 70.6595 246.3 70.6595 245.563C70.6595 244.826 70.8194 244.172 71.1392 243.602C71.4637 243.032 71.9087 242.584 72.4743 242.26C73.0444 241.935 73.7004 241.773 74.442 241.773C75.1837 241.773 75.8373 241.935 76.4029 242.26C76.973 242.584 77.418 243.032 77.7379 243.602C78.0624 244.172 78.2246 244.826 78.2246 245.563C78.2246 246.3 78.0624 246.958 77.7379 247.537C77.418 248.112 76.973 248.566 76.4029 248.9C75.8373 249.229 75.1837 249.394 74.442 249.394ZM74.442 248.309C74.9519 248.309 75.4016 248.196 75.791 247.968C76.1804 247.741 76.484 247.421 76.7019 247.009C76.9244 246.596 77.0356 246.114 77.0356 245.563C77.0356 245.011 76.9244 244.533 76.7019 244.13C76.484 243.722 76.1804 243.409 75.791 243.192C75.4016 242.969 74.9519 242.858 74.442 242.858C73.9368 242.858 73.4871 242.969 73.0931 243.192C72.7037 243.409 72.3978 243.722 72.1753 244.13C71.9574 244.533 71.8485 245.011 71.8485 245.563C71.8485 246.114 71.9574 246.596 72.1753 247.009C72.3978 247.421 72.7037 247.741 73.0931 247.968C73.4871 248.196 73.9368 248.309 74.442 248.309ZM84.6112 249.262V246.001C84.6112 245.713 84.6112 245.465 84.6112 245.257C84.6112 245.043 84.6112 244.865 84.6112 244.721C84.6112 244.54 84.5973 244.346 84.5695 244.137C84.5463 243.924 84.4884 243.725 84.3956 243.539C84.3029 243.349 84.1569 243.194 83.9576 243.073C83.7629 242.953 83.4917 242.893 83.1441 242.893C82.7918 242.893 82.4951 242.962 82.254 243.101C82.013 243.236 81.8183 243.414 81.67 243.637C81.5216 243.859 81.415 244.105 81.3501 244.374C81.2852 244.638 81.2528 244.9 81.2528 245.159L80.5853 244.888C80.5853 244.332 80.7011 243.817 80.9329 243.344C81.1647 242.872 81.4892 242.492 81.9064 242.204C82.3282 241.912 82.8219 241.766 83.3874 241.766C83.9483 241.766 84.4049 241.88 84.7572 242.107C85.1095 242.334 85.3691 242.647 85.536 243.045C85.7029 243.444 85.7863 243.903 85.7863 244.422C85.7863 244.608 85.7863 244.846 85.7863 245.138C85.7863 245.426 85.7863 245.755 85.7863 246.126V249.262H84.6112ZM80.0707 249.262V241.877H81.2528V249.262H80.0707ZM89.1378 249.262V246.001C89.1378 245.685 89.1378 245.426 89.1378 245.222C89.1378 245.013 89.1378 244.837 89.1378 244.693C89.1378 244.513 89.1262 244.318 89.103 244.109C89.0798 243.901 89.0219 243.706 88.9292 243.525C88.8365 243.34 88.6881 243.189 88.4842 243.073C88.2848 242.953 88.0044 242.893 87.6428 242.893C87.2859 242.893 86.9869 242.96 86.7459 243.094C86.5094 243.229 86.3194 243.405 86.1757 243.623C86.0366 243.84 85.937 244.077 85.8767 244.332C85.8164 244.582 85.7863 244.823 85.7863 245.055L85.1188 244.798C85.1188 244.269 85.23 243.776 85.4525 243.317C85.6797 242.853 85.9995 242.48 86.4121 242.197C86.8293 241.91 87.323 241.766 87.8931 241.766C88.4262 241.766 88.8712 241.87 89.2282 242.079C89.5897 242.288 89.8609 242.582 90.0417 242.962C90.2271 243.338 90.3198 243.785 90.3198 244.304C90.3198 244.499 90.3198 244.74 90.3198 245.027C90.3198 245.315 90.3198 245.639 90.3198 246.001V249.262H89.1378ZM92.7572 246.042V244.985H98.4658L98.2572 245.333C98.2572 245.305 98.2572 245.28 98.2572 245.257C98.2572 245.229 98.2572 245.203 98.2572 245.18C98.2572 244.754 98.1668 244.364 97.986 244.012C97.8099 243.655 97.5457 243.37 97.1934 243.157C96.8411 242.944 96.4053 242.837 95.8861 242.837C95.3623 242.837 94.9011 242.948 94.5024 243.171C94.1038 243.393 93.7932 243.708 93.5707 244.116C93.3482 244.52 93.237 245.002 93.237 245.563C93.237 246.133 93.3436 246.624 93.5568 247.037C93.7747 247.449 94.0829 247.767 94.4816 247.989C94.8802 248.212 95.3531 248.323 95.9001 248.323C96.2894 248.323 96.6278 248.284 96.9152 248.205C97.2026 248.121 97.439 248.012 97.6245 247.878C97.8145 247.739 97.9582 247.588 98.0556 247.426C98.1529 247.264 98.2109 247.102 98.2294 246.939H99.4115C99.3883 247.236 99.2956 247.53 99.1333 247.822C98.9711 248.114 98.7416 248.381 98.445 248.622C98.1483 248.858 97.7844 249.048 97.3533 249.192C96.9222 249.336 96.4262 249.408 95.8653 249.408C95.1236 249.408 94.47 249.245 93.9045 248.921C93.3389 248.597 92.8939 248.147 92.5694 247.572C92.2496 246.997 92.0897 246.337 92.0897 245.59C92.0897 244.835 92.2519 244.172 92.5764 243.602C92.9009 243.027 93.3482 242.577 93.9184 242.253C94.4885 241.928 95.1398 241.766 95.8722 241.766C96.6186 241.766 97.2652 241.928 97.8122 242.253C98.3592 242.577 98.781 243.022 99.0777 243.588C99.3744 244.149 99.5227 244.788 99.5227 245.507C99.5227 245.581 99.5204 245.678 99.5158 245.799C99.5111 245.92 99.5042 246.001 99.4949 246.042H92.7572ZM104.136 249.373C103.909 249.373 103.686 249.347 103.469 249.296C103.251 249.245 103.054 249.155 102.878 249.025C102.706 248.891 102.569 248.703 102.467 248.462C102.365 248.216 102.314 247.901 102.314 247.516C102.314 247.419 102.314 247.319 102.314 247.217C102.314 247.111 102.314 247 102.314 246.884V242.92H100.513V241.877H101.668C101.825 241.877 101.948 241.873 102.036 241.863C102.124 241.85 102.187 241.819 102.224 241.773C102.266 241.722 102.291 241.646 102.3 241.544C102.31 241.437 102.314 241.291 102.314 241.106V239.43H103.503V241.877H105.812V242.92H103.503V246.501C103.503 246.603 103.503 246.703 103.503 246.8C103.503 246.898 103.503 246.988 103.503 247.071C103.503 247.465 103.55 247.774 103.642 247.996C103.74 248.219 103.955 248.33 104.289 248.33C104.423 248.33 104.551 248.318 104.671 248.295C104.792 248.272 104.882 248.249 104.943 248.226V249.255C104.864 249.283 104.753 249.308 104.609 249.331C104.47 249.359 104.312 249.373 104.136 249.373ZM112.618 249.262V246.515C112.618 246.385 112.618 246.232 112.618 246.056C112.618 245.875 112.618 245.695 112.618 245.514C112.618 245.328 112.618 245.171 112.618 245.041C112.618 244.332 112.465 243.796 112.16 243.435C111.858 243.073 111.378 242.893 110.72 242.893C110.28 242.893 109.893 242.978 109.559 243.15C109.23 243.321 108.973 243.555 108.787 243.852C108.602 244.149 108.509 244.485 108.509 244.86L107.758 244.631C107.758 244.102 107.895 243.623 108.168 243.192C108.446 242.756 108.824 242.41 109.302 242.155C109.784 241.896 110.328 241.766 110.936 241.766C111.821 241.766 112.519 242.033 113.029 242.566C113.543 243.099 113.8 243.836 113.8 244.777C113.8 245.023 113.8 245.305 113.8 245.625C113.8 245.945 113.8 246.281 113.8 246.633V249.262H112.618ZM107.327 249.262V238.394H108.509V249.262H107.327ZM115.925 249.262V241.877H117.093V249.262H115.925ZM116.516 240.181C116.298 240.181 116.108 240.12 115.946 240C115.788 239.875 115.71 239.706 115.71 239.492C115.71 239.284 115.788 239.119 115.946 238.999C116.108 238.874 116.298 238.811 116.516 238.811C116.734 238.811 116.922 238.874 117.079 238.999C117.237 239.119 117.316 239.284 117.316 239.492C117.316 239.706 117.237 239.875 117.079 240C116.922 240.12 116.734 240.181 116.516 240.181ZM124.576 249.262V245.723C124.576 245.509 124.576 245.335 124.576 245.201C124.576 245.062 124.576 244.93 124.576 244.805C124.576 244.42 124.511 244.084 124.381 243.796C124.252 243.509 124.048 243.287 123.769 243.129C123.491 242.971 123.127 242.893 122.678 242.893C122.284 242.893 121.918 242.995 121.579 243.198C121.245 243.398 120.977 243.669 120.773 244.012C120.573 244.35 120.474 244.731 120.474 245.152L119.799 244.895C119.799 244.316 119.94 243.789 120.223 243.317C120.511 242.844 120.891 242.468 121.364 242.19C121.841 241.907 122.36 241.766 122.921 241.766C123.491 241.766 123.99 241.875 124.416 242.093C124.843 242.311 125.172 242.624 125.403 243.032C125.64 243.435 125.758 243.922 125.758 244.492C125.758 244.696 125.758 244.918 125.758 245.159C125.758 245.4 125.758 245.625 125.758 245.834V249.262H124.576ZM119.292 249.262V241.877H120.474V249.262H119.292ZM132.534 248.81C132.933 248.842 133.283 248.916 133.584 249.032C133.89 249.144 134.129 249.308 134.301 249.526C134.472 249.748 134.558 250.038 134.558 250.395C134.558 250.789 134.423 251.137 134.155 251.438C133.886 251.744 133.478 251.983 132.931 252.154C132.384 252.326 131.695 252.412 130.866 252.412C129.693 252.412 128.807 252.24 128.21 251.897C127.612 251.559 127.313 251.095 127.313 250.506C127.313 250.321 127.333 250.156 127.375 250.013C127.421 249.874 127.472 249.76 127.528 249.672L128.655 249.839C128.617 249.89 128.58 249.966 128.543 250.068C128.511 250.175 128.495 250.298 128.495 250.437C128.495 250.808 128.706 251.067 129.127 251.216C129.549 251.369 130.147 251.445 130.921 251.445C131.501 251.445 131.976 251.406 132.347 251.327C132.718 251.248 132.993 251.134 133.174 250.986C133.355 250.838 133.445 250.664 133.445 250.465C133.445 250.163 133.318 249.976 133.063 249.901C132.813 249.832 132.502 249.783 132.131 249.755L129.322 249.547C128.854 249.51 128.471 249.366 128.175 249.116C127.883 248.861 127.737 248.552 127.737 248.191C127.737 247.968 127.79 247.757 127.897 247.558C128.008 247.359 128.135 247.192 128.279 247.058C128.427 246.918 128.559 246.835 128.675 246.807L129.607 247.231C129.491 247.25 129.348 247.331 129.176 247.475C129.009 247.614 128.926 247.778 128.926 247.968C128.926 248.14 128.993 248.281 129.127 248.393C129.262 248.499 129.528 248.569 129.927 248.601L132.534 248.81ZM133.557 241.877H134.669L134.21 244.784C134.127 245.326 133.953 245.818 133.689 246.258C133.424 246.694 133.063 247.041 132.604 247.301C132.15 247.556 131.586 247.683 130.914 247.683C130.214 247.683 129.616 247.556 129.12 247.301C128.624 247.046 128.244 246.698 127.98 246.258C127.716 245.813 127.584 245.312 127.584 244.756C127.584 244.19 127.72 243.683 127.994 243.233C128.272 242.779 128.657 242.422 129.148 242.162C129.64 241.898 130.203 241.766 130.838 241.766C131.408 241.766 131.906 241.866 132.333 242.065C132.759 242.26 133.095 242.505 133.341 242.802C133.591 243.099 133.73 243.398 133.758 243.699L133.313 243.727L133.557 241.877ZM130.907 246.626C131.357 246.626 131.742 246.552 132.062 246.404C132.386 246.256 132.634 246.04 132.806 245.757C132.982 245.475 133.07 245.131 133.07 244.728C133.07 244.339 132.982 244.003 132.806 243.72C132.634 243.433 132.386 243.212 132.062 243.059C131.742 242.902 131.359 242.823 130.914 242.823C130.488 242.823 130.11 242.904 129.781 243.066C129.456 243.224 129.202 243.446 129.016 243.734C128.835 244.021 128.745 244.36 128.745 244.749C128.745 245.143 128.831 245.481 129.002 245.764C129.178 246.042 129.426 246.256 129.746 246.404C130.071 246.552 130.458 246.626 130.907 246.626Z" fill="#4E6964"/>
<rect x="33.9062" y="269.645" width="344.187" height="34.8598" rx="13.9065" fill="#FAF8F6"/>
<g clip-path="url(#clip5_29_1002)">
<path d="M47.812 292.869C51.0121 292.869 53.6064 290.275 53.6064 287.075C53.6064 283.875 51.0121 281.28 47.812 281.28C44.6118 281.28 42.0176 283.875 42.0176 287.075C42.0176 290.275 44.6118 292.869 47.812 292.869Z" stroke="#4E6964" stroke-width="1.73832" stroke-linecap="round" stroke-linejoin="round"/>
</g>
<path d="M65.8003 291.214C65.0911 291.214 64.4838 291.103 63.9786 290.88C63.4779 290.653 63.0932 290.312 62.8243 289.858C62.5555 289.404 62.421 288.838 62.421 288.161C62.421 288.069 62.421 287.99 62.421 287.925C62.421 287.86 62.421 287.781 62.421 287.688H63.61C63.61 287.777 63.61 287.851 63.61 287.911C63.61 287.971 63.61 288.048 63.61 288.14C63.61 288.85 63.7955 289.362 64.1663 289.677C64.5371 289.988 65.0772 290.143 65.7864 290.143C66.5188 290.143 67.0728 290.018 67.4482 289.767C67.8237 289.517 68.0115 289.112 68.0115 288.551C68.0115 288.157 67.9025 287.83 67.6847 287.57C67.4714 287.306 67.1748 287.084 66.7946 286.903C66.4145 286.717 65.9718 286.548 65.4666 286.395C64.8964 286.219 64.3865 285.997 63.9368 285.728C63.4918 285.459 63.1395 285.127 62.8799 284.733C62.625 284.335 62.4975 283.85 62.4975 283.28C62.4975 282.724 62.6319 282.253 62.9008 281.869C63.1743 281.484 63.5544 281.192 64.0411 280.992C64.5279 280.793 65.0934 280.693 65.7377 280.693C66.4192 280.693 67.0102 280.8 67.5108 281.013C68.0161 281.222 68.4055 281.542 68.679 281.973C68.9571 282.399 69.0962 282.937 69.0962 283.586C69.0962 283.688 69.0962 283.776 69.0962 283.85C69.0962 283.92 69.0962 284.006 69.0962 284.108H67.9072C67.9072 284.019 67.9072 283.941 67.9072 283.871C67.9072 283.802 67.9072 283.723 67.9072 283.635C67.9072 282.958 67.7241 282.478 67.3579 282.195C66.9916 281.908 66.4586 281.764 65.7586 281.764C65.0865 281.764 64.5673 281.882 64.2011 282.119C63.8349 282.355 63.6518 282.742 63.6518 283.28C63.6518 283.683 63.763 284.017 63.9855 284.281C64.2127 284.541 64.5209 284.763 64.9103 284.949C65.2997 285.13 65.7447 285.303 66.2453 285.47C66.8526 285.67 67.3741 285.897 67.8098 286.152C68.2502 286.402 68.5863 286.715 68.818 287.09C69.0545 287.466 69.1727 287.939 69.1727 288.509C69.1727 289.079 69.0359 289.566 68.7624 289.969C68.4936 290.372 68.1065 290.681 67.6012 290.894C67.1006 291.107 66.5003 291.214 65.8003 291.214ZM74.442 291.207C73.7004 291.207 73.0444 291.042 72.4743 290.713C71.9087 290.379 71.4637 289.925 71.1392 289.35C70.8194 288.771 70.6595 288.113 70.6595 287.376C70.6595 286.639 70.8194 285.985 71.1392 285.415C71.4637 284.845 71.9087 284.397 72.4743 284.073C73.0444 283.748 73.7004 283.586 74.442 283.586C75.1837 283.586 75.8373 283.748 76.4029 284.073C76.973 284.397 77.418 284.845 77.7379 285.415C78.0624 285.985 78.2246 286.639 78.2246 287.376C78.2246 288.113 78.0624 288.771 77.7379 289.35C77.418 289.925 76.973 290.379 76.4029 290.713C75.8373 291.042 75.1837 291.207 74.442 291.207ZM74.442 290.122C74.9519 290.122 75.4016 290.009 75.791 289.781C76.1804 289.554 76.484 289.234 76.7019 288.822C76.9244 288.409 77.0356 287.927 77.0356 287.376C77.0356 286.824 76.9244 286.346 76.7019 285.943C76.484 285.535 76.1804 285.222 75.791 285.005C75.4016 284.782 74.9519 284.671 74.442 284.671C73.9368 284.671 73.4871 284.782 73.0931 285.005C72.7037 285.222 72.3978 285.535 72.1753 285.943C71.9574 286.346 71.8485 286.824 71.8485 287.376C71.8485 287.927 71.9574 288.409 72.1753 288.822C72.3978 289.234 72.7037 289.554 73.0931 289.781C73.4871 290.009 73.9368 290.122 74.442 290.122ZM84.6112 291.075V287.814C84.6112 287.526 84.6112 287.278 84.6112 287.07C84.6112 286.856 84.6112 286.678 84.6112 286.534C84.6112 286.353 84.5973 286.159 84.5695 285.95C84.5463 285.737 84.4884 285.538 84.3956 285.352C84.3029 285.162 84.1569 285.007 83.9576 284.886C83.7629 284.766 83.4917 284.706 83.1441 284.706C82.7918 284.706 82.4951 284.775 82.254 284.914C82.013 285.049 81.8183 285.227 81.67 285.45C81.5216 285.672 81.415 285.918 81.3501 286.187C81.2852 286.451 81.2528 286.713 81.2528 286.972L80.5853 286.701C80.5853 286.145 80.7011 285.63 80.9329 285.157C81.1647 284.685 81.4892 284.305 81.9064 284.017C82.3282 283.725 82.8219 283.579 83.3874 283.579C83.9483 283.579 84.4049 283.693 84.7572 283.92C85.1095 284.147 85.3691 284.46 85.536 284.858C85.7029 285.257 85.7863 285.716 85.7863 286.235C85.7863 286.421 85.7863 286.659 85.7863 286.951C85.7863 287.239 85.7863 287.568 85.7863 287.939V291.075H84.6112ZM80.0707 291.075V283.69H81.2528V291.075H80.0707ZM89.1378 291.075V287.814C89.1378 287.498 89.1378 287.239 89.1378 287.035C89.1378 286.826 89.1378 286.65 89.1378 286.506C89.1378 286.326 89.1262 286.131 89.103 285.922C89.0798 285.714 89.0219 285.519 88.9292 285.338C88.8365 285.153 88.6881 285.002 88.4842 284.886C88.2848 284.766 88.0044 284.706 87.6428 284.706C87.2859 284.706 86.9869 284.773 86.7459 284.907C86.5094 285.042 86.3194 285.218 86.1757 285.436C86.0366 285.653 85.937 285.89 85.8767 286.145C85.8164 286.395 85.7863 286.636 85.7863 286.868L85.1188 286.611C85.1188 286.082 85.23 285.589 85.4525 285.13C85.6797 284.666 85.9995 284.293 86.4121 284.01C86.8293 283.723 87.323 283.579 87.8931 283.579C88.4262 283.579 88.8712 283.683 89.2282 283.892C89.5897 284.101 89.8609 284.395 90.0417 284.775C90.2271 285.151 90.3198 285.598 90.3198 286.117C90.3198 286.312 90.3198 286.553 90.3198 286.84C90.3198 287.128 90.3198 287.452 90.3198 287.814V291.075H89.1378ZM92.7572 287.855V286.798H98.4658L98.2572 287.146C98.2572 287.118 98.2572 287.093 98.2572 287.07C98.2572 287.042 98.2572 287.016 98.2572 286.993C98.2572 286.567 98.1668 286.177 97.986 285.825C97.8099 285.468 97.5457 285.183 97.1934 284.97C96.8411 284.757 96.4053 284.65 95.8861 284.65C95.3623 284.65 94.9011 284.761 94.5024 284.984C94.1038 285.206 93.7932 285.521 93.5707 285.929C93.3482 286.333 93.237 286.815 93.237 287.376C93.237 287.946 93.3436 288.437 93.5568 288.85C93.7747 289.262 94.0829 289.58 94.4816 289.802C94.8802 290.025 95.3531 290.136 95.9001 290.136C96.2894 290.136 96.6278 290.097 96.9152 290.018C97.2026 289.934 97.439 289.825 97.6245 289.691C97.8145 289.552 97.9582 289.401 98.0556 289.239C98.1529 289.077 98.2109 288.915 98.2294 288.752H99.4115C99.3883 289.049 99.2956 289.343 99.1333 289.635C98.9711 289.927 98.7416 290.194 98.445 290.435C98.1483 290.671 97.7844 290.861 97.3533 291.005C96.9222 291.149 96.4262 291.221 95.8653 291.221C95.1236 291.221 94.47 291.058 93.9045 290.734C93.3389 290.41 92.8939 289.96 92.5694 289.385C92.2496 288.81 92.0897 288.15 92.0897 287.403C92.0897 286.648 92.2519 285.985 92.5764 285.415C92.9009 284.84 93.3482 284.39 93.9184 284.066C94.4885 283.741 95.1398 283.579 95.8722 283.579C96.6186 283.579 97.2652 283.741 97.8122 284.066C98.3592 284.39 98.781 284.835 99.0777 285.401C99.3744 285.962 99.5227 286.601 99.5227 287.32C99.5227 287.394 99.5204 287.491 99.5158 287.612C99.5111 287.733 99.5042 287.814 99.4949 287.855H92.7572ZM104.136 291.186C103.909 291.186 103.686 291.16 103.469 291.109C103.251 291.058 103.054 290.968 102.878 290.838C102.706 290.704 102.569 290.516 102.467 290.275C102.365 290.029 102.314 289.714 102.314 289.329C102.314 289.232 102.314 289.132 102.314 289.03C102.314 288.924 102.314 288.813 102.314 288.697V284.733H100.513V283.69H101.668C101.825 283.69 101.948 283.686 102.036 283.676C102.124 283.663 102.187 283.632 102.224 283.586C102.266 283.535 102.291 283.459 102.3 283.357C102.31 283.25 102.314 283.104 102.314 282.919V281.243H103.503V283.69H105.812V284.733H103.503V288.314C103.503 288.416 103.503 288.516 103.503 288.613C103.503 288.711 103.503 288.801 103.503 288.884C103.503 289.278 103.55 289.587 103.642 289.809C103.74 290.032 103.955 290.143 104.289 290.143C104.423 290.143 104.551 290.131 104.671 290.108C104.792 290.085 104.882 290.062 104.943 290.039V291.068C104.864 291.096 104.753 291.121 104.609 291.144C104.47 291.172 104.312 291.186 104.136 291.186ZM112.618 291.075V288.328C112.618 288.198 112.618 288.045 112.618 287.869C112.618 287.688 112.618 287.508 112.618 287.327C112.618 287.141 112.618 286.984 112.618 286.854C112.618 286.145 112.465 285.609 112.16 285.248C111.858 284.886 111.378 284.706 110.72 284.706C110.28 284.706 109.893 284.791 109.559 284.963C109.23 285.134 108.973 285.368 108.787 285.665C108.602 285.962 108.509 286.298 108.509 286.673L107.758 286.444C107.758 285.915 107.895 285.436 108.168 285.005C108.446 284.569 108.824 284.223 109.302 283.968C109.784 283.709 110.328 283.579 110.936 283.579C111.821 283.579 112.519 283.846 113.029 284.379C113.543 284.912 113.8 285.649 113.8 286.59C113.8 286.836 113.8 287.118 113.8 287.438C113.8 287.758 113.8 288.094 113.8 288.446V291.075H112.618ZM107.327 291.075V280.207H108.509V291.075H107.327ZM115.925 291.075V283.69H117.093V291.075H115.925ZM116.516 281.994C116.298 281.994 116.108 281.933 115.946 281.813C115.788 281.688 115.71 281.519 115.71 281.305C115.71 281.097 115.788 280.932 115.946 280.812C116.108 280.687 116.298 280.624 116.516 280.624C116.734 280.624 116.922 280.687 117.079 280.812C117.237 280.932 117.316 281.097 117.316 281.305C117.316 281.519 117.237 281.688 117.079 281.813C116.922 281.933 116.734 281.994 116.516 281.994ZM124.576 291.075V287.535C124.576 287.322 124.576 287.148 124.576 287.014C124.576 286.875 124.576 286.743 124.576 286.618C124.576 286.233 124.511 285.897 124.381 285.609C124.252 285.322 124.048 285.1 123.769 284.942C123.491 284.784 123.127 284.706 122.678 284.706C122.284 284.706 121.918 284.807 121.579 285.011C121.245 285.211 120.977 285.482 120.773 285.825C120.573 286.163 120.474 286.543 120.474 286.965L119.799 286.708C119.799 286.129 119.94 285.602 120.223 285.13C120.511 284.657 120.891 284.281 121.364 284.003C121.841 283.72 122.36 283.579 122.921 283.579C123.491 283.579 123.99 283.688 124.416 283.906C124.843 284.124 125.172 284.437 125.403 284.845C125.64 285.248 125.758 285.735 125.758 286.305C125.758 286.509 125.758 286.731 125.758 286.972C125.758 287.213 125.758 287.438 125.758 287.647V291.075H124.576ZM119.292 291.075V283.69H120.474V291.075H119.292ZM132.534 290.623C132.933 290.655 133.283 290.729 133.584 290.845C133.89 290.957 134.129 291.121 134.301 291.339C134.472 291.561 134.558 291.851 134.558 292.208C134.558 292.602 134.423 292.95 134.155 293.251C133.886 293.557 133.478 293.796 132.931 293.967C132.384 294.139 131.695 294.225 130.866 294.225C129.693 294.225 128.807 294.053 128.21 293.71C127.612 293.372 127.313 292.908 127.313 292.319C127.313 292.134 127.333 291.969 127.375 291.826C127.421 291.687 127.472 291.573 127.528 291.485L128.655 291.652C128.617 291.703 128.58 291.779 128.543 291.881C128.511 291.988 128.495 292.111 128.495 292.25C128.495 292.621 128.706 292.88 129.127 293.029C129.549 293.182 130.147 293.258 130.921 293.258C131.501 293.258 131.976 293.219 132.347 293.14C132.718 293.061 132.993 292.947 133.174 292.799C133.355 292.651 133.445 292.477 133.445 292.278C133.445 291.976 133.318 291.789 133.063 291.714C132.813 291.645 132.502 291.596 132.131 291.568L129.322 291.36C128.854 291.323 128.471 291.179 128.175 290.929C127.883 290.674 127.737 290.365 127.737 290.004C127.737 289.781 127.79 289.57 127.897 289.371C128.008 289.172 128.135 289.005 128.279 288.871C128.427 288.731 128.559 288.648 128.675 288.62L129.607 289.044C129.491 289.063 129.348 289.144 129.176 289.288C129.009 289.427 128.926 289.591 128.926 289.781C128.926 289.953 128.993 290.094 129.127 290.206C129.262 290.312 129.528 290.382 129.927 290.414L132.534 290.623ZM133.557 283.69H134.669L134.21 286.597C134.127 287.139 133.953 287.631 133.689 288.071C133.424 288.507 133.063 288.854 132.604 289.114C132.15 289.369 131.586 289.496 130.914 289.496C130.214 289.496 129.616 289.369 129.12 289.114C128.624 288.859 128.244 288.511 127.98 288.071C127.716 287.626 127.584 287.125 127.584 286.569C127.584 286.003 127.72 285.496 127.994 285.046C128.272 284.592 128.657 284.235 129.148 283.975C129.64 283.711 130.203 283.579 130.838 283.579C131.408 283.579 131.906 283.679 132.333 283.878C132.759 284.073 133.095 284.318 133.341 284.615C133.591 284.912 133.73 285.211 133.758 285.512L133.313 285.54L133.557 283.69ZM130.907 288.439C131.357 288.439 131.742 288.365 132.062 288.217C132.386 288.069 132.634 287.853 132.806 287.57C132.982 287.287 133.07 286.944 133.07 286.541C133.07 286.152 132.982 285.816 132.806 285.533C132.634 285.246 132.386 285.025 132.062 284.872C131.742 284.715 131.359 284.636 130.914 284.636C130.488 284.636 130.11 284.717 129.781 284.879C129.456 285.037 129.202 285.259 129.016 285.547C128.835 285.834 128.745 286.173 128.745 286.562C128.745 286.956 128.831 287.294 129.002 287.577C129.178 287.855 129.426 288.069 129.746 288.217C130.071 288.365 130.458 288.439 130.907 288.439Z" fill="#4E6964"/>
<rect x="33.9062" y="311.458" width="344.187" height="34.8598" rx="13.9065" fill="#F6F3EF"/>
<g clip-path="url(#clip6_29_1002)">
<path d="M53.6064 328.355V328.888C53.6057 330.138 53.201 331.353 52.4529 332.354C51.7047 333.355 50.6531 334.087 49.4549 334.441C48.2567 334.796 46.976 334.753 45.8039 334.32C44.6318 333.887 43.6311 333.087 42.951 332.038C42.2709 330.99 41.9479 329.75 42.0301 328.503C42.1124 327.257 42.5954 326.07 43.4072 325.12C44.2191 324.17 45.3162 323.508 46.535 323.233C47.7538 322.957 49.0289 323.083 50.1703 323.592" stroke="#4E6964" stroke-width="1.73832" stroke-linecap="round" stroke-linejoin="round"/>
<path d="M53.6069 324.252L47.8125 330.053L46.0742 328.314" stroke="#4E6964" stroke-width="1.73832" stroke-linecap="round" stroke-linejoin="round"/>
</g>
<g opacity="0.5">
<path d="M65.8003 333.027C65.0911 333.027 64.4838 332.916 63.9786 332.693C63.4779 332.466 63.0932 332.125 62.8243 331.671C62.5555 331.217 62.421 330.651 62.421 329.975C62.421 329.882 62.421 329.803 62.421 329.738C62.421 329.673 62.421 329.594 62.421 329.502H63.61C63.61 329.59 63.61 329.664 63.61 329.724C63.61 329.784 63.61 329.861 63.61 329.954C63.61 330.663 63.7955 331.175 64.1663 331.49C64.5371 331.801 65.0772 331.956 65.7864 331.956C66.5188 331.956 67.0728 331.831 67.4482 331.581C67.8237 331.33 68.0115 330.925 68.0115 330.364C68.0115 329.97 67.9025 329.643 67.6847 329.383C67.4714 329.119 67.1748 328.897 66.7946 328.716C66.4145 328.531 65.9718 328.361 65.4666 328.208C64.8964 328.032 64.3865 327.81 63.9368 327.541C63.4918 327.272 63.1395 326.941 62.8799 326.547C62.625 326.148 62.4975 325.663 62.4975 325.093C62.4975 324.537 62.6319 324.067 62.9008 323.682C63.1743 323.297 63.5544 323.005 64.0411 322.806C64.5279 322.606 65.0934 322.507 65.7377 322.507C66.4192 322.507 67.0102 322.613 67.5108 322.827C68.0161 323.035 68.4055 323.355 68.679 323.786C68.9571 324.213 69.0962 324.75 69.0962 325.399C69.0962 325.501 69.0962 325.589 69.0962 325.663C69.0962 325.733 69.0962 325.819 69.0962 325.921H67.9072C67.9072 325.833 67.9072 325.754 67.9072 325.684C67.9072 325.615 67.9072 325.536 67.9072 325.448C67.9072 324.771 67.7241 324.291 67.3579 324.009C66.9916 323.721 66.4586 323.578 65.7586 323.578C65.0865 323.578 64.5673 323.696 64.2011 323.932C63.8349 324.169 63.6518 324.556 63.6518 325.093C63.6518 325.497 63.763 325.83 63.9855 326.095C64.2127 326.354 64.5209 326.577 64.9103 326.762C65.2997 326.943 65.7447 327.117 66.2453 327.284C66.8526 327.483 67.3741 327.71 67.8098 327.965C68.2502 328.215 68.5863 328.528 68.818 328.904C69.0545 329.279 69.1727 329.752 69.1727 330.322C69.1727 330.892 69.0359 331.379 68.7624 331.782C68.4936 332.186 68.1065 332.494 67.6012 332.707C67.1006 332.92 66.5003 333.027 65.8003 333.027ZM74.442 333.02C73.7004 333.02 73.0444 332.855 72.4743 332.526C71.9087 332.193 71.4637 331.738 71.1392 331.164C70.8194 330.584 70.6595 329.926 70.6595 329.189C70.6595 328.452 70.8194 327.798 71.1392 327.228C71.4637 326.658 71.9087 326.21 72.4743 325.886C73.0444 325.562 73.7004 325.399 74.442 325.399C75.1837 325.399 75.8373 325.562 76.4029 325.886C76.973 326.21 77.418 326.658 77.7379 327.228C78.0624 327.798 78.2246 328.452 78.2246 329.189C78.2246 329.926 78.0624 330.584 77.7379 331.164C77.418 331.738 76.973 332.193 76.4029 332.526C75.8373 332.855 75.1837 333.02 74.442 333.02ZM74.442 331.935C74.9519 331.935 75.4016 331.822 75.791 331.595C76.1804 331.367 76.484 331.048 76.7019 330.635C76.9244 330.223 77.0356 329.74 77.0356 329.189C77.0356 328.637 76.9244 328.16 76.7019 327.756C76.484 327.349 76.1804 327.036 75.791 326.818C75.4016 326.595 74.9519 326.484 74.442 326.484C73.9368 326.484 73.4871 326.595 73.0931 326.818C72.7037 327.036 72.3978 327.349 72.1753 327.756C71.9574 328.16 71.8485 328.637 71.8485 329.189C71.8485 329.74 71.9574 330.223 72.1753 330.635C72.3978 331.048 72.7037 331.367 73.0931 331.595C73.4871 331.822 73.9368 331.935 74.442 331.935ZM84.6112 332.888V329.627C84.6112 329.339 84.6112 329.091 84.6112 328.883C84.6112 328.67 84.6112 328.491 84.6112 328.347C84.6112 328.167 84.5973 327.972 84.5695 327.763C84.5463 327.55 84.4884 327.351 84.3956 327.165C84.3029 326.975 84.1569 326.82 83.9576 326.7C83.7629 326.579 83.4917 326.519 83.1441 326.519C82.7918 326.519 82.4951 326.588 82.254 326.727C82.013 326.862 81.8183 327.04 81.67 327.263C81.5216 327.485 81.415 327.731 81.3501 328C81.2852 328.264 81.2528 328.526 81.2528 328.786L80.5853 328.514C80.5853 327.958 80.7011 327.444 80.9329 326.971C81.1647 326.498 81.4892 326.118 81.9064 325.83C82.3282 325.538 82.8219 325.392 83.3874 325.392C83.9483 325.392 84.4049 325.506 84.7572 325.733C85.1095 325.96 85.3691 326.273 85.536 326.672C85.7029 327.07 85.7863 327.529 85.7863 328.048C85.7863 328.234 85.7863 328.473 85.7863 328.765C85.7863 329.052 85.7863 329.381 85.7863 329.752V332.888H84.6112ZM80.0707 332.888V325.504H81.2528V332.888H80.0707ZM89.1378 332.888V329.627C89.1378 329.312 89.1378 329.052 89.1378 328.848C89.1378 328.639 89.1378 328.463 89.1378 328.32C89.1378 328.139 89.1262 327.944 89.103 327.736C89.0798 327.527 89.0219 327.332 88.9292 327.151C88.8365 326.966 88.6881 326.815 88.4842 326.7C88.2848 326.579 88.0044 326.519 87.6428 326.519C87.2859 326.519 86.9869 326.586 86.7459 326.72C86.5094 326.855 86.3194 327.031 86.1757 327.249C86.0366 327.467 85.937 327.703 85.8767 327.958C85.8164 328.208 85.7863 328.449 85.7863 328.681L85.1188 328.424C85.1188 327.895 85.23 327.402 85.4525 326.943C85.6797 326.479 85.9995 326.106 86.4121 325.823C86.8293 325.536 87.323 325.392 87.8931 325.392C88.4262 325.392 88.8712 325.497 89.2282 325.705C89.5897 325.914 89.8609 326.208 90.0417 326.588C90.2271 326.964 90.3198 327.411 90.3198 327.93C90.3198 328.125 90.3198 328.366 90.3198 328.653C90.3198 328.941 90.3198 329.265 90.3198 329.627V332.888H89.1378ZM92.7572 329.669V328.612H98.4658L98.2572 328.959C98.2572 328.932 98.2572 328.906 98.2572 328.883C98.2572 328.855 98.2572 328.83 98.2572 328.806C98.2572 328.38 98.1668 327.991 97.986 327.638C97.8099 327.281 97.5457 326.996 97.1934 326.783C96.8411 326.57 96.4053 326.463 95.8861 326.463C95.3623 326.463 94.9011 326.574 94.5024 326.797C94.1038 327.019 93.7932 327.335 93.5707 327.743C93.3482 328.146 93.237 328.628 93.237 329.189C93.237 329.759 93.3436 330.25 93.5568 330.663C93.7747 331.075 94.0829 331.393 94.4816 331.615C94.8802 331.838 95.3531 331.949 95.9001 331.949C96.2894 331.949 96.6278 331.91 96.9152 331.831C97.2026 331.748 97.439 331.639 97.6245 331.504C97.8145 331.365 97.9582 331.215 98.0556 331.052C98.1529 330.89 98.2109 330.728 98.2294 330.566H99.4115C99.3883 330.862 99.2956 331.157 99.1333 331.449C98.9711 331.741 98.7416 332.007 98.445 332.248C98.1483 332.485 97.7844 332.675 97.3533 332.818C96.9222 332.962 96.4262 333.034 95.8653 333.034C95.1236 333.034 94.47 332.872 93.9045 332.547C93.3389 332.223 92.8939 331.773 92.5694 331.198C92.2496 330.623 92.0897 329.963 92.0897 329.217C92.0897 328.461 92.2519 327.798 92.5764 327.228C92.9009 326.653 93.3482 326.204 93.9184 325.879C94.4885 325.555 95.1398 325.392 95.8722 325.392C96.6186 325.392 97.2652 325.555 97.8122 325.879C98.3592 326.204 98.781 326.649 99.0777 327.214C99.3744 327.775 99.5227 328.415 99.5227 329.133C99.5227 329.207 99.5204 329.305 99.5158 329.425C99.5111 329.546 99.5042 329.627 99.4949 329.669H92.7572ZM104.136 332.999C103.909 332.999 103.686 332.974 103.469 332.923C103.251 332.872 103.054 332.781 102.878 332.652C102.706 332.517 102.569 332.329 102.467 332.088C102.365 331.843 102.314 331.527 102.314 331.143C102.314 331.045 102.314 330.946 102.314 330.844C102.314 330.737 102.314 330.626 102.314 330.51V326.547H100.513V325.504H101.668C101.825 325.504 101.948 325.499 102.036 325.49C102.124 325.476 102.187 325.446 102.224 325.399C102.266 325.348 102.291 325.272 102.3 325.17C102.31 325.063 102.314 324.917 102.314 324.732V323.056H103.503V325.504H105.812V326.547H103.503V330.127C103.503 330.229 103.503 330.329 103.503 330.426C103.503 330.524 103.503 330.614 103.503 330.698C103.503 331.092 103.55 331.4 103.642 331.622C103.74 331.845 103.955 331.956 104.289 331.956C104.423 331.956 104.551 331.945 104.671 331.921C104.792 331.898 104.882 331.875 104.943 331.852V332.881C104.864 332.909 104.753 332.934 104.609 332.957C104.47 332.985 104.312 332.999 104.136 332.999ZM112.618 332.888V330.141C112.618 330.012 112.618 329.859 112.618 329.682C112.618 329.502 112.618 329.321 112.618 329.14C112.618 328.955 112.618 328.797 112.618 328.667C112.618 327.958 112.465 327.423 112.16 327.061C111.858 326.7 111.378 326.519 110.72 326.519C110.28 326.519 109.893 326.604 109.559 326.776C109.23 326.948 108.973 327.182 108.787 327.478C108.602 327.775 108.509 328.111 108.509 328.487L107.758 328.257C107.758 327.729 107.895 327.249 108.168 326.818C108.446 326.382 108.824 326.037 109.302 325.782C109.784 325.522 110.328 325.392 110.936 325.392C111.821 325.392 112.519 325.659 113.029 326.192C113.543 326.725 113.8 327.462 113.8 328.403C113.8 328.649 113.8 328.932 113.8 329.251C113.8 329.571 113.8 329.907 113.8 330.26V332.888H112.618ZM107.327 332.888V322.02H108.509V332.888H107.327ZM115.925 332.888V325.504H117.093V332.888H115.925ZM116.516 323.807C116.298 323.807 116.108 323.747 115.946 323.626C115.788 323.501 115.71 323.332 115.71 323.119C115.71 322.91 115.788 322.745 115.946 322.625C116.108 322.5 116.298 322.437 116.516 322.437C116.734 322.437 116.922 322.5 117.079 322.625C117.237 322.745 117.316 322.91 117.316 323.119C117.316 323.332 117.237 323.501 117.079 323.626C116.922 323.747 116.734 323.807 116.516 323.807ZM124.576 332.888V329.349C124.576 329.135 124.576 328.962 124.576 328.827C124.576 328.688 124.576 328.556 124.576 328.431C124.576 328.046 124.511 327.71 124.381 327.423C124.252 327.135 124.048 326.913 123.769 326.755C123.491 326.598 123.127 326.519 122.678 326.519C122.284 326.519 121.918 326.621 121.579 326.825C121.245 327.024 120.977 327.295 120.773 327.638C120.573 327.977 120.474 328.357 120.474 328.779L119.799 328.521C119.799 327.942 119.94 327.416 120.223 326.943C120.511 326.47 120.891 326.095 121.364 325.816C121.841 325.534 122.36 325.392 122.921 325.392C123.491 325.392 123.99 325.501 124.416 325.719C124.843 325.937 125.172 326.25 125.403 326.658C125.64 327.061 125.758 327.548 125.758 328.118C125.758 328.322 125.758 328.544 125.758 328.786C125.758 329.027 125.758 329.251 125.758 329.46V332.888H124.576ZM119.292 332.888V325.504H120.474V332.888H119.292ZM132.534 332.436C132.933 332.468 133.283 332.543 133.584 332.658C133.89 332.77 134.129 332.934 134.301 333.152C134.472 333.375 134.558 333.664 134.558 334.021C134.558 334.415 134.423 334.763 134.155 335.064C133.886 335.37 133.478 335.609 132.931 335.781C132.384 335.952 131.695 336.038 130.866 336.038C129.693 336.038 128.807 335.866 128.21 335.523C127.612 335.185 127.313 334.721 127.313 334.133C127.313 333.947 127.333 333.783 127.375 333.639C127.421 333.5 127.472 333.386 127.528 333.298L128.655 333.465C128.617 333.516 128.58 333.593 128.543 333.695C128.511 333.801 128.495 333.924 128.495 334.063C128.495 334.434 128.706 334.693 129.127 334.842C129.549 334.995 130.147 335.071 130.921 335.071C131.501 335.071 131.976 335.032 132.347 334.953C132.718 334.874 132.993 334.761 133.174 334.612C133.355 334.464 133.445 334.29 133.445 334.091C133.445 333.79 133.318 333.602 133.063 333.528C132.813 333.458 132.502 333.409 132.131 333.382L129.322 333.173C128.854 333.136 128.471 332.992 128.175 332.742C127.883 332.487 127.737 332.179 127.737 331.817C127.737 331.595 127.79 331.384 127.897 331.184C128.008 330.985 128.135 330.818 128.279 330.684C128.427 330.545 128.559 330.461 128.675 330.433L129.607 330.858C129.491 330.876 129.348 330.957 129.176 331.101C129.009 331.24 128.926 331.405 128.926 331.595C128.926 331.766 128.993 331.908 129.127 332.019C129.262 332.125 129.528 332.195 129.927 332.227L132.534 332.436ZM133.557 325.504H134.669L134.21 328.41C134.127 328.952 133.953 329.444 133.689 329.884C133.424 330.32 133.063 330.668 132.604 330.927C132.15 331.182 131.586 331.31 130.914 331.31C130.214 331.31 129.616 331.182 129.12 330.927C128.624 330.672 128.244 330.325 127.98 329.884C127.716 329.439 127.584 328.938 127.584 328.382C127.584 327.817 127.72 327.309 127.994 326.859C128.272 326.405 128.657 326.048 129.148 325.789C129.64 325.524 130.203 325.392 130.838 325.392C131.408 325.392 131.906 325.492 132.333 325.691C132.759 325.886 133.095 326.132 133.341 326.428C133.591 326.725 133.73 327.024 133.758 327.325L133.313 327.353L133.557 325.504ZM130.907 330.253C131.357 330.253 131.742 330.178 132.062 330.03C132.386 329.882 132.634 329.666 132.806 329.383C132.982 329.101 133.07 328.758 133.07 328.354C133.07 327.965 132.982 327.629 132.806 327.346C132.634 327.059 132.386 326.839 132.062 326.686C131.742 326.528 131.359 326.449 130.914 326.449C130.488 326.449 130.11 326.53 129.781 326.693C129.456 326.85 129.202 327.073 129.016 327.36C128.835 327.647 128.745 327.986 128.745 328.375C128.745 328.769 128.831 329.108 129.002 329.39C129.178 329.669 129.426 329.882 129.746 330.03C130.071 330.178 130.458 330.253 130.907 330.253Z" fill="#4E6964"/>
<path d="M61.7188 328.459H135.225V328.806H61.7188V328.459Z" fill="#4E6964"/>
</g>
<rect x="33.9062" y="780.28" width="344.187" height="36.8131" rx="13.9065" fill="#FAF8F6"/>
<path d="M48.321 803.187V801.167H44.7192V800.333L47.9195 794.182H49.3371V800.254H50.5478V801.167H49.3371V803.187H48.321ZM45.6197 800.814L45.279 800.254H48.321V794.9L48.5826 794.961L45.6197 800.814ZM55.1311 803.187V796.725H56.1533V803.187H55.1311ZM55.6483 795.241C55.4577 795.241 55.2914 795.188 55.1494 795.083C55.0115 794.973 54.9425 794.825 54.9425 794.639C54.9425 794.456 55.0115 794.312 55.1494 794.207C55.2914 794.097 55.4577 794.042 55.6483 794.042C55.8389 794.042 56.0032 794.097 56.1411 794.207C56.279 794.312 56.348 794.456 56.348 794.639C56.348 794.825 56.279 794.973 56.1411 795.083C56.0032 795.188 55.8389 795.241 55.6483 795.241ZM60.632 803.284C60.4333 803.284 60.2386 803.262 60.048 803.217C59.8573 803.173 59.6849 803.093 59.5308 802.98C59.3807 802.862 59.2611 802.698 59.1719 802.487C59.0826 802.272 59.038 801.996 59.038 801.66C59.038 801.574 59.038 801.487 59.038 801.398C59.038 801.305 59.038 801.207 59.038 801.106V797.638H57.4622V796.725H58.4722C58.6101 796.725 58.7176 796.721 58.7946 796.713C58.8717 796.701 58.9265 796.675 58.9589 796.634C58.9954 796.59 59.0177 796.523 59.0258 796.433C59.0339 796.34 59.038 796.212 59.038 796.05V794.584H60.0784V796.725H62.0983V797.638H60.0784V800.771C60.0784 800.861 60.0784 800.948 60.0784 801.033C60.0784 801.118 60.0784 801.197 60.0784 801.27C60.0784 801.615 60.1189 801.885 60.2001 802.079C60.2852 802.274 60.4739 802.371 60.7659 802.371C60.8835 802.371 60.9951 802.361 61.1005 802.341C61.206 802.321 61.2851 802.301 61.3378 802.28V803.181C61.2688 803.205 61.1715 803.227 61.0458 803.248C60.9241 803.272 60.7862 803.284 60.632 803.284ZM63.5448 800.37V799.445H68.5399L68.3573 799.749C68.3573 799.725 68.3573 799.703 68.3573 799.682C68.3573 799.658 68.3573 799.636 68.3573 799.615C68.3573 799.242 68.2783 798.902 68.1201 798.593C67.9659 798.281 67.7347 798.031 67.4265 797.845C67.1182 797.658 66.7369 797.565 66.2827 797.565C65.8243 797.565 65.4207 797.662 65.0719 797.857C64.7231 798.052 64.4513 798.328 64.2567 798.685C64.062 799.037 63.9646 799.459 63.9646 799.95C63.9646 800.449 64.0579 800.879 64.2445 801.24C64.4351 801.601 64.7048 801.879 65.0537 802.073C65.4025 802.268 65.8162 802.365 66.2948 802.365C66.6355 802.365 66.9316 802.331 67.1831 802.262C67.4346 802.189 67.6414 802.094 67.8037 801.976C67.97 801.854 68.0957 801.723 68.1809 801.581C68.2661 801.439 68.3168 801.297 68.333 801.155H69.3673C69.347 801.414 69.2659 801.672 69.1239 801.927C68.982 802.183 68.7812 802.416 68.5216 802.627C68.262 802.834 67.9436 803 67.5664 803.126C67.1892 803.252 66.7552 803.315 66.2644 803.315C65.6154 803.315 65.0435 803.173 64.5487 802.889C64.0538 802.605 63.6645 802.211 63.3805 801.708C63.1007 801.205 62.9607 800.627 62.9607 799.974C62.9607 799.313 63.1027 798.733 63.3866 798.234C63.6705 797.731 64.062 797.338 64.5609 797.054C65.0598 796.77 65.6296 796.628 66.2705 796.628C66.9235 796.628 67.4893 796.77 67.968 797.054C68.4466 797.338 68.8157 797.727 69.0753 798.222C69.3349 798.713 69.4647 799.273 69.4647 799.901C69.4647 799.966 69.4626 800.051 69.4586 800.157C69.4545 800.262 69.4484 800.333 69.4403 800.37H63.5448ZM75.0497 803.187V800.333C75.0497 800.082 75.0497 799.865 75.0497 799.682C75.0497 799.496 75.0497 799.34 75.0497 799.214C75.0497 799.056 75.0375 798.885 75.0132 798.703C74.9929 798.516 74.9422 798.342 74.8611 798.18C74.7799 798.013 74.6522 797.877 74.4778 797.772C74.3074 797.666 74.0701 797.614 73.7659 797.614C73.4577 797.614 73.1981 797.675 72.9872 797.796C72.7762 797.914 72.6059 798.07 72.4761 798.265C72.3463 798.459 72.253 798.674 72.1962 798.91C72.1394 799.141 72.111 799.37 72.111 799.597L71.527 799.36C71.527 798.873 71.6284 798.423 71.8312 798.009C72.034 797.595 72.3179 797.263 72.683 797.011C73.0521 796.756 73.484 796.628 73.9789 796.628C74.4697 796.628 74.8692 796.727 75.1774 796.926C75.4857 797.125 75.7128 797.399 75.8589 797.748C76.0049 798.096 76.0779 798.498 76.0779 798.952C76.0779 799.114 76.0779 799.323 76.0779 799.579C76.0779 799.83 76.0779 800.118 76.0779 800.443V803.187H75.0497ZM71.0768 803.187V796.725H72.111V803.187H71.0768ZM79.0104 803.187V800.333C79.0104 800.058 79.0104 799.83 79.0104 799.652C79.0104 799.469 79.0104 799.315 79.0104 799.19C79.0104 799.031 79.0003 798.861 78.98 798.678C78.9597 798.496 78.909 798.326 78.8279 798.167C78.7468 798.005 78.617 797.873 78.4385 797.772C78.2641 797.666 78.0187 797.614 77.7023 797.614C77.39 797.614 77.1284 797.673 76.9175 797.79C76.7106 797.908 76.5443 798.062 76.4186 798.253C76.2969 798.443 76.2097 798.65 76.157 798.873C76.1043 799.092 76.0779 799.303 76.0779 799.506L75.4938 799.281C75.4938 798.818 75.5912 798.386 75.7859 797.985C75.9846 797.579 76.2645 797.253 76.6255 797.005C76.9905 796.754 77.4225 796.628 77.9214 796.628C78.3878 796.628 78.7772 796.719 79.0895 796.902C79.4059 797.084 79.6432 797.342 79.8014 797.675C79.9636 798.003 80.0447 798.395 80.0447 798.849C80.0447 799.019 80.0447 799.23 80.0447 799.482C80.0447 799.733 80.0447 800.017 80.0447 800.333V803.187H79.0104ZM84.3129 803.308C83.9235 803.308 83.5626 803.268 83.23 803.187C82.9014 803.102 82.6134 802.98 82.366 802.822C82.1226 802.659 81.932 802.461 81.7941 802.225C81.6603 801.99 81.5933 801.72 81.5933 801.416C81.5933 801.384 81.5933 801.351 81.5933 801.319C81.5933 801.282 81.5933 801.252 81.5933 801.228H82.6337C82.6337 801.252 82.6337 801.272 82.6337 801.289C82.6337 801.305 82.6337 801.329 82.6337 801.362C82.6337 801.69 82.7858 801.942 83.09 802.116C83.3942 802.286 83.81 802.371 84.3373 802.371C84.6617 802.371 84.9518 802.339 85.2073 802.274C85.4628 802.209 85.6636 802.11 85.8096 801.976C85.9597 801.842 86.0347 801.674 86.0347 801.471C86.0347 801.134 85.8765 800.895 85.5602 800.753C85.2479 800.607 84.7794 800.481 84.1547 800.376C83.8262 800.319 83.5139 800.246 83.2178 800.157C82.9217 800.064 82.658 799.944 82.4269 799.798C82.1997 799.652 82.0192 799.471 81.8854 799.256C81.7556 799.037 81.6907 798.776 81.6907 798.472C81.6907 798.078 81.8063 797.746 82.0375 797.474C82.2727 797.198 82.5891 796.989 82.9866 796.847C83.3841 796.701 83.8262 796.628 84.3129 796.628C84.7834 796.628 85.2174 796.703 85.6149 796.853C86.0124 797.003 86.3308 797.222 86.5701 797.51C86.8135 797.794 86.9352 798.145 86.9352 798.563C86.9352 798.579 86.9352 798.599 86.9352 798.624C86.9352 798.644 86.9352 798.664 86.9352 798.685H85.9009C85.9009 798.664 85.9009 798.648 85.9009 798.636C85.9009 798.624 85.9009 798.609 85.9009 798.593C85.9009 798.358 85.8258 798.165 85.6758 798.015C85.5257 797.861 85.331 797.748 85.0917 797.675C84.8524 797.597 84.5969 797.559 84.3251 797.559C84.0696 797.559 83.8181 797.587 83.5707 797.644C83.3232 797.697 83.1184 797.786 82.9562 797.912C82.7939 798.038 82.7128 798.21 82.7128 798.429C82.7128 798.648 82.7878 798.824 82.9379 798.958C83.092 799.088 83.307 799.196 83.5828 799.281C83.8627 799.362 84.1912 799.437 84.5685 799.506C84.9051 799.567 85.2235 799.644 85.5237 799.737C85.8238 799.826 86.0875 799.942 86.3146 800.084C86.5458 800.226 86.7263 800.406 86.8561 800.625C86.9899 800.84 87.0569 801.104 87.0569 801.416C87.0569 801.733 86.9839 802.008 86.8378 802.244C86.6959 802.479 86.4971 802.676 86.2416 802.834C85.9901 802.992 85.6981 803.11 85.3655 803.187C85.0369 803.268 84.6861 803.308 84.3129 803.308ZM92.8191 793.677V803.187H91.797V793.677H92.8191ZM95.0467 800.37V799.445H100.042L99.8593 799.749C99.8593 799.725 99.8593 799.703 99.8593 799.682C99.8593 799.658 99.8593 799.636 99.8593 799.615C99.8593 799.242 99.7802 798.902 99.622 798.593C99.4678 798.281 99.2367 798.031 98.9284 797.845C98.6201 797.658 98.2389 797.565 97.7846 797.565C97.3262 797.565 96.9227 797.662 96.5738 797.857C96.225 798.052 95.9533 798.328 95.7586 798.685C95.5639 799.037 95.4665 799.459 95.4665 799.95C95.4665 800.449 95.5598 800.879 95.7464 801.24C95.937 801.601 96.2068 801.879 96.5556 802.073C96.9044 802.268 97.3181 802.365 97.7967 802.365C98.1375 802.365 98.4335 802.331 98.685 802.262C98.9365 802.189 99.1434 802.094 99.3056 801.976C99.4719 801.854 99.5976 801.723 99.6828 801.581C99.768 801.439 99.8187 801.297 99.8349 801.155H100.869C100.849 801.414 100.768 801.672 100.626 801.927C100.484 802.183 100.283 802.416 100.024 802.627C99.7639 802.834 99.4455 803 99.0683 803.126C98.6911 803.252 98.2571 803.315 97.7663 803.315C97.1174 803.315 96.5454 803.173 96.0506 802.889C95.5558 802.605 95.1664 802.211 94.8825 801.708C94.6026 801.205 94.4627 800.627 94.4627 799.974C94.4627 799.313 94.6046 798.733 94.8885 798.234C95.1725 797.731 95.5639 797.338 96.0628 797.054C96.5617 796.77 97.1315 796.628 97.7724 796.628C98.4254 796.628 98.9913 796.77 99.4699 797.054C99.9485 797.338 100.318 797.727 100.577 798.222C100.837 798.713 100.967 799.273 100.967 799.901C100.967 799.966 100.965 800.051 100.96 800.157C100.956 800.262 100.95 800.333 100.942 800.37H95.0467ZM103.293 803.187V797.638H101.881V796.725H103.293V795.892C103.293 795.604 103.325 795.34 103.39 795.101C103.459 794.858 103.556 794.643 103.682 794.456C103.812 794.269 103.968 794.111 104.15 793.982C104.333 793.852 104.54 793.754 104.771 793.689C105.006 793.621 105.262 793.586 105.538 793.586C105.736 793.586 105.894 793.598 106.012 793.623C106.13 793.647 106.209 793.669 106.249 793.689V794.602C106.201 794.586 106.12 794.568 106.006 794.547C105.892 794.527 105.771 794.517 105.641 794.517C105.365 794.517 105.14 794.559 104.966 794.645C104.795 794.73 104.663 794.847 104.57 794.998C104.477 795.144 104.412 795.31 104.375 795.496C104.343 795.683 104.327 795.878 104.327 796.081V796.725H106.213V797.638H104.327V803.187H103.293ZM109.97 803.284C109.772 803.284 109.577 803.262 109.386 803.217C109.196 803.173 109.023 803.093 108.869 802.98C108.719 802.862 108.599 802.698 108.51 802.487C108.421 802.272 108.376 801.996 108.376 801.66C108.376 801.574 108.376 801.487 108.376 801.398C108.376 801.305 108.376 801.207 108.376 801.106V797.638H106.801V796.725H107.811C107.948 796.725 108.056 796.721 108.133 796.713C108.21 796.701 108.265 796.675 108.297 796.634C108.334 796.59 108.356 796.523 108.364 796.433C108.372 796.34 108.376 796.212 108.376 796.05V794.584H109.417V796.725H111.437V797.638H109.417V800.771C109.417 800.861 109.417 800.948 109.417 801.033C109.417 801.118 109.417 801.197 109.417 801.27C109.417 801.615 109.457 801.885 109.538 802.079C109.624 802.274 109.812 802.371 110.104 802.371C110.222 802.371 110.333 802.361 110.439 802.341C110.544 802.321 110.623 802.301 110.676 802.28V803.181C110.607 803.205 110.51 803.227 110.384 803.248C110.262 803.272 110.125 803.284 109.97 803.284Z" fill="#4E6964"/>
<rect x="239.467" y="790.71" width="27.9065" height="15.9533" rx="7.97664" fill="#EFECE7"/>
<path d="M246.894 803.187L249.365 794.188H250.983L253.435 803.187H252.364L250.168 794.864H250.18L247.965 803.187H246.894ZM248.172 800.808V799.895H252.175V800.808H248.172ZM255.95 793.677V803.187H254.928V793.677H255.95ZM258.957 793.677V803.187H257.935V793.677H258.957Z" fill="#4E6964"/>
<rect x="270.85" y="790.71" width="51.9065" height="15.9533" rx="7.97664" fill="#FAF8F6"/>
<path d="M278.277 803.187L280.747 794.188H282.366L284.818 803.187H283.747L281.551 794.864H281.563L279.348 803.187H278.277ZM279.555 800.808V799.895H283.558V800.808H279.555ZM289.191 803.308C288.575 803.308 288.015 803.175 287.512 802.907C287.009 802.635 286.61 802.248 286.313 801.745C286.021 801.242 285.875 800.644 285.875 799.95C285.875 799.256 286.021 798.662 286.313 798.167C286.61 797.668 287.009 797.287 287.512 797.024C288.015 796.76 288.575 796.628 289.191 796.628C289.662 796.628 290.082 796.701 290.451 796.847C290.82 796.989 291.132 797.18 291.388 797.419C291.643 797.658 291.838 797.922 291.972 798.21C292.11 798.494 292.179 798.778 292.179 799.062C292.179 799.066 292.179 799.072 292.179 799.08C292.179 799.088 292.179 799.096 292.179 799.104H291.15C291.15 799.084 291.148 799.062 291.144 799.037C291.14 799.009 291.136 798.981 291.132 798.952C291.1 798.68 290.996 798.443 290.822 798.24C290.647 798.034 290.42 797.871 290.14 797.754C289.86 797.636 289.542 797.577 289.185 797.577C288.784 797.577 288.41 797.664 288.066 797.839C287.725 798.009 287.449 798.271 287.238 798.624C287.031 798.973 286.928 799.415 286.928 799.95C286.928 800.481 287.031 800.926 287.238 801.282C287.445 801.639 287.719 801.909 288.06 802.092C288.404 802.27 288.78 802.359 289.185 802.359C289.623 802.359 289.984 802.29 290.268 802.152C290.552 802.015 290.765 801.832 290.907 801.605C291.053 801.374 291.134 801.126 291.15 800.863H292.179C292.179 801.155 292.114 801.447 291.984 801.739C291.854 802.027 291.663 802.29 291.412 802.53C291.16 802.765 290.848 802.954 290.475 803.096C290.106 803.237 289.678 803.308 289.191 803.308ZM296.214 803.284C296.015 803.284 295.821 803.262 295.63 803.217C295.439 803.173 295.267 803.093 295.113 802.98C294.963 802.862 294.843 802.698 294.754 802.487C294.665 802.272 294.62 801.996 294.62 801.66C294.62 801.574 294.62 801.487 294.62 801.398C294.62 801.305 294.62 801.207 294.62 801.106V797.638H293.044V796.725H294.054C294.192 796.725 294.3 796.721 294.377 796.713C294.454 796.701 294.508 796.675 294.541 796.634C294.577 796.59 294.6 796.523 294.608 796.433C294.616 796.34 294.62 796.212 294.62 796.05V794.584H295.66V796.725H297.68V797.638H295.66V800.771C295.66 800.861 295.66 800.948 295.66 801.033C295.66 801.118 295.66 801.197 295.66 801.27C295.66 801.615 295.701 801.885 295.782 802.079C295.867 802.274 296.056 802.371 296.348 802.371C296.465 802.371 296.577 802.361 296.682 802.341C296.788 802.321 296.867 802.301 296.92 802.28V803.181C296.851 803.205 296.753 803.227 296.628 803.248C296.506 803.272 296.368 803.284 296.214 803.284ZM299.067 803.187V796.725H300.089V803.187H299.067ZM299.584 795.241C299.393 795.241 299.227 795.188 299.085 795.083C298.947 794.973 298.878 794.825 298.878 794.639C298.878 794.456 298.947 794.312 299.085 794.207C299.227 794.097 299.393 794.042 299.584 794.042C299.775 794.042 299.939 794.097 300.077 794.207C300.215 794.312 300.284 794.456 300.284 794.639C300.284 794.825 300.215 794.973 300.077 795.083C299.939 795.188 299.775 795.241 299.584 795.241ZM307.178 796.725L305.012 803.187H303.655L301.441 796.725H302.511L304.416 802.639H304.251L306.107 796.725H307.178ZM308.443 800.37V799.445H313.438L313.256 799.749C313.256 799.725 313.256 799.703 313.256 799.682C313.256 799.658 313.256 799.636 313.256 799.615C313.256 799.242 313.177 798.902 313.018 798.593C312.864 798.281 312.633 798.031 312.325 797.845C312.016 797.658 311.635 797.565 311.181 797.565C310.723 797.565 310.319 797.662 309.97 797.857C309.621 798.052 309.35 798.328 309.155 798.685C308.96 799.037 308.863 799.459 308.863 799.95C308.863 800.449 308.956 800.879 309.143 801.24C309.333 801.601 309.603 801.879 309.952 802.073C310.301 802.268 310.714 802.365 311.193 802.365C311.534 802.365 311.83 802.331 312.081 802.262C312.333 802.189 312.54 802.094 312.702 801.976C312.868 801.854 312.994 801.723 313.079 801.581C313.164 801.439 313.215 801.297 313.231 801.155H314.266C314.245 801.414 314.164 801.672 314.022 801.927C313.88 802.183 313.679 802.416 313.42 802.627C313.16 802.834 312.842 803 312.465 803.126C312.087 803.252 311.653 803.315 311.163 803.315C310.514 803.315 309.942 803.173 309.447 802.889C308.952 802.605 308.563 802.211 308.279 801.708C307.999 801.205 307.859 800.627 307.859 799.974C307.859 799.313 308.001 798.733 308.285 798.234C308.569 797.731 308.96 797.338 309.459 797.054C309.958 796.77 310.528 796.628 311.169 796.628C311.822 796.628 312.388 796.77 312.866 797.054C313.345 797.338 313.714 797.727 313.974 798.222C314.233 798.713 314.363 799.273 314.363 799.901C314.363 799.966 314.361 800.051 314.357 800.157C314.353 800.262 314.347 800.333 314.339 800.37H308.443Z" fill="#4E6964"/>
<rect x="326.233" y="790.71" width="44.9065" height="15.9533" rx="7.97664" fill="#FAF8F6"/>
<path d="M334.044 803.187V794.213H336.296C336.888 794.213 337.421 794.316 337.896 794.523C338.374 794.73 338.782 795.028 339.119 795.417C339.459 795.803 339.721 796.273 339.903 796.829C340.086 797.38 340.177 798.003 340.177 798.697C340.177 799.39 340.086 800.015 339.903 800.571C339.721 801.122 339.459 801.593 339.119 801.982C338.782 802.371 338.374 802.67 337.896 802.876C337.421 803.083 336.888 803.187 336.296 803.187H334.044ZM335.091 802.864L334.622 802.274H336.174C336.75 802.274 337.259 802.13 337.701 801.842C338.147 801.55 338.496 801.136 338.747 800.601C338.999 800.066 339.125 799.431 339.125 798.697C339.125 797.958 338.999 797.324 338.747 796.792C338.496 796.257 338.147 795.845 337.701 795.557C337.259 795.269 336.75 795.125 336.174 795.125H334.622L335.091 794.535V802.864ZM344.783 803.302C344.134 803.302 343.56 803.158 343.061 802.87C342.566 802.578 342.177 802.181 341.893 801.678C341.613 801.171 341.473 800.595 341.473 799.95C341.473 799.305 341.613 798.733 341.893 798.234C342.177 797.735 342.566 797.344 343.061 797.06C343.56 796.776 344.134 796.634 344.783 796.634C345.432 796.634 346.004 796.776 346.499 797.06C346.997 797.344 347.387 797.735 347.667 798.234C347.951 798.733 348.093 799.305 348.093 799.95C348.093 800.595 347.951 801.171 347.667 801.678C347.387 802.181 346.997 802.578 346.499 802.87C346.004 803.158 345.432 803.302 344.783 803.302ZM344.783 802.353C345.229 802.353 345.622 802.254 345.963 802.055C346.304 801.856 346.57 801.577 346.76 801.216C346.955 800.855 347.052 800.433 347.052 799.95C347.052 799.467 346.955 799.05 346.76 798.697C346.57 798.34 346.304 798.066 345.963 797.875C345.622 797.681 345.229 797.583 344.783 797.583C344.341 797.583 343.947 797.681 343.603 797.875C343.262 798.066 342.994 798.34 342.799 798.697C342.609 799.05 342.513 799.467 342.513 799.95C342.513 800.433 342.609 800.855 342.799 801.216C342.994 801.577 343.262 801.856 343.603 802.055C343.947 802.254 344.341 802.353 344.783 802.353ZM354.332 803.187V800.09C354.332 799.903 354.332 799.751 354.332 799.634C354.332 799.512 354.332 799.396 354.332 799.287C354.332 798.95 354.275 798.656 354.162 798.405C354.048 798.153 353.869 797.958 353.626 797.821C353.383 797.683 353.064 797.614 352.671 797.614C352.326 797.614 352.006 797.703 351.71 797.881C351.418 798.056 351.182 798.293 351.004 798.593C350.829 798.889 350.742 799.222 350.742 799.591L350.152 799.366C350.152 798.859 350.276 798.399 350.523 797.985C350.775 797.571 351.107 797.243 351.521 796.999C351.939 796.752 352.393 796.628 352.884 796.628C353.383 796.628 353.819 796.723 354.192 796.914C354.565 797.105 354.853 797.378 355.056 797.735C355.263 798.088 355.366 798.514 355.366 799.013C355.366 799.192 355.366 799.386 355.366 799.597C355.366 799.808 355.366 800.005 355.366 800.187V803.187H354.332ZM349.708 803.187V796.725H350.742V803.187H349.708ZM357.505 800.37V799.445H362.5L362.318 799.749C362.318 799.725 362.318 799.703 362.318 799.682C362.318 799.658 362.318 799.636 362.318 799.615C362.318 799.242 362.239 798.902 362.08 798.593C361.926 798.281 361.695 798.031 361.387 797.845C361.079 797.658 360.697 797.565 360.243 797.565C359.785 797.565 359.381 797.662 359.032 797.857C358.683 798.052 358.412 798.328 358.217 798.685C358.022 799.037 357.925 799.459 357.925 799.95C357.925 800.449 358.018 800.879 358.205 801.24C358.395 801.601 358.665 801.879 359.014 802.073C359.363 802.268 359.777 802.365 360.255 802.365C360.596 802.365 360.892 802.331 361.143 802.262C361.395 802.189 361.602 802.094 361.764 801.976C361.93 801.854 362.056 801.723 362.141 801.581C362.226 801.439 362.277 801.297 362.293 801.155H363.328C363.307 801.414 363.226 801.672 363.084 801.927C362.942 802.183 362.741 802.416 362.482 802.627C362.222 802.834 361.904 803 361.527 803.126C361.149 803.252 360.715 803.315 360.225 803.315C359.576 803.315 359.004 803.173 358.509 802.889C358.014 802.605 357.625 802.211 357.341 801.708C357.061 801.205 356.921 800.627 356.921 799.974C356.921 799.313 357.063 798.733 357.347 798.234C357.631 797.731 358.022 797.338 358.521 797.054C359.02 796.77 359.59 796.628 360.231 796.628C360.884 796.628 361.45 796.77 361.928 797.054C362.407 797.338 362.776 797.727 363.036 798.222C363.295 798.713 363.425 799.273 363.425 799.901C363.425 799.966 363.423 800.051 363.419 800.157C363.415 800.262 363.409 800.333 363.401 800.37H357.505Z" fill="#4E6964"/>
</g>
</g>
<defs>
<clipPath id="clip0_29_1002">
<rect width="415" height="858" fill="white"/>
</clipPath>
<clipPath id="clip1_29_1002">
<rect x="20" y="26" width="372" height="805" rx="32" fill="white"/>
</clipPath>
<clipPath id="clip2_29_1002">
<rect width="13.9065" height="13.9065" fill="white" transform="translate(40.8594 154.682)"/>
</clipPath>
<clipPath id="clip3_29_1002">
<rect width="13.9065" height="13.9065" fill="white" transform="translate(40.8594 196.495)"/>
</clipPath>
<clipPath id="clip4_29_1002">
<rect width="13.9065" height="13.9065" fill="white" transform="translate(40.8594 238.308)"/>
</clipPath>
<clipPath id="clip5_29_1002">
<rect width="13.9065" height="13.9065" fill="white" transform="translate(40.8594 280.121)"/>
</clipPath>
<clipPath id="clip6_29_1002">
<rect width="13.9065" height="13.9065" fill="white" transform="translate(40.8594 321.935)"/>
</clipPath>
</defs>
</svg>
