<svg width="1300" height="604" viewBox="0 0 1300 604" fill="none" xmlns="http://www.w3.org/2000/svg">
<g clip-path="url(#clip0_27_635)">
<path d="M0 16C0 7.16346 7.16344 0 16 0H1284C1292.84 0 1300 7.16344 1300 16V604H0V16Z" fill="white"/>
<path d="M0 16C0 7.16344 7.16344 0 16 0H1284C1292.84 0 1300 7.16344 1300 16V80H0V16Z" fill="#222222"/>
<path d="M22 28C26.4183 28 30 24.4183 30 20C30 15.5817 26.4183 12 22 12C17.5817 12 14 15.5817 14 20C14 24.4183 17.5817 28 22 28Z" fill="#FC625D"/>
<path d="M46 28C50.4183 28 54 24.4183 54 20C54 15.5817 50.4183 12 46 12C41.5817 12 38 15.5817 38 20C38 24.4183 41.5817 28 46 28Z" fill="#FDBC40"/>
<path d="M70 28C74.4183 28 78 24.4183 78 20C78 15.5817 74.4183 12 70 12C65.5817 12 62 15.5817 62 20C62 24.4183 65.5817 28 70 28Z" fill="#35CD4B"/>
<rect width="1300" height="40" transform="translate(0 40)" fill="#2C2C2C"/>
<path d="M14 55H30M14 67H30M14 61H30" stroke="#808080" stroke-width="2" stroke-linecap="round" stroke-linejoin="round"/>
<path d="M623.475 59H671.475" stroke="#6D6D6D" stroke-width="8" stroke-linecap="round" stroke-linejoin="round"/>
<path d="M683 58L686 61L689 58" stroke="#D1D5DB" stroke-width="1.5" stroke-linecap="round" stroke-linejoin="round"/>
<path d="M1276 72C1282.63 72 1288 66.6274 1288 60C1288 53.3726 1282.63 48 1276 48C1269.37 48 1264 53.3726 1264 60C1264 66.6274 1269.37 72 1276 72Z" fill="#FEFAED"/>
<path d="M1273.15 66V53.3941H1274.81V60.9512L1274.38 60.7495L1278.2 57.4347H1280.4L1276.26 61.1044L1276.68 60.3221L1280.4 66H1278.54L1275.54 61.2657L1275.94 61.3867L1274.59 62.5803L1274.81 61.7819V66H1273.15Z" fill="#243B53"/>
<rect width="73.5" height="40" transform="translate(144)" fill="#2C2C2C"/>
<path d="M160 20H184" stroke="#6D6D6D" stroke-width="8" stroke-linecap="round" stroke-linejoin="round"/>
<path d="M197 17.25L202.5 22.75" stroke="#6D6D6D" stroke-linecap="square"/>
<path d="M197 22.75L202.5 17.25" stroke="#6D6D6D" stroke-linecap="square"/>
<path d="M117.233 17.5358H113.383V10H117.233C119.31 10 121 11.6899 121 13.7675C121 15.845 119.31 17.5358 117.233 17.5358ZM114.617 16.3015H117.233C118.63 16.3015 119.766 15.1645 119.766 13.7683C119.766 12.3721 118.629 11.2351 117.233 11.2351H114.617V16.3015ZM114.617 17.5358H110.768C108.691 17.5358 107.001 15.8459 107.001 13.7683C107.001 11.6907 108.691 10 110.768 10H114.618V17.5358H114.617ZM110.768 11.2343C109.371 11.2343 108.235 12.3712 108.235 13.7675C108.235 15.1637 109.371 16.3015 110.768 16.3015H113.384V11.2343H110.768ZM114.617 23.8364H110.768C108.691 23.8364 107.001 22.1465 107.001 20.0689C107.001 17.9914 108.691 16.3015 110.768 16.3015H114.618V23.8364H114.617ZM110.768 17.5358C109.371 17.5358 108.235 18.6727 108.235 20.0689C108.235 21.4652 109.372 22.6021 110.768 22.6021H113.384V17.5358H110.768ZM110.788 30.1379C108.7 30.1379 107 28.448 107 26.3704C107 24.2928 108.69 22.6029 110.767 22.6029H114.617V26.3293C114.617 28.4295 112.9 30.1379 110.788 30.1379ZM110.768 23.8364C110.097 23.8373 109.453 24.1044 108.978 24.5793C108.503 25.0542 108.236 25.698 108.235 26.3696C108.235 27.7666 109.38 28.9027 110.789 28.9027C112.22 28.9027 113.385 27.7482 113.385 26.3284V23.8364H110.768ZM117.233 23.8364H117.15C115.073 23.8364 113.383 22.1465 113.383 20.0689C113.383 17.9914 115.073 16.3015 117.15 16.3015H117.233C119.31 16.3015 121 17.9914 121 20.0689C121 22.1465 119.31 23.8364 117.233 23.8364ZM117.151 17.5358C115.754 17.5358 114.618 18.6727 114.618 20.0689C114.618 21.4652 115.755 22.6021 117.151 22.6021H117.233C118.63 22.6021 119.767 21.4652 119.767 20.0689C119.767 18.6727 118.629 17.5358 117.233 17.5358H117.151Z" fill="#575757"/>
<g clip-path="url(#clip1_27_635)">
<rect x="471.245" y="175.678" width="310.025" height="625.065" fill="#EDE7DE"/>
<path d="M492.721 214.803H490.244V197.489H494.305L501.137 213.594L500.832 213.711V197.489H503.32V214.803H499.2L492.392 198.721L492.721 198.616V214.803ZM512.603 215.038C511.319 215.038 510.184 214.76 509.198 214.204C508.22 213.648 507.453 212.885 506.898 211.915C506.35 210.937 506.076 209.818 506.076 208.558C506.076 207.306 506.35 206.199 506.898 205.236C507.453 204.266 508.22 203.51 509.198 202.971C510.184 202.423 511.319 202.149 512.603 202.149C513.886 202.149 515.017 202.423 515.995 202.971C516.981 203.51 517.748 204.266 518.296 205.236C518.851 206.199 519.129 207.306 519.129 208.558C519.129 209.818 518.851 210.937 518.296 211.915C517.748 212.885 516.981 213.648 515.995 214.204C515.017 214.76 513.886 215.038 512.603 215.038ZM512.603 212.854C513.385 212.854 514.074 212.678 514.669 212.326C515.263 211.974 515.729 211.477 516.065 210.835C516.402 210.186 516.57 209.427 516.57 208.558C516.57 207.697 516.402 206.95 516.065 206.316C515.729 205.682 515.263 205.193 514.669 204.849C514.074 204.504 513.385 204.332 512.603 204.332C511.828 204.332 511.139 204.504 510.537 204.849C509.942 205.193 509.476 205.682 509.14 206.316C508.803 206.95 508.635 207.697 508.635 208.558C508.635 209.427 508.803 210.186 509.14 210.835C509.476 211.477 509.942 211.974 510.537 212.326C511.139 212.678 511.828 212.854 512.603 212.854ZM527.087 215.014C526.673 215.014 526.258 214.971 525.843 214.885C525.436 214.799 525.06 214.642 524.716 214.415C524.38 214.181 524.11 213.848 523.906 213.418C523.703 212.987 523.601 212.424 523.601 211.727C523.601 211.563 523.601 211.391 523.601 211.211C523.601 211.031 523.601 210.847 523.601 210.659V204.45H520.608V202.337H522.181C522.517 202.337 522.779 202.325 522.967 202.301C523.163 202.27 523.304 202.204 523.39 202.102C523.484 201.992 523.542 201.82 523.566 201.585C523.589 201.351 523.601 201.03 523.601 200.623V198.216H526.148V202.337H529.963V204.45H526.148V209.978C526.148 210.135 526.148 210.291 526.148 210.448C526.148 210.604 526.148 210.749 526.148 210.882C526.148 211.508 526.223 212.001 526.371 212.361C526.528 212.721 526.88 212.901 527.428 212.901C527.662 212.901 527.885 212.882 528.097 212.842C528.308 212.803 528.469 212.76 528.578 212.713V214.791C528.437 214.846 528.238 214.897 527.979 214.944C527.721 214.991 527.424 215.014 527.087 215.014ZM532.933 209.462V207.478H542.112L541.76 208.065C541.76 208.018 541.76 207.971 541.76 207.924C541.76 207.869 541.76 207.822 541.76 207.783C541.76 207.149 541.623 206.566 541.349 206.034C541.075 205.494 540.665 205.064 540.117 204.743C539.577 204.414 538.9 204.25 538.086 204.25C537.272 204.25 536.556 204.426 535.938 204.778C535.328 205.123 534.85 205.616 534.506 206.257C534.169 206.891 534.001 207.654 534.001 208.546C534.001 209.454 534.165 210.237 534.494 210.894C534.823 211.543 535.296 212.044 535.915 212.396C536.533 212.749 537.272 212.925 538.133 212.925C538.736 212.925 539.256 212.866 539.694 212.749C540.14 212.623 540.504 212.459 540.786 212.256C541.075 212.052 541.295 211.833 541.443 211.598C541.592 211.356 541.678 211.117 541.701 210.882H544.237C544.19 211.391 544.022 211.896 543.732 212.396C543.45 212.889 543.047 213.339 542.523 213.746C542.007 214.145 541.373 214.466 540.622 214.709C539.878 214.944 539.021 215.061 538.051 215.061C536.752 215.061 535.613 214.787 534.635 214.239C533.657 213.692 532.894 212.932 532.346 211.962C531.798 210.984 531.524 209.865 531.524 208.605C531.524 207.322 531.802 206.195 532.358 205.224C532.913 204.254 533.684 203.499 534.67 202.959C535.656 202.411 536.787 202.137 538.063 202.137C539.362 202.137 540.485 202.411 541.432 202.959C542.386 203.507 543.122 204.262 543.638 205.224C544.155 206.187 544.413 207.294 544.413 208.546C544.413 208.695 544.409 208.867 544.401 209.063C544.393 209.258 544.382 209.391 544.366 209.462H532.933ZM547.252 214.803V202.337H549.799V206.316L549.119 206.011C549.173 205.502 549.303 205.017 549.506 204.555C549.709 204.093 549.979 203.683 550.316 203.323C550.66 202.955 551.083 202.665 551.584 202.454C552.085 202.243 552.664 202.137 553.321 202.137C553.822 202.137 554.225 202.176 554.53 202.254C554.843 202.333 555.035 202.395 555.105 202.442L554.565 204.837C554.487 204.782 554.327 204.712 554.084 204.626C553.849 204.54 553.521 204.496 553.098 204.496C552.456 204.496 551.924 204.61 551.502 204.837C551.079 205.064 550.742 205.365 550.492 205.741C550.242 206.116 550.062 206.527 549.952 206.973C549.85 207.412 549.799 207.854 549.799 208.3V214.803H547.252Z" fill="#233831"/>
<rect x="738.099" y="193.13" width="29.3458" height="29.3458" rx="14.6729" fill="#2D483F"/>
<path d="M757.174 208.189C757.097 209.022 756.784 209.815 756.273 210.477C755.762 211.138 755.072 211.64 754.286 211.924C753.5 212.208 752.649 212.262 751.833 212.08C751.017 211.898 750.269 211.488 749.678 210.897C749.087 210.305 748.676 209.558 748.494 208.742C748.312 207.926 748.366 207.075 748.65 206.289C748.935 205.502 749.437 204.813 750.098 204.302C750.76 203.79 751.553 203.478 752.385 203.401C751.898 204.06 751.663 204.873 751.724 205.691C751.785 206.508 752.138 207.277 752.718 207.857C753.298 208.437 754.066 208.789 754.884 208.85C755.702 208.911 756.514 208.677 757.174 208.189V208.189Z" stroke="#FAF8F6" stroke-width="1.46729" stroke-linecap="round" stroke-linejoin="round"/>
<rect x="482.79" y="234.214" width="290.523" height="29.3458" rx="11.7383" fill="#FAF8F6"/>
<path d="M491.595 247.42L494.529 250.354L497.464 247.42" stroke="#4E6964" stroke-width="1.46729" stroke-linecap="round" stroke-linejoin="round"/>
<rect x="506.267" y="244.485" width="63.8271" height="8.80373" rx="4.40186" fill="#4E6964"/>
<rect x="482.79" y="275.298" width="290.523" height="29.3458" rx="11.7383" fill="#F6F3EF" fill-opacity="0.7"/>
<g clip-path="url(#clip2_27_635)">
<path d="M494.529 294.862C497.23 294.862 499.42 292.672 499.42 289.971C499.42 287.27 497.23 285.08 494.529 285.08C491.827 285.08 489.638 287.27 489.638 289.971C489.638 292.672 491.827 294.862 494.529 294.862Z" stroke="#4E6964" stroke-width="1.46729" stroke-linecap="round" stroke-linejoin="round"/>
</g>
<rect x="506.267" y="285.569" width="123.252" height="8.80373" rx="4.40186" fill="#4E6964"/>
<rect x="755.706" y="284.102" width="11.7383" height="11.7383" rx="5.86915" fill="#FAF8F6"/>
<path d="M763.776 287.77L759.374 292.172" stroke="#2D483F" stroke-width="1.46729" stroke-linecap="round" stroke-linejoin="round"/>
<path d="M759.374 287.77L763.776 292.172" stroke="#2D483F" stroke-width="1.46729" stroke-linecap="round" stroke-linejoin="round"/>
<rect x="482.79" y="313.448" width="290.523" height="29.3458" rx="11.7383" fill="#FAF8F6"/>
<g clip-path="url(#clip3_27_635)">
<path d="M494.529 333.011C497.23 333.011 499.42 330.821 499.42 328.12C499.42 325.419 497.23 323.229 494.529 323.229C491.827 323.229 489.638 325.419 489.638 328.12C489.638 330.821 491.827 333.011 494.529 333.011Z" stroke="#4E6964" stroke-width="1.46729" stroke-linecap="round" stroke-linejoin="round"/>
</g>
<rect x="506.267" y="323.719" width="108.579" height="8.80373" rx="4.40186" fill="#4E6964"/>
<rect x="482.79" y="351.597" width="290.523" height="29.3458" rx="11.7383" fill="#FAF8F6"/>
<g clip-path="url(#clip4_27_635)">
<path d="M494.529 371.161C497.23 371.161 499.42 368.971 499.42 366.27C499.42 363.569 497.23 361.379 494.529 361.379C491.827 361.379 489.638 363.569 489.638 366.27C489.638 368.971 491.827 371.161 494.529 371.161Z" stroke="#4E6964" stroke-width="1.46729" stroke-linecap="round" stroke-linejoin="round"/>
</g>
<rect x="506.267" y="361.868" width="86.5701" height="8.80373" rx="4.40186" fill="#4E6964"/>
<rect x="482.79" y="389.747" width="290.523" height="29.3458" rx="11.7383" fill="#FAF8F6"/>
<g clip-path="url(#clip5_27_635)">
<path d="M494.529 409.31C497.23 409.31 499.42 407.12 499.42 404.419C499.42 401.718 497.23 399.528 494.529 399.528C491.827 399.528 489.638 401.718 489.638 404.419C489.638 407.12 491.827 409.31 494.529 409.31Z" stroke="#4E6964" stroke-width="1.46729" stroke-linecap="round" stroke-linejoin="round"/>
</g>
<rect x="506.267" y="400.018" width="86.5701" height="8.80373" rx="4.40186" fill="#4E6964"/>
<rect x="482.79" y="427.896" width="290.523" height="29.3458" rx="11.7383" fill="#F6F3EF"/>
<g clip-path="url(#clip6_27_635)">
<path d="M499.42 442.119V442.569C499.419 443.624 499.078 444.65 498.446 445.495C497.814 446.339 496.927 446.957 495.915 447.256C494.904 447.556 493.823 447.52 492.834 447.154C491.844 446.789 491 446.113 490.426 445.228C489.852 444.344 489.579 443.297 489.648 442.244C489.718 441.192 490.125 440.19 490.811 439.388C491.496 438.587 492.422 438.028 493.451 437.796C494.48 437.563 495.556 437.669 496.519 438.099" stroke="#4E6964" stroke-width="1.46729" stroke-linecap="round" stroke-linejoin="round"/>
<path d="M499.419 438.656L494.528 443.552L493.061 442.085" stroke="#4E6964" stroke-width="1.46729" stroke-linecap="round" stroke-linejoin="round"/>
</g>
<rect x="506.267" y="438.167" width="79.2337" height="8.80373" rx="4.40186" fill="#4E6964" fill-opacity="0.8"/>
<g opacity="0.5">
<line x1="512.136" y1="442.569" x2="579.631" y2="442.569" stroke="#D0E9E0" stroke-width="1.46729"/>
</g>
</g>
<rect x="471.783" y="176.216" width="308.949" height="623.988" stroke="#18A0FB" stroke-width="1.07648"/>
<rect x="469.538" y="173.598" width="7.53534" height="7.53533" fill="white"/>
<rect x="469.538" y="173.598" width="7.53534" height="7.53533" stroke="#18A0FB" stroke-width="1.07648"/>
<rect x="776.467" y="173.598" width="7.53534" height="7.53533" fill="white"/>
<rect x="776.467" y="173.598" width="7.53534" height="7.53533" stroke="#18A0FB" stroke-width="1.07648"/>
<g clip-path="url(#clip7_27_635)">
<rect x="109.172" y="176.17" width="310.025" height="616.423" fill="#233831"/>
<path d="M130.541 214.004H128.099V196.93H132.104L138.841 212.812L138.54 212.928V196.93H140.995V214.004H136.931L130.217 198.145L130.541 198.041V214.004ZM150.149 214.236C148.883 214.236 147.764 213.962 146.791 213.414C145.827 212.866 145.071 212.114 144.523 211.157C143.982 210.192 143.712 209.088 143.712 207.846C143.712 206.611 143.982 205.519 144.523 204.57C145.071 203.613 145.827 202.868 146.791 202.336C147.764 201.796 148.883 201.525 150.149 201.525C151.414 201.525 152.529 201.796 153.494 202.336C154.466 202.868 155.223 203.613 155.763 204.57C156.311 205.519 156.585 206.611 156.585 207.846C156.585 209.088 156.311 210.192 155.763 211.157C155.223 212.114 154.466 212.866 153.494 213.414C152.529 213.962 151.414 214.236 150.149 214.236ZM150.149 212.083C150.92 212.083 151.599 211.909 152.186 211.562C152.772 211.215 153.232 210.725 153.563 210.092C153.895 209.451 154.061 208.703 154.061 207.846C154.061 206.997 153.895 206.26 153.563 205.635C153.232 205.01 152.772 204.527 152.186 204.188C151.599 203.848 150.92 203.679 150.149 203.679C149.385 203.679 148.705 203.848 148.111 204.188C147.525 204.527 147.065 205.01 146.734 205.635C146.402 206.26 146.236 206.997 146.236 207.846C146.236 208.703 146.402 209.451 146.734 210.092C147.065 210.725 147.525 211.215 148.111 211.562C148.705 211.909 149.385 212.083 150.149 212.083ZM164.433 214.213C164.024 214.213 163.615 214.17 163.206 214.085C162.805 214.001 162.434 213.846 162.095 213.622C161.763 213.391 161.497 213.063 161.296 212.638C161.095 212.214 160.995 211.658 160.995 210.971C160.995 210.809 160.995 210.64 160.995 210.462C160.995 210.285 160.995 210.103 160.995 209.918V203.794H158.043V201.711H159.594C159.926 201.711 160.185 201.699 160.37 201.676C160.563 201.645 160.702 201.579 160.787 201.479C160.879 201.371 160.937 201.201 160.96 200.97C160.983 200.738 160.995 200.422 160.995 200.021V197.647H163.507V201.711H167.269V203.794H163.507V209.247C163.507 209.401 163.507 209.555 163.507 209.71C163.507 209.864 163.507 210.007 163.507 210.138C163.507 210.755 163.58 211.242 163.727 211.597C163.881 211.952 164.228 212.129 164.769 212.129C165 212.129 165.22 212.11 165.429 212.071C165.637 212.033 165.795 211.99 165.903 211.944V213.993C165.764 214.047 165.567 214.097 165.313 214.143C165.058 214.19 164.765 214.213 164.433 214.213ZM170.198 208.737V206.781H179.25L178.903 207.36C178.903 207.313 178.903 207.267 178.903 207.221C178.903 207.167 178.903 207.121 178.903 207.082C178.903 206.457 178.768 205.882 178.498 205.357C178.228 204.825 177.823 204.4 177.282 204.084C176.75 203.76 176.082 203.598 175.28 203.598C174.477 203.598 173.771 203.771 173.161 204.118C172.559 204.458 172.089 204.944 171.749 205.577C171.417 206.202 171.251 206.955 171.251 207.834C171.251 208.73 171.413 209.501 171.737 210.15C172.062 210.79 172.528 211.284 173.138 211.631C173.748 211.979 174.477 212.152 175.326 212.152C175.92 212.152 176.433 212.094 176.866 211.979C177.306 211.855 177.664 211.693 177.942 211.492C178.228 211.292 178.444 211.076 178.59 210.844C178.737 210.605 178.822 210.37 178.845 210.138H181.346C181.299 210.64 181.133 211.137 180.848 211.631C180.57 212.118 180.173 212.561 179.655 212.963C179.146 213.356 178.521 213.673 177.78 213.912C177.047 214.143 176.202 214.259 175.245 214.259C173.964 214.259 172.841 213.989 171.876 213.449C170.912 212.909 170.159 212.16 169.619 211.203C169.079 210.238 168.809 209.135 168.809 207.892C168.809 206.627 169.083 205.515 169.631 204.558C170.179 203.601 170.939 202.857 171.911 202.324C172.883 201.784 173.999 201.514 175.257 201.514C176.538 201.514 177.645 201.784 178.579 202.324C179.52 202.864 180.246 203.609 180.755 204.558C181.265 205.508 181.519 206.6 181.519 207.834C181.519 207.981 181.515 208.151 181.508 208.344C181.5 208.537 181.488 208.668 181.473 208.737H170.198ZM184.319 214.004V201.711H186.831V205.635L186.16 205.334C186.214 204.832 186.341 204.354 186.542 203.899C186.742 203.443 187.009 203.038 187.341 202.683C187.68 202.32 188.097 202.035 188.591 201.826C189.085 201.618 189.656 201.514 190.304 201.514C190.798 201.514 191.195 201.552 191.496 201.63C191.805 201.707 191.994 201.769 192.064 201.815L191.531 204.176C191.454 204.122 191.296 204.053 191.056 203.968C190.825 203.883 190.501 203.841 190.084 203.841C189.451 203.841 188.926 203.953 188.51 204.176C188.093 204.4 187.761 204.697 187.514 205.068C187.267 205.438 187.09 205.843 186.982 206.283C186.881 206.715 186.831 207.151 186.831 207.591V214.004H184.319Z" fill="#D0E9E0"/>
<rect x="372.527" y="193.534" width="28.9401" height="28.9401" rx="14.47" fill="#8FDCC2"/>
<g clip-path="url(#clip8_27_635)">
<path d="M386.996 212.345V213.31" stroke="#233831" stroke-width="1.447" stroke-linecap="round" stroke-linejoin="round"/>
<path d="M390.064 211.072L390.749 211.757" stroke="#233831" stroke-width="1.447" stroke-linecap="round" stroke-linejoin="round"/>
<path d="M383.244 211.757L383.929 211.072" stroke="#233831" stroke-width="1.447" stroke-linecap="round" stroke-linejoin="round"/>
<path d="M391.338 208.004H392.303" stroke="#233831" stroke-width="1.447" stroke-linecap="round" stroke-linejoin="round"/>
<path d="M381.691 208.005H382.656" stroke="#233831" stroke-width="1.447" stroke-linecap="round" stroke-linejoin="round"/>
<path d="M386.998 210.416C388.33 210.416 389.409 209.336 389.409 208.004C389.409 206.673 388.33 205.593 386.998 205.593C385.666 205.593 384.586 206.673 384.586 208.004C384.586 209.336 385.666 210.416 386.998 210.416Z" stroke="#233831" stroke-width="1.447" stroke-linecap="round" stroke-linejoin="round"/>
<path d="M390.064 204.937L390.749 204.252" stroke="#233831" stroke-width="1.447" stroke-linecap="round" stroke-linejoin="round"/>
<path d="M383.244 204.251L383.929 204.936" stroke="#233831" stroke-width="1.447" stroke-linecap="round" stroke-linejoin="round"/>
<path d="M386.996 202.699V203.663" stroke="#233831" stroke-width="1.447" stroke-linecap="round" stroke-linejoin="round"/>
</g>
<rect x="120.748" y="234.051" width="286.507" height="28.9401" rx="11.576" fill="#2D483F"/>
<path d="M129.431 247.074L132.325 249.968L135.219 247.074" stroke="#D0E9E0" stroke-width="1.447" stroke-linecap="round" stroke-linejoin="round"/>
<rect x="143.9" y="244.18" width="62.9447" height="8.68202" rx="4.34101" fill="#73B19D"/>
<rect x="120.748" y="274.567" width="286.507" height="28.9401" rx="11.576" fill="#657E75" fill-opacity="0.7"/>
<g clip-path="url(#clip9_27_635)">
<path d="M132.324 293.86C134.988 293.86 137.148 291.701 137.148 289.037C137.148 286.373 134.988 284.213 132.324 284.213C129.66 284.213 127.501 286.373 127.501 289.037C127.501 291.701 129.66 293.86 132.324 293.86Z" stroke="#D0E9E0" stroke-width="1.447" stroke-linecap="round" stroke-linejoin="round"/>
</g>
<rect x="143.9" y="284.696" width="121.548" height="8.68202" rx="4.34101" fill="#D0E9E0" fill-opacity="0.8"/>
<rect x="389.891" y="283.249" width="11.576" height="11.576" rx="5.78801" fill="#657E75"/>
<path d="M397.851 286.866L393.51 291.207" stroke="#8DD9BF" stroke-width="1.447" stroke-linecap="round" stroke-linejoin="round"/>
<path d="M393.51 286.866L397.851 291.207" stroke="#8DD9BF" stroke-width="1.447" stroke-linecap="round" stroke-linejoin="round"/>
<rect x="120.748" y="312.189" width="286.507" height="28.9401" rx="11.576" fill="#2D483F"/>
<g clip-path="url(#clip10_27_635)">
<path d="M132.324 331.482C134.988 331.482 137.148 329.323 137.148 326.659C137.148 323.995 134.988 321.835 132.324 321.835C129.66 321.835 127.501 323.995 127.501 326.659C127.501 329.323 129.66 331.482 132.324 331.482Z" stroke="#D0E9E0" stroke-width="1.447" stroke-linecap="round" stroke-linejoin="round"/>
</g>
<rect x="143.9" y="322.318" width="107.078" height="8.68202" rx="4.34101" fill="#D0E9E0" fill-opacity="0.8"/>
<rect x="120.748" y="349.811" width="286.507" height="28.9401" rx="11.576" fill="#2D483F"/>
<g clip-path="url(#clip11_27_635)">
<path d="M132.324 369.104C134.988 369.104 137.148 366.945 137.148 364.281C137.148 361.617 134.988 359.458 132.324 359.458C129.66 359.458 127.501 361.617 127.501 364.281C127.501 366.945 129.66 369.104 132.324 369.104Z" stroke="#D0E9E0" stroke-width="1.447" stroke-linecap="round" stroke-linejoin="round"/>
</g>
<rect x="143.9" y="359.94" width="85.3733" height="8.68202" rx="4.34101" fill="#D0E9E0" fill-opacity="0.8"/>
<rect x="120.748" y="387.433" width="286.507" height="28.9401" rx="11.576" fill="#2D483F"/>
<g clip-path="url(#clip12_27_635)">
<path d="M132.324 406.726C134.988 406.726 137.148 404.567 137.148 401.903C137.148 399.239 134.988 397.08 132.324 397.08C129.66 397.08 127.501 399.239 127.501 401.903C127.501 404.567 129.66 406.726 132.324 406.726Z" stroke="#D0E9E0" stroke-width="1.447" stroke-linecap="round" stroke-linejoin="round"/>
</g>
<rect x="143.9" y="397.562" width="85.3733" height="8.68202" rx="4.34101" fill="#D0E9E0" fill-opacity="0.8"/>
<rect x="120.748" y="425.055" width="286.507" height="28.9401" rx="11.576" fill="#526961" fill-opacity="0.5"/>
<g clip-path="url(#clip13_27_635)">
<path d="M137.148 439.081V439.525C137.147 440.565 136.81 441.577 136.188 442.41C135.565 443.243 134.689 443.853 133.692 444.147C132.694 444.442 131.628 444.407 130.653 444.047C129.677 443.686 128.844 443.02 128.278 442.147C127.712 441.275 127.443 440.243 127.511 439.205C127.58 438.167 127.982 437.179 128.658 436.388C129.334 435.598 130.247 435.047 131.261 434.817C132.276 434.588 133.337 434.693 134.287 435.116" stroke="#D0E9E0" stroke-width="1.447" stroke-linecap="round" stroke-linejoin="round"/>
<path d="M137.147 435.666L132.324 440.494L130.877 439.047" stroke="#F8FAFC" stroke-width="1.447" stroke-linecap="round" stroke-linejoin="round"/>
</g>
<rect x="143.9" y="435.184" width="78.1383" height="8.68202" rx="4.34101" fill="#D0E9E0" fill-opacity="0.5"/>
<g opacity="0.5">
<line x1="149.688" y1="439.525" x2="216.251" y2="439.525" stroke="#D0E9E0" stroke-width="1.447"/>
</g>
</g>
<rect x="109.71" y="176.709" width="308.949" height="615.347" stroke="#18A0FB" stroke-width="1.07648"/>
<rect x="107.541" y="173.599" width="7.53534" height="7.53533" fill="white"/>
<rect x="107.541" y="173.599" width="7.53534" height="7.53533" stroke="#18A0FB" stroke-width="1.07648"/>
<rect x="414.47" y="173.598" width="7.53534" height="7.53533" fill="white"/>
<rect x="414.47" y="173.598" width="7.53534" height="7.53533" stroke="#18A0FB" stroke-width="1.07648"/>
</g>
<defs>
<clipPath id="clip0_27_635">
<path d="M0 16C0 7.16346 7.16344 0 16 0H1284C1292.84 0 1300 7.16344 1300 16V604H0V16Z" fill="white"/>
</clipPath>
<clipPath id="clip1_27_635">
<rect x="471.245" y="175.678" width="310.025" height="625.065" fill="white"/>
</clipPath>
<clipPath id="clip2_27_635">
<rect width="11.7383" height="11.7383" fill="white" transform="translate(488.659 284.102)"/>
</clipPath>
<clipPath id="clip3_27_635">
<rect width="11.7383" height="11.7383" fill="white" transform="translate(488.659 322.251)"/>
</clipPath>
<clipPath id="clip4_27_635">
<rect width="11.7383" height="11.7383" fill="white" transform="translate(488.659 360.401)"/>
</clipPath>
<clipPath id="clip5_27_635">
<rect width="11.7383" height="11.7383" fill="white" transform="translate(488.659 398.55)"/>
</clipPath>
<clipPath id="clip6_27_635">
<rect width="11.7383" height="11.7383" fill="white" transform="translate(488.659 436.7)"/>
</clipPath>
<clipPath id="clip7_27_635">
<rect x="109.172" y="176.17" width="310.025" height="616.423" fill="white"/>
</clipPath>
<clipPath id="clip8_27_635">
<rect width="11.576" height="11.576" fill="white" transform="translate(381.209 202.217)"/>
</clipPath>
<clipPath id="clip9_27_635">
<rect width="11.576" height="11.576" fill="white" transform="translate(126.536 283.249)"/>
</clipPath>
<clipPath id="clip10_27_635">
<rect width="11.576" height="11.576" fill="white" transform="translate(126.536 320.871)"/>
</clipPath>
<clipPath id="clip11_27_635">
<rect width="11.576" height="11.576" fill="white" transform="translate(126.536 358.493)"/>
</clipPath>
<clipPath id="clip12_27_635">
<rect width="11.576" height="11.576" fill="white" transform="translate(126.536 396.115)"/>
</clipPath>
<clipPath id="clip13_27_635">
<rect width="11.576" height="11.576" fill="white" transform="translate(126.536 433.737)"/>
</clipPath>
</defs>
</svg>
