<svg width="36" height="36" viewBox="0 0 36 36" fill="none" xmlns="http://www.w3.org/2000/svg">
<rect width="36" height="36" rx="8" fill="#016457"/>
<path d="M12.184 27H10.192V9.3H13.54L21.052 25.824L20.896 25.92V9.3H22.888V27H19.492L12.004 10.5L12.184 10.416V27ZM27.6621 27.312C27.2701 27.312 26.9381 27.18 26.6661 26.916C26.4021 26.644 26.2701 26.312 26.2701 25.92C26.2701 25.536 26.4021 25.208 26.6661 24.936C26.9381 24.664 27.2701 24.528 27.6621 24.528C28.0461 24.528 28.3741 24.664 28.6461 24.936C28.9181 25.208 29.0541 25.536 29.0541 25.92C29.0541 26.312 28.9181 26.644 28.6461 26.916C28.3741 27.18 28.0461 27.312 27.6621 27.312Z" fill="#D0E9E0"/>
</svg>
